<svg width="34" height="60" viewBox="0 0 34 60" fill="none" xmlns="http://www.w3.org/2000/svg">
<path d="M4.35849 12.1508C3.64738 7.88406 6.93768 4 11.2632 4H22.7368C27.0624 4 30.3527 7.88408 29.6416 12.1508L27.9749 22.1508C27.4123 25.5261 24.492 28 21.0701 28H12.9299C9.50802 28 6.58769 25.5261 6.02514 22.1508L4.35849 12.1508Z" fill="#161616"/>
<path d="M11.2632 2.25C5.85629 2.25 1.74341 7.10507 2.6323 12.4385L4.29895 22.4385C5.00213 26.6576 8.65255 29.75 12.9299 29.75H21.0701C25.3475 29.75 28.9979 26.6576 29.7011 22.4385L31.3678 12.4385C32.2567 7.1051 28.1438 2.25 22.7368 2.25H11.2632Z" stroke="url(#paint0_linear_1260_98126)" stroke-opacity="0.69" stroke-width="3.5"/>
<path d="M14.4307 23.9543C14.3087 23.9049 14.2073 23.818 14.1426 23.7073C14.0778 23.5966 14.0533 23.4684 14.073 23.3429L15.1579 16.5715H12.2788C12.1875 16.5739 12.0969 16.5561 12.0139 16.5196C11.931 16.483 11.8579 16.4287 11.8003 16.3608C11.7427 16.2929 11.7021 16.2132 11.6817 16.1278C11.6613 16.0425 11.6617 15.9539 11.6827 15.8687L13.471 8.4402C13.5025 8.31235 13.5789 8.19881 13.6875 8.11867C13.796 8.03853 13.9301 7.99669 14.0671 8.0002H20.028C20.117 7.99991 20.205 8.01875 20.2855 8.05534C20.3659 8.09193 20.4368 8.14533 20.4929 8.21163C20.5498 8.27868 20.5901 8.35722 20.6108 8.44135C20.6314 8.52548 20.6319 8.61301 20.6121 8.69734L19.5809 13.143H22.4123C22.5241 13.1428 22.6336 13.1727 22.7284 13.2292C22.8233 13.2858 22.8997 13.3668 22.9488 13.463C22.9915 13.5553 23.008 13.6568 22.9964 13.7572C22.9849 13.8576 22.9459 13.9532 22.8832 14.0344L15.1341 23.7486C15.0817 23.823 15.0118 23.8845 14.93 23.9282C14.8481 23.9719 14.7567 23.9965 14.6632 24C14.5834 23.9986 14.5046 23.9831 14.4307 23.9543ZM18.0907 14.2858L19.2829 9.14305H14.5439L13.0299 15.4287H16.5528L15.605 21.3029L21.2202 14.2858H18.0907Z" fill="#4589FF"/>
<g filter="url(#filter0_d_1260_98126)">
<circle cx="17" cy="43" r="3" fill="white"/>
</g>
<defs>
<filter id="filter0_d_1260_98126" x="2" y="30" width="30" height="30" filterUnits="userSpaceOnUse" color-interpolation-filters="sRGB">
<feFlood flood-opacity="0" result="BackgroundImageFix"/>
<feColorMatrix in="SourceAlpha" type="matrix" values="0 0 0 0 0 0 0 0 0 0 0 0 0 0 0 0 0 0 127 0" result="hardAlpha"/>
<feMorphology radius="2" operator="dilate" in="SourceAlpha" result="effect1_dropShadow_1260_98126"/>
<feOffset dy="2"/>
<feGaussianBlur stdDeviation="5"/>
<feComposite in2="hardAlpha" operator="out"/>
<feColorMatrix type="matrix" values="0 0 0 0 0.270588 0 0 0 0 0.537255 0 0 0 0 1 0 0 0 1 0"/>
<feBlend mode="normal" in2="BackgroundImageFix" result="effect1_dropShadow_1260_98126"/>
<feBlend mode="normal" in="SourceGraphic" in2="effect1_dropShadow_1260_98126" result="shape"/>
</filter>
<linearGradient id="paint0_linear_1260_98126" x1="17" y1="31" x2="17" y2="-2" gradientUnits="userSpaceOnUse">
<stop offset="0.489583" stop-color="#4589FF"/>
<stop offset="1" stop-color="#2F5EAF"/>
</linearGradient>
</defs>
</svg>
