<svg width="34" height="60" viewBox="0 0 34 60" fill="none" xmlns="http://www.w3.org/2000/svg">
<path d="M11.2633 2.25C5.85629 2.25 1.74341 7.10507 2.63231 12.4385L4.29896 22.4385C5.00214 26.6576 8.65256 29.75 12.9299 29.75H21.0701C25.3475 29.75 28.9979 26.6576 29.7011 22.4385L31.3678 12.4385C32.2567 7.1051 28.1438 2.25 22.7368 2.25H11.2633Z" fill="#161616" stroke="#F1C21B" stroke-width="3.5"/>
<g filter="url(#filter0_d_1260_98136)">
<circle cx="17" cy="43" r="3" fill="white"/>
</g>
<rect width="16" height="16" transform="translate(9 8)" fill="white" style="mix-blend-mode:multiply"/>
<path d="M20 15C19.2972 15.0002 18.607 15.187 18 15.5413V12.5C18 11.5717 17.6313 10.6815 16.9749 10.0251C16.3185 9.36875 15.4283 9 14.5 9C13.5717 9 12.6815 9.36875 12.0251 10.0251C11.3687 10.6815 11 11.5717 11 12.5V19.5C10.9999 20.2133 11.2178 20.9096 11.6244 21.4956C12.031 22.0816 12.607 22.5293 13.2753 22.7789C13.9435 23.0284 14.672 23.0678 15.3632 22.8917C16.0544 22.7157 16.6753 22.3327 17.1427 21.7939C17.6038 22.2654 18.1744 22.6156 18.8036 22.8132C19.4328 23.0108 20.1012 23.0497 20.7491 22.9264C21.3969 22.8031 22.0043 22.5215 22.5169 22.1066C23.0296 21.6917 23.4317 21.1565 23.6874 20.5485C23.943 19.9406 24.0444 19.2789 23.9823 18.6223C23.9203 17.9657 23.6968 17.3346 23.3317 16.7854C22.9667 16.2361 22.4715 15.7856 21.8902 15.4741C21.3089 15.1626 20.6595 14.9997 20 15ZM20 16C20.7083 16.0012 21.3934 16.2527 21.9342 16.7102C22.4749 17.1677 22.8365 17.8017 22.955 18.5H17.045C17.1635 17.8017 17.5251 17.1677 18.0658 16.7102C18.6066 16.2527 19.2917 16.0012 20 16ZM12 12.5C12 11.837 12.2634 11.2011 12.7322 10.7322C13.2011 10.2634 13.837 10 14.5 10C15.163 10 15.7989 10.2634 16.2678 10.7322C16.7366 11.2011 17 11.837 17 12.5V15.5H12V12.5ZM14.5 22C13.8372 21.9992 13.2018 21.7356 12.7331 21.2669C12.2644 20.7982 12.0008 20.1628 12 19.5V16.5H16.8825C16.3806 17.1219 16.0776 17.8805 16.013 18.6771C15.9484 19.4736 16.1252 20.2711 16.5204 20.9657C16.2894 21.2857 15.9859 21.5462 15.6347 21.726C15.2834 21.9058 14.8946 21.9997 14.5 22ZM20 22C19.2917 21.9988 18.6066 21.7473 18.0658 21.2898C17.5251 20.8323 17.1635 20.1983 17.045 19.5H22.955C22.8365 20.1983 22.4749 20.8323 21.9342 21.2898C21.3934 21.7473 20.7083 21.9988 20 22Z" fill="#F1C21B"/>
<defs>
<filter id="filter0_d_1260_98136" x="2" y="30" width="30" height="30" filterUnits="userSpaceOnUse" color-interpolation-filters="sRGB">
<feFlood flood-opacity="0" result="BackgroundImageFix"/>
<feColorMatrix in="SourceAlpha" type="matrix" values="0 0 0 0 0 0 0 0 0 0 0 0 0 0 0 0 0 0 127 0" result="hardAlpha"/>
<feMorphology radius="2" operator="dilate" in="SourceAlpha" result="effect1_dropShadow_1260_98136"/>
<feOffset dy="2"/>
<feGaussianBlur stdDeviation="5"/>
<feComposite in2="hardAlpha" operator="out"/>
<feColorMatrix type="matrix" values="0 0 0 0 0.945098 0 0 0 0 0.760784 0 0 0 0 0.105882 0 0 0 1 0"/>
<feBlend mode="normal" in2="BackgroundImageFix" result="effect1_dropShadow_1260_98136"/>
<feBlend mode="normal" in="SourceGraphic" in2="effect1_dropShadow_1260_98136" result="shape"/>
</filter>
</defs>
</svg>
