<svg width="34" height="60" viewBox="0 0 34 60" fill="none" xmlns="http://www.w3.org/2000/svg">
<path d="M11.2633 2.25C5.85629 2.25 1.74341 7.10507 2.63231 12.4385L4.29896 22.4385C5.00214 26.6576 8.65256 29.75 12.9299 29.75H21.0701C25.3475 29.75 28.9979 26.6576 29.7011 22.4385L31.3678 12.4385C32.2567 7.1051 28.1438 2.25 22.7368 2.25H11.2633Z" fill="#161616" stroke="#198038" stroke-width="3.5"/>
<g filter="url(#filter0_d_1260_98132)">
<circle cx="17" cy="43" r="3" fill="white"/>
</g>
<rect width="16" height="16" transform="translate(9 8)" fill="white" style="mix-blend-mode:multiply"/>
<path d="M24 13.3401L23 10.3401C22.9652 10.2366 22.8975 10.1473 22.8072 10.0859C22.7169 10.0245 22.609 9.99438 22.5 10.0001H11.5C11.391 9.99438 11.2831 10.0245 11.1928 10.0859C11.1025 10.1473 11.0348 10.2366 11 10.3401L10 13.3401C9.9928 13.3932 9.9928 13.447 10 13.5001V16.5001C10 16.6327 10.0527 16.7599 10.1464 16.8536C10.2402 16.9474 10.3674 17.0001 10.5 17.0001H11V22.0001H12V17.0001H15V22.0001H23V17.0001H23.5C23.6326 17.0001 23.7598 16.9474 23.8536 16.8536C23.9473 16.7599 24 16.6327 24 16.5001V13.5001C24.0072 13.447 24.0072 13.3932 24 13.3401ZM22 21.0001H16V17.0001H22V21.0001ZM23 16.0001H21V14.0001H20V16.0001H17.5V14.0001H16.5V16.0001H14V14.0001H13V16.0001H11V13.5801L11.86 11.0001H22.14L23 13.5801V16.0001Z" fill="#198038"/>
<defs>
<filter id="filter0_d_1260_98132" x="2" y="30" width="30" height="30" filterUnits="userSpaceOnUse" color-interpolation-filters="sRGB">
<feFlood flood-opacity="0" result="BackgroundImageFix"/>
<feColorMatrix in="SourceAlpha" type="matrix" values="0 0 0 0 0 0 0 0 0 0 0 0 0 0 0 0 0 0 127 0" result="hardAlpha"/>
<feMorphology radius="2" operator="dilate" in="SourceAlpha" result="effect1_dropShadow_1260_98132"/>
<feOffset dy="2"/>
<feGaussianBlur stdDeviation="5"/>
<feComposite in2="hardAlpha" operator="out"/>
<feColorMatrix type="matrix" values="0 0 0 0 0.0980392 0 0 0 0 0.501961 0 0 0 0 0.219608 0 0 0 1 0"/>
<feBlend mode="normal" in2="BackgroundImageFix" result="effect1_dropShadow_1260_98132"/>
<feBlend mode="normal" in="SourceGraphic" in2="effect1_dropShadow_1260_98132" result="shape"/>
</filter>
</defs>
</svg>
