<svg xmlns="http://www.w3.org/2000/svg" xmlns:xlink="http://www.w3.org/1999/xlink" fill="none" height="373" viewBox="0 0 1168 373" width="1168"><filter id="a" color-interpolation-filters="sRGB" filterUnits="userSpaceOnUse" height="120" width="210" x="291" y="0"><feFlood flood-opacity="0" result="BackgroundImageFix"/><feColorMatrix in="SourceAlpha" result="hardAlpha" type="matrix" values="0 0 0 0 0 0 0 0 0 0 0 0 0 0 0 0 0 0 127 0"/><feOffset dx="3" dy="3"/><feGaussianBlur stdDeviation="8.5"/><feColorMatrix type="matrix" values="0 0 0 0 0 0 0 0 0 0 0 0 0 0 0 0 0 0 0.08 0"/><feBlend in2="BackgroundImageFix" mode="normal" result="effect1_dropShadow_531_7897"/><feBlend in="SourceGraphic" in2="effect1_dropShadow_531_7897" mode="normal" result="shape"/></filter><filter id="b" color-interpolation-filters="sRGB" filterUnits="userSpaceOnUse" height="120" width="210" x="661" y="1"><feFlood flood-opacity="0" result="BackgroundImageFix"/><feColorMatrix in="SourceAlpha" result="hardAlpha" type="matrix" values="0 0 0 0 0 0 0 0 0 0 0 0 0 0 0 0 0 0 127 0"/><feOffset dx="3" dy="3"/><feGaussianBlur stdDeviation="8.5"/><feColorMatrix type="matrix" values="0 0 0 0 0 0 0 0 0 0 0 0 0 0 0 0 0 0 0.08 0"/><feBlend in2="BackgroundImageFix" mode="normal" result="effect1_dropShadow_531_7897"/><feBlend in="SourceGraphic" in2="effect1_dropShadow_531_7897" mode="normal" result="shape"/></filter><filter id="c" color-interpolation-filters="sRGB" filterUnits="userSpaceOnUse" height="120" width="210" x="849" y="1.37695"><feFlood flood-opacity="0" result="BackgroundImageFix"/><feColorMatrix in="SourceAlpha" result="hardAlpha" type="matrix" values="0 0 0 0 0 0 0 0 0 0 0 0 0 0 0 0 0 0 127 0"/><feOffset dx="3" dy="3"/><feGaussianBlur stdDeviation="8.5"/><feColorMatrix type="matrix" values="0 0 0 0 0 0 0 0 0 0 0 0 0 0 0 0 0 0 0.08 0"/><feBlend in2="BackgroundImageFix" mode="normal" result="effect1_dropShadow_531_7897"/><feBlend in="SourceGraphic" in2="effect1_dropShadow_531_7897" mode="normal" result="shape"/></filter><filter id="d" color-interpolation-filters="sRGB" filterUnits="userSpaceOnUse" height="120" width="210" x="104" y="1.00049"><feFlood flood-opacity="0" result="BackgroundImageFix"/><feColorMatrix in="SourceAlpha" result="hardAlpha" type="matrix" values="0 0 0 0 0 0 0 0 0 0 0 0 0 0 0 0 0 0 127 0"/><feOffset dx="3" dy="3"/><feGaussianBlur stdDeviation="8.5"/><feColorMatrix type="matrix" values="0 0 0 0 0 0 0 0 0 0 0 0 0 0 0 0 0 0 0.08 0"/><feBlend in2="BackgroundImageFix" mode="normal" result="effect1_dropShadow_531_7897"/><feBlend in="SourceGraphic" in2="effect1_dropShadow_531_7897" mode="normal" result="shape"/></filter><filter id="e" color-interpolation-filters="sRGB" filterUnits="userSpaceOnUse" height="120" width="210" x="476" y="1.00049"><feFlood flood-opacity="0" result="BackgroundImageFix"/><feColorMatrix in="SourceAlpha" result="hardAlpha" type="matrix" values="0 0 0 0 0 0 0 0 0 0 0 0 0 0 0 0 0 0 127 0"/><feOffset dx="3" dy="3"/><feGaussianBlur stdDeviation="8.5"/><feColorMatrix type="matrix" values="0 0 0 0 0 0 0 0 0 0 0 0 0 0 0 0 0 0 0.08 0"/><feBlend in2="BackgroundImageFix" mode="normal" result="effect1_dropShadow_531_7897"/><feBlend in="SourceGraphic" in2="effect1_dropShadow_531_7897" mode="normal" result="shape"/></filter><filter id="f" color-interpolation-filters="sRGB" filterUnits="userSpaceOnUse" height="133" width="108" x="208" y="188.624"><feFlood flood-opacity="0" result="BackgroundImageFix"/><feColorMatrix in="SourceAlpha" result="hardAlpha" type="matrix" values="0 0 0 0 0 0 0 0 0 0 0 0 0 0 0 0 0 0 127 0"/><feOffset dx="3" dy="3"/><feGaussianBlur stdDeviation="8.5"/><feColorMatrix type="matrix" values="0 0 0 0 0 0 0 0 0 0 0 0 0 0 0 0 0 0 0.08 0"/><feBlend in2="BackgroundImageFix" mode="normal" result="effect1_dropShadow_531_7897"/><feBlend in="SourceGraphic" in2="effect1_dropShadow_531_7897" mode="normal" result="shape"/></filter><filter id="g" color-interpolation-filters="sRGB" filterUnits="userSpaceOnUse" height="133" width="120" x="108" y="189"><feFlood flood-opacity="0" result="BackgroundImageFix"/><feColorMatrix in="SourceAlpha" result="hardAlpha" type="matrix" values="0 0 0 0 0 0 0 0 0 0 0 0 0 0 0 0 0 0 127 0"/><feOffset dx="3" dy="3"/><feGaussianBlur stdDeviation="8.5"/><feColorMatrix type="matrix" values="0 0 0 0 0 0 0 0 0 0 0 0 0 0 0 0 0 0 0.08 0"/><feBlend in2="BackgroundImageFix" mode="normal" result="effect1_dropShadow_531_7897"/><feBlend in="SourceGraphic" in2="effect1_dropShadow_531_7897" mode="normal" result="shape"/></filter><filter id="h" color-interpolation-filters="sRGB" filterUnits="userSpaceOnUse" height="133" width="128" x="0" y="189"><feFlood flood-opacity="0" result="BackgroundImageFix"/><feColorMatrix in="SourceAlpha" result="hardAlpha" type="matrix" values="0 0 0 0 0 0 0 0 0 0 0 0 0 0 0 0 0 0 127 0"/><feOffset dx="3" dy="3"/><feGaussianBlur stdDeviation="8.5"/><feColorMatrix type="matrix" values="0 0 0 0 0 0 0 0 0 0 0 0 0 0 0 0 0 0 0.08 0"/><feBlend in2="BackgroundImageFix" mode="normal" result="effect1_dropShadow_531_7897"/><feBlend in="SourceGraphic" in2="effect1_dropShadow_531_7897" mode="normal" result="shape"/></filter><filter id="i" color-interpolation-filters="sRGB" filterUnits="userSpaceOnUse" height="148" width="119" x="754" y="187"><feFlood flood-opacity="0" result="BackgroundImageFix"/><feColorMatrix in="SourceAlpha" result="hardAlpha" type="matrix" values="0 0 0 0 0 0 0 0 0 0 0 0 0 0 0 0 0 0 127 0"/><feOffset dx="3" dy="3"/><feGaussianBlur stdDeviation="8.5"/><feColorMatrix type="matrix" values="0 0 0 0 0 0 0 0 0 0 0 0 0 0 0 0 0 0 0.08 0"/><feBlend in2="BackgroundImageFix" mode="normal" result="effect1_dropShadow_531_7897"/><feBlend in="SourceGraphic" in2="effect1_dropShadow_531_7897" mode="normal" result="shape"/></filter><filter id="j" color-interpolation-filters="sRGB" filterUnits="userSpaceOnUse" height="146" width="108" x="861" y="186"><feFlood flood-opacity="0" result="BackgroundImageFix"/><feColorMatrix in="SourceAlpha" result="hardAlpha" type="matrix" values="0 0 0 0 0 0 0 0 0 0 0 0 0 0 0 0 0 0 127 0"/><feOffset dx="3" dy="3"/><feGaussianBlur stdDeviation="8.5"/><feColorMatrix type="matrix" values="0 0 0 0 0 0 0 0 0 0 0 0 0 0 0 0 0 0 0.08 0"/><feBlend in2="BackgroundImageFix" mode="normal" result="effect1_dropShadow_531_7897"/><feBlend in="SourceGraphic" in2="effect1_dropShadow_531_7897" mode="normal" result="shape"/></filter><filter id="k" color-interpolation-filters="sRGB" filterUnits="userSpaceOnUse" height="133" width="108" x="298" y="188.624"><feFlood flood-opacity="0" result="BackgroundImageFix"/><feColorMatrix in="SourceAlpha" result="hardAlpha" type="matrix" values="0 0 0 0 0 0 0 0 0 0 0 0 0 0 0 0 0 0 127 0"/><feOffset dx="3" dy="3"/><feGaussianBlur stdDeviation="8.5"/><feColorMatrix type="matrix" values="0 0 0 0 0 0 0 0 0 0 0 0 0 0 0 0 0 0 0.08 0"/><feBlend in2="BackgroundImageFix" mode="normal" result="effect1_dropShadow_531_7897"/><feBlend in="SourceGraphic" in2="effect1_dropShadow_531_7897" mode="normal" result="shape"/></filter><filter id="l" color-interpolation-filters="sRGB" filterUnits="userSpaceOnUse" height="264" width="264" x="455" y="104.624"><feFlood flood-opacity="0" result="BackgroundImageFix"/><feColorMatrix in="SourceAlpha" result="hardAlpha" type="matrix" values="0 0 0 0 0 0 0 0 0 0 0 0 0 0 0 0 0 0 127 0"/><feOffset dx="3" dy="3"/><feGaussianBlur stdDeviation="8.5"/><feColorMatrix type="matrix" values="0 0 0 0 0 0 0 0 0 0 0 0 0 0 0 0 0 0 0.12 0"/><feBlend in2="BackgroundImageFix" mode="normal" result="effect1_dropShadow_531_7897"/><feBlend in="SourceGraphic" in2="effect1_dropShadow_531_7897" mode="normal" result="shape"/></filter><filter id="m" color-interpolation-filters="sRGB" filterUnits="userSpaceOnUse" height="145" width="108" x="954" y="187"><feFlood flood-opacity="0" result="BackgroundImageFix"/><feColorMatrix in="SourceAlpha" result="hardAlpha" type="matrix" values="0 0 0 0 0 0 0 0 0 0 0 0 0 0 0 0 0 0 127 0"/><feOffset dx="3" dy="3"/><feGaussianBlur stdDeviation="8.5"/><feColorMatrix type="matrix" values="0 0 0 0 0 0 0 0 0 0 0 0 0 0 0 0 0 0 0.08 0"/><feBlend in2="BackgroundImageFix" mode="normal" result="effect1_dropShadow_531_7897"/><feBlend in="SourceGraphic" in2="effect1_dropShadow_531_7897" mode="normal" result="shape"/></filter><filter id="n" color-interpolation-filters="sRGB" filterUnits="userSpaceOnUse" height="145" width="118" x="1050" y="187"><feFlood flood-opacity="0" result="BackgroundImageFix"/><feColorMatrix in="SourceAlpha" result="hardAlpha" type="matrix" values="0 0 0 0 0 0 0 0 0 0 0 0 0 0 0 0 0 0 127 0"/><feOffset dx="3" dy="3"/><feGaussianBlur stdDeviation="8.5"/><feColorMatrix type="matrix" values="0 0 0 0 0 0 0 0 0 0 0 0 0 0 0 0 0 0 0.08 0"/><feBlend in2="BackgroundImageFix" mode="normal" result="effect1_dropShadow_531_7897"/><feBlend in="SourceGraphic" in2="effect1_dropShadow_531_7897" mode="normal" result="shape"/></filter><linearGradient id="o"><stop offset="0" stop-color="#38cced"/><stop offset="1" stop-color="#38cced" stop-opacity=".4"/></linearGradient><linearGradient id="p" gradientUnits="userSpaceOnUse" x1="355.333" x2="332" xlink:href="#o" y1="43" y2="43"/><linearGradient id="q" gradientUnits="userSpaceOnUse" x1="715.106" x2="727.882" xlink:href="#o" y1="52.3024" y2="39.7113"/><linearGradient id="r" gradientUnits="userSpaceOnUse" x1="909.868" x2="919.152" xlink:href="#o" y1="46.629" y2="37.7252"/><linearGradient id="s" gradientUnits="userSpaceOnUse" x1="175.439" x2="175.439" xlink:href="#o" y1="67.3199" y2="52.1146"/><linearGradient id="t" gradientUnits="userSpaceOnUse" x1="8" x2="0" xlink:href="#o" y1=".000006" y2=".000006"/><clipPath id="u"><path d="m37 217h46.3968v48h-46.3968z"/></clipPath><clipPath id="v"><path d="m327 221h48v33.5981h-48z"/></clipPath><clipPath id="w"><path d="m983 221h48v33.5981h-48z"/></clipPath><path d="m65 199.517v-27.512c0-4.418 3.5817-8 8-8h404c4.418 0 8 3.582 8 8v74" stroke="#cbd0d0" stroke-width="2"/><path d="m596 314.5h-31.114c-4.419 0-8 3.582-8 8v37.5c0 4.418-3.582 8-8 8h-379.886c-4.418 0-8-3.582-8-8v-88" stroke="#cbd0d0" stroke-width="2"/><path d="m671 261h64.5c4.418 0 8 3.582 8 8v59c0 4.418 3.582 8 8 8h41.5 122c4.418 0 8-3.582 8-8v-67" stroke="#cbd0d0" stroke-width="2"/><path d="m526 161.005v-18.087c0-4.418-3.582-8-8-8h-102.118c-4.418 0-8-3.581-8-8v-52.9126c0-4.4183-3.582-8-8-8h-106.882" stroke="#cbd0d0" stroke-width="2"/><path d="m478 258.539h-74.043c-4.419 0-8 3.581-8 8v61.466c0 4.419-3.582 8-8 8h-130.957c-4.418 0-8-3.581-8-8v-90" stroke="#cbd0d0" stroke-width="2"/><path d="m620 147v-18.087c0-4.418 3.582-8 8-8h102.118c4.418 0 8-3.582 8-8v-52.913c0-4.4183 3.582-8 8-8h106.882" stroke="#cbd0d0" stroke-width="2"/><path d="m490 214.624h-179" stroke="#829494" stroke-opacity=".25" stroke-width="2"/><path d="m490 192.005h-321c-4.418 0-8 3.582-8 8v26" stroke="#cbd0d0" stroke-width="2"/><circle cx="412" cy="213.624" fill="#369fff" r="5"/><path d="m591 39.624v94" stroke="#cbd0d0" stroke-width="2"/><circle cx="591" cy="72.624" fill="#0dd3de" r="5" transform="matrix(0 1 -1 0 663.624 -518.376)"/><path d="m683 219h337" stroke="#829494" stroke-opacity=".25" stroke-width="2"/><circle cx="723" cy="218.624" fill="#f367bb" r="5"/><path d="m572 40.624v90" stroke="#cbd0d0" stroke-width="2"/><circle cx="572" cy="86.624" fill="#0dd3de" r="5" transform="matrix(-1 0 0 -1 1144 173.248)"/><circle cx="728" cy="51" fill="#0dd3de" r="5" transform="matrix(-1 0 0 -1 1456 102)"/><path d="m972 26v103.53c0 4.418-3.582 8-8 8h-303c-4.418 0-8 3.581-8 8v29.013 69.457" stroke="#cbd0d0" stroke-width="2"/><circle cx="907" cy="139" fill="#0dd3de" r="5" transform="matrix(0 1 -1 0 1046 -768)"/><circle cx="973" cy="114.005" fill="#0dd3de" r="5"/><path d="m504.001 203.005v-78.285c0-4.418-3.582-8-8-8h-307c-4.418 0-8-3.581-8-8v-82.7149" stroke="#cacfcf" stroke-width="2"/><circle cx="461.998" cy="115.621" fill="#0dd3de" r="5" transform="matrix(0 -1 1 0 346.377 577.619)"/><circle cx="348.15" cy="115.504" fill="#0dd3de" r="5" transform="matrix(.54272009 -.83991363 .83991363 .54272009 62.188616 345.233588)"/><g filter="url(#a)"><rect fill="#fff" height="86" rx="8" width="176" x="305" y="14"/><rect height="85" rx="7.5" stroke="#829494" stroke-opacity=".25" width="175" x="305.5" y="14.5"/></g><path d="m394 27.5159v62.1846" stroke="#829494" stroke-opacity=".25" stroke-width="2"/><path d="m435.966 53.2h-1.267l-2.618 8.414-2.688-8.421h-1.4l-2.681 8.421-2.625-8.414h-1.295l3.143 9.807h1.519l2.625-8.183 2.625 8.183h1.526zm3.701 3.01c-1.911 0-3.304 1.421-3.304 3.465 0 2.072 1.4 3.465 3.374 3.465.98 0 1.904-.238 2.73-1.008l-.609-.784c-.567.49-1.274.791-2.051.791-1.141 0-2.1-.679-2.261-2.058h5.229c.007-.126.021-.28.021-.427-.014-2.037-1.316-3.444-3.129-3.444zm-.021 1.015c1.078 0 1.841.756 1.981 1.932h-4.067c.175-1.134.91-1.932 2.086-1.932zm8.555-1.015c-1.05 0-1.827.406-2.345 1.029v-4.319h-1.141v10.08h1.141v-.889c.518.623 1.295 1.029 2.345 1.029 1.862 0 3.325-1.456 3.325-3.465s-1.463-3.465-3.325-3.465zm-.133 1.078c1.358 0 2.282 1.064 2.282 2.387s-.903 2.394-2.282 2.394c-1.344 0-2.282-1.029-2.282-2.394 0-1.358.938-2.387 2.282-2.387z" fill="#040531"/><g filter="url(#b)"><rect fill="#fff" height="86" rx="8" width="176" x="675" y="15"/><rect height="85" rx="7.5" stroke="#829494" stroke-opacity=".25" width="175" x="675.5" y="15.5"/></g><path d="m754 28.8923v62.1847" stroke="#829494" stroke-opacity=".25" stroke-width="2"/><path d="m776.725 54.9777h-1.883l-3.283 7.315-3.283-7.315h-1.883v9.807h1.232v-8.379l3.283 7.322h1.302l3.283-7.378v8.435h1.232zm5.621 3.017c-2.016 0-3.514 1.491-3.514 3.465s1.498 3.465 3.514 3.465 3.521-1.491 3.521-3.465-1.505-3.465-3.521-3.465zm0 1.078c1.33 0 2.345.994 2.345 2.387s-1.015 2.394-2.345 2.394c-1.337 0-2.345-1.001-2.345-2.394s1.008-2.387 2.345-2.387zm8.75-1.078c-.77 0-1.631.259-2.177 1.008v-.868h-1.134v6.65h1.141v-3.731c0-1.239.896-1.974 1.967-1.974 1.155 0 1.827.721 1.827 1.946v3.759h1.148v-4.13c0-1.596-1.134-2.66-2.772-2.66zm6.266.14h-1.141v6.65h1.141zm-.581-3.157c-.455 0-.805.357-.805.819 0 .455.35.798.805.798s.819-.343.819-.798c0-.462-.364-.819-.819-.819zm7.523 3.157h-2.793v-2.086h-1.148v2.086h-1.421v1.043h1.421v3.262c0 1.694.861 2.485 2.303 2.485.819 0 1.484-.287 1.995-.658l-.539-.861c-.378.259-.868.448-1.358.448-.721 0-1.253-.434-1.253-1.435v-3.241h2.793zm4.825-.14c-2.016 0-3.514 1.491-3.514 3.465s1.498 3.465 3.514 3.465 3.521-1.491 3.521-3.465-1.505-3.465-3.521-3.465zm0 1.078c1.33 0 2.345.994 2.345 2.387s-1.015 2.394-2.345 2.394c-1.337 0-2.345-1.001-2.345-2.394s1.008-2.387 2.345-2.387zm8.512-1.078c-.791 0-1.484.364-1.946 1.015v-.875h-1.127v6.65h1.141v-3.703c0-1.225.714-2.002 1.729-2.002.378 0 .826.091 1.141.259l.28-1.127c-.357-.154-.742-.217-1.218-.217zm3.934.14h-1.141v6.65h1.141zm-.581-3.157c-.455 0-.805.357-.805.819 0 .455.35.798.805.798s.819-.343.819-.798c0-.462-.364-.819-.819-.819zm6.319 3.017c-.77 0-1.631.259-2.177 1.008v-.868h-1.134v6.65h1.141v-3.731c0-1.239.896-1.974 1.967-1.974 1.155 0 1.827.721 1.827 1.946v3.759h1.148v-4.13c0-1.596-1.134-2.66-2.772-2.66zm7.911 0c-1.869 0-3.29 1.386-3.29 3.409 0 2.03 1.421 3.416 3.29 3.416 1.029 0 1.785-.399 2.289-1.036v.588c0 1.477-.959 2.282-2.387 2.282-.861 0-1.652-.287-2.289-.742l-.497.924c.679.546 1.75.861 2.786.861 2.1 0 3.535-1.225 3.535-3.374v-6.188h-1.148v.903c-.504-.637-1.26-1.043-2.289-1.043zm.133 1.078c1.323 0 2.254 1.008 2.254 2.331 0 1.33-.931 2.338-2.254 2.338-1.365 0-2.254-1.043-2.254-2.338 0-1.281.889-2.331 2.254-2.331z" fill="#040531"/><g filter="url(#c)"><rect fill="#fff" height="86" rx="8" width="176" x="863" y="15.377"/><rect height="85" rx="7.5" stroke="#829494" stroke-opacity=".25" width="175" x="863.5" y="15.877"/></g><path d="m952 29.2693v62.1846" stroke="#829494" stroke-opacity=".25" stroke-width="2"/><path d="m964.761 55.3616h-1.533l-3.983 9.8h1.281l1.071-2.674h4.753l1.078 2.674h1.323zm-.784 1.218 1.904 4.739h-3.815zm9.539 1.792c-.77 0-1.631.259-2.177 1.008v-.868h-1.134v6.65h1.141v-3.731c0-1.239.896-1.974 1.967-1.974 1.155 0 1.827.721 1.827 1.946v3.759h1.148v-4.13c0-1.596-1.134-2.66-2.772-2.66zm11.439.14h-1.148v.896c-.525-.63-1.302-1.036-2.345-1.036-1.869 0-3.325 1.456-3.325 3.465s1.456 3.465 3.325 3.465c1.043 0 1.82-.406 2.345-1.029v.889h1.148zm-3.36.938c1.344 0 2.282 1.029 2.282 2.387 0 1.365-.938 2.394-2.282 2.394-1.365 0-2.289-1.071-2.289-2.394s.903-2.387 2.289-2.387zm6.923-4.368h-1.141v10.08h1.141zm8.566 3.43h-1.26l-2.275 4.088-2.394-4.088h-1.281l3.031 5.229-2.457 4.256h1.267zm6.036 0h-2.8v-2.086h-1.144v2.086h-1.421v1.043h1.421v3.262c0 1.694.864 2.485 2.304 2.485.82 0 1.48-.287 1.99-.658l-.54-.861c-.37.259-.86.448-1.35.448-.72 0-1.26-.434-1.26-1.435v-3.241h2.8zm2.97 0h-1.14v6.65h1.14zm-.58-3.157c-.46 0-.81.357-.81.819 0 .455.35.798.81.798.45 0 .81-.343.81-.798 0-.462-.36-.819-.81-.819zm5.95 3.017c-2.06 0-3.45 1.491-3.45 3.465s1.39 3.465 3.45 3.465c.99 0 1.87-.364 2.47-1.043l-.71-.791c-.46.448-1.08.763-1.79.763-1.28 0-2.25-1.001-2.25-2.394s.97-2.387 2.25-2.387c.71 0 1.28.273 1.77.749l.73-.777c-.59-.686-1.48-1.05-2.47-1.05zm9.21.728c-.65-.441-1.6-.721-2.65-.721-1.62 0-2.68.77-2.68 2.044 0 1.008.72 1.68 2.21 1.862l.77.091c.91.112 1.34.42 1.34.91 0 .658-.67 1.015-1.76 1.015-1.12 0-1.78-.322-2.28-.707l-.53.854c.87.658 1.98.854 2.8.854 1.81 0 2.95-.819 2.95-2.086 0-1.099-.84-1.694-2.25-1.883l-.77-.098c-.81-.098-1.29-.343-1.29-.875 0-.602.59-.987 1.5-.987.87 0 1.72.329 2.14.616z" fill="#040531"/><g filter="url(#d)"><rect fill="#fff" height="86" rx="8" width="176" x="118" y="15.0005"/><rect height="85" rx="7.5" stroke="#829494" stroke-opacity=".25" width="175" x="118.5" y="15.5005"/></g><path d="m207 25.8928v62.1846" stroke="#829494" stroke-opacity=".25" stroke-width="2"/><path d="m227.915 45.053c-2.94 0-5.075 2.114-5.075 5.047s2.135 5.047 5.075 5.047c1.694 0 3.157-.756 3.983-1.981l-1.008-.735c-.644.959-1.715 1.533-2.975 1.533-2.156 0-3.787-1.561-3.787-3.864s1.631-3.864 3.787-3.864c1.267 0 2.345.595 2.982 1.54l1.029-.693c-.77-1.26-2.296-2.03-4.011-2.03zm12 3.297h-1.148v3.759c0 1.358-.805 1.96-1.883 1.96-1.085 0-1.89-.602-1.89-1.96v-3.759h-1.148v3.864c0 2.009 1.435 2.926 3.038 2.926 1.589 0 3.031-.917 3.031-2.926zm7.332.588c-.644-.441-1.603-.721-2.653-.721-1.617 0-2.674.77-2.674 2.044 0 1.008.721 1.68 2.212 1.862l.77.091c.903.112 1.337.42 1.337.91 0 .658-.672 1.015-1.764 1.015-1.113 0-1.778-.322-2.275-.707l-.532.854c.875.658 1.981.854 2.8.854 1.813 0 2.947-.819 2.947-2.086 0-1.099-.833-1.694-2.247-1.883l-.77-.098c-.805-.098-1.288-.343-1.288-.875 0-.602.588-.987 1.498-.987.875 0 1.722.329 2.142.616zm6.497-.588h-2.793v-2.086h-1.148v2.086h-1.421v1.043h1.421v3.262c0 1.694.861 2.485 2.303 2.485.819 0 1.484-.287 1.995-.658l-.539-.861c-.378.259-.868.448-1.358.448-.721 0-1.253-.434-1.253-1.435v-3.241h2.793zm4.825-.14c-2.016 0-3.514 1.491-3.514 3.465s1.498 3.465 3.514 3.465 3.521-1.491 3.521-3.465-1.505-3.465-3.521-3.465zm0 1.078c1.33 0 2.345.994 2.345 2.387s-1.015 2.394-2.345 2.394c-1.337 0-2.345-1.001-2.345-2.394s1.008-2.387 2.345-2.387zm13.685-1.078c-.903 0-1.932.329-2.478 1.337-.441-.833-1.33-1.337-2.457-1.337-.77 0-1.631.259-2.177 1.008v-.868h-1.134v6.65h1.141v-3.731c0-1.239.896-1.974 1.967-1.974 1.155 0 1.827.721 1.827 1.946v3.759h1.148v-3.731c0-1.211.861-1.974 1.96-1.974 1.155 0 1.827.721 1.827 1.946v3.759h1.148v-4.13c0-1.596-1.127-2.66-2.772-2.66zm-42.729 21.14h-1.148v.896c-.525-.63-1.302-1.036-2.345-1.036-1.869 0-3.325 1.456-3.325 3.465s1.456 3.465 3.325 3.465c1.043 0 1.82-.406 2.345-1.029v.889h1.148zm-3.36.938c1.344 0 2.282 1.029 2.282 2.387 0 1.365-.938 2.394-2.282 2.394-1.365 0-2.289-1.071-2.289-2.394s.903-2.387 2.289-2.387zm9.268-1.078c-1.05 0-1.827.406-2.345 1.029v-.889h-1.141v9.45h1.141v-3.689c.518.623 1.295 1.029 2.345 1.029 1.862 0 3.325-1.456 3.325-3.465s-1.463-3.465-3.325-3.465zm-.133 1.078c1.358 0 2.282 1.064 2.282 2.387s-.903 2.394-2.282 2.394c-1.344 0-2.282-1.029-2.282-2.394 0-1.358.938-2.387 2.282-2.387zm8.856-1.078c-1.05 0-1.827.406-2.345 1.029v-.889h-1.141v9.45h1.141v-3.689c.518.623 1.295 1.029 2.345 1.029 1.862 0 3.325-1.456 3.325-3.465s-1.463-3.465-3.325-3.465zm-.133 1.078c1.358 0 2.282 1.064 2.282 2.387s-.903 2.394-2.282 2.394c-1.344 0-2.282-1.029-2.282-2.394 0-1.358.938-2.387 2.282-2.387zm10.347-.35c-.644-.441-1.603-.721-2.653-.721-1.617 0-2.674.77-2.674 2.044 0 1.008.721 1.68 2.212 1.862l.77.091c.903.112 1.337.42 1.337.91 0 .658-.672 1.015-1.764 1.015-1.113 0-1.778-.322-2.275-.707l-.532.854c.875.658 1.981.854 2.8.854 1.813 0 2.947-.819 2.947-2.086 0-1.099-.833-1.694-2.247-1.883l-.77-.098c-.805-.098-1.288-.343-1.288-.875 0-.602.588-.987 1.498-.987.875 0 1.722.329 2.142.616z" fill="#040531"/><g filter="url(#e)"><rect fill="#fff" height="86" rx="8" width="176" x="490" y="15.0005"/><rect height="85" rx="7.5" stroke="#829494" stroke-opacity=".25" width="175" x="490.5" y="15.5005"/></g><path d="m612.823 45.1935h-1.883l-3.283 7.315-3.283-7.315h-1.883v9.807h1.232v-8.379l3.283 7.322h1.302l3.283-7.378v8.435h1.232zm3.752 3.157h-1.141v6.65h1.141zm-.581-3.157c-.455 0-.805.357-.805.819 0 .455.35.798.805.798s.819-.343.819-.798c0-.462-.364-.819-.819-.819zm5.955 3.017c-2.058 0-3.451 1.491-3.451 3.465s1.393 3.465 3.451 3.465c.987 0 1.869-.364 2.471-1.043l-.707-.791c-.462.448-1.085.763-1.792.763-1.281 0-2.254-1.001-2.254-2.394s.973-2.387 2.254-2.387c.707 0 1.274.273 1.764.749l.735-.777c-.595-.686-1.484-1.05-2.471-1.05zm7.304 0c-.791 0-1.484.364-1.946 1.015v-.875h-1.127v6.65h1.141v-3.703c0-1.225.714-2.002 1.729-2.002.378 0 .826.091 1.141.259l.28-1.127c-.357-.154-.742-.217-1.218-.217zm5.529 0c-2.016 0-3.514 1.491-3.514 3.465s1.498 3.465 3.514 3.465 3.521-1.491 3.521-3.465-1.505-3.465-3.521-3.465zm0 1.078c1.33 0 2.345.994 2.345 2.387s-1.015 2.394-2.345 2.394c-1.337 0-2.345-1.001-2.345-2.394s1.008-2.387 2.345-2.387zm9.142 1.484h-3.934v1.036h3.934zm-41.581 19.166c-.644-.441-1.603-.721-2.653-.721-1.617 0-2.674.77-2.674 2.044 0 1.008.721 1.68 2.212 1.862l.77.091c.903.112 1.337.42 1.337.91 0 .658-.672 1.015-1.764 1.015-1.113 0-1.778-.322-2.275-.707l-.532.854c.875.658 1.981.854 2.8.854 1.813 0 2.947-.819 2.947-2.086 0-1.099-.833-1.694-2.247-1.883l-.77-.098c-.805-.098-1.288-.343-1.288-.875 0-.602.588-.987 1.498-.987.875 0 1.722.329 2.142.616zm4.782-.728c-1.911 0-3.304 1.421-3.304 3.465 0 2.072 1.4 3.465 3.374 3.465.98 0 1.904-.238 2.73-1.008l-.609-.784c-.567.49-1.274.791-2.051.791-1.141 0-2.1-.679-2.261-2.058h5.229c.007-.126.021-.28.021-.427-.014-2.037-1.316-3.444-3.129-3.444zm-.021 1.015c1.078 0 1.841.756 1.981 1.932h-4.067c.175-1.134.91-1.932 2.086-1.932zm8.142-1.015c-.791 0-1.484.364-1.946 1.015v-.875h-1.127v6.65h1.141v-3.703c0-1.225.714-2.002 1.729-2.002.378 0 .826.091 1.141.259l.28-1.127c-.357-.154-.742-.217-1.218-.217zm8.967.14h-1.211l-2.24 5.495-2.233-5.495h-1.246l2.8 6.657h1.344zm2.554 0h-1.141v6.65h1.141zm-.581-3.157c-.455 0-.805.357-.805.819 0 .455.35.798.805.798s.819-.343.819-.798c0-.462-.364-.819-.819-.819zm5.955 3.017c-2.058 0-3.451 1.491-3.451 3.465s1.393 3.465 3.451 3.465c.987 0 1.869-.364 2.471-1.043l-.707-.791c-.462.448-1.085.763-1.792.763-1.281 0-2.254-1.001-2.254-2.394s.973-2.387 2.254-2.387c.707 0 1.274.273 1.764.749l.735-.777c-.595-.686-1.484-1.05-2.471-1.05zm6.908 0c-1.911 0-3.304 1.421-3.304 3.465 0 2.072 1.4 3.465 3.374 3.465.98 0 1.904-.238 2.73-1.008l-.609-.784c-.567.49-1.274.791-2.051.791-1.141 0-2.1-.679-2.261-2.058h5.229c.007-.126.021-.28.021-.427-.014-2.037-1.316-3.444-3.129-3.444zm-.021 1.015c1.078 0 1.841.756 1.981 1.932h-4.067c.175-1.134.91-1.932 2.086-1.932zm10.046-.287c-.644-.441-1.603-.721-2.653-.721-1.617 0-2.674.77-2.674 2.044 0 1.008.721 1.68 2.212 1.862l.77.091c.903.112 1.337.42 1.337.91 0 .658-.672 1.015-1.764 1.015-1.113 0-1.778-.322-2.275-.707l-.532.854c.875.658 1.981.854 2.8.854 1.813 0 2.947-.819 2.947-2.086 0-1.099-.833-1.694-2.247-1.883l-.77-.098c-.805-.098-1.288-.343-1.288-.875 0-.602.588-.987 1.498-.987.875 0 1.722.329 2.142.616z" fill="#040531"/><path d="m579 28.8928v62.1846" stroke="#829494" stroke-opacity=".25" stroke-width="2"/><path d="m332 43h23.3333v3.33333h-23.3333z" fill="url(#p)"/><path clip-rule="evenodd" d="m337 38v21.6667h30v-21.6667zm-.833-2.5c-.921 0-1.667.7462-1.667 1.6667v23.3333c0 .9205.746 1.6667 1.667 1.6667h31.666c.921 0 1.667-.7462 1.667-1.6667v-23.3333c0-.9205-.746-1.6667-1.667-1.6667z" fill="#040531" fill-rule="evenodd"/><path clip-rule="evenodd" d="m340.75 69.6667c0-.6903.56-1.25 1.25-1.25h19.898c.69 0 1.25.5597 1.25 1.25 0 .6904-.56 1.25-1.25 1.25h-19.898c-.69 0-1.25-.5596-1.25-1.25z" fill="#040531" fill-rule="evenodd"/><path clip-rule="evenodd" d="m350.75 70.4999v-8.6225h2.5v8.6225z" fill="#040531" fill-rule="evenodd"/><g filter="url(#f)"><rect fill="#fff" height="99" rx="8" width="74" x="222" y="202.624"/><rect height="98" rx="7.5" stroke="#829494" stroke-opacity=".25" width="73" x="222.5" y="203.124"/></g><path d="m243.915 273.053c-2.94 0-5.075 2.114-5.075 5.047s2.135 5.047 5.075 5.047 5.075-2.114 5.075-5.047-2.135-5.047-5.075-5.047zm0 1.183c2.156 0 3.787 1.561 3.787 3.864s-1.631 3.864-3.787 3.864-3.787-1.561-3.787-3.864 1.631-3.864 3.787-3.864zm10.195 1.974c-.791 0-1.484.364-1.946 1.015v-.875h-1.127v6.65h1.141v-3.703c0-1.225.714-2.002 1.729-2.002.378 0 .826.091 1.141.259l.28-1.127c-.357-.154-.742-.217-1.218-.217zm8.833.14h-1.148v.896c-.525-.63-1.302-1.036-2.345-1.036-1.869 0-3.325 1.456-3.325 3.465s1.456 3.465 3.325 3.465c1.043 0 1.82-.406 2.345-1.029v.889h1.148zm-3.36.938c1.344 0 2.282 1.029 2.282 2.387 0 1.365-.938 2.394-2.282 2.394-1.365 0-2.289-1.071-2.289-2.394s.903-2.387 2.289-2.387zm8.729-1.078c-2.058 0-3.451 1.491-3.451 3.465s1.393 3.465 3.451 3.465c.987 0 1.869-.364 2.471-1.043l-.707-.791c-.462.448-1.085.763-1.792.763-1.281 0-2.254-1.001-2.254-2.394s.973-2.387 2.254-2.387c.707 0 1.274.273 1.764.749l.735-.777c-.595-.686-1.484-1.05-2.471-1.05zm5.372-3.29h-1.141v10.08h1.141zm5.227 3.29c-1.911 0-3.304 1.421-3.304 3.465 0 2.072 1.4 3.465 3.374 3.465.98 0 1.904-.238 2.73-1.008l-.609-.784c-.567.49-1.274.791-2.051.791-1.141 0-2.1-.679-2.261-2.058h5.229c.007-.126.021-.28.021-.427-.014-2.037-1.316-3.444-3.129-3.444zm-.021 1.015c1.078 0 1.841.756 1.981 1.932h-4.067c.175-1.134.91-1.932 2.086-1.932z" fill="#040531"/><path d="m235 237.1c0-.842 0-1.684 0-2.527.068-.191.175-.379.201-.577.938-7.307 7.072-12.821 14.57-12.931 6.146-.091 12.295-.082 18.441-.002 6.651.086 12.307 4.454 14.131 10.777.277.965.439 1.963.657 2.944v2.316c-.068.232-.171.459-.198.697-.849 7.194-6.932 12.847-14.268 13.005-6.319.137-12.647.129-18.968.003-6.628-.133-12.166-4.54-13.939-10.853-.262-.935-.42-1.9-.627-2.852zm23.97 8.442v.179c2.808 0 5.617.049 8.425-.012 3.364-.074 6.152-1.405 8.087-4.155 2.21-3.14 2.468-6.536.745-9.952-1.771-3.508-4.794-5.332-8.726-5.412-5.365-.107-10.735-.035-16.102-.023-.813.002-1.632.063-2.438.171-4.506.604-8.086 4.765-8.254 9.238-.19 5.045 3.618 9.44 8.155 9.897 3.337.339 6.735.069 10.108.069z" fill="#fa0e0e"/><g filter="url(#g)"><rect fill="#fff" height="99" rx="8" width="86" x="122" y="203"/><rect height="98" rx="7.5" stroke="#829494" stroke-opacity=".25" width="85" x="122.5" y="203.5"/></g><path d="m142.725 273.193h-1.883l-3.283 7.315-3.283-7.315h-1.883v9.807h1.232v-8.379l3.283 7.322h1.302l3.283-7.378v8.435h1.232zm5.621 3.017c-2.016 0-3.514 1.491-3.514 3.465s1.498 3.465 3.514 3.465 3.521-1.491 3.521-3.465-1.505-3.465-3.521-3.465zm0 1.078c1.33 0 2.345.994 2.345 2.387s-1.015 2.394-2.345 2.394c-1.337 0-2.345-1.001-2.345-2.394s1.008-2.387 2.345-2.387zm8.75-1.078c-.77 0-1.631.259-2.177 1.008v-.868h-1.134v6.65h1.141v-3.731c0-1.239.896-1.974 1.967-1.974 1.155 0 1.827.721 1.827 1.946v3.759h1.148v-4.13c0-1.596-1.134-2.66-2.772-2.66zm7.911 0c-1.869 0-3.29 1.386-3.29 3.409 0 2.03 1.421 3.416 3.29 3.416 1.029 0 1.785-.399 2.289-1.036v.588c0 1.477-.959 2.282-2.387 2.282-.861 0-1.652-.287-2.289-.742l-.497.924c.679.546 1.75.861 2.786.861 2.1 0 3.535-1.225 3.535-3.374v-6.188h-1.148v.903c-.504-.637-1.26-1.043-2.289-1.043zm.133 1.078c1.323 0 2.254 1.008 2.254 2.331 0 1.33-.931 2.338-2.254 2.338-1.365 0-2.254-1.043-2.254-2.338 0-1.281.889-2.331 2.254-2.331zm8.731-1.078c-2.016 0-3.514 1.491-3.514 3.465s1.498 3.465 3.514 3.465 3.521-1.491 3.521-3.465-1.505-3.465-3.521-3.465zm0 1.078c1.33 0 2.345.994 2.345 2.387s-1.015 2.394-2.345 2.394c-1.337 0-2.345-1.001-2.345-2.394s1.008-2.387 2.345-2.387zm5.622-4.088v9.8h3.738c3.164 0 5.194-1.918 5.194-4.9s-2.03-4.9-5.194-4.9zm3.738 1.169c2.569 0 3.899 1.498 3.899 3.731 0 2.219-1.33 3.731-3.899 3.731h-2.506v-7.462zm7.432-1.169v9.8h3.99c2.184 0 3.591-.826 3.591-2.737 0-1.197-.686-1.974-1.617-2.31.833-.322 1.4-1.078 1.4-2.149 0-1.883-1.505-2.604-3.57-2.604zm3.934 5.411c1.414 0 2.352.35 2.352 1.603 0 1.274-.938 1.631-2.352 1.631h-2.702v-3.234zm-.189-4.256c1.295 0 2.331.294 2.331 1.54 0 1.281-1.022 1.568-2.317 1.568h-2.527v-3.108z" fill="#040531"/><path d="m165.241 234.014c-.002-2.091.018-4.183-.01-6.274-.05-3.792-.126-7.587-.197-11.379-.012-.659-.314-1.293-.172-1.966-.016-.096-.004-.211-.052-.287-.138-.22-.196-.054-.219.072-.222 1.199-1.126 1.892-1.938 2.654-1.704 1.604-3.197 3.376-4.361 5.418-2.195 3.526-3.548 7.352-4.069 11.477-1.203 9.503 2.525 16.85 9.799 22.642.557-1.671.471-3.467.986-5.147.077-2.147.151-4.291.227-6.438 0-.399.002-.798.002-1.199 0-.663.002-1.329.002-1.992-.002-.132-.004-.267-.006-.399.064-.002.128-.002.194-.004.119-2.397-.33-4.781-.186-7.178z" fill="#59ae49"/><path d="m174.501 230.023c-1.072-3.71-2.832-7.061-5.314-10.006-1.525-1.812-3.319-3.407-4.323-5.622-.144.673.16 1.307.172 1.966.068 3.792.147 7.587.197 11.379.028 2.091.008 4.183.01 6.274-.145 2.397.304 4.781.188 7.178.002.166-.032.315-.188.405 0 .663-.002 1.329-.002 1.992.294.401.296.8-.002 1.199-.076 2.147-.151 4.291-.227 6.438.123 1.674.265 3.343 1.419 4.702.353.065.534-.224.762-.394 1.092-.818 2.051-1.79 2.912-2.839 5.547-6.749 6.958-14.325 4.396-22.672z" fill="#459a46"/><path d="m165.009 251.224c.122 1.674.264 3.344 1.421 4.703-.461 1.595-.666 3.225-.648 4.886.002.225-.066.461-.154.67-.08.192.082.633-.395.491-.289-.086-.561-.217-.559-.597.014-1.698-.347-3.346-.65-5.004.556-1.673.469-3.469.985-5.149z" fill="#b7b699"/><path d="m165.239 243.589c.295.401.297.8-.002 1.199 0-.401 0-.8.002-1.199z" fill="#49a147"/><path d="m165.235 241.196c.064-.002.129-.002.195-.004.002.164-.032.315-.189.405-.002-.135-.004-.267-.006-.401z" fill="#49a147"/><g filter="url(#h)"><rect fill="#fff" height="99" rx="8" width="94" x="14" y="203"/><rect height="98" rx="7.5" stroke="#829494" stroke-opacity=".25" width="93" x="14.5" y="203.5"/></g><path d="m24.117 279.08c2.212 0 3.465-1.106 3.465-2.94s-1.253-2.94-3.465-2.94h-3.724v9.8h1.232v-3.92zm-.028-4.718c1.449 0 2.212.588 2.212 1.778s-.763 1.778-2.212 1.778h-2.464v-3.556zm8.1965 1.848c-2.016 0-3.514 1.491-3.514 3.465s1.498 3.465 3.514 3.465 3.521-1.491 3.521-3.465-1.505-3.465-3.521-3.465zm0 1.078c1.33 0 2.345.994 2.345 2.387s-1.015 2.394-2.345 2.394c-1.337 0-2.345-1.001-2.345-2.394s1.008-2.387 2.345-2.387zm10.4162-.35c-.644-.441-1.603-.721-2.653-.721-1.617 0-2.674.77-2.674 2.044 0 1.008.721 1.68 2.212 1.862l.77.091c.903.112 1.337.42 1.337.91 0 .658-.672 1.015-1.764 1.015-1.113 0-1.778-.322-2.275-.707l-.532.854c.875.658 1.981.854 2.8.854 1.813 0 2.947-.819 2.947-2.086 0-1.099-.833-1.694-2.247-1.883l-.77-.098c-.805-.098-1.288-.343-1.288-.875 0-.602.588-.987 1.498-.987.875 0 1.722.329 2.142.616zm6.497-.588h-2.793v-2.086h-1.148v2.086h-1.421v1.043h1.421v3.262c0 1.694.861 2.485 2.303 2.485.819 0 1.484-.287 1.995-.658l-.539-.861c-.378.259-.868.448-1.358.448-.721 0-1.253-.434-1.253-1.435v-3.241h2.793zm4.601-.14c-1.869 0-3.29 1.386-3.29 3.409 0 2.03 1.421 3.416 3.29 3.416 1.029 0 1.785-.399 2.289-1.036v.588c0 1.477-.959 2.282-2.387 2.282-.861 0-1.652-.287-2.289-.742l-.497.924c.679.546 1.75.861 2.786.861 2.1 0 3.535-1.225 3.535-3.374v-6.188h-1.148v.903c-.504-.637-1.26-1.043-2.289-1.043zm.133 1.078c1.323 0 2.254 1.008 2.254 2.331 0 1.33-.931 2.338-2.254 2.338-1.365 0-2.254-1.043-2.254-2.338 0-1.281.889-2.331 2.254-2.331zm8.7947-1.078c-.791 0-1.484.364-1.946 1.015v-.875h-1.127v6.65h1.141v-3.703c0-1.225.714-2.002 1.729-2.002.378 0 .826.091 1.141.259l.28-1.127c-.357-.154-.742-.217-1.218-.217zm5.3188 0c-1.911 0-3.304 1.421-3.304 3.465 0 2.072 1.4 3.465 3.374 3.465.98 0 1.904-.238 2.73-1.008l-.609-.784c-.567.49-1.274.791-2.051.791-1.141 0-2.1-.679-2.261-2.058h5.229c.007-.126.021-.28.021-.427-.014-2.037-1.316-3.444-3.129-3.444zm-.021 1.015c1.078 0 1.841.756 1.981 1.932h-4.067c.175-1.134.91-1.932 2.086-1.932zm12.2786-3.094c-.924-.637-2.051-1.071-3.528-1.071-2.065 0-3.745 1.057-3.745 2.947 0 1.673 1.288 2.422 2.905 2.618l.91.112c1.526.189 2.345.623 2.345 1.533 0 1.106-1.148 1.701-2.611 1.701-1.246 0-2.513-.497-3.192-1.085l-.672.98c.945.791 2.471 1.274 3.864 1.274 2.121 0 3.892-1.022 3.892-2.975 0-1.729-1.421-2.401-3.08-2.604l-.861-.105c-1.47-.182-2.219-.637-2.219-1.526 0-1.057 1.022-1.701 2.457-1.701 1.134 0 2.107.364 2.905.903zm6.9139-1.078c-2.94 0-5.075 2.114-5.075 5.047s2.135 5.047 5.075 5.047c1.211 0 2.296-.357 3.136-.994l.672.847h1.449l-1.274-1.659c.693-.854 1.092-1.974 1.092-3.241 0-2.933-2.135-5.047-5.075-5.047zm0 1.183c2.156 0 3.787 1.561 3.787 3.864 0 .847-.224 1.589-.609 2.198l-1.533-1.981h-1.477l2.219 2.856c-.644.504-1.47.791-2.387.791-2.156 0-3.787-1.561-3.787-3.864s1.631-3.864 3.787-3.864zm14.1503 7.595h-5.6141v-8.631h-1.232v9.8h6.8461z" fill="#040531"/><g clip-path="url(#u)"><path d="m72.0182 217c1.0759.26 2.1604.493 3.2256.786 2.0985.578 3.8639 1.718 5.4757 3.17 1.7334 1.562 2.4891 3.471 2.4635 5.77-.0427 3.68-1.0589 7.143-2.3141 10.55-.9073 2.461-2.0536 4.818-3.4391 7.194.5849.139 1.0524-.002 1.5157-.062.4227-.053.8389-.151 1.2616-.203 1.4623-.179 2.455.235 2.9353 1.209.5188 1.052.2412 2.273-.8176 3.274-2.0707 1.956-4.6025 2.778-7.3927 2.756-1.0353-.008-1.2829.274-1.2936 1.29-.0235 2.162-.2904 4.305-.9244 6.402-1.0545 3.49-3.5074 5.185-6.9742 5.672-.1922.028-.4376-.083-.5465.19-.5679 0-1.1378 0-1.7057 0-4.0496-1.349-4.5833-4.791-4.9313-8.324-.1046-1.058-.1494-2.128-.1558-3.193-.0043-.619-.1729-.683-.7408-.51-1.9682.597-4.0133.649-5.8257-.282-1.1784-.604-2.0067-.831-3.2513-.171-1.0417.553-2.2799.226-3.3366-.452-1.4602-.938-2.3909-2.312-3.168-3.802-2.0835-4.003-3.2085-8.328-4.1969-12.694-.6191-2.743-1.0994-5.499-.777-8.338.7108-6.255 4.611-9.662 10.8957-9.491 2.2501.062 4.4489.405 6.59 1.103.363.118.6981.244 1.108.018 2.4101-1.324 5.0167-1.48 7.6616-1.119 1.8402.25 3.516-.365 5.243-.743h.8539c.7109.271 1.4217.299 2.1326 0zm-12.5844 33.388v2.832c.0021 1.992.0299 3.992.412 5.946.4099 2.092 1.4111 3.793 3.6825 4.367 3.7123.935 7.4182-1.372 8.0715-5.127.444-2.549.7429-5.124 1.0738-7.69.0725-.572.1366-.792.8645-.719 2.6514.26 5.179-.16 7.318-1.913.6447-.527 1.5199-1.095 1.0524-2.09-.4525-.96-1.4089-.578-2.1924-.463-1.1933.179-2.3802.423-3.597.218-.7045-.12-.9607-.291-.4782-1.065 2.8392-4.552 4.8608-9.44 5.8748-14.73 1.108-5.783-.3842-8.744-6.9785-11.041-2.7047-.944-5.5418-.765-8.3063-.081-1.1293.279-2.201.296-3.3473.145-2.2437-.297-4.4937-.231-6.5174.963-.6938.409-1.2595.377-1.979.138-2.7175-.901-5.5076-1.385-8.381-1.026-3.5224.439-5.9773 2.254-7.1066 5.701-.7344 2.244-.8048 4.547-.4483 6.847.6489 4.177 1.6758 8.27 3.1146 12.249.7728 2.137 1.6395 4.248 3.153 5.994 1.7612 2.028 3.6291 1.99 5.386-.049 1.0204-1.185 2.0537-2.357 3.0954-3.52.2199-.246.4078-.673.8496-.461.7067.339 1.4901.401 2.2736.619-.5572 1.01-1.3065 1.618-2.4038 1.808-.6617.115-1.3214.284-1.9533.51-.5059.182-.9521.513-1.014 1.123-.0619.621.3352 1.003.8048 1.275.4248.245.8859.465 1.3577.58 2.218.536 4.3037.301 6.3189-1.34z" fill="#0d0d0d"/><path d="m71.5936 217c-.7109.299-1.4218.271-2.1327 0z" fill="#396b94"/><path d="m59.4341 250.388c-2.0173 1.641-4.1008 1.876-6.3167 1.338-.4739-.115-.935-.335-1.3577-.58-.4696-.272-.8688-.654-.8048-1.275.0619-.61.5081-.941 1.014-1.123.6319-.226 1.2915-.395 1.9533-.51 1.0973-.19 1.8466-.801 2.4037-1.808-.7834-.218-1.5669-.282-2.2735-.619-.4419-.212-.6297.215-.8496.461-1.0418 1.163-2.075 2.337-3.0954 3.52-1.7548 2.039-3.6248 2.077-5.386.049-1.5157-1.746-2.3802-3.857-3.153-5.994-1.441-3.977-2.4678-8.07-3.1168-12.247-.3565-2.299-.286-4.603.4483-6.849 1.1293-3.447 3.5864-5.26 7.1066-5.699 2.8713-.359 5.6635.126 8.3832 1.026.7173.237 1.283.269 1.9789-.138 2.0238-1.192 4.2738-1.26 6.5174-.963 1.1464.151 2.2181.134 3.3473-.145 2.7646-.683 5.6016-.863 8.3064.081 6.5942 2.297 8.0864 5.258 6.9785 11.041-1.014 5.29-3.0356 10.178-5.8749 14.73-.4824.775-.2284.945.4782 1.065 1.2168.205 2.4016-.039 3.5971-.218.7835-.117 1.742-.497 2.1924.463.4675.995-.4077 1.563-1.0524 2.09-2.1391 1.751-4.6666 2.173-7.318 1.913-.7258-.07-.7898.149-.8646.719-.3309 2.569-.6297 5.143-1.0737 7.69-.6554 3.753-4.3614 6.063-8.0716 5.128-2.2713-.573-3.2725-2.276-3.6824-4.368-.3821-1.953-.412-3.954-.412-5.945-.0022-.876-.0022-1.753-.0022-2.833zm15.4237-7.083c2.1326-3.352 3.6184-6.985 4.6751-10.8.6105-2.201 1.0054-4.432.856-6.733-.0491-.767-.2711-1.448-.7536-2.062-2.6278-3.341-8.381-5.009-12.4776-3.561 3.5117 1.752 5.9496 4.47 7.5485 7.98.5294 1.159.7728 2.337.5657 3.62-.3053 1.894-.5785 3.796-.2348 5.719.3437 1.924.2711 3.815-.395 5.668-.0512.102-.1985.211-.0512.32.158.115.1985-.062.2669-.151zm-22.97-12.429c1.3812-.675 2.6727-1.148 4.0838-1.172 1.7974-.03 3.0505.705 3.518 2.342.9159 3.204 1.1635 6.421-.2092 9.596-.4226.977-.7898 1.979-1.1719 2.973-.1025.269-.3608.53.2198.686 2.0302.544 2.5191 1.304 2.4571 3.447-.0982 3.307-.1003 6.616.3565 9.897.2178 1.569.8646 2.997 2.5319 3.52 2.8307.89 6.0904-1.022 6.6006-3.915.5978-3.394.9991-6.818 1.2724-10.255.0875-1.098.3778-2.033 1.4409-2.532.412-.194.4163-.376.158-.713-1.4815-1.93-2.4294-4.165-3.5288-6.308-.8261-1.612-1.4665-3.318-1.473-5.181-.0064-2.061 1.0738-3.365 3.1083-3.662.7962-.115 1.6096-.111 2.4272-.162-.0086-.111.0085-.228-.032-.318-1.9534-4.459-5.0744-7.612-9.9672-8.644-3.1274-.659-6.1374-.39-8.5326 2.022-2.2458 2.263-2.9247 5.183-3.2598 8.379zm2.282-9.448c-2.6684-.809-5.2024-1.303-7.826-1.023-2.8349.301-4.9953 1.588-6.0029 4.383-.6212 1.725-.8731 3.537-.6532 5.354.6553 5.422 2.0024 10.673 4.1819 15.692.5359 1.236 1.1613 2.442 2.1583 3.397 1.0311.986 1.885.971 2.8264-.084 1.0887-1.219 2.1219-2.489 3.2406-3.678.4675-.497.3522-.758-.0556-1.195-1.4708-1.586-1.9895-3.506-1.7206-5.619.1943-1.524.2562-3.048.173-4.575-.2455-4.602.4803-8.919 3.6781-12.652zm4.6538 15.538c.0128-1.394-.2113-2.76-.5038-4.113-.2604-1.208-.9478-1.755-2.1732-1.778-1.4751-.028-2.7559.574-4.0091 1.265-.3394.188-.3671.479-.3244.818.2497 2.026.0405 4.037-.1836 6.052-.2669 2.412 1.3918 4.902 3.6739 5.621.7834.248 1.3193.245 1.5541-.747.1943-.82.5678-1.603.9179-2.378.6832-1.51 1.0802-3.074 1.0482-4.74zm14.5121 5.655c.4077-1.086.6062-1.944.5358-2.826-.2177-2.75-.5807-5.497.0427-8.244.0576-.254.1195-.632-.3053-.66-1.1997-.079-2.4464-.248-3.4519.625-.824.718-.7535 1.698-.5764 2.667.5572 3.027 2.2928 5.52 3.7551 8.438zm-20.705 7.344c2.2201 1.178 4.9014.655 6.3701-1.099.5977-.713.5678-1.431-.0726-1.947-.76-.611-1.1912-.039-1.5434.491-.8646 1.304-2.0814 1.985-3.5907 2.235-.3437.06-.6746.186-1.1634.32zm26.9726-2.799c-1.8124-.021-3.5992.308-5.3326-.617-.5209-.277-1.1891.321-1.3278 1.055-.079.421-.1708.907.459.984 2.2244.267 4.3485.049 6.2014-1.422zm-5.1405-3.499c-.0235.026-.0661.052-.064.071.0085.047.0363.092.0576.137.0214-.022.0662-.047.0619-.067-.0064-.047-.0341-.091-.0555-.141z" fill="#f2f4f5"/><path d="m51.8877 230.876c.3352-3.196 1.014-6.116 3.2598-8.377 2.3952-2.412 5.4052-2.679 8.5326-2.022 4.8929 1.032 8.0139 4.185 9.9672 8.644.0405.092.0213.207.032.318-.8176.051-1.631.045-2.4272.162-2.0344.297-3.1146 1.601-3.1082 3.662.0064 1.863.6489 3.569 1.4729 5.181 1.0973 2.143 2.0473 4.378 3.5288 6.308.2583.337.254.519-.158.713-1.0652.499-1.3555 1.434-1.4409 2.532-.2733 3.437-.6725 6.863-1.2723 10.255-.5103 2.895-3.7722 4.807-6.6007 3.915-1.6673-.525-2.3141-1.951-2.5318-3.52-.4569-3.281-.4526-6.592-.3565-9.897.064-2.143-.427-2.903-2.4571-3.447-.5807-.156-.3224-.417-.2199-.686.3821-.995.7471-1.996 1.172-2.973 1.3747-3.175 1.1271-6.392.2092-9.596-.4675-1.638-1.7206-2.372-3.5181-2.342-1.4111.021-2.7005.495-4.0838 1.17z" fill="#346892"/><path d="m54.1696 221.428c-3.1979 3.733-3.9237 8.05-3.6761 12.652.0812 1.524.0193 3.051-.1729 4.575-.269 2.116.2498 4.035 1.7206 5.619.4056.437.5231.698.0555 1.195-1.1186 1.189-2.1518 2.459-3.2405 3.678-.9414 1.055-1.7975 1.068-2.8264.084-.9991-.955-1.6225-2.161-2.1583-3.397-2.1796-5.019-3.5266-10.27-4.182-15.692-.2198-1.817.0321-3.629.6533-5.354 1.0076-2.793 3.1679-4.082 6.0029-4.383 2.6236-.28 5.1576.213 7.8239 1.023z" fill="#346892"/><path d="m74.6417 243.134c.666-1.853.7386-3.745.3949-5.668s-.0704-3.825.2348-5.719c.2071-1.281-.0363-2.461-.5657-3.621-1.601-3.509-4.0368-6.227-7.5485-7.979 4.0966-1.448 9.8519.22 12.4777 3.56.4824.615.7045 1.296.7536 2.063.1494 2.301-.2455 4.532-.8561 6.733-1.0567 3.814-2.5425 7.448-4.6751 10.799-.0726-.055-.143-.111-.2156-.168z" fill="#366992"/><path d="m58.8208 236.966c.0341 1.665-.3629 3.23-1.0461 4.739-.3501.775-.7236 1.559-.9179 2.379-.2348.992-.7707.994-1.5541.747-2.2821-.72-3.9408-3.209-3.6739-5.621.222-2.015.4312-4.026.1836-6.052-.0427-.342-.015-.63.3244-.818 1.251-.691 2.534-1.293 4.0091-1.266 1.2254.024 1.9149.57 2.1732 1.779.2903 1.353.5166 2.719.5017 4.113zm-2.2671-3.533c.5529-.098 1.2018-.264 1.1207-.892-.0939-.728-.8582-.728-1.4474-.769-.4312-.029-.9755.045-.935.594.0512.685.6255.965 1.2617 1.067z" fill="#366992"/><g fill="#396b94"><path d="m73.3353 242.621c-1.4602-2.916-3.1979-5.411-3.7529-8.436-.1772-.967-.2498-1.949.5764-2.666 1.0054-.874 2.2521-.705 3.4519-.626.4248.028.3629.404.3052.66-.6233 2.747-.2583 5.492-.0427 8.244.0662.878-.1302 1.736-.5379 2.824zm-.6319-10.669c-.0683-.421-.412-.506-.7728-.483-.5443.035-1.2638-.057-1.3812.654-.079.471.4569.672.9009.698.5913.034 1.0076-.256 1.2531-.869z"/><path d="m52.6299 249.965c.4888-.137.8219-.26 1.1634-.318 1.5093-.25 2.7261-.931 3.5907-2.235.3501-.53.7834-1.102 1.5434-.491.6426.514.6703 1.234.0726 1.947-1.4687 1.752-4.1521 2.275-6.3701 1.097z"/><path d="m79.6025 247.166c-1.8551 1.471-3.9792 1.689-6.2036 1.422-.6297-.075-.5379-.564-.4589-.984.1387-.737.8069-1.334 1.3278-1.055 1.7377.925 3.5223.596 5.3347.617z"/></g><path d="m74.8577 243.304c-.0662.09-.1089.267-.2647.152-.1473-.109 0-.218.0512-.32.0705.055.1409.111.2135.168z" fill="#366992"/><path d="m74.4626 243.667c.0214.05.0491.094.0576.141.0022.017-.0405.043-.0619.067-.0213-.045-.0491-.09-.0576-.137-.0043-.019.0363-.045.0619-.071z" fill="#366992"/><path d="m56.554 233.433c-.6361-.102-1.2104-.382-1.2616-1.067-.0427-.549.5038-.623.935-.594.5892.041 1.3556.043 1.4474.769.0811.628-.5679.794-1.1208.892z" fill="#f2f4f5"/><path d="m72.7034 231.952c-.2455.61-.6618.901-1.2531.869-.444-.026-.9777-.227-.9009-.698.1174-.711.8369-.619 1.3812-.654.3608-.021.7045.062.7728.483z" fill="#f2f4f5"/></g><g filter="url(#i)"><rect fill="#fff" height="114" rx="8" width="85" x="768" y="201"/><rect height="113" rx="7.5" stroke="#829494" stroke-opacity=".25" width="84" x="768.5" y="201.5"/></g><path d="m782.421 279.507c-.924-.637-2.051-1.071-3.528-1.071-2.065 0-3.745 1.057-3.745 2.947 0 1.673 1.288 2.422 2.905 2.618l.91.112c1.526.189 2.345.623 2.345 1.533 0 1.106-1.148 1.701-2.611 1.701-1.246 0-2.513-.497-3.192-1.085l-.672.98c.945.791 2.471 1.274 3.864 1.274 2.121 0 3.892-1.022 3.892-2.975 0-1.729-1.421-2.401-3.08-2.604l-.861-.105c-1.47-.182-2.219-.637-2.219-1.526 0-1.057 1.022-1.701 2.457-1.701 1.134 0 2.107.364 2.905.903zm5.535 2.079c-.77 0-1.631.259-2.177 1.008v-.868h-1.134v6.65h1.141v-3.731c0-1.239.896-1.974 1.967-1.974 1.155 0 1.827.721 1.827 1.946v3.759h1.148v-4.13c0-1.596-1.134-2.66-2.772-2.66zm8.134 0c-2.016 0-3.514 1.491-3.514 3.465s1.498 3.465 3.514 3.465 3.521-1.491 3.521-3.465-1.505-3.465-3.521-3.465zm0 1.078c1.33 0 2.345.994 2.345 2.387s-1.015 2.394-2.345 2.394c-1.337 0-2.345-1.001-2.345-2.394s1.008-2.387 2.345-2.387zm10.781-.938h-1.295l-1.897 5.439-1.883-5.439h-1.225l2.394 6.65h1.344l1.897-5.411 1.904 5.411h1.365l2.394-6.65h-1.197l-1.89 5.453zm10.845 0h-2.555v-1.134c0-.861.35-1.365 1.141-1.365.49 0 .987.175 1.337.385l.413-.959c-.476-.287-1.071-.497-1.827-.497-1.568 0-2.212 1.043-2.212 2.436v1.134h-1.477v1.043h1.477v5.607h1.148v-5.607h2.555zm2.824-3.43h-1.141v10.08h1.141zm8.741 3.43h-1.148v.896c-.525-.63-1.302-1.036-2.345-1.036-1.869 0-3.325 1.456-3.325 3.465s1.456 3.465 3.325 3.465c1.043 0 1.82-.406 2.345-1.029v.889h1.148zm-3.36.938c1.344 0 2.282 1.029 2.282 2.387 0 1.365-.938 2.394-2.282 2.394-1.365 0-2.289-1.071-2.289-2.394s.903-2.387 2.289-2.387zm6.923-4.368h-1.141v10.08h1.141v-2.954h.903l2.513 2.954h1.449l-3.01-3.514 2.968-3.136h-1.442l-2.471 2.66h-.91zm8.837 3.29c-1.911 0-3.304 1.421-3.304 3.465 0 2.072 1.4 3.465 3.374 3.465.98 0 1.904-.238 2.73-1.008l-.609-.784c-.567.49-1.274.791-2.051.791-1.141 0-2.1-.679-2.261-2.058h5.229c.007-.126.021-.28.021-.427-.014-2.037-1.316-3.444-3.129-3.444zm-.021 1.015c1.078 0 1.841.756 1.981 1.932h-4.067c.175-1.134.91-1.932 2.086-1.932z" fill="#040531"/><path clip-rule="evenodd" d="m825.59 239.82 5.377-3.115c1.344-.787 1.836-2.525 1.016-3.836-.787-1.377-2.525-1.836-3.869-1.049l-9.606 5.541c-.656.393-1.115 1.016-1.312 1.705-.065.196-.098.426-.098.655 0 .295.033.623.131.918.197.656.623 1.246 1.279 1.607l9.639 5.606c1.344.755 3.082.296 3.869-1.049.787-1.344.295-3.082-1.049-3.869zm-9.345 6.393 9.64 5.541c1.344.787 1.803 2.525 1.049 3.902-.787 1.344-2.525 1.803-3.869 1.016l-5.443-3.115v6.23c0 1.541-1.245 2.82-2.819 2.82-1.541 0-2.82-1.246-2.82-2.82v-11.115c0-1.475 1.148-2.721 2.623-2.82.557-.065 1.115.066 1.639.361zm-5.475-1.344 4-3.967c.131-.132.229-.361.197-.525v-.295-.59-.295c0-.164-.099-.394-.197-.492l-4-4c-.098-.098-.328-.197-.492-.197h-.295-.59-.295c-.164 0-.361.066-.492.197l-4 4.033c-.098.098-.197.328-.197.492v.295.59.295c0 .164.099.393.197.492l4 3.967c.098.131.328.229.492.229h.295.59.295c.164 0 .394-.098.492-.229zm.623-5.574c.098.098.197.328.197.492v.033c0 .164-.099.36-.197.491l-1.148 1.148c-.098.098-.327.197-.491.197h-.033c-.164 0-.394-.099-.492-.197l-1.148-1.148c-.098-.098-.196-.327-.196-.491v-.033c0-.131.065-.361.196-.492l1.148-1.147c.098-.099.328-.197.492-.197h.033c.164 0 .393.098.491.197zm-8.262-5.902-9.64-5.541c-1.344-.786-1.803-2.524-.983-3.868.787-1.377 2.524-1.836 3.869-1.05l5.377 3.115v-6.229c0-1.541 1.245-2.82 2.819-2.82 1.541 0 2.82 1.246 2.82 2.82v11.114c0 1.476-1.148 2.722-2.623 2.82-.557.066-1.115-.065-1.639-.361zm13.114 0c-.524.296-1.082.394-1.639.361-1.443-.098-2.59-1.311-2.59-2.82v-11.114c0-1.541 1.246-2.82 2.82-2.82 1.541 0 2.819 1.246 2.819 2.82v6.229l5.377-3.115c1.345-.754 3.082-.295 3.869 1.05.754 1.344.295 3.082-1.049 3.868zm-13.114 12.82c.524-.295 1.082-.393 1.639-.361 1.475.099 2.623 1.312 2.557 2.82v11.082c0 1.541-1.246 2.82-2.819 2.82-1.541 0-2.82-1.246-2.82-2.82v-6.229l-5.377 3.114c-1.344.787-3.082.328-3.869-1.016-.754-1.344-.295-3.082 1.049-3.869zm-.853-6.492c0 .295-.033.623-.131.918-.197.656-.623 1.246-1.279 1.607l-9.606 5.574c-1.377.754-3.115.295-3.902-1.05-.754-1.344-.295-3.081 1.049-3.868l5.41-3.082-5.377-3.115c-1.377-.787-1.836-2.525-1.049-3.869.787-1.377 2.525-1.836 3.869-1.049l9.606 5.574c.656.393 1.115 1.016 1.312 1.705.065.196.098.426.098.655z" fill="#2bb5e9" fill-rule="evenodd"/><g filter="url(#j)"><rect fill="#fff" height="112" rx="8" width="74" x="875" y="200"/><rect height="111" rx="7.5" stroke="#829494" stroke-opacity=".25" width="73" x="875.5" y="200.5"/></g><path d="m911.287 272.131c-.924-.637-2.051-1.071-3.528-1.071-2.065 0-3.745 1.057-3.745 2.947 0 1.673 1.288 2.422 2.905 2.618l.91.112c1.526.189 2.345.623 2.345 1.533 0 1.106-1.148 1.701-2.611 1.701-1.246 0-2.513-.497-3.192-1.085l-.672.98c.945.791 2.471 1.274 3.864 1.274 2.121 0 3.892-1.022 3.892-2.975 0-1.729-1.421-2.401-3.08-2.604l-.861-.105c-1.47-.182-2.219-.637-2.219-1.526 0-1.057 1.022-1.701 2.457-1.701 1.134 0 2.107.364 2.905.903zm4.604-1.071c-1.456 0-2.485.637-3.045 1.484l.854.721c.42-.588 1.148-1.099 2.114-1.099 1.183 0 2.1.637 2.1 1.666 0 1.12-.924 1.68-2.093 1.68h-1.26v1.085h1.26c1.274 0 2.31.616 2.31 1.715 0 1.169-.994 1.722-2.177 1.722-.945 0-1.834-.378-2.443-1.008l-.756.798c.714.826 1.834 1.316 3.227 1.316 1.736 0 3.388-.903 3.388-2.779 0-1.141-.693-1.918-1.708-2.31.896-.392 1.484-1.141 1.484-2.275 0-1.617-1.309-2.716-3.255-2.716z" fill="#040531"/><path d="m892 222.899c1.092-.499 2.109-1.16 3.253-1.547-.001 10.256-.002 20.514-.002 30.771 0 .152.013.304.019.456-.901-.244-1.659-.798-2.506-1.16-.255-.108-.469-.311-.764-.32 0-9.4 0-18.8 0-28.2z" fill="#8d3224"/><path d="m895.271 252.579c-.007-.152-.02-.304-.02-.456 0-10.257.001-20.515.003-30.771 1.622.249 3.19.735 4.787 1.099 1.535.351 3.066.723 4.599 1.085.007.934.04 1.869.01 2.803-.015.442.137.612.559.676.855.13 1.706.288 2.555.46 1.354.274 2.735.415 4.068.8.089.861-.149 1.738.13 2.591.003.043.006.087.009.131-.238.004-.479-.012-.715.017-2.037.251-4.069.521-6.107.758-.405.047-.497.228-.495.591.007 3.104.011 6.207-.004 9.311-.003.438.163.529.567.562.881.072 1.753.246 2.635.326 1.376.123 2.728.469 4.12.44-.002.046-.006.09-.009.136-.274.858-.055 1.739-.115 2.606-.847.277-1.737.34-2.603.529-1.473.323-2.986.459-4.437.888-.224.156-.143.392-.145.598-.012.889-.011 1.778-.015 2.668-1.841.305-3.626.858-5.447 1.256-1.315.286-2.598.699-3.93.896z" fill="#df5343"/><path d="m911.971 230.997c-.002-.044-.006-.088-.009-.131-.003-.869-.005-1.737-.008-2.605 1.653-.307 3.308-.594 4.955-.93.706-.144 1.467-.082 2.106-.507.242-.174.139-.431.144-.652.018-.878.02-1.757.027-2.636 2.991-.713 5.979-1.427 8.97-2.138.124-.031.255-.038.382-.055.001 10.188.004 20.375.001 30.564 0 .227.083.485-.149.666-2.855-.685-5.712-1.371-8.568-2.055-.21-.05-.422-.093-.633-.137-.009-.84-.005-1.681-.033-2.519-.009-.261.137-.563-.137-.782-.531-.095-1.062-.186-1.592-.287-1.819-.345-3.638-.695-5.456-1.044-.002-.869-.005-1.739-.009-2.609.003-.045.007-.09.009-.136l-.006.007c.281-.007.567.012.844-.024 1.973-.249 3.941-.522 5.916-.753.4-.047.442-.234.441-.553-.006-3.105-.008-6.212.002-9.317.001-.424-.166-.566-.574-.592-.538-.034-1.07-.14-1.607-.203-1.673-.195-3.349-.384-5.024-.575z" fill="#8d3224"/><path d="m919.015 226.823c-.64.426-1.401.362-2.107.506-1.646.337-3.303.624-4.954.93-.042-.004-.083.002-.122.016-1.332-.384-2.713-.526-4.068-.8-.849-.172-1.7-.33-2.555-.46-.422-.064-.574-.234-.56-.676.03-.932-.002-1.867-.009-2.803.004-2.127.025-4.252-.001-6.379-.007-.467.164-.677.555-.869 2.062-1.008 4.109-2.044 6.164-3.066.187-.093.353-.259.593-.215-.001 3.762.017 7.525-.026 11.286-.008.655.229.824.798.958 2.104.494 4.196 1.044 6.292 1.572z" fill="#843022"/><path d="m928.677 221.352c.935.454 1.866.917 2.807 1.359.251.119.36.275.339.554-.021.282-.004.565-.004.848 0 8.764-.004 17.529.012 26.293.001.476-.118.744-.569.939-.875.377-1.722.817-2.581 1.231-.002-10.407-.003-20.816-.004-31.224z" fill="#df5343"/><path d="m904.645 250.427c.004-.89.003-1.779.014-2.668.003-.206-.078-.443.146-.598.714.181 1.43.35 2.14.544 1.668.456 3.38.744 5.016 1.321-.001 3.987-.004 7.975-.005 11.962-.217.055-.369-.097-.538-.18-2.099-1.046-4.19-2.108-6.298-3.135-.37-.18-.484-.385-.48-.786.019-2.153.006-4.307.005-6.46z" fill="#8d3224"/><path d="m911.956 260.988c.001-3.986.004-7.975.005-11.961 1.097-.446 2.271-.612 3.399-.941 1.214-.355 2.489-.492 3.657-1.008.274.218.128.521.137.782.028.839.025 1.679.033 2.518.004 2.193.007 4.385.009 6.578 0 .237.029.469-.254.605-2.335 1.126-4.614 2.373-6.986 3.427z" fill="#df5343"/><path d="m919.015 226.823c-2.096-.528-4.188-1.078-6.292-1.571-.569-.133-.806-.302-.798-.957.043-3.762.024-7.523.026-11.286 1.093.415 2.1 1.006 3.145 1.518 1.224.598 2.435 1.228 3.662 1.82.312.151.454.319.45.683-.021 2.169-.017 4.336-.022 6.505-.008.879-.009 1.756-.027 2.635-.006.222.098.478-.144.653z" fill="#df5343"/><path d="m928.676 221.352c.002 10.408.003 20.817.004 31.225-.099.101-.196.106-.29-.005.231-.181.149-.439.149-.667.003-10.188 0-20.375-.001-30.564.045.004.093.007.138.011z" fill="#c76d57"/><path d="m911.971 243.002c-1.392.028-2.744-.317-4.12-.44-.882-.079-1.754-.253-2.635-.327-.403-.032-.569-.123-.568-.561.016-3.105.012-6.207.004-9.311-.001-.362.091-.544.495-.591 2.038-.237 4.072-.507 6.108-.758.236-.029.476-.012.715-.017l-.007-.007v12.017z" fill="#8d3224"/><path d="m919.019 247.076c-1.17.518-2.443.655-3.657 1.009-1.128.329-2.303.495-3.399.94-1.636-.577-3.348-.866-5.016-1.321-.71-.194-1.427-.363-2.14-.544 1.452-.431 2.964-.566 4.437-.889.864-.189 1.755-.253 2.602-.529l.062.005.062-.004c1.819.348 3.637.698 5.456 1.044.53.103 1.062.194 1.593.289z" fill="#efada7"/><path d="m911.832 228.275c.039-.013.08-.018.122-.016.003.869.005 1.737.008 2.605-.279-.851-.041-1.729-.13-2.589z" fill="#c76d57"/><path d="m911.97 245.746-.062.004-.061-.006c.06-.868-.159-1.748.115-2.606.002.868.005 1.738.008 2.608z" fill="#c76d57"/><path d="m911.964 243.007c0-4.005 0-8.012 0-12.017 1.675.191 3.35.38 5.024.575.537.063 1.069.169 1.607.203.406.026.575.169.574.592-.012 3.105-.008 6.212-.003 9.317 0 .319-.04.506-.44.553-1.974.231-3.944.504-5.916.753-.279.036-.565.017-.846.024z" fill="#df5343"/><g filter="url(#k)"><rect fill="#fff" height="99" rx="8" width="74" x="312" y="202.624"/><rect height="98" rx="7.5" stroke="#829494" stroke-opacity=".25" width="73" x="312.5" y="203.124"/></g><path d="m336.421 274.131c-.924-.637-2.051-1.071-3.528-1.071-2.065 0-3.745 1.057-3.745 2.947 0 1.673 1.288 2.422 2.905 2.618l.91.112c1.526.189 2.345.623 2.345 1.533 0 1.106-1.148 1.701-2.611 1.701-1.246 0-2.513-.497-3.192-1.085l-.672.98c.945.791 2.471 1.274 3.864 1.274 2.121 0 3.892-1.022 3.892-2.975 0-1.729-1.421-2.401-3.08-2.604l-.861-.105c-1.47-.182-2.219-.637-2.219-1.526 0-1.057 1.022-1.701 2.457-1.701 1.134 0 2.107.364 2.905.903zm8.965 3.353h-5.327v-3.115h5.607v-1.169h-6.839v9.8h1.232v-4.354h5.327zm2.519-4.284v9.8h3.738c3.164 0 5.194-1.918 5.194-4.9s-2.03-4.9-5.194-4.9zm3.738 1.169c2.569 0 3.899 1.498 3.899 3.731 0 2.219-1.33 3.731-3.899 3.731h-2.506v-7.462zm11.954-1.316c-2.94 0-5.075 2.114-5.075 5.047s2.135 5.047 5.075 5.047c1.694 0 3.157-.756 3.983-1.981l-1.008-.735c-.644.959-1.715 1.533-2.975 1.533-2.156 0-3.787-1.561-3.787-3.864s1.631-3.864 3.787-3.864c1.267 0 2.345.595 2.982 1.54l1.029-.693c-.77-1.26-2.296-2.03-4.011-2.03z" fill="#040531"/><g clip-path="url(#v)" fill="#00a1e0"><path d="m357.144 235.271c-.367 0-.626.127-.797.386-.173.263-.259.638-.259 1.114s.088.852.259 1.117c.171.263.43.39.797.39.365 0 .628-.128.801-.39.174-.265.263-.641.263-1.117s-.089-.851-.263-1.114c-.175-.259-.436-.386-.801-.386z"/><path d="m345.954 235.254c-.365 0-.624.142-.795.403-.113.171-.186.392-.224.657h1.983c-.019-.255-.069-.486-.184-.657-.173-.259-.415-.403-.78-.403z"/><path d="m340.488 236.934s-.357-.059-.754-.063c-.569-.008-.809.201-.807.201-.167.119-.247.294-.247.54 0 .154.028.276.082.361.037.056.052.079.162.165-.002 0 .249.198.816.163.397-.023.75-.1.75-.1v-1.267z"/><path d="m364.651 225.55c-1.49 0-2.907.319-4.185.889-1.473-2.622-4.238-4.389-7.406-4.389-2.383 0-4.539 1.001-6.086 2.613-1.703-2.225-4.389-3.663-7.411-3.663-5.15 0-9.324 4.168-9.324 9.31 0 1.317.275 2.569.768 3.702-2.396 1.4-4.007 4.016-4.007 7.012 0 4.471 3.587 8.094 8.012 8.094.565 0 1.116-.059 1.648-.17 1.215 3.298 4.383 5.648 8.098 5.648 3.569 0 6.63-2.168 7.945-5.259 1 .488 2.122.763 3.31.763 2.836 0 5.307-1.563 6.603-3.875.67.136 1.354.203 2.039.203 5.714 0 10.349-4.673 10.349-10.439-.004-5.765-4.637-10.439-10.353-10.439zm-27.373 12.116c0 .842-.611 1.367-1.596 1.367-.484 0-.946-.077-1.436-.336-.092-.052-.184-.1-.274-.165-.01-.014-.05-.031-.022-.11l.194-.539c.031-.093.102-.062.129-.045.054.033.094.062.163.102.572.361 1.102.365 1.269.365.428 0 .693-.227.693-.532v-.017c0-.334-.409-.459-.881-.605l-.104-.033c-.65-.186-1.344-.453-1.344-1.274v-.018c0-.779.63-1.325 1.531-1.325h.098c.53 0 1.04.154 1.411.379.032.021.067.059.048.111-.017.048-.181.49-.2.54-.034.092-.13.03-.13.03-.325-.178-.828-.32-1.252-.32-.382 0-.628.201-.628.478v.017c0 .321.42.459.91.616l.084.027c.647.204 1.339.488 1.339 1.267v.02zm4.032 1.096c-.066.017-.131.034-.196.05-.092.021-.428.088-.701.134-.276.048-.561.071-.845.071-.27 0-.518-.025-.737-.075-.221-.05-.413-.132-.566-.245-.156-.114-.279-.26-.363-.436-.085-.175-.127-.39-.127-.636 0-.242.05-.459.148-.641s.236-.34.403-.459c.169-.121.363-.211.582-.269.217-.057.447-.088.685-.088.175 0 .321.006.434.013 0 0 .219.02.459.054v-.117c0-.37-.077-.547-.228-.662-.156-.119-.388-.181-.688-.181 0 0-.678-.009-1.211.282-.025.014-.046.023-.046.023s-.068.024-.091-.044l-.197-.53c-.031-.076.025-.111.025-.111.249-.196.858-.313.858-.313.201-.04.537-.069.745-.069.557 0 .987.129 1.279.386.293.257.441.67.441 1.229l.002 2.544c-.002-.002.004.073-.065.09zm1.868.081c0 .046-.033.084-.081.084h-.737c-.046 0-.079-.038-.079-.084v-5.939c0-.046.033-.084.079-.084h.737c.046 0 .081.038.081.084zm4.606-1.911c-.008.071-.081.073-.081.073l-2.782-.002c.018.423.119.722.325.926.199.199.52.326.95.326.661.002.943-.131 1.143-.205 0 0 .076-.029.105.048l.181.508c.036.087.007.118-.023.133-.175.096-.598.276-1.402.278-.39 0-.73-.055-1.01-.163-.282-.109-.516-.265-.699-.463-.182-.197-.319-.435-.403-.706-.084-.269-.127-.569-.127-.889 0-.315.043-.615.123-.889.081-.277.208-.519.376-.722.169-.204.384-.369.642-.49.255-.121.572-.178.918-.178.297 0 .57.063.796.161.173.075.35.209.528.403.114.121.286.388.356.651.18.628.088 1.169.084 1.2zm.877 1.765c-.092-.052-.184-.1-.274-.165-.01-.014-.05-.031-.021-.11l.194-.539c.028-.089.111-.056.13-.045.052.033.092.062.162.102.572.361 1.102.365 1.269.365.428 0 .693-.227.693-.532v-.017c0-.334-.409-.459-.883-.605l-.104-.033c-.651-.186-1.344-.453-1.344-1.274v-.018c0-.779.63-1.325 1.53-1.325h.098c.53 0 1.041.154 1.411.379.033.021.067.059.048.111-.017.048-.18.49-.199.54-.035.092-.131.03-.131.03-.324-.178-.828-.32-1.252-.32-.382 0-.628.201-.628.478v.017c0 .321.421.459.91.616l.085.027c.647.204 1.338.488 1.338 1.267v.018c0 .843-.61 1.367-1.595 1.367-.484.002-.947-.075-1.437-.334zm6.4-4.004-.104.578c-.015.085-.092.081-.092.081h-.916l-.628 3.546c-.065.367-.148.682-.244.933-.097.258-.199.444-.361.622-.149.166-.32.288-.514.359-.194.07-.428.106-.684.106-.122 0-.253-.002-.407-.038-.111-.027-.172-.046-.253-.075-.035-.014-.062-.056-.042-.112.019-.055.184-.506.207-.566.029-.071.1-.044.1-.044.05.021.084.036.15.048.067.013.155.025.222.025.121 0 .233-.016.329-.048.117-.039.182-.106.255-.196.073-.094.133-.223.194-.396.061-.174.119-.405.167-.685l.624-3.481h-.614c-.073 0-.098-.034-.091-.09l.104-.58c.017-.083.092-.081.092-.081h.632l.034-.188c.095-.559.283-.983.559-1.261.279-.281.674-.423 1.179-.423.144 0 .271.01.378.029.106.019.187.039.275.065.019.008.073.035.052.098l-.213.584c-.018.044-.031.071-.121.042-.023-.007-.056-.017-.142-.034-.062-.014-.144-.023-.229-.023-.109 0-.211.013-.299.042-.087.029-.166.077-.233.146-.069.069-.151.171-.196.297-.101.294-.142.609-.147.628h.888c.072.002.095.037.089.092zm3.968 2.961c-.08.273-.207.513-.374.714-.167.202-.38.361-.632.476-.251.114-.547.173-.881.173s-.63-.057-.881-.173c-.252-.113-.463-.274-.632-.476-.169-.201-.294-.441-.374-.714-.081-.271-.121-.568-.121-.883s.04-.613.121-.883c.08-.273.207-.513.374-.715.169-.201.38-.362.632-.48.251-.117.547-.176.881-.176.332 0 .63.059.881.176.252.118.463.279.632.48.167.2.294.442.374.715.081.27.121.568.121.883s-.04.612-.121.883zm3.439-2.907c-.027.077-.161.457-.209.584-.017.048-.048.081-.102.075 0 0-.159-.039-.305-.039-.102 0-.244.014-.373.052-.126.039-.242.108-.343.208-.102.099-.183.238-.244.409-.062.174-.092.451-.092.729v2.074c0 .046-.039.084-.085.084h-.731c-.046 0-.085-.038-.085-.084v-4.147c0-.048.033-.085.081-.085h.712c.046 0 .081.038.081.085v.337c.107-.142.297-.268.47-.347s.369-.136.718-.115c.183.011.419.061.467.08.017.008.061.039.04.1zm3.479 4.059c-.311.123-.743.207-1.163.207-.713 0-1.26-.205-1.623-.61-.363-.403-.547-.954-.547-1.636 0-.315.044-.612.134-.885.091-.273.223-.513.4-.714.176-.202.399-.363.662-.48s.57-.177.916-.177c.23 0 .44.013.616.042.19.029.442.096.55.139.019.007.072.034.049.096-.076.218-.13.362-.201.562-.031.085-.096.058-.096.058-.271-.087-.53-.125-.868-.125-.407 0-.712.136-.912.401-.202.267-.313.616-.315 1.083-.002.511.127.889.353 1.123.227.234.542.352.941.352.161 0 .313-.012.451-.033.135-.021.263-.063.382-.109 0 0 .077-.031.104.049l.202.557c.025.071-.035.1-.035.1zm4.119-1.874c-.008.071-.081.073-.081.073l-2.782-.002c.017.423.119.722.324.926.2.199.521.326.953.326.66.002.942-.131 1.142-.205 0 0 .077-.029.104.048l.182.508c.037.087.008.118-.023.133-.175.096-.597.276-1.401.278-.39 0-.73-.055-1.01-.163-.283-.109-.517-.265-.699-.463-.183-.197-.319-.435-.403-.706-.085-.269-.127-.569-.127-.889 0-.315.04-.615.123-.889.08-.277.207-.519.376-.722.169-.204.384-.369.641-.49.256-.121.571-.178.918-.178.298 0 .57.063.797.161.173.075.349.209.528.403.113.121.286.388.357.651.177.628.084 1.169.081 1.2z"/><path d="m368.236 235.254c-.364 0-.626.142-.795.403-.113.171-.186.392-.224.657h1.985c-.019-.255-.069-.486-.184-.657-.175-.259-.417-.403-.782-.403z"/></g><g clip-rule="evenodd" fill-rule="evenodd"><path d="m733.429 46.4286-14.929 14.9285-7.083-7.0834-5.072 5.0715-2.357-2.357 7.429-7.4285 7.083 7.0833 12.572-12.5715z" fill="url(#q)"/><path d="m699.75 36.5c.69 0 1.25.5596 1.25 1.25v30.8333c0 .2301.187.4167.417.4167h30.833c.69 0 1.25.5596 1.25 1.25s-.56 1.25-1.25 1.25h-30.833c-1.611 0-2.917-1.3058-2.917-2.9167v-30.8333c0-.6904.56-1.25 1.25-1.25z" fill="#040531"/><path d="m923.179 42.6786-11.179 11.1785-5-5-2.988 2.9881-2.357-2.357 5.345-5.3452 5 5 8.822-8.8215z" fill="url(#r)"/><path d="m896.167 49.0001c0 5.9831 4.851 10.8333 10.834 10.8333s10.833-4.8502 10.833-10.8333-4.85-10.8334-10.833-10.8334-10.834 4.8503-10.834 10.8334zm-2.5 0c0 7.3638 5.97 13.3333 13.334 13.3333 7.363 0 13.333-5.9695 13.333-13.3333s-5.97-13.3334-13.333-13.3334c-7.364 0-13.334 5.9696-13.334 13.3334z" fill="#040531"/><path d="m915.283 57.2829c.488-.4882 1.28-.4882 1.768 0l11.667 11.6666c.488.4882.488 1.2796 0 1.7678-.489.4882-1.28.4882-1.768 0l-11.667-11.6667c-.488-.4881-.488-1.2796 0-1.7677z" fill="#040531"/><path d="m149.423 38.4231v16.1538h16.154v-16.1538zm-.808-2.4231c-.892 0-1.615.7232-1.615 1.6154v17.7692c0 .8922.723 1.6154 1.615 1.6154h17.77c.892 0 1.615-.7232 1.615-1.6154v-17.7692c0-.8922-.723-1.6154-1.615-1.6154z" fill="#040531"/><path d="m162.952 71.2637v-3.3584l16.114-.0001v-15.7906h3.358v19.1491z" fill="url(#s)"/><path d="m173.8 44c.663 0 1.2.5373 1.2 1.2v16c0 1.5464-1.254 2.8-2.8 2.8h-16c-.663 0-1.2-.5373-1.2-1.2s.537-1.2 1.2-1.2h16c.221 0 .4-.1791.4-.4v-16c0-.6627.537-1.2 1.2-1.2z" fill="#040531"/><path d="m521 48.2205v17.5589l15 8.7477 15-8.7477v-17.5589l-15-8.7477zm13.992-11.633c.623-.3631 1.393-.3631 2.015 0l16.001 9.3309c.614.3584.992 1.0162.992 1.7276v18.7078c0 .7114-.378 1.3693-.992 1.7277l-16.001 9.3309c-.622.3631-1.392.3631-2.015 0l-16-9.3309c-.614-.3584-.992-1.0163-.992-1.7277v-18.7078c0-.7114.378-1.3692.992-1.7276z" fill="#040531"/></g><path d="m0 0h8v8h-8z" fill="url(#t)" transform="matrix(1 -.00000009 -.00000009 -1 532 61)"/><path d="m681 273.2v76.8c0 4.418 3.582 8 8 8h311c4.42 0 8-3.582 8-8v-96" stroke="#cbd0d0" stroke-width="2"/><path d="m1127 214v-41c0-4.418-3.58-8-8-8h-476" stroke="#cbd0d0" stroke-width="2"/><g filter="url(#l)"><circle cx="584" cy="233.624" fill="#173361" r="115"/><circle cx="584" cy="233.624" r="114" stroke="#829494" stroke-opacity=".25" stroke-width="2"/></g><path d="m531.097 283.024h-3.06l-4.905 12.6h2.619l1.098-2.934h5.373l1.098 2.934h2.682zm-1.557 2.484 1.818 4.869h-3.645zm12.786 1.161c-1.197 0-2.034.486-2.601 1.197v-.963h-2.295v12.321h2.34v-4.509c.567.675 1.395 1.134 2.565 1.134 2.403 0 4.221-1.971 4.221-4.59s-1.818-4.59-4.23-4.59zm-.432 2.187c1.386 0 2.25 1.071 2.25 2.403s-.864 2.403-2.25 2.403c-1.332 0-2.241-1.026-2.241-2.403s.909-2.403 2.241-2.403zm15.161-1.953h-2.295v.963c-.576-.711-1.413-1.197-2.61-1.197-2.403 0-4.221 1.971-4.221 4.59s1.818 4.59 4.221 4.59c1.197 0 2.043-.486 2.61-1.188v.963h2.295zm-4.473 1.953c1.341 0 2.25 1.026 2.25 2.403s-.909 2.403-2.25 2.403c-1.377 0-2.25-1.071-2.25-2.403s.873-2.403 2.25-2.403zm11.048-2.187c-2.781 0-4.644 1.953-4.644 4.59 0 2.646 1.863 4.59 4.644 4.59 1.458 0 2.682-.585 3.501-1.638l-1.674-1.431c-.495.54-1.143.882-1.899.882-1.215 0-2.178-.945-2.178-2.403 0-1.449.972-2.403 2.187-2.403.765 0 1.332.306 1.863.873l1.692-1.413c-.801-1.053-2.034-1.647-3.492-1.647zm7.544-4.014h-2.349v12.969h2.349v-4.779c0-1.314.837-1.971 1.845-1.971 1.071 0 1.701.693 1.701 1.953v4.797h2.349v-5.553c0-2.025-1.413-3.402-3.393-3.402-.954 0-1.881.306-2.502 1.17zm12.156 4.014c-2.61 0-4.41 1.872-4.41 4.617s1.854 4.563 4.527 4.563c1.467 0 2.727-.414 3.717-1.323l-1.377-1.512c-.63.531-1.449.837-2.205.837-1.107 0-1.989-.549-2.241-1.809h6.183c.027-.198.045-.522.045-.792-.009-2.718-1.728-4.581-4.239-4.581zm-.018 2.025c1.008 0 1.683.63 1.899 1.746h-3.861c.207-1.08.855-1.746 1.962-1.746zm18.966 6.93h3.258l-5.679-6.453 5.283-6.147h-3.15l-4.167 5.103h-1.188v-5.103h-2.511v12.6h2.511v-5.184h1.161zm12.416-8.721h-2.295v.963c-.576-.711-1.413-1.197-2.61-1.197-2.403 0-4.221 1.971-4.221 4.59s1.818 4.59 4.221 4.59c1.197 0 2.043-.486 2.61-1.188v.963h2.295zm-4.473 1.953c1.341 0 2.25 1.026 2.25 2.403s-.909 2.403-2.25 2.403c-1.377 0-2.25-1.071-2.25-2.403s.873-2.403 2.25-2.403zm13.316-5.76c-.63-.378-1.413-.657-2.484-.657-2.034 0-3.123 1.341-3.123 3.384v1.08h-1.629v2.088h1.629v6.633h2.349v-6.633h2.709v-2.088h-2.709v-1.053c0-.81.351-1.224 1.026-1.224.531 0 1.017.171 1.44.396zm3.623-.432h-2.349v12.96h2.349v-3.528h.792l2.511 3.528h2.889l-3.465-4.617 3.438-4.104h-2.88l-2.457 3.105h-.828zm15.659 4.239h-2.295v.963c-.576-.711-1.413-1.197-2.61-1.197-2.403 0-4.221 1.971-4.221 4.59s1.818 4.59 4.221 4.59c1.197 0 2.043-.486 2.61-1.188v.963h2.295zm-4.473 1.953c1.341 0 2.25 1.026 2.25 2.403s-.909 2.403-2.25 2.403c-1.377 0-2.25-1.071-2.25-2.403s.873-2.403 2.25-2.403z" fill="#fff"/><circle cx="464" cy="191.624" fill="#f367bb" r="5"/><circle cx="426" cy="248.624" fill="#f367bb" r="5"/><circle cx="248" cy="319.624" fill="#f367bb" r="5"/><circle cx="884" cy="335.624" fill="#46a3f8" r="5" transform="matrix(-1 0 0 -1 1768 671.248)"/><circle cx="713" cy="358.624" fill="#46a3f8" r="5" transform="matrix(-1 0 0 -1 1426 717.248)"/><circle cx="244" cy="367.624" fill="#369fff" r="5"/><circle cx="546" cy="367.624" fill="#369fff" r="5"/><circle cx="128" cy="163.624" fill="#369fff" r="5"/><circle cx="204" cy="163.624" fill="#369fff" r="5"/><circle cx="1029" cy="165.005" fill="#369fff" r="5"/><circle cx="1004" cy="359" fill="#369fff" r="5"/><circle cx="213" cy="367.624" fill="#369fff" r="5"/><circle cx="837" cy="166" fill="#46a3f8" r="5" transform="matrix(-1 0 0 -1 1674 332)"/><g filter="url(#m)"><rect fill="#fff" height="111" rx="8" width="74" x="968" y="201"/><rect height="110" rx="7.5" stroke="#829494" stroke-opacity=".25" width="73" x="968.5" y="201.5"/></g><path d="m992.421 272.131c-.924-.637-2.051-1.071-3.528-1.071-2.065 0-3.745 1.057-3.745 2.947 0 1.673 1.288 2.422 2.905 2.618l.91.112c1.526.189 2.345.623 2.345 1.533 0 1.106-1.148 1.701-2.611 1.701-1.246 0-2.513-.497-3.192-1.085l-.672.98c.945.791 2.471 1.274 3.864 1.274 2.121 0 3.892-1.022 3.892-2.975 0-1.729-1.421-2.401-3.08-2.604l-.861-.105c-1.47-.182-2.219-.637-2.219-1.526 0-1.057 1.022-1.701 2.457-1.701 1.134 0 2.107.364 2.905.903zm8.969 3.353h-5.331v-3.115h5.611v-1.169h-6.843v9.8h1.232v-4.354h5.331zm2.51-4.284v9.8h3.74c3.17 0 5.2-1.918 5.2-4.9s-2.03-4.9-5.2-4.9zm3.74 1.169c2.57 0 3.9 1.498 3.9 3.731 0 2.219-1.33 3.731-3.9 3.731h-2.5v-7.462zm11.96-1.316c-2.94 0-5.08 2.114-5.08 5.047s2.14 5.047 5.08 5.047c1.69 0 3.15-.756 3.98-1.981l-1.01-.735c-.64.959-1.71 1.533-2.97 1.533-2.16 0-3.79-1.561-3.79-3.864s1.63-3.864 3.79-3.864c1.26 0 2.34.595 2.98 1.54l1.03-.693c-.77-1.26-2.3-2.03-4.01-2.03z" fill="#040531"/><g clip-path="url(#w)" fill="#00a1e0"><path d="m1013.14 235.271c-.36 0-.62.127-.79.386-.18.263-.26.638-.26 1.114s.09.852.26 1.117c.17.263.43.39.79.39.37 0 .63-.128.8-.39.18-.265.27-.641.27-1.117s-.09-.851-.27-1.114c-.17-.259-.43-.386-.8-.386z"/><path d="m1001.95 235.254c-.36 0-.62.142-.79.403-.11.171-.19.392-.23.657h1.99c-.02-.255-.07-.486-.19-.657-.17-.259-.41-.403-.78-.403z"/><path d="m996.488 236.934s-.357-.059-.754-.063c-.569-.008-.809.201-.807.201-.167.119-.247.294-.247.54 0 .154.028.276.082.361.037.056.052.079.162.165-.002 0 .249.198.816.163.397-.023.75-.1.75-.1v-1.267z"/><path d="m1020.65 225.55c-1.49 0-2.91.319-4.18.889-1.48-2.622-4.24-4.389-7.41-4.389-2.38 0-4.54 1.001-6.09 2.613-1.7-2.225-4.385-3.663-7.407-3.663-5.15 0-9.324 4.168-9.324 9.31 0 1.317.275 2.569.768 3.702-2.396 1.4-4.007 4.016-4.007 7.012 0 4.471 3.587 8.094 8.012 8.094.565 0 1.116-.059 1.648-.17 1.215 3.298 4.383 5.648 8.1 5.648 3.57 0 6.63-2.168 7.94-5.259 1 .488 2.12.763 3.31.763 2.84 0 5.31-1.563 6.61-3.875.67.136 1.35.203 2.04.203 5.71 0 10.34-4.673 10.34-10.439 0-5.765-4.63-10.439-10.35-10.439zm-27.372 12.116c0 .842-.611 1.367-1.596 1.367-.484 0-.946-.077-1.436-.336-.092-.052-.184-.1-.274-.165-.01-.014-.05-.031-.022-.11l.194-.539c.031-.093.102-.062.129-.045.054.033.094.062.163.102.572.361 1.102.365 1.269.365.428 0 .693-.227.693-.532v-.017c0-.334-.409-.459-.881-.605l-.104-.033c-.65-.186-1.344-.453-1.344-1.274v-.018c0-.779.63-1.325 1.531-1.325h.098c.53 0 1.04.154 1.411.379.032.021.067.059.048.111-.017.048-.181.49-.2.54-.034.092-.13.03-.13.03-.325-.178-.828-.32-1.252-.32-.382 0-.628.201-.628.478v.017c0 .321.42.459.91.616l.084.027c.647.204 1.339.488 1.339 1.267v.02zm4.032 1.096c-.066.017-.131.034-.196.05-.092.021-.428.088-.701.134-.276.048-.561.071-.845.071-.27 0-.518-.025-.737-.075-.221-.05-.413-.132-.566-.245-.156-.114-.279-.26-.363-.436-.085-.175-.127-.39-.127-.636 0-.242.05-.459.148-.641s.236-.34.403-.459c.169-.121.363-.211.582-.269.217-.057.447-.088.685-.088.175 0 .321.006.434.013 0 0 .219.02.459.054v-.117c0-.37-.077-.547-.228-.662-.156-.119-.388-.181-.688-.181 0 0-.678-.009-1.211.282-.025.014-.046.023-.046.023s-.068.024-.091-.044l-.197-.53c-.031-.076.025-.111.025-.111.249-.196.858-.313.858-.313.201-.04.537-.069.745-.069.557 0 .987.129 1.279.386.293.257.441.67.441 1.229l.002 2.544c-.002-.002.004.073-.065.09zm1.868.081c0 .046-.033.084-.081.084h-.737c-.046 0-.079-.038-.079-.084v-5.939c0-.046.033-.084.079-.084h.737c.046 0 .081.038.081.084zm4.602-1.911c0 .071-.08.073-.08.073l-2.78-.002c.02.423.12.722.33.926.2.199.52.326.95.326.66.002.94-.131 1.14-.205 0 0 .08-.029.1.048l.18.508c.04.087.01.118-.02.133-.17.096-.6.276-1.4.278-.39 0-.73-.055-1.01-.163-.28-.109-.52-.265-.7-.463-.18-.197-.32-.435-.4-.706-.09-.269-.129-.569-.129-.889 0-.315.039-.615.119-.889.08-.277.21-.519.38-.722.17-.204.38-.369.64-.49s.57-.178.92-.178c.3 0 .57.063.8.161.17.075.35.209.52.403.12.121.29.388.36.651.18.628.09 1.169.08 1.2zm.88 1.765c-.09-.052-.18-.1-.27-.165-.01-.014-.05-.031-.02-.11l.19-.539c.03-.089.11-.056.13-.045.05.033.09.062.16.102.57.361 1.1.365 1.27.365.43 0 .69-.227.69-.532v-.017c0-.334-.41-.459-.88-.605l-.1-.033c-.65-.186-1.35-.453-1.35-1.274v-.018c0-.779.63-1.325 1.53-1.325h.1c.53 0 1.04.154 1.41.379.03.021.07.059.05.111-.02.048-.18.49-.2.54-.03.092-.13.03-.13.03-.32-.178-.83-.32-1.25-.32-.38 0-.63.201-.63.478v.017c0 .321.42.459.91.616l.08.027c.65.204 1.34.488 1.34 1.267v.018c0 .843-.61 1.367-1.59 1.367-.49.002-.95-.075-1.44-.334zm6.4-4.004-.1.578c-.02.085-.1.081-.1.081h-.91l-.63 3.546c-.06.367-.15.682-.24.933-.1.258-.2.444-.36.622-.15.166-.32.288-.52.359-.19.07-.43.106-.68.106-.12 0-.26-.002-.41-.038-.11-.027-.17-.046-.25-.075-.04-.014-.06-.056-.04-.112.01-.055.18-.506.2-.566.03-.071.1-.044.1-.044.05.021.09.036.15.048.07.013.16.025.23.025.12 0 .23-.016.32-.048.12-.039.19-.106.26-.196.07-.094.13-.223.19-.396.06-.174.12-.405.17-.685l.62-3.481h-.61c-.07 0-.1-.034-.09-.09l.1-.58c.02-.083.1-.081.1-.081h.63l.03-.188c.1-.559.28-.983.56-1.261.28-.281.67-.423 1.18-.423.14 0 .27.01.38.029.1.019.18.039.27.065.02.008.07.035.05.098l-.21.584c-.02.044-.03.071-.12.042-.02-.007-.06-.017-.14-.034-.06-.014-.15-.023-.23-.023-.11 0-.21.013-.3.042s-.17.077-.23.146c-.07.069-.15.171-.2.297-.1.294-.14.609-.15.628h.89c.07.002.1.037.09.092zm3.97 2.961c-.08.273-.21.513-.37.714-.17.202-.39.361-.64.476-.25.114-.54.173-.88.173-.33 0-.63-.057-.88-.173-.25-.113-.46-.274-.63-.476-.17-.201-.29-.441-.38-.714-.08-.271-.12-.568-.12-.883s.04-.613.12-.883c.09-.273.21-.513.38-.715.17-.201.38-.362.63-.48.25-.117.55-.176.88-.176s.63.059.88.176c.25.118.47.279.64.48.16.2.29.442.37.715.08.27.12.568.12.883s-.04.612-.12.883zm3.44-2.907c-.03.077-.16.457-.21.584-.02.048-.05.081-.1.075 0 0-.16-.039-.31-.039-.1 0-.24.014-.37.052-.13.039-.24.108-.34.208-.11.099-.19.238-.25.409-.06.174-.09.451-.09.729v2.074c0 .046-.04.084-.08.084h-.74c-.04 0-.08-.038-.08-.084v-4.147c0-.048.03-.085.08-.085h.71c.05 0 .08.038.08.085v.337c.11-.142.3-.268.47-.347.18-.079.37-.136.72-.115.18.011.42.061.47.08.02.008.06.039.04.1zm3.48 4.059c-.31.123-.75.207-1.17.207-.71 0-1.26-.205-1.62-.61-.36-.403-.55-.954-.55-1.636 0-.315.05-.612.14-.885s.22-.513.4-.714c.17-.202.4-.363.66-.48s.57-.177.92-.177c.23 0 .44.013.61.042.19.029.44.096.55.139.02.007.07.034.05.096-.08.218-.13.362-.2.562-.03.085-.1.058-.1.058-.27-.087-.53-.125-.86-.125-.41 0-.72.136-.92.401-.2.267-.31.616-.31 1.083 0 .511.13.889.35 1.123.23.234.54.352.94.352.16 0 .32-.012.45-.033.14-.021.27-.063.39-.109 0 0 .07-.031.1.049l.2.557c.03.071-.03.1-.03.1zm4.12-1.874c-.01.071-.09.073-.09.073l-2.78-.002c.02.423.12.722.33.926.2.199.52.326.95.326.66.002.94-.131 1.14-.205 0 0 .08-.029.11.048l.18.508c.03.087.01.118-.02.133-.18.096-.6.276-1.41.278-.39 0-.73-.055-1.01-.163-.28-.109-.51-.265-.7-.463-.18-.197-.31-.435-.4-.706-.08-.269-.13-.569-.13-.889 0-.315.05-.615.13-.889.08-.277.21-.519.37-.722.17-.204.39-.369.65-.49.25-.121.57-.178.91-.178.3 0 .57.063.8.161.17.075.35.209.53.403.11.121.28.388.35.651.18.628.09 1.169.09 1.2z"/><path d="m1024.24 235.254c-.37 0-.63.142-.8.403-.11.171-.18.392-.22.657h1.98c-.02-.255-.07-.486-.18-.657-.18-.259-.42-.403-.78-.403z"/></g><g filter="url(#n)"><rect fill="#fff" height="111" rx="8" width="84" x="1064" y="201"/><rect height="110" rx="7.5" stroke="#829494" stroke-opacity=".25" width="83" x="1064.5" y="201.5"/></g><path d="m1082.73 271.193h-1.89l-3.28 7.315-3.28-7.315h-1.89v9.807h1.24v-8.379l3.28 7.322h1.3l3.28-7.378v8.435h1.24zm5.62 3.017c-2.02 0-3.52 1.491-3.52 3.465s1.5 3.465 3.52 3.465c2.01 0 3.52-1.491 3.52-3.465s-1.51-3.465-3.52-3.465zm0 1.078c1.33 0 2.34.994 2.34 2.387s-1.01 2.394-2.34 2.394c-1.34 0-2.35-1.001-2.35-2.394s1.01-2.387 2.35-2.387zm8.75-1.078c-.77 0-1.63.259-2.18 1.008v-.868h-1.13v6.65h1.14v-3.731c0-1.239.89-1.974 1.96-1.974 1.16 0 1.83.721 1.83 1.946v3.759h1.15v-4.13c0-1.596-1.14-2.66-2.77-2.66zm7.91 0c-1.87 0-3.29 1.386-3.29 3.409 0 2.03 1.42 3.416 3.29 3.416 1.03 0 1.78-.399 2.29-1.036v.588c0 1.477-.96 2.282-2.39 2.282-.86 0-1.65-.287-2.29-.742l-.5.924c.68.546 1.75.861 2.79.861 2.1 0 3.53-1.225 3.53-3.374v-6.188h-1.14v.903c-.51-.637-1.26-1.043-2.29-1.043zm.13 1.078c1.32 0 2.25 1.008 2.25 2.331 0 1.33-.93 2.338-2.25 2.338-1.37 0-2.25-1.043-2.25-2.338 0-1.281.88-2.331 2.25-2.331zm8.73-1.078c-2.01 0-3.51 1.491-3.51 3.465s1.5 3.465 3.51 3.465c2.02 0 3.52-1.491 3.52-3.465s-1.5-3.465-3.52-3.465zm0 1.078c1.33 0 2.35.994 2.35 2.387s-1.02 2.394-2.35 2.394c-1.34 0-2.34-1.001-2.34-2.394s1-2.387 2.34-2.387zm5.62-4.088v9.8h3.74c3.16 0 5.19-1.918 5.19-4.9s-2.03-4.9-5.19-4.9zm3.74 1.169c2.57 0 3.9 1.498 3.9 3.731 0 2.219-1.33 3.731-3.9 3.731h-2.51v-7.462zm7.43-1.169v9.8h3.99c2.19 0 3.59-.826 3.59-2.737 0-1.197-.68-1.974-1.61-2.31.83-.322 1.4-1.078 1.4-2.149 0-1.883-1.51-2.604-3.57-2.604zm3.94 5.411c1.41 0 2.35.35 2.35 1.603 0 1.274-.94 1.631-2.35 1.631h-2.71v-3.234zm-.19-4.256c1.29 0 2.33.294 2.33 1.54 0 1.281-1.02 1.568-2.32 1.568h-2.53v-3.108z" fill="#040531"/><path d="m1107.24 232.014c0-2.091.02-4.183-.01-6.274-.05-3.792-.13-7.587-.2-11.379-.01-.659-.31-1.293-.17-1.966-.01-.096 0-.211-.05-.287-.14-.22-.2-.054-.22.072-.22 1.199-1.13 1.892-1.94 2.654-1.7 1.604-3.19 3.376-4.36 5.418-2.19 3.526-3.55 7.352-4.07 11.477-1.2 9.503 2.53 16.85 9.8 22.642.56-1.671.47-3.467.99-5.147.07-2.147.15-4.291.22-6.438 0-.399.01-.798.01-1.199 0-.663 0-1.329 0-1.992 0-.132-.01-.267-.01-.399.07-.002.13-.002.2-.004.12-2.397-.33-4.781-.19-7.178z" fill="#59ae49"/><path d="m1116.5 228.023c-1.07-3.71-2.83-7.061-5.31-10.006-1.53-1.812-3.32-3.407-4.33-5.622-.14.673.16 1.307.18 1.966.06 3.792.14 7.587.19 11.379.03 2.091.01 4.183.01 6.274-.14 2.397.31 4.781.19 7.178 0 .166-.03.315-.19.405v1.992c.3.401.3.8 0 1.199-.08 2.147-.15 4.291-.23 6.438.12 1.674.27 3.343 1.42 4.702.35.065.53-.224.76-.394 1.1-.818 2.05-1.79 2.92-2.839 5.54-6.749 6.95-14.325 4.39-22.672z" fill="#459a46"/><path d="m1107.01 249.224c.12 1.674.26 3.344 1.42 4.703-.46 1.595-.67 3.225-.65 4.886 0 .225-.06.461-.15.67-.08.192.08.633-.4.491-.29-.086-.56-.217-.56-.597.02-1.698-.34-3.346-.65-5.004.56-1.673.47-3.469.99-5.149z" fill="#b7b699"/><path d="m1107.24 241.589c.29.401.3.8 0 1.199 0-.401 0-.8 0-1.199z" fill="#49a147"/><path d="m1107.24 239.196c.06-.002.12-.002.19-.004 0 .164-.03.315-.19.405 0-.135 0-.267 0-.401z" fill="#49a147"/><circle cx="816" cy="166" fill="#46a3f8" r="5" transform="matrix(-1 0 0 -1 1632 332)"/><path clip-rule="evenodd" d="m580.125 181.124c0 3.417-2.77 6.188-6.187 6.188-3.418 0-6.188-2.771-6.188-6.188s2.77-6.187 6.188-6.187c3.417 0 6.187 2.77 6.187 6.187zm-3.21 11.821c5.292-1.329 9.21-6.117 9.21-11.821 0-6.731-5.457-12.187-12.187-12.187-6.731 0-12.188 5.456-12.188 12.187 0 5.704 3.918 10.492 9.21 11.821-.015.12-.022.242-.022.367v9.441c-8.306 1.424-14.626 8.66-14.626 17.371s6.32 15.947 14.626 17.371v9.442c0 .124.007.246.022.366-5.292 1.329-9.21 6.117-9.21 11.821 0 6.731 5.457 12.188 12.188 12.188 6.73 0 12.187-5.457 12.187-12.188 0-5.704-3.918-10.492-9.21-11.821.015-.12.023-.242.023-.366v-9.442c4.454-.764 8.337-3.2 10.981-6.638l10.974 6.767c-.355 1.795-.309 3.696.208 5.579 1.781 6.491 8.487 10.309 14.978 8.528 6.491-1.782 10.309-8.488 8.527-14.979-1.781-6.491-8.487-10.309-14.978-8.527-2.498.685-4.6 2.1-6.139 3.951l-10.772-6.643c.549-1.704.846-3.522.846-5.409 0-1.782-.265-3.501-.756-5.122l10.884-5.981c1.527 1.726 3.561 3.039 5.953 3.682 6.5 1.748 13.187-2.103 14.935-8.603s-2.103-13.187-8.603-14.935c-6.5-1.749-13.187 2.103-14.935 8.603-.54 2.006-.546 4.03-.106 5.921l-10.829 5.95c-2.645-3.569-6.608-6.104-11.168-6.886v-9.441c0-.125-.008-.247-.023-.367zm-2.977 38.804c6.42 0 11.625-5.205 11.625-11.625s-5.205-11.625-11.625-11.625c-6.421 0-11.626 5.205-11.626 11.625s5.205 11.625 11.626 11.625zm32.238-26.714c.05-.571-.063-1.163-.36-1.703-.26-.474-.63-.85-1.06-1.114-.198-.927-.184-1.913.079-2.891.887-3.3 4.282-5.256 7.582-4.368 3.3.887 5.256 4.282 4.368 7.582s-4.282 5.256-7.582 4.368c-1.217-.327-2.251-.995-3.027-1.874zm-32.238 60.277c3.417 0 6.187-2.771 6.187-6.188s-2.77-6.187-6.187-6.187c-3.418 0-6.188 2.77-6.188 6.187s2.77 6.188 6.188 6.188zm38.553-19.367c3.295-.905 5.234-4.309 4.329-7.605-.904-3.295-4.309-5.234-7.604-4.329-3.296.904-5.234 4.309-4.329 7.604.904 3.296 4.309 5.234 7.604 4.33z" fill="#fff" fill-rule="evenodd"/></svg>