<svg version="1.1" xmlns="http://www.w3.org/2000/svg" viewBox="0 0 911.5146975700483 436.04890483647546" width="2734.544092710145" height="1308.1467145094264">
  <!-- svg-source:excalidraw -->
  
  <defs>
    <style class="style-fonts">
      @font-face {
        font-family: "Virgil";
        src: url("https://excalidraw.com/Virgil.woff2");
      }
      @font-face {
        font-family: "Cascadia";
        src: url("https://excalidraw.com/Cascadia.woff2");
      }
    </style>
    
  </defs>
  <g stroke-linecap="round" transform="translate(293.8146140378511 14.037889846595817) rotate(0 111.78185703007924 33.806504661070335)"><path d="M16.9 0 M16.9 0 C78.83 1.7, 141.43 1.43, 206.66 0 M16.9 0 C81.89 0.84, 147.17 -0.06, 206.66 0 M206.66 0 C218.95 0.74, 224.08 3.71, 223.56 16.9 M206.66 0 C218.99 -1.41, 221.47 3.91, 223.56 16.9 M223.56 16.9 C224.5 27.67, 221.93 40.72, 223.56 50.71 M223.56 16.9 C223.45 29.4, 224.73 43.77, 223.56 50.71 M223.56 50.71 C224.5 62.77, 217.26 66.42, 206.66 67.61 M223.56 50.71 C223.65 60.96, 217.69 68.56, 206.66 67.61 M206.66 67.61 C130.28 67.22, 56.23 64.79, 16.9 67.61 M206.66 67.61 C157.96 66.94, 108.6 67.88, 16.9 67.61 M16.9 67.61 C5.36 65.94, -0.24 63.21, 0 50.71 M16.9 67.61 C5.03 66.29, -0.65 60.21, 0 50.71 M0 50.71 C-1.39 38.23, -0.52 28.05, 0 16.9 M0 50.71 C0.72 40.02, -0.77 27.73, 0 16.9 M0 16.9 C-1.83 6.35, 5.85 -1.78, 16.9 0 M0 16.9 C-1.25 6.31, 3.38 0.02, 16.9 0" stroke="#1971c2" stroke-width="1" fill="none"></path></g><g stroke-linecap="round" transform="translate(303.1655168404941 41.20376303906539) rotate(0 47.50423917479037 15.112570186089641)"><path d="M9.19 0.1 L90.23 0.51 L94.19 3.37 L92.64 27.46 L94.43 26.7 L88.49 31.54 L5.34 29.23 L0.52 26.81 L-1.95 9.02 L1.41 0.65 L7.48 0.72" stroke="none" stroke-width="0" fill="#1971c2"></path><path d="M7.56 0 M7.56 0 C32.48 0.99, 58.9 0.71, 87.45 0 M7.56 0 C29.89 -0.15, 50.78 0.84, 87.45 0 M87.45 0 C92.95 -1.85, 96.58 1.5, 95.01 7.56 M87.45 0 C92.89 1.84, 94.07 3.59, 95.01 7.56 M95.01 7.56 C94.11 13.27, 95.01 15.93, 95.01 22.67 M95.01 7.56 C94.42 14.1, 94.4 18.98, 95.01 22.67 M95.01 22.67 C93.19 26.05, 91.52 28.58, 87.45 30.23 M95.01 22.67 C94.71 29.89, 90.61 28.06, 87.45 30.23 M87.45 30.23 C65.42 31.46, 45 29.49, 7.56 30.23 M87.45 30.23 C66.93 29.65, 44.17 30.79, 7.56 30.23 M7.56 30.23 C1.25 32.16, 0.96 29.67, 0 22.67 M7.56 30.23 C4.18 29.87, -1.5 29.65, 0 22.67 M0 22.67 C-0.36 18.76, -0.82 15.42, 0 7.56 M0 22.67 C0.22 18.74, 0.34 12.83, 0 7.56 M0 7.56 C0.28 2.94, 3.78 0.45, 7.56 0 M0 7.56 C-0.71 3.07, 0.6 -0.24, 7.56 0" stroke="#1e1e1e" stroke-width="1" fill="none"></path></g><g transform="translate(323.5962467989759 46.241286434428616) rotate(0 27.073509216308594 10.075046790726418)"><text x="27.073509216308594" y="0" font-family="Virgil, Segoe UI Emoji" font-size="16.120074865162287px" fill="#ffffff" text-anchor="middle" style="white-space: pre;" direction="ltr" dominant-baseline="text-before-edge">Leader</text></g><g stroke-linecap="round" transform="translate(580.7369914901598 10) rotate(0 136.0820040649778 57.199503928288266)"><path d="M28.6 0 M28.6 0 C110.43 2.1, 188.79 2.09, 243.56 0 M28.6 0 C100.04 -2.2, 170.65 -1.38, 243.56 0 M243.56 0 C263.78 -1.19, 271.09 10.33, 272.16 28.6 M243.56 0 C262.09 -1.96, 270.02 11.04, 272.16 28.6 M272.16 28.6 C273.77 47.27, 272.98 62.75, 272.16 85.8 M272.16 28.6 C272.91 45.46, 271.36 61.38, 272.16 85.8 M272.16 85.8 C272.79 103.89, 260.9 115.26, 243.56 114.4 M272.16 85.8 C273.91 107.15, 264.92 116.53, 243.56 114.4 M243.56 114.4 C179.26 112.66, 118.11 114.09, 28.6 114.4 M243.56 114.4 C199.86 114.76, 155.45 114.94, 28.6 114.4 M28.6 114.4 C10.63 115.97, 0.11 105.97, 0 85.8 M28.6 114.4 C9.51 114.24, 1.74 107.15, 0 85.8 M0 85.8 C0.81 66.24, 0.54 49.45, 0 28.6 M0 85.8 C0.44 67.08, 0.67 46.84, 0 28.6 M0 28.6 C1.04 8.79, 10.94 -1.27, 28.6 0 M0 28.6 C-1.58 10.97, 8.87 -1.24, 28.6 0" stroke="#1e1e1e" stroke-width="1" fill="none"></path></g><g stroke-linecap="round" transform="translate(12.760164228109971 12.526632827986873) rotate(0 48.30906224850271 15.112570186089641)"><path d="M7.56 0 M7.56 0 C36.76 -0.58, 63.79 1.72, 89.06 0 M7.56 0 C37 -0.53, 68.02 -0.52, 89.06 0 M89.06 0 C93.88 -1.43, 98.49 3.72, 96.62 7.56 M89.06 0 C95.8 1.79, 97.37 0.3, 96.62 7.56 M96.62 7.56 C96.01 11.1, 95.74 14.47, 96.62 22.67 M96.62 7.56 C96.66 11.22, 96.59 14.05, 96.62 22.67 M96.62 22.67 C97.98 27.25, 92.82 29.54, 89.06 30.23 M96.62 22.67 C96.68 28.09, 92.81 32.2, 89.06 30.23 M89.06 30.23 C64.59 31.36, 40.67 31.75, 7.56 30.23 M89.06 30.23 C64.95 29.75, 41.89 30.49, 7.56 30.23 M7.56 30.23 C3.18 31.83, -1.3 29.63, 0 22.67 M7.56 30.23 C4.04 28.22, 0.88 26.7, 0 22.67 M0 22.67 C0.74 18.13, -0.15 15.23, 0 7.56 M0 22.67 C0.17 18.64, -0.34 13.67, 0 7.56 M0 7.56 C-0.32 2.04, 0.71 0.55, 7.56 0 M0 7.56 C-0.21 2.3, 1.03 0.03, 7.56 0" stroke="#1e1e1e" stroke-width="1" fill="none"></path></g><g transform="translate(19.9793903560072 17.564156223350096) rotate(0 41.08983612060548 10.075046790726418)"><text x="41.08983612060547" y="0" font-family="Virgil, Segoe UI Emoji" font-size="16.120074865162287px" fill="#1e1e1e" text-anchor="middle" style="white-space: pre;" direction="ltr" dominant-baseline="text-before-edge">Application</text></g><g stroke-linecap="round" transform="translate(145.0778002245995 11.647034016374619) rotate(0 48.3090622485027 14.059806507761778)"><path d="M7.03 0 M7.03 0 C34.84 0.49, 63.57 -0.3, 89.59 0 M7.03 0 C25.15 1.63, 43.38 0.97, 89.59 0 M89.59 0 C92.6 1.81, 95.71 1.03, 96.62 7.03 M89.59 0 C94.45 -1.59, 95.75 3.4, 96.62 7.03 M96.62 7.03 C96.91 9.45, 95.85 13.25, 96.62 21.09 M96.62 7.03 C96.78 12.09, 96.11 17.01, 96.62 21.09 M96.62 21.09 C96.04 25.49, 94.23 28.82, 89.59 28.12 M96.62 21.09 C95.93 24.98, 95.08 27.58, 89.59 28.12 M89.59 28.12 C58.71 27.95, 27.3 26.96, 7.03 28.12 M89.59 28.12 C71.15 26.93, 50.6 26.88, 7.03 28.12 M7.03 28.12 C2.29 27.84, 1.36 25.72, 0 21.09 M7.03 28.12 C3.55 28.39, -0.14 26.4, 0 21.09 M0 21.09 C0.8 16.96, 1.01 14.33, 0 7.03 M0 21.09 C-0.04 16.92, -0.52 12, 0 7.03 M0 7.03 C-0.08 1.1, 2.91 -1.05, 7.03 0 M0 7.03 C-0.19 3.85, 3.79 1.15, 7.03 0" stroke="#1e1e1e" stroke-width="1" fill="none"></path></g><g stroke-linecap="round" transform="translate(297.3009520968884 140.2694266109836) rotate(0 48.36022459548684 25.18761697681606)"><path d="M11.52 1.13 L82.15 0.96 L93.67 1.34 L93.65 4.65 L97.6 9.89 L95.85 36.49 L96.8 43.7 L90.11 46.88 L83.03 51.64 L13.22 49.84 L5.22 50.25 L1.61 45.36 L-0.32 41.09 L-0.73 11.53 L1.05 3.88 L3.78 2.07 L12.49 -0.32" stroke="none" stroke-width="0" fill="#ffd8a8"></path><path d="M12.59 0 M12.59 0 C39.2 1.35, 64.25 -0.39, 84.13 0 M12.59 0 C32.54 0.83, 52.15 -1.14, 84.13 0 M84.13 0 C91.04 1.73, 96.68 4.11, 96.72 12.59 M84.13 0 C90.52 0.02, 95.22 5.04, 96.72 12.59 M96.72 12.59 C96.32 21.45, 97.22 29.41, 96.72 37.78 M96.72 12.59 C97.62 21.56, 96.17 29.43, 96.72 37.78 M96.72 37.78 C98.39 46.31, 93.64 50.27, 84.13 50.38 M96.72 37.78 C94.75 47.54, 93.57 50.82, 84.13 50.38 M84.13 50.38 C58.01 49.7, 33.51 51.94, 12.59 50.38 M84.13 50.38 C63.54 50.66, 41.69 49.68, 12.59 50.38 M12.59 50.38 C4.19 48.93, -1.68 45.51, 0 37.78 M12.59 50.38 C2.36 49.79, 1.91 48.29, 0 37.78 M0 37.78 C-0.18 30.83, 0.73 25.79, 0 12.59 M0 37.78 C0.56 31.16, 1.14 23.76, 0 12.59 M0 12.59 C0.64 5.3, 4.32 0.09, 12.59 0 M0 12.59 C0.32 2.8, 3.6 -0.97, 12.59 0" stroke="#1e1e1e" stroke-width="1" fill="none"></path></g><g transform="translate(316.38728905809796 145.30695000634682) rotate(0 29.273887634277344 20.150093581452865)"><text x="29.273887634277344" y="0" font-family="Virgil, Segoe UI Emoji" font-size="16.120074865162287px" fill="#ffffff" text-anchor="middle" style="white-space: pre;" direction="ltr" dominant-baseline="text-before-edge">KsqlDB</text><text x="29.273887634277344" y="20.150093581452857" font-family="Virgil, Segoe UI Emoji" font-size="16.120074865162287px" fill="#ffffff" text-anchor="middle" style="white-space: pre;" direction="ltr" dominant-baseline="text-before-edge">Serveer</text></g><g stroke-linecap="round" transform="translate(608.258398602484 285.6397468861839) rotate(0 48.3090622485027 17.403069104918842)"><path d="M6.87 0.39 L92.59 1.88 L97.86 6.86 L95.74 28.28 L90 33.48 L89.09 33.84 L3.36 33.66 L2.07 28.18 L1.8 7.86 L3.67 2.59 L9.08 0.49" stroke="none" stroke-width="0" fill="#0c8599"></path><path d="M8.7 0 M8.7 0 C25.26 -1.06, 45.81 -0.85, 87.92 0 M8.7 0 C28.63 -0.7, 46.24 0.25, 87.92 0 M87.92 0 C92.36 1.94, 95.02 1.11, 96.62 8.7 M87.92 0 C94.35 1.66, 95.8 4.66, 96.62 8.7 M96.62 8.7 C97.02 12.85, 96.24 16.59, 96.62 26.1 M96.62 8.7 C97.13 12.66, 97.05 16.42, 96.62 26.1 M96.62 26.1 C97.5 31.43, 95.4 36.77, 87.92 34.81 M96.62 26.1 C94.7 32.05, 93.94 33.16, 87.92 34.81 M87.92 34.81 C58.67 33.7, 30.76 35.09, 8.7 34.81 M87.92 34.81 C69.67 34.36, 52.53 34.65, 8.7 34.81 M8.7 34.81 C4.3 34.97, 1.31 33.86, 0 26.1 M8.7 34.81 C4.32 32.62, -1.76 30.9, 0 26.1 M0 26.1 C0.27 20.67, -0.63 12.07, 0 8.7 M0 26.1 C-0.28 21.74, -0.06 17.36, 0 8.7 M0 8.7 C0.52 4.35, 3.72 -0.61, 8.7 0 M0 8.7 C0.34 2.88, 3.96 -1.22, 8.7 0" stroke="#1e1e1e" stroke-width="1" fill="none"></path></g><g stroke-linecap="round" transform="translate(24.86892493177143 162.97738526520772) rotate(0 48.30906224850271 17.631331883771253)"><path d="M7.9 -1.42 L91.06 0.99 L97.1 4.41 L96.84 30.25 L93.17 35.23 L89.25 36.09 L4.35 35.01 L0.53 31.22 L-1.06 10.76 L2.54 0.89 L10.61 1.22" stroke="none" stroke-width="0" fill="#f08c00"></path><path d="M8.82 0 M8.82 0 C30.34 1.55, 54.98 -0.76, 87.8 0 M8.82 0 C27.75 0, 47 0.77, 87.8 0 M87.8 0 C92.76 0, 96.33 1.33, 96.62 8.82 M87.8 0 C92.65 2.19, 95.29 3.88, 96.62 8.82 M96.62 8.82 C96.4 15.42, 94.98 21.27, 96.62 26.45 M96.62 8.82 C97.23 12.98, 96.11 16.37, 96.62 26.45 M96.62 26.45 C95.8 32.42, 92.53 35.81, 87.8 35.26 M96.62 26.45 C98.07 33.8, 92.76 36.97, 87.8 35.26 M87.8 35.26 C63.04 36.49, 40.18 37.85, 8.82 35.26 M87.8 35.26 C71.66 34.19, 54.35 34.16, 8.82 35.26 M8.82 35.26 C3.2 34.99, -0.77 31.54, 0 26.45 M8.82 35.26 C3.3 35.37, -1.45 31.45, 0 26.45 M0 26.45 C-0.1 18.84, -0.2 12.47, 0 8.82 M0 26.45 C-0.51 20.29, 0.83 16.07, 0 8.82 M0 8.82 C0.28 4.81, 1.87 0.33, 8.82 0 M0 8.82 C-2.05 2.39, 1.87 -1.42, 8.82 0" stroke="#1e1e1e" stroke-width="1" fill="none"></path></g><g transform="translate(46.21730907968822 168.01490866057094) rotate(0 26.960678100585938 12.59380848840803)"><text x="26.960678100585938" y="0" font-family="Virgil, Segoe UI Emoji" font-size="20.15009358145286px" fill="#1e1e1e" text-anchor="middle" style="white-space: pre;" direction="ltr" dominant-baseline="text-before-edge">Proxy</text></g><g stroke-linecap="round" transform="translate(131.52176729700375 163.80539846017643) rotate(0 48.3090622485027 17.631331883771253)"><path d="M6.9 1.39 L90.51 1.12 L97.3 5.06 L95.74 29.67 L92.91 36.27 L86.64 35.67 L5.37 33.63 L-1.16 30.45 L-1.65 10.76 L3.54 1.88 L8.88 1.03" stroke="none" stroke-width="0" fill="#fd7e14"></path><path d="M8.82 0 M8.82 0 C34.43 -1.56, 63.21 1.78, 87.8 0 M8.82 0 C32.2 -0.47, 57.03 -0.87, 87.8 0 M87.8 0 C94.76 -0.2, 95.83 2.73, 96.62 8.82 M87.8 0 C94.81 1.17, 95.08 2.71, 96.62 8.82 M96.62 8.82 C97.38 13.37, 97.59 18.67, 96.62 26.45 M96.62 8.82 C96.63 13.71, 97.13 20.5, 96.62 26.45 M96.62 26.45 C96.81 32.87, 92.23 36.68, 87.8 35.26 M96.62 26.45 C95.96 32.34, 95.72 33.09, 87.8 35.26 M87.8 35.26 C59.02 34.58, 30.29 35.86, 8.82 35.26 M87.8 35.26 C68.75 35.88, 49.67 35.99, 8.82 35.26 M8.82 35.26 C4.81 36.19, 1.01 30.4, 0 26.45 M8.82 35.26 C2.29 36.34, -2.25 33.99, 0 26.45 M0 26.45 C-1.01 19.37, -0.23 16.31, 0 8.82 M0 26.45 C-0.27 21.92, -0.3 16.83, 0 8.82 M0 8.82 C0.83 4.31, 3.88 1.7, 8.82 0 M0 8.82 C-1.44 2.3, 3.34 1.7, 8.82 0" stroke="#1e1e1e" stroke-width="1" fill="none"></path></g><g transform="translate(152.8701514449205 168.84292185553966) rotate(0 26.960678100585938 12.59380848840803)"><text x="26.960678100585938" y="0" font-family="Virgil, Segoe UI Emoji" font-size="20.15009358145286px" fill="#1e1e1e" text-anchor="middle" style="white-space: pre;" direction="ltr" dominant-baseline="text-before-edge">Proxy</text></g><g stroke-linecap="round" transform="translate(12.724744141736352 72.25408139975042) rotate(0 112.95859101071484 17.717914317129043)"><path d="M8.86 0 M8.86 0 C72.53 0.36, 138.56 1.02, 217.06 0 M8.86 0 C69.58 -0.79, 131.84 -2.32, 217.06 0 M217.06 0 C222.23 1.64, 224.3 2.44, 225.92 8.86 M217.06 0 C221.22 -2.26, 224.29 2.24, 225.92 8.86 M225.92 8.86 C227.05 13.86, 226.4 15.91, 225.92 26.58 M225.92 8.86 C226.52 13, 226.43 16.76, 225.92 26.58 M225.92 26.58 C225.34 31.9, 221.83 34.36, 217.06 35.44 M225.92 26.58 C225.56 32.44, 220.74 36.91, 217.06 35.44 M217.06 35.44 C143.86 35.11, 72.54 34.6, 8.86 35.44 M217.06 35.44 C171.74 37.61, 125.57 37.9, 8.86 35.44 M8.86 35.44 C4.49 35.59, 1.68 33.68, 0 26.58 M8.86 35.44 C3.31 35.98, -0.53 33.27, 0 26.58 M0 26.58 C-1.01 24.35, -1.51 17.46, 0 8.86 M0 26.58 C-0.55 21.75, -0.44 15.35, 0 8.86 M0 8.86 C1.37 3.96, 2.77 1.09, 8.86 0 M0 8.86 C-1.34 2.66, 2.07 -1.28, 8.86 0" stroke="#1971c2" stroke-width="1" fill="none"></path></g><g transform="translate(53.55644306260746 77.37818722847146) rotate(0 72.12689208984375 12.59380848840803)"><text x="72.12689208984375" y="0" font-family="Virgil, Segoe UI Emoji" font-size="20.15009358145286px" fill="#1971c2" text-anchor="middle" style="white-space: pre;" direction="ltr" dominant-baseline="text-before-edge">Load Balancer</text></g><g stroke-linecap="round" transform="translate(557.6401328803624 353.7263570827579) rotate(0 95.75230016342738 26.704777343153978)"><path d="M11.49 -1.86 L185.3 2.73 L186.41 5.33 L191.8 9.41 L192.39 47.71 L186.58 50.57 L176.32 51.52 L7.09 54.21 L3.67 48.97 L2.08 43.74 L-0.37 11.28 L1.21 3.95 L3.74 1.48 L14.07 0.51" stroke="none" stroke-width="0" fill="#228be6"></path><path d="M13.35 0 M13.35 0 C55.58 -1.45, 99.54 1.97, 178.15 0 M13.35 0 C55.26 -0.17, 95.93 0.79, 178.15 0 M178.15 0 C185.95 -1.92, 192.36 5.07, 191.5 13.35 M178.15 0 C188.66 -1.43, 191.97 3.34, 191.5 13.35 M191.5 13.35 C190.4 24.06, 193.02 35.09, 191.5 40.06 M191.5 13.35 C191.83 20.86, 190.94 26.89, 191.5 40.06 M191.5 40.06 C189.62 48.88, 186.52 55.14, 178.15 53.41 M191.5 40.06 C191.97 47.16, 189.09 55.15, 178.15 53.41 M178.15 53.41 C141.74 51.52, 106.64 52.87, 13.35 53.41 M178.15 53.41 C133.86 53.16, 89.92 53.37, 13.35 53.41 M13.35 53.41 C2.93 53.99, 0.8 47.65, 0 40.06 M13.35 53.41 C6.41 55.28, -0.34 50.22, 0 40.06 M0 40.06 C0.56 28.1, -0.63 20.44, 0 13.35 M0 40.06 C-1.01 34.05, 0.31 27.39, 0 13.35 M0 13.35 C1.83 5.72, 6.14 0.58, 13.35 0 M0 13.35 C1.55 5.67, 6.47 2.15, 13.35 0" stroke="#1e1e1e" stroke-width="1" fill="none"></path></g><g stroke-linecap="round" transform="translate(126.47831931328187 370.52334915417214) rotate(0 26.36631874002802 22.30481550251642)"><path d="M12.87 1.22 L40.79 -1.14 L49.72 4.05 L52.89 11.91 L54.37 32.21 L50.74 40.83 L41.83 45.46 L10.56 45.05 L4 41.87 L-1.11 34.7 L-0.58 4.5 L1.55 1.78 L10.76 -1.34" stroke="none" stroke-width="0" fill="#1e1e1e"></path><path d="M11.15 0 M11.15 0 C20.97 0.97, 25.36 -1.89, 41.58 0 M11.15 0 C17.65 -0.41, 23.06 -0.23, 41.58 0 M41.58 0 C48.59 0.17, 51.67 4.93, 52.73 11.15 M41.58 0 C51.05 0.98, 50.54 2.17, 52.73 11.15 M52.73 11.15 C51.3 21.4, 51.92 28.37, 52.73 33.46 M52.73 11.15 C53.36 20.15, 53.06 26.87, 52.73 33.46 M52.73 33.46 C53.17 42.42, 50.01 43.44, 41.58 44.61 M52.73 33.46 C52.45 39.4, 50.06 45.04, 41.58 44.61 M41.58 44.61 C33.33 44.67, 29.68 42.56, 11.15 44.61 M41.58 44.61 C35.79 43.88, 27.33 44.25, 11.15 44.61 M11.15 44.61 C2.39 43.54, 1.58 40.96, 0 33.46 M11.15 44.61 C5.02 45.35, 0.54 39.55, 0 33.46 M0 33.46 C2.14 29.82, 0.38 24.41, 0 11.15 M0 33.46 C-0.44 26.22, -0.67 16.93, 0 11.15 M0 11.15 C-0.37 5.14, 3.99 -1.38, 11.15 0 M0 11.15 C-0.01 4.59, 5.56 0.25, 11.15 0" stroke="#1e1e1e" stroke-width="1" fill="none"></path></g><g stroke-linecap="round" transform="translate(182.57389721625816 369.92120768582004) rotate(0 26.36631874002802 22.30481550251642)"><path d="M11.94 1.71 L43.23 1.86 L51.41 2.1 L52.5 9.49 L51.88 35.27 L49.92 42.25 L40.75 46.59 L12.09 45.19 L2.29 43.76 L1.91 34.06 L-0.58 7.48 L1.59 2.49 L11.19 0.66" stroke="none" stroke-width="0" fill="#1e1e1e"></path><path d="M11.15 0 M11.15 0 C19.03 -0.86, 28.59 1.03, 41.58 0 M11.15 0 C17.1 0.81, 25.67 -0.54, 41.58 0 M41.58 0 C49.34 -1.79, 50.82 5.23, 52.73 11.15 M41.58 0 C46.87 0.02, 51.91 2.82, 52.73 11.15 M52.73 11.15 C53.63 16.85, 54.02 21.67, 52.73 33.46 M52.73 11.15 C52.51 17.74, 53.43 25.57, 52.73 33.46 M52.73 33.46 C51.81 39.35, 50.39 44.1, 41.58 44.61 M52.73 33.46 C51.52 40.51, 49.36 45.4, 41.58 44.61 M41.58 44.61 C35.09 45.66, 29.96 46.24, 11.15 44.61 M41.58 44.61 C32 45.31, 23.25 45.31, 11.15 44.61 M11.15 44.61 C1.72 45.15, -0.6 39.1, 0 33.46 M11.15 44.61 C2.9 46.19, 0.71 39.93, 0 33.46 M0 33.46 C-0.1 26.96, 1.52 19.77, 0 11.15 M0 33.46 C0.85 24.52, -0.47 16.37, 0 11.15 M0 11.15 C-0.41 4.34, 4.12 -1.02, 11.15 0 M0 11.15 C1.62 2.93, 4.55 1.7, 11.15 0" stroke="#1e1e1e" stroke-width="1" fill="none"></path></g><g stroke-linecap="round" transform="translate(238.47072907902668 369.9959834237201) rotate(0 26.36631874002802 22.30481550251642)"><path d="M10.44 1.37 L42.2 -0.83 L50.8 2.6 L51.5 11.03 L53.88 34.96 L51.55 43.49 L40.84 46.05 L12.69 43.83 L1.69 41.83 L-0.41 34.08 L1.1 5.25 L4.19 2.11 L11.87 1.48" stroke="none" stroke-width="0" fill="#1e1e1e"></path><path d="M11.15 0 M11.15 0 C22.2 -2.19, 34.46 0.56, 41.58 0 M11.15 0 C21.79 -0.67, 31.41 0.3, 41.58 0 M41.58 0 C48.26 1.6, 53.01 2.78, 52.73 11.15 M41.58 0 C51.23 1.03, 50.7 4.74, 52.73 11.15 M52.73 11.15 C53.32 17.65, 54.56 19.9, 52.73 33.46 M52.73 11.15 C52.55 17.02, 51.56 22.16, 52.73 33.46 M52.73 33.46 C52.27 39.69, 49.85 46.03, 41.58 44.61 M52.73 33.46 C50.61 41.43, 46.96 43.35, 41.58 44.61 M41.58 44.61 C31.66 46.36, 21.03 43.69, 11.15 44.61 M41.58 44.61 C33.23 44.12, 23.19 43.71, 11.15 44.61 M11.15 44.61 C4.17 46.38, 0.06 41.4, 0 33.46 M11.15 44.61 C1.77 45.86, -0.73 39.69, 0 33.46 M0 33.46 C-0.08 26.45, 1.24 22.81, 0 11.15 M0 33.46 C0.61 28.45, -1 22.69, 0 11.15 M0 11.15 C1.65 3.75, 2.05 -0.06, 11.15 0 M0 11.15 C-0.25 4.06, 4.07 0.24, 11.15 0" stroke="#1e1e1e" stroke-width="1" fill="none"></path></g><g stroke-linecap="round" transform="translate(294.761117457058 371.37736679229226) rotate(0 26.36631874002805 22.30481550251642)"><path d="M11.2 1.65 L41.62 -1.66 L49.89 2.57 L53.03 11.46 L52.95 33.5 L48.58 41.48 L41.19 43.7 L12.66 44.95 L1.06 40 L0.72 32.4 L2.41 5.49 L4.26 3.46 L11.96 0.72" stroke="none" stroke-width="0" fill="#1e1e1e"></path><path d="M11.15 0 M11.15 0 C19.62 -0.68, 25.87 0.42, 41.58 0 M11.15 0 C18.53 -0.39, 24.39 0.75, 41.58 0 M41.58 0 C48.63 -0.28, 51.33 2.02, 52.73 11.15 M41.58 0 C49.48 -0.86, 51.32 2.78, 52.73 11.15 M52.73 11.15 C53.84 16.8, 52.06 22.99, 52.73 33.46 M52.73 11.15 C52.88 17.04, 53.86 21.41, 52.73 33.46 M52.73 33.46 C53.31 39.75, 47.85 43.66, 41.58 44.61 M52.73 33.46 C51.12 42.66, 51.12 43.3, 41.58 44.61 M41.58 44.61 C30.92 43.57, 23.36 45.52, 11.15 44.61 M41.58 44.61 C33.33 44.07, 24.65 45.19, 11.15 44.61 M11.15 44.61 C3.27 43.05, -1.76 39.68, 0 33.46 M11.15 44.61 C3.18 45, 0.95 41.23, 0 33.46 M0 33.46 C1.44 28.69, -1.36 23.21, 0 11.15 M0 33.46 C0.08 27.3, 0.51 19.94, 0 11.15 M0 11.15 C1.47 5.65, 2.59 -1.01, 11.15 0 M0 11.15 C-2.15 2.98, 2.94 1.95, 11.15 0" stroke="#1e1e1e" stroke-width="1" fill="none"></path></g><g stroke-linecap="round" transform="translate(350.6500781895213 370.4525089814249) rotate(0 26.36631874002802 22.30481550251642)"><path d="M9.53 0.92 L40.13 0.56 L48.16 1.46 L53.58 11.71 L51.46 32.49 L48.18 43.02 L42.67 43.81 L12.74 45.6 L2.67 42.84 L-0.82 32.53 L-0.25 5.23 L3.42 2.03 L11.07 0.08" stroke="none" stroke-width="0" fill="#1e1e1e"></path><path d="M11.15 0 M11.15 0 C21.85 0.38, 32.36 -1.26, 41.58 0 M11.15 0 C18.59 -0.48, 28.43 1.08, 41.58 0 M41.58 0 C47.98 0.05, 52.12 2.62, 52.73 11.15 M41.58 0 C49.35 1.46, 52.01 5.67, 52.73 11.15 M52.73 11.15 C51.35 19.4, 52.51 26.23, 52.73 33.46 M52.73 11.15 C51.84 20.89, 52.3 29.01, 52.73 33.46 M52.73 33.46 C51.37 40.36, 49.13 44.85, 41.58 44.61 M52.73 33.46 C52.47 38.7, 49.25 43.2, 41.58 44.61 M41.58 44.61 C31.27 46.52, 23.93 42.8, 11.15 44.61 M41.58 44.61 C29.32 45.18, 18.34 44.16, 11.15 44.61 M11.15 44.61 C3.28 46.24, 1.26 40.64, 0 33.46 M11.15 44.61 C5.38 43.75, -1.22 42.97, 0 33.46 M0 33.46 C0.68 23.62, -1.44 15.17, 0 11.15 M0 33.46 C-0.56 26.78, -0.94 20.25, 0 11.15 M0 11.15 C-1.68 5.68, 2.99 0.11, 11.15 0 M0 11.15 C1.65 2.46, 2.64 0.82, 11.15 0" stroke="#1e1e1e" stroke-width="1" fill="none"></path></g><g stroke-linecap="round" transform="translate(116.72008551734206 337.250748297741) rotate(0 148.66990920565692 44.39907826936724)"><path d="M22.2 0 M22.2 0 C95.96 1.78, 165.49 -0.43, 275.14 0 M22.2 0 C118.41 0.19, 214.07 -0.6, 275.14 0 M275.14 0 C288.62 0.43, 296.2 7.84, 297.34 22.2 M275.14 0 C291.77 -0.49, 298.83 9.03, 297.34 22.2 M297.34 22.2 C297.75 33.58, 295.33 41.24, 297.34 66.6 M297.34 22.2 C296.83 37.37, 296.71 51.34, 297.34 66.6 M297.34 66.6 C297.04 79.8, 288.55 90.35, 275.14 88.8 M297.34 66.6 C298.86 82.64, 290.76 86.78, 275.14 88.8 M275.14 88.8 C176.47 87.59, 80.68 86.86, 22.2 88.8 M275.14 88.8 C195.94 87.91, 117.29 87.33, 22.2 88.8 M22.2 88.8 C8.03 87.88, -0.72 80.1, 0 66.6 M22.2 88.8 C5.27 86.69, -0.25 82.75, 0 66.6 M0 66.6 C-0.46 53.85, -1.59 36.96, 0 22.2 M0 66.6 C-0.58 50.47, -0.5 36.57, 0 22.2 M0 22.2 C-1.99 6.61, 6.2 -1.64, 22.2 0 M0 22.2 C-1.03 6.61, 5.58 1.06, 22.2 0" stroke="#1e1e1e" stroke-width="1" fill="none"></path></g><g stroke-linecap="round" transform="translate(289.2483851898299 116.36975661555641) rotate(0 114.37342668308443 38.58566768551958)"><path d="M19.29 0 M19.29 0 C88.64 -0.08, 161.25 -0.49, 209.45 0 M19.29 0 C63.2 -0.73, 107.74 -1.65, 209.45 0 M209.45 0 C224.28 -0.57, 230.68 5.09, 228.75 19.29 M209.45 0 C222.01 0.73, 226.52 6.27, 228.75 19.29 M228.75 19.29 C226.42 36.52, 228.04 50.18, 228.75 57.88 M228.75 19.29 C228.84 27.59, 228.96 36, 228.75 57.88 M228.75 57.88 C229.6 72.45, 220.68 77.03, 209.45 77.17 M228.75 57.88 C227.58 68.49, 224.44 77.41, 209.45 77.17 M209.45 77.17 C164.58 77.08, 123.67 76.18, 19.29 77.17 M209.45 77.17 C152.95 76.36, 97.64 77.03, 19.29 77.17 M19.29 77.17 C7.07 75.85, 0.68 68.84, 0 57.88 M19.29 77.17 C8.27 76.01, -0.35 73.03, 0 57.88 M0 57.88 C0.59 48.47, 0.39 43.51, 0 19.29 M0 57.88 C0.04 43.08, -0.14 28.46, 0 19.29 M0 19.29 C-1.72 7.07, 6.78 0.08, 19.29 0 M0 19.29 C2.06 4.5, 7.37 -0.08, 19.29 0" stroke="#1e1e1e" stroke-width="1" fill="none"></path></g><g stroke-linecap="round" transform="translate(11.17705140320831 135.93592652927322) rotate(0 114.37342668308442 33.607758620862626)"><path d="M16.8 0 M16.8 0 C92.18 -0.69, 169.19 -0.68, 211.94 0 M16.8 0 C87.44 -2.16, 157.43 -1.11, 211.94 0 M211.94 0 C224.2 -1.08, 228.06 5.71, 228.75 16.8 M211.94 0 C225.03 1.74, 227.98 4.12, 228.75 16.8 M228.75 16.8 C227.47 23.59, 229.21 29.12, 228.75 50.41 M228.75 16.8 C228.23 28.64, 228.1 41.79, 228.75 50.41 M228.75 50.41 C226.87 61.67, 223.92 66.65, 211.94 67.22 M228.75 50.41 C228.8 60, 223.62 67.3, 211.94 67.22 M211.94 67.22 C165.15 69.82, 121.04 68.78, 16.8 67.22 M211.94 67.22 C168.58 66.83, 124.72 65.73, 16.8 67.22 M16.8 67.22 C5.65 67.24, -0.46 62.97, 0 50.41 M16.8 67.22 C7.42 64.95, -1.02 61.9, 0 50.41 M0 50.41 C0.2 42.36, 0.86 34.85, 0 16.8 M0 50.41 C0.74 43.06, 0.92 36.45, 0 16.8 M0 16.8 C0.83 4.33, 5.34 -1.24, 16.8 0 M0 16.8 C0.33 7.82, 4.57 -1.32, 16.8 0" stroke="#1e1e1e" stroke-width="1" fill="none"></path></g><g stroke-linecap="round" transform="translate(596.8633722068297 169.29925660363904) rotate(0 61.534528943907446 33.607758620862626)"><path d="M16.8 0 M16.8 0 C48.1 -1.03, 77.16 0.9, 106.27 0 M16.8 0 C37.64 0.22, 56.81 -1.03, 106.27 0 M106.27 0 C118.61 0, 121.2 6.36, 123.07 16.8 M106.27 0 C118.53 -1.68, 124.68 3.67, 123.07 16.8 M123.07 16.8 C123.25 27.12, 122.92 37.7, 123.07 50.41 M123.07 16.8 C123.22 26.15, 122.21 35.09, 123.07 50.41 M123.07 50.41 C124.75 60.78, 119.21 68.77, 106.27 67.22 M123.07 50.41 C124.18 59.39, 119.62 68.23, 106.27 67.22 M106.27 67.22 C86.01 68.31, 67.06 64.38, 16.8 67.22 M106.27 67.22 C87.92 66.84, 67.95 67.39, 16.8 67.22 M16.8 67.22 C3.96 68.89, -1.14 59.94, 0 50.41 M16.8 67.22 C6.84 69.06, -1.17 59.46, 0 50.41 M0 50.41 C-0.77 38.25, 2.23 28.39, 0 16.8 M0 50.41 C-0.55 44.48, 0.72 37.21, 0 16.8 M0 16.8 C1.27 7.21, 3.9 1.28, 16.8 0 M0 16.8 C1.26 4.72, 5.35 -0.27, 16.8 0" stroke="#1e1e1e" stroke-width="1" fill="none"></path></g><g stroke-linecap="round" transform="translate(593.7027108854912 258.4751431466306) rotate(0 61.534528943907446 33.6077586208626)"><path d="M16.8 0 M16.8 0 C39.2 -0.12, 56.72 -2.19, 106.27 0 M16.8 0 C35.44 0.84, 55.22 0.67, 106.27 0 M106.27 0 C116.88 -0.28, 121.91 4.96, 123.07 16.8 M106.27 0 C119.58 -0.05, 122.95 6.57, 123.07 16.8 M123.07 16.8 C124.46 28.78, 122.39 40.58, 123.07 50.41 M123.07 16.8 C123.64 27.9, 123.03 39.19, 123.07 50.41 M123.07 50.41 C124.85 60.03, 116.51 68.71, 106.27 67.22 M123.07 50.41 C124.32 62.48, 115.27 65.77, 106.27 67.22 M106.27 67.22 C83.67 65.81, 58.1 67.27, 16.8 67.22 M106.27 67.22 C76.78 67.9, 47.75 66.78, 16.8 67.22 M16.8 67.22 C5.31 68.44, -1.22 61.36, 0 50.41 M16.8 67.22 C6.84 68.46, 0.23 59.55, 0 50.41 M0 50.41 C1.4 43.54, -1.1 33.04, 0 16.8 M0 50.41 C0.6 37.73, -0.78 25.05, 0 16.8 M0 16.8 C0.16 4.95, 5.37 1.46, 16.8 0 M0 16.8 C-1.71 5.77, 3.51 -2.19, 16.8 0" stroke="#1e1e1e" stroke-width="1" fill="none"></path></g><g stroke-linecap="round"><g transform="translate(580.0887809125418 45.891952907353925) rotate(0 -32.02105687398637 -2.0800219627264767)"><path d="M-1.11 -0.2 C-11.49 -0.8, -52.61 -3.49, -62.93 -3.96" stroke="#1e1e1e" stroke-width="1.5" fill="none" stroke-dasharray="1.5 7"></path></g><g transform="translate(580.0887809125418 45.891952907353925) rotate(0 -32.02105687398637 -2.0800219627264767)"><path d="M-61.16 -4.17 L-49.65 -9.61 L-51.57 3.72 L-64.9 -2.96" stroke="none" stroke-width="0" fill="#1e1e1e" fill-rule="evenodd"></path><path d="M-63.17 -4.11 C-60.43 -5.48, -55.87 -5.53, -47.87 -9.79 M-49.86 -9.52 C-49.72 -7.83, -48.36 -3.06, -49.97 2.39 M-50.58 2.23 C-52.33 1.69, -56.09 -1.24, -62.82 -4.06 M-62.93 -3.96 C-62.93 -3.96, -62.93 -3.96, -62.93 -3.96" stroke="#1e1e1e" stroke-width="1.5" fill="none"></path></g></g><mask></mask><g stroke-linecap="round"><g transform="translate(751.6507149384674 380.9663712866692) rotate(0 70.55142193059538 0.1406970392506537)"><path d="M0.77 -1.1 C52.87 1.96, 103.58 0.74, 140.33 1.39" stroke="#1e1e1e" stroke-width="1.5" fill="none" stroke-dasharray="8 9"></path></g></g><mask></mask><g stroke-linecap="round"><g transform="translate(404.91213491699284 192.00741782091518) rotate(0 0.18690509900318375 16.504059379936933)"><path d="M1.87 -1.13 C-1.69 7.88, -1.74 19.05, -1.32 33.05 M-0.93 -0.51 C0.28 9.28, -0.29 20.07, -0.34 34.13" stroke="#1e1e1e" stroke-width="1" fill="none"></path></g><g transform="translate(404.91213491699284 192.00741782091518) rotate(0 0.18690509900318375 16.504059379936933)"><path d="M-0.44 33 L-6.82 22.19 L5.45 21.07 L-1.33 35.47" stroke="none" stroke-width="0" fill="#1e1e1e" fill-rule="evenodd"></path><path d="M1.07 33.29 C-3.5 29.46, -5.17 27.2, -7.26 20.36 M-1.04 33.75 C-2.11 29.55, -4.31 26.09, -6.52 21.17 M-5.38 19.3 C-4.92 20.39, -0.74 19.38, 5.95 21.8 M-6.82 21.02 C-3.16 21.21, 1.15 20.34, 6.5 20.58 M5.59 21.55 C2.24 24.83, 1.3 31.89, -1.51 34.32 M5.44 19.87 C3.85 24.98, 2.71 28.16, -0.36 34.7 M-0.34 34.13 C-0.34 34.13, -0.34 34.13, -0.34 34.13 M-0.34 34.13 C-0.34 34.13, -0.34 34.13, -0.34 34.13" stroke="#1e1e1e" stroke-width="1" fill="none"></path></g></g><mask></mask><g stroke-linecap="round"><g transform="translate(127.02997643821931 204.15894845007102) rotate(0 -0.04300422957095407 11.641318243110362)"><path d="M-0.18 1.35 C-0.15 5.74, -0.56 8.86, -0.1 22.45 M0.76 0.84 C0.32 6.04, -0.9 10.92, -0.84 22.1" stroke="#1e1e1e" stroke-width="1" fill="none"></path></g><g transform="translate(127.02997643821931 204.15894845007102) rotate(0 -0.04300422957095407 11.641318243110362)"><path d="M-0.51 23.53 L-6.93 12.15 L4.53 11.23 L0.3 20.44" stroke="none" stroke-width="0" fill="#1e1e1e" fill-rule="evenodd"></path><path d="M-0.94 22.83 C-1.83 20.35, -2.94 17.15, -4.83 12.7 M-0.43 22.55 C-1.76 19.4, -3.5 16.11, -5.23 12.51 M-5.95 12.19 C-1.44 11.69, 2.86 11.93, 4.21 13.22 M-5.49 12.33 C-2.52 11.93, 0.28 12.17, 4.4 12.27 M3.85 13.5 C1.5 16.33, 0.17 18.69, -1.46 23.09 M3.96 12.74 C2.02 16.35, -0.22 19.95, -1.07 22.63 M-0.84 22.1 C-0.84 22.1, -0.84 22.1, -0.84 22.1 M-0.84 22.1 C-0.84 22.1, -0.84 22.1, -0.84 22.1" stroke="#1e1e1e" stroke-width="1" fill="none"></path></g></g><mask></mask><g stroke-linecap="round"><g transform="translate(125.05539717212815 111.1370953884446) rotate(0 -0.76669206430401 11.342606276230697)"><path d="M-1.76 0.15 C1.38 5.67, 0.11 11.06, -1.08 22.53 M-0.02 0.61 C-0.05 4.53, 0.97 11.15, -0.89 20.82" stroke="#1e1e1e" stroke-width="1" fill="none"></path></g><g transform="translate(125.05539717212815 111.1370953884446) rotate(0 -0.76669206430401 11.342606276230697)"><path d="M-0.66 19.09 L-3.19 10.5 L5.19 12.07 L0.81 22.11" stroke="none" stroke-width="0" fill="#1e1e1e" fill-rule="evenodd"></path><path d="M-1.82 20.9 C-1.14 17.7, -2.75 14.41, -4.71 11.56 M-0.9 21.14 C-1.71 17.89, -1.99 16.05, -4.61 10.66 M-4.45 10.2 C-2.14 11.77, 1.13 10.66, 5.17 11.21 M-3.77 10.78 C-1.5 11.25, 0.67 11.16, 5.04 11.6 M5.31 11.88 C3.12 14.13, 0.83 17.47, -0.9 21.03 M4.27 11.85 C2.97 14.51, 1.34 16.29, -0.6 20.71 M-0.89 20.82 C-0.89 20.82, -0.89 20.82, -0.89 20.82 M-0.89 20.82 C-0.89 20.82, -0.89 20.82, -0.89 20.82" stroke="#1e1e1e" stroke-width="1" fill="none"></path></g></g><mask></mask><g stroke-linecap="round"><g transform="translate(125.69683864025421 50.99194898723374) rotate(0 0.08684825584359146 9.846295171859282)"><path d="M1.2 -1.5 C-0.11 3.8, -1.26 9.82, -0.99 18.58 M-0.09 -0.29 C0.22 5.94, 0.61 11.98, -0.1 21.19" stroke="#1e1e1e" stroke-width="1" fill="none"></path></g><g transform="translate(125.69683864025421 50.99194898723374) rotate(0 0.08684825584359146 9.846295171859282)"><path d="M1.1 20.77 L-4.13 10.37 L3.34 12.06 L-0.04 19.74" stroke="none" stroke-width="0" fill="#1e1e1e" fill-rule="evenodd"></path><path d="M0.51 20.43 C-0.89 18.6, -2.25 17.13, -4.01 10.95 M-0.14 21.04 C-1 18.87, -1.73 16.59, -3.55 12.28 M-3.4 11.86 C-1.2 11.58, 0.03 11.94, 5.36 11.69 M-3.98 12 C-0.62 12.02, 2.19 12.21, 4.85 11.8 M5.11 11.28 C3.65 15.2, 0.18 18.49, 0.85 21.11 M4.21 12.13 C3.1 16.1, 0.76 19.73, -0.04 20.79 M-0.1 21.19 C-0.1 21.19, -0.1 21.19, -0.1 21.19 M-0.1 21.19 C-0.1 21.19, -0.1 21.19, -0.1 21.19" stroke="#1e1e1e" stroke-width="1" fill="none"></path></g></g><mask></mask><g stroke-linecap="round"><g transform="translate(265.3310819891898 52.046647592223394) rotate(0 -1.1618160004914557 84.42703811779427)"><path d="M-1.45 -0.4 C-2.58 47.07, -0.36 99.71, -0.57 168.57 M-0.88 -0.48 C-2.15 65.55, -1.81 131.56, -0.78 169.33" stroke="#1e1e1e" stroke-width="1" fill="none"></path></g><g transform="translate(265.3310819891898 52.046647592223394) rotate(0 -1.1618160004914557 84.42703811779427)"><path d="M0.92 167.46 L-8.41 157.02 L3.61 155.93 L0.36 169.45" stroke="none" stroke-width="0" fill="#1e1e1e" fill-rule="evenodd"></path><path d="M-1.86 169.04 C-3.01 163.92, -2.97 162.71, -6.84 154.63 M-1.44 168.97 C-3.35 163.93, -5.28 158.82, -7 155.2 M-7.17 154.69 C-2.71 155.66, 0.67 154.63, 5.47 154.78 M-7.16 155.71 C-4.06 156.32, -0.24 155.61, 4.78 155.07 M5.3 156.76 C3.94 160.13, 3.09 163.05, -0.29 168.19 M5.09 155.31 C3.63 158.23, 1.82 161.95, -0.48 168.97 M-0.78 169.33 C-0.78 169.33, -0.78 169.33, -0.78 169.33 M-0.78 169.33 C-0.78 169.33, -0.78 169.33, -0.78 169.33" stroke="#1e1e1e" stroke-width="1" fill="none"></path></g></g><mask></mask><g stroke-linecap="round"><g transform="translate(450.2504420362136 379.8977056508071) rotate(0 0.4794011231883246 -30.506659850291157)"><path d="M0.17 -1.21 C0.61 -18.73, -1.27 -40.11, 1.23 -59.23 M0.49 -0.5 C-0.78 -17.96, -0.22 -37.69, 0.37 -60.51" stroke="#1e1e1e" stroke-width="1" fill="none"></path></g><g transform="translate(450.2504420362136 379.8977056508071) rotate(0 0.4794011231883246 -30.506659850291157)"><path d="M0.2 -60.64 L7.88 -48.24 L-7.19 -46.74 L-0.87 -60.32" stroke="none" stroke-width="0" fill="#1e1e1e" fill-rule="evenodd"></path><path d="M0.5 -61.42 C3.09 -55.67, 3.64 -52.84, 7.43 -45.78 M0.74 -60.89 C2.16 -55.64, 4.48 -52.08, 6.78 -46.74 M6.41 -46.91 C2.94 -46.01, -0.97 -46.73, -7.39 -46.79 M6.48 -46.47 C2.21 -47.29, -1.97 -46.49, -5.91 -46.9 M-6.71 -47.2 C-5.09 -50.89, -2.61 -51.93, 1.14 -59.79 M-6.96 -46.91 C-4.11 -50.97, -3.25 -54.08, -0.27 -60.62 M0.37 -60.51 C0.37 -60.51, 0.37 -60.51, 0.37 -60.51 M0.37 -60.51 C0.37 -60.51, 0.37 -60.51, 0.37 -60.51" stroke="#1e1e1e" stroke-width="1" fill="none"></path></g></g><mask></mask><g stroke-linecap="round"><g transform="translate(262.14791980561415 315.63195570346693) rotate(0 -0.19767909718777332 11.480226642817684)"><path d="M0.93 -0.68 C0.53 8.63, 2.01 13.95, -1.33 22.53 M-0.72 0.61 C-0.49 3.98, 0.32 9.84, -0.38 23.64" stroke="#1e1e1e" stroke-width="1" fill="none"></path></g><g transform="translate(262.14791980561415 315.63195570346693) rotate(0 -0.19767909718777332 11.480226642817684)"><path d="M-2.21 24.22 L-5.5 11.42 L4.61 13.24 L-0.83 24.83" stroke="none" stroke-width="0" fill="#1e1e1e" fill-rule="evenodd"></path><path d="M0.17 23.24 C-1.42 21.47, -1.96 17.36, -5.98 12.28 M-0.8 24 C-1.71 20.92, -2.23 19.28, -5.42 12.94 M-5.35 13.82 C-0.9 12.75, 2.56 13.47, 5.07 12.29 M-5.53 13.29 C-1.87 12.99, 1.84 12.54, 4.49 12.81 M4.26 12.94 C3.03 16.44, 2.83 18.03, 0.55 23.03 M5.46 12.83 C3.96 15.16, 2.56 18.78, -0.28 23.22 M-0.38 23.64 C-0.38 23.64, -0.38 23.64, -0.38 23.64 M-0.38 23.64 C-0.38 23.64, -0.38 23.64, -0.38 23.64" stroke="#1e1e1e" stroke-width="1" fill="none"></path></g></g><mask></mask><g stroke-linecap="round"><g transform="translate(62.08460228599057 52.80320659997682) rotate(0 63.45203417639024 0.8482517021214449)"><path d="M0.43 0.86 C33.18 0.4, 65.47 -1.14, 127.51 0.91 M-0.61 -0.51 C33.81 0.57, 68.8 -0.42, 127.39 2.21" stroke="#1e1e1e" stroke-width="1" fill="none"></path></g></g><mask></mask><g stroke-linecap="round"><g transform="translate(191.77328076052498 41.05554461938368) rotate(0 -2.166037664415626 7.297236618120763)"><path d="M-0.71 0.76 C-1.24 2.65, 0.1 7.59, -3.77 15.1 M-0.56 -0.51 C-0.77 4.93, -1.93 9.64, -2.66 14.66" stroke="#1e1e1e" stroke-width="1" fill="none"></path></g></g><mask></mask><g stroke-linecap="round"><g transform="translate(62.25776715270621 41.88594886658808) rotate(0 0.41115656296614134 5.259250278564878)"><path d="M0.6 0.29 C-0.65 3.21, 0.7 7.12, 0.98 9.92 M0.05 0.08 C-0.27 2.78, -0.01 5.2, -0.16 10.44" stroke="#1e1e1e" stroke-width="1" fill="none"></path></g></g><mask></mask><g stroke-linecap="round"><g transform="translate(403.0870974304272 109.50052967065795) rotate(0 1.0748039989026097 -12.253894385316585)"><path d="M1.72 1.37 C-1.37 -9.47, 2.22 -15.57, 1.06 -25.88" stroke="#1e1e1e" stroke-width="1.5" fill="none" stroke-dasharray="1.5 7"></path></g><g transform="translate(403.0870974304272 109.50052967065795) rotate(0 1.0748039989026097 -12.253894385316585)"><path d="M1.63 -27.62 L7.64 -15.8 L-4.37 -14.59 L2.48 -27.34" stroke="none" stroke-width="0" fill="#1e1e1e" fill-rule="evenodd"></path><path d="M2.14 -25.02 C1.74 -23.02, 5.73 -18.05, 7.07 -14.97 M6.52 -14.88 C2.63 -14.55, -1.35 -14.31, -4.28 -15.18 M-3.61 -14.21 C-2.08 -17.87, -1.14 -20.67, 0.86 -25.69 M1.06 -25.88 C1.06 -25.88, 1.06 -25.88, 1.06 -25.88" stroke="#1e1e1e" stroke-width="1.5" fill="none"></path></g></g><mask></mask><g stroke-linecap="round"><g transform="translate(557.406961265384 205.25519391730882) rotate(0 20.34921820956521 -0.7687477610293456)"><path d="M1.04 -0.74 C14.14 -0.38, 25.6 -1.36, 41.29 -1.61 M-0.59 0.08 C15.4 -0.41, 31.1 -0.35, 40.84 -0.62" stroke="#1e1e1e" stroke-width="1" fill="none"></path></g></g><mask></mask><g stroke-linecap="round"><g transform="translate(554.731373887448 292.85887390470214) rotate(0 20.127630523697064 -0.9805042651549911)"><path d="M-1.71 -1.97 C8.39 0.24, 20.67 0.88, 41.96 -2.09 M-0.06 -0.03 C9.09 0.36, 19.5 -0.12, 40.66 0.03" stroke="#1e1e1e" stroke-width="1" fill="none"></path></g></g><mask></mask><g stroke-linecap="round"><g transform="translate(557.9500692564465 203.43302725164222) rotate(0 -0.9301156065590703 44.68572842315035)"><path d="M0.87 1.73 C-0.77 19.49, -0.86 42.34, -1.72 88.73 M0.51 0.64 C-0.59 20.67, -1.42 44.03, -2.73 87.79" stroke="#1e1e1e" stroke-width="1" fill="none"></path></g></g><mask></mask><g stroke-linecap="round"><g transform="translate(556.619662605958 269.5418962339582) rotate(0 -19.82253270467811 -1.2453478794766966)"><path d="M-1.8 -1.88 C-9.94 -0.07, -21.51 -0.7, -38.84 -1.31 M-0.8 0.52 C-14.85 -1.28, -30.01 -2.79, -37.62 -3.01" stroke="#1e1e1e" stroke-width="1" fill="none"></path></g><g transform="translate(556.619662605958 269.5418962339582) rotate(0 -19.82253270467811 -1.2453478794766966)"><path d="M-39 -4.23 L-21.9 -9.75 L-24.42 5.78 L-37.37 -1.63" stroke="none" stroke-width="0" fill="#1e1e1e" fill-rule="evenodd"></path><path d="M-38.97 -4.42 C-34.12 -3.67, -31.86 -5.09, -24.06 -7.68 M-38.22 -2.62 C-31.67 -5.03, -25.96 -7.64, -23.15 -8.96 M-23.68 -7.95 C-24.77 -4.03, -22.84 -0.29, -25.18 4.39 M-23.5 -8.21 C-23.99 -4.9, -24.41 -0.67, -24.1 3.99 M-25.65 2.81 C-27.61 2.27, -29.01 1.13, -37.89 -1.93 M-25.13 3.5 C-28.95 1.43, -34.36 -1.24, -37.99 -2.7 M-37.62 -3.01 C-37.62 -3.01, -37.62 -3.01, -37.62 -3.01 M-37.62 -3.01 C-37.62 -3.01, -37.62 -3.01, -37.62 -3.01" stroke="#1e1e1e" stroke-width="1" fill="none"></path></g></g><mask></mask><g stroke-linecap="round"><g transform="translate(452.09517334622444 378.2626380268141) rotate(0 54.54570412982446 0.8575050439261531)"><path d="M-0.62 1.69 C39.63 0.7, 80.13 1.05, 109.71 0.65 M-0.57 0.25 C39.74 0.79, 79.41 0.58, 107.36 0.03" stroke="#1e1e1e" stroke-width="1" fill="none"></path></g></g><mask></mask><g stroke-linecap="round" transform="translate(408.10145828757766 40.41959106208952) rotate(0 47.50423917479037 15.112570186089641)"><path d="M6.69 1.66 L90.67 -1.1 L95.76 5.57 L95.33 26.05 L92.86 29.81 L87.18 30.28 L4.52 30.7 L0.44 24.49 L1.76 6.75 L0.04 2.1 L8.08 0.31" stroke="none" stroke-width="0" fill="#1971c2"></path><path d="M7.56 0 M7.56 0 C33.7 2.47, 57.4 -1.26, 87.45 0 M7.56 0 C26.08 -1.21, 43.86 -0.37, 87.45 0 M87.45 0 C91.41 0.97, 95.73 2.63, 95.01 7.56 M87.45 0 C93.68 -0.52, 96.05 3.06, 95.01 7.56 M95.01 7.56 C94.13 11.1, 93.87 15.13, 95.01 22.67 M95.01 7.56 C94.6 12.45, 95.35 18.17, 95.01 22.67 M95.01 22.67 C96.75 27.92, 92.94 28.59, 87.45 30.23 M95.01 22.67 C95.54 26.86, 92.24 29.4, 87.45 30.23 M87.45 30.23 C64.31 28.89, 37.55 31.88, 7.56 30.23 M87.45 30.23 C65.88 29.9, 45.7 30.32, 7.56 30.23 M7.56 30.23 C4.45 28.61, 1.07 28.32, 0 22.67 M7.56 30.23 C1.33 28.79, 2.08 29, 0 22.67 M0 22.67 C1.31 18.41, -1 11.54, 0 7.56 M0 22.67 C-0.11 19.75, 0.12 15.35, 0 7.56 M0 7.56 C0.2 3.34, 1.7 -0.59, 7.56 0 M0 7.56 C0.87 0.31, 0.89 2.06, 7.56 0" stroke="#1e1e1e" stroke-width="1" fill="none"></path></g><g transform="translate(425.02609998922355 45.45711445745275) rotate(0 30.57959747314453 10.075046790726418)"><text x="30.57959747314453" y="0" font-family="Virgil, Segoe UI Emoji" font-size="16.120074865162287px" fill="#ffffff" text-anchor="middle" style="white-space: pre;" direction="ltr" dominant-baseline="text-before-edge">Follower</text></g><g stroke-linecap="round"><g transform="translate(580.5992467098179 91.36780953057382) rotate(0 -23.772328222680414 0.1754258345626738)"><path d="M1.03 0.59 C-14.97 0.63, -27.75 0.77, -48.19 0.68 M-0.58 0.77 C-14.59 -0.77, -29.92 -0.4, -48.58 -0.33" stroke="#1e1e1e" stroke-width="1" fill="none"></path></g></g><mask></mask><g stroke-linecap="round"><g transform="translate(533.8211193056873 91.3520672699633) rotate(0 0.8761506802280223 56.88663882653586)"><path d="M0.3 1.98 C0.28 22.58, 0.18 48.59, 2.26 112.81 M-0.5 0.93 C1.37 23.08, 1.1 47.25, 2.13 112.85" stroke="#1e1e1e" stroke-width="1" fill="none"></path></g></g><mask></mask><g stroke-linecap="round"><g transform="translate(537.0876383823681 204.83015288082493) rotate(0 -31.714044676611934 0.18087865822357685)"><path d="M-0.66 1.4 C-13.16 0.96, -26.96 -1.05, -63.12 -0.93 M0.83 0.12 C-15.59 -0.89, -31.42 -1.56, -64.25 -0.5" stroke="#1e1e1e" stroke-width="1" fill="none"></path></g></g><mask></mask><g transform="translate(134.17786820186325 375.44870894268547) rotate(0 19.888132525981092 17.631331883771225)"><text x="0" y="0" font-family="Virgil, Segoe UI Emoji" font-size="28.210131014034px" fill="#ffffff" text-anchor="start" style="white-space: pre;" direction="ltr" dominant-baseline="text-before-edge">ZK</text></g><g transform="translate(591.8077362645009 362.5203774163041) rotate(0 65.9975674400967 17.63133188377128)"><text x="0" y="0" font-family="Virgil, Segoe UI Emoji" font-size="28.210131014034px" fill="#ffffff" text-anchor="start" style="white-space: pre;" direction="ltr" dominant-baseline="text-before-edge">Kafka UI</text></g><g transform="translate(190.2642374973144 373.71312471037675) rotate(0 19.888132525981092 17.63133188377128)"><text x="0" y="0" font-family="Virgil, Segoe UI Emoji" font-size="28.210131014034px" fill="#ffffff" text-anchor="start" style="white-space: pre;" direction="ltr" dominant-baseline="text-before-edge">ZK</text></g><g transform="translate(245.43298980684688 374.75604947582303) rotate(0 19.888132525981092 17.63133188377128)"><text x="0" y="0" font-family="Virgil, Segoe UI Emoji" font-size="28.210131014034px" fill="#ffffff" text-anchor="start" style="white-space: pre;" direction="ltr" dominant-baseline="text-before-edge">ZK</text></g><g transform="translate(303.1126326837557 376.117755018632) rotate(0 19.88813252598112 17.63133188377128)"><text x="0" y="0" font-family="Virgil, Segoe UI Emoji" font-size="28.210131014034px" fill="#ffffff" text-anchor="start" style="white-space: pre;" direction="ltr" dominant-baseline="text-before-edge">ZK</text></g><g transform="translate(357.29749370513116 375.69271398214835) rotate(0 19.888132525981064 17.63133188377128)"><text x="0" y="0" font-family="Virgil, Segoe UI Emoji" font-size="28.210131014034px" fill="#ffffff" text-anchor="start" style="white-space: pre;" direction="ltr" dominant-baseline="text-before-edge">ZK</text></g><g transform="translate(601.6746219652338 169.1575761394572) rotate(0 51.36231231689453 12.59380848840803)"><text x="0" y="0" font-family="Virgil, Segoe UI Emoji" font-size="20.15009358145286px" fill="#1971c2" text-anchor="start" style="white-space: pre;" direction="ltr" dominant-baseline="text-before-edge">Application</text></g><g transform="translate(619.9663883397884 293.25019993246235) rotate(0 40.22962370958322 12.593808488408058)"><text x="0" y="0" font-family="Virgil, Segoe UI Emoji" font-size="20.15009358145286px" fill="#ffffff" text-anchor="start" style="white-space: pre;" direction="ltr" dominant-baseline="text-before-edge">Streams</text></g><g transform="translate(611.3753662033649 261.5770668165611) rotate(0 46.40562462510428 12.59380848840803)"><text x="0" y="0" font-family="Virgil, Segoe UI Emoji" font-size="20.15009358145286px" fill="#1971c2" text-anchor="start" style="white-space: pre;" direction="ltr" dominant-baseline="text-before-edge">KStreams</text></g><g stroke-linecap="round" transform="translate(397.68894740532835 254.50942652890018) rotate(0 52.73657304520867 25.187616976816088)"><path d="M13.86 0.01 L93.12 0.16 L99.53 1.04 L102.59 5.73 L105.22 7.66 L107.47 38.47 L105.64 47.36 L99.58 49.38 L92.96 51.57 L13.38 49 L3.81 47.4 L1.26 45.93 L0.45 38.96 L0.9 10.78 L1.2 4.54 L4.28 1.86 L13.63 -0.24" stroke="none" stroke-width="0" fill="#1e1e1e"></path><path d="M12.59 0 M12.59 0 C35.96 0.08, 61.01 1.38, 92.88 0 M12.59 0 C30.38 1.44, 48.46 1.44, 92.88 0 M92.88 0 C102.05 1.08, 107.4 6.04, 105.47 12.59 M92.88 0 C101.57 0.45, 105.72 2.03, 105.47 12.59 M105.47 12.59 C103.87 17.6, 107.15 25.36, 105.47 37.78 M105.47 12.59 C105.35 19.67, 104.94 26, 105.47 37.78 M105.47 37.78 C107.06 45.01, 99.7 51.09, 92.88 50.38 M105.47 37.78 C105.51 48.37, 99.06 51.2, 92.88 50.38 M92.88 50.38 C76.07 51.95, 57.59 49.82, 12.59 50.38 M92.88 50.38 C69.5 51.62, 46.62 50.18, 12.59 50.38 M12.59 50.38 C5.97 50.69, -1.58 44.58, 0 37.78 M12.59 50.38 C2.86 49.56, 1.3 44.99, 0 37.78 M0 37.78 C-1.27 32.02, -0.51 24.45, 0 12.59 M0 37.78 C0.54 27.67, 0.13 19.11, 0 12.59 M0 12.59 C1.9 4.06, 2.8 0.22, 12.59 0 M0 12.59 C1.42 5.46, 6.04 1.06, 12.59 0" stroke="#1e1e1e" stroke-width="1" fill="none"></path></g><g transform="translate(407.90100720590806 259.5469499242634) rotate(0 42.524513244628906 20.150093581452865)"><text x="42.524513244628906" y="0" font-family="Virgil, Segoe UI Emoji" font-size="16.120074865162287px" fill="#ffffff" text-anchor="middle" style="white-space: pre;" direction="ltr" dominant-baseline="text-before-edge">Broker +</text><text x="42.524513244628906" y="20.150093581452857" font-family="Virgil, Segoe UI Emoji" font-size="16.120074865162287px" fill="#ffffff" text-anchor="middle" style="white-space: pre;" direction="ltr" dominant-baseline="text-before-edge">Rebalancer</text></g><g stroke-linecap="round" transform="translate(10 224.5420869148478) rotate(0 253.5979795224353 44.39907826936724)"><path d="M22.2 0 M22.2 0 C200.71 -2.11, 379.9 -1.78, 485 0 M22.2 0 C142.81 -0.55, 263.45 -1.1, 485 0 M485 0 C498.78 1.17, 505.22 8.85, 507.2 22.2 M485 0 C498.71 -0.31, 508.37 8.7, 507.2 22.2 M507.2 22.2 C506.18 39.09, 508.91 54.61, 507.2 66.6 M507.2 22.2 C506.7 34.12, 507.95 45.32, 507.2 66.6 M507.2 66.6 C506.31 82.86, 499.86 88.73, 485 88.8 M507.2 66.6 C508.02 82.41, 498.84 88.97, 485 88.8 M485 88.8 C383.82 89.01, 283.3 88.96, 22.2 88.8 M485 88.8 C332.65 91.34, 180.04 91.01, 22.2 88.8 M22.2 88.8 C8.22 87.94, 0.49 79.61, 0 66.6 M22.2 88.8 C7.72 86.68, -2.03 82.28, 0 66.6 M0 66.6 C-0.4 54.16, 0.95 43.19, 0 22.2 M0 66.6 C-0.04 57.09, 0.04 48.89, 0 22.2 M0 22.2 C-1.34 8.95, 8.5 -0.72, 22.2 0 M0 22.2 C-1.09 9.62, 6.54 0.55, 22.2 0" stroke="#1e1e1e" stroke-width="1" fill="none"></path></g><g stroke-linecap="round" transform="translate(280.96892937967493 254.06013737504247) rotate(0 52.73657304520867 25.18761697681606)"><path d="M11.93 0.88 L91.61 -1.03 L99.53 3.7 L105.02 6.02 L105.76 9.57 L105.02 36.98 L104.27 43.72 L99.99 48.94 L93.43 52.08 L12.23 51.35 L3.33 48.98 L1.18 44.39 L0.91 42.52 L-1.14 11.05 L0.45 3.75 L6.84 2.73 L12.73 1.76" stroke="none" stroke-width="0" fill="#1e1e1e"></path><path d="M12.59 0 M12.59 0 C28.16 1.02, 47.78 -0.63, 92.88 0 M12.59 0 C42.1 0.36, 70.05 0.61, 92.88 0 M92.88 0 C100.72 1.69, 105.64 3.51, 105.47 12.59 M92.88 0 C103.29 0.1, 107.04 2.37, 105.47 12.59 M105.47 12.59 C106.41 21.2, 107.04 27.63, 105.47 37.78 M105.47 12.59 C104.73 19.26, 105.67 24.33, 105.47 37.78 M105.47 37.78 C105.44 47.47, 102.46 49.57, 92.88 50.38 M105.47 37.78 C105.9 45.97, 102.26 51.85, 92.88 50.38 M92.88 50.38 C69.32 48.73, 47.42 48.81, 12.59 50.38 M92.88 50.38 C76.24 50.6, 58.57 51.74, 12.59 50.38 M12.59 50.38 C4.99 50.81, 1.78 44.24, 0 37.78 M12.59 50.38 C5.99 49.12, -1.83 46.2, 0 37.78 M0 37.78 C0.48 31.03, -1.12 26.98, 0 12.59 M0 37.78 C0.22 33.1, 0.96 27.57, 0 12.59 M0 12.59 C-1.36 3, 5.11 0.25, 12.59 0 M0 12.59 C-1.39 1.95, 2.15 -0.64, 12.59 0" stroke="#1e1e1e" stroke-width="1" fill="none"></path></g><g transform="translate(291.1809891802547 259.0976607704057) rotate(0 42.52451324462888 20.150093581452836)"><text x="42.524513244628906" y="0" font-family="Virgil, Segoe UI Emoji" font-size="16.120074865162287px" fill="#ffffff" text-anchor="middle" style="white-space: pre;" direction="ltr" dominant-baseline="text-before-edge">Broker +</text><text x="42.524513244628906" y="20.150093581452857" font-family="Virgil, Segoe UI Emoji" font-size="16.120074865162287px" fill="#ffffff" text-anchor="middle" style="white-space: pre;" direction="ltr" dominant-baseline="text-before-edge">Rebalancer</text></g><g stroke-linecap="round" transform="translate(160.21004823645234 255.70520360884075) rotate(0 52.736573045208644 25.18761697681606)"><path d="M10.73 1.28 L92.8 1.71 L101.03 3.32 L103.82 3.64 L106.27 11.35 L105.78 38.06 L103.34 45.68 L98.67 46.76 L94.61 50.56 L13.14 51.13 L6.89 49.91 L1.76 46.55 L0.62 40.63 L-1.6 10.46 L0.32 5.86 L3.24 -0.03 L11.76 -1.98" stroke="none" stroke-width="0" fill="#1e1e1e"></path><path d="M12.59 0 M12.59 0 C41.42 0.3, 65.74 -1.36, 92.88 0 M12.59 0 C43.93 -0.85, 74.82 -0.35, 92.88 0 M92.88 0 C100.35 0.15, 106.93 5.44, 105.47 12.59 M92.88 0 C99.66 -1.15, 105.29 3.37, 105.47 12.59 M105.47 12.59 C105.91 17.1, 104.16 25.47, 105.47 37.78 M105.47 12.59 C104.73 20.62, 104.72 27.03, 105.47 37.78 M105.47 37.78 C106.55 48.02, 99.47 52.03, 92.88 50.38 M105.47 37.78 C103.52 44.04, 103.24 48.46, 92.88 50.38 M92.88 50.38 C74.42 48.78, 56.47 50.94, 12.59 50.38 M92.88 50.38 C64.75 49.34, 38.54 49.6, 12.59 50.38 M12.59 50.38 C5.84 49.5, -1.16 48.08, 0 37.78 M12.59 50.38 C4.09 48.17, -0.75 46.91, 0 37.78 M0 37.78 C0.85 30, 0.6 27.17, 0 12.59 M0 37.78 C0.09 28.86, 0.06 20.93, 0 12.59 M0 12.59 C-0.59 2.58, 4.1 1.6, 12.59 0 M0 12.59 C1.78 4.12, 4.54 1.2, 12.59 0" stroke="#1e1e1e" stroke-width="1" fill="none"></path></g><g transform="translate(170.4221080370321 260.74272700420397) rotate(0 42.524513244628906 20.150093581452836)"><text x="42.524513244628906" y="0" font-family="Virgil, Segoe UI Emoji" font-size="16.120074865162287px" fill="#ffffff" text-anchor="middle" style="white-space: pre;" direction="ltr" dominant-baseline="text-before-edge">Broker +</text><text x="42.524513244628906" y="20.150093581452857" font-family="Virgil, Segoe UI Emoji" font-size="16.120074865162287px" fill="#ffffff" text-anchor="middle" style="white-space: pre;" direction="ltr" dominant-baseline="text-before-edge">Rebalancer</text></g><g stroke-linecap="round" transform="translate(40.78925924512316 256.2561827302087) rotate(0 52.736573045208644 25.18761697681606)"><path d="M14.35 -0.26 L93.51 -1.51 L102.09 1.6 L104.98 3.7 L104.95 10.62 L103.84 37.63 L103.2 47.39 L101.1 48.73 L93.86 49.23 L13.68 49.81 L5.6 49.84 L3.65 44.44 L0.03 40.7 L1.66 10.97 L2.02 4.22 L3.88 0.2 L13 0.87" stroke="none" stroke-width="0" fill="#1e1e1e"></path><path d="M12.59 0 M12.59 0 C29.02 -0.29, 45.59 1.13, 92.88 0 M12.59 0 C37.96 0.67, 62.61 1.38, 92.88 0 M92.88 0 C102.69 -1.59, 106.72 3.83, 105.47 12.59 M92.88 0 C100.12 -0.18, 104.77 5.51, 105.47 12.59 M105.47 12.59 C104.78 20.22, 105.98 28.34, 105.47 37.78 M105.47 12.59 C105.5 22.42, 106.1 31.26, 105.47 37.78 M105.47 37.78 C104.5 46.53, 100.42 49.06, 92.88 50.38 M105.47 37.78 C105.63 47.9, 102.9 48.15, 92.88 50.38 M92.88 50.38 C60.61 49.97, 32.95 49.55, 12.59 50.38 M92.88 50.38 C69.73 50.24, 47.83 51.55, 12.59 50.38 M12.59 50.38 C3.56 51.01, -1.02 47.02, 0 37.78 M12.59 50.38 C3.82 48.54, 0.31 47.38, 0 37.78 M0 37.78 C-1.9 30.27, 1.48 17.94, 0 12.59 M0 37.78 C0.85 32.81, 0.5 27.1, 0 12.59 M0 12.59 C1.11 2.91, 2.41 1.68, 12.59 0 M0 12.59 C-2.25 1.92, 3.77 1.34, 12.59 0" stroke="#1e1e1e" stroke-width="1" fill="none"></path></g><g transform="translate(51.00131904570293 261.29370612557193) rotate(0 42.524513244628906 20.150093581452836)"><text x="42.524513244628906" y="0" font-family="Virgil, Segoe UI Emoji" font-size="16.120074865162287px" fill="#ffffff" text-anchor="middle" style="white-space: pre;" direction="ltr" dominant-baseline="text-before-edge">Broker +</text><text x="42.524513244628906" y="20.150093581452857" font-family="Virgil, Segoe UI Emoji" font-size="16.120074865162287px" fill="#ffffff" text-anchor="middle" style="white-space: pre;" direction="ltr" dominant-baseline="text-before-edge">Rebalancer</text></g><g transform="translate(207.2046317239774 230.64352471690881) rotate(0 71.91562741845621 12.59380848840803)"><text x="0" y="0" font-family="Virgil, Segoe UI Emoji" font-size="20.15009358145286px" fill="#1e1e1e" text-anchor="start" style="white-space: pre;" direction="ltr" dominant-baseline="text-before-edge">Kafka Brokers</text></g><g stroke-linecap="round"><g transform="translate(265.352606854049 51.49266340415187) rotate(0 14.295988894825058 0.06648889668869629)"><path d="M1.42 0.39 C7.12 0.66, 13.92 1.58, 27.2 -0.67 M0.8 0.78 C6.53 -0.66, 13.95 0.36, 27.79 0.33" stroke="#1e1e1e" stroke-width="1" fill="none"></path></g></g><mask></mask><g transform="translate(147.4037192298024 16.73375197614567) rotate(0 46.60311005459903 10.075046790726432)"><text x="0" y="0" font-family="Virgil, Segoe UI Emoji" font-size="16.120074865162287px" fill="#1e1e1e" text-anchor="start" style="white-space: pre;" direction="ltr" dominant-baseline="text-before-edge">Microservice</text></g><g transform="translate(346.2402774360021 18.198755483896463) rotate(0 63.69843641254403 10.075046790726432)"><text x="0" y="0" font-family="Virgil, Segoe UI Emoji" font-size="16.120074865162287px" fill="#1971c2" text-anchor="start" style="white-space: pre;" direction="ltr" dominant-baseline="text-before-edge">Schema Registry</text></g><g stroke-linecap="round" transform="translate(591.7099807895703 48.803988172700485) rotate(0 57.931519046676954 33.75140674893353)"><path d="M15.5 0.61 L98.74 1.21 L108.89 3.36 L113.23 7.22 L117.5 11.09 L114.82 48.85 L115 62.16 L110.01 65.9 L98.07 68.16 L17.92 67.89 L6.48 65.37 L2.83 59.5 L2.1 55.75 L0.44 11.19 L3.65 2.25 L7.55 0.74 L16.7 -1.23" stroke="none" stroke-width="0" fill="#1e1e1e"></path><path d="M16.88 0 M16.88 0 C44.44 -0.79, 70.19 1.23, 98.99 0 M16.88 0 C34.89 -0.45, 55.05 -0.65, 98.99 0 M98.99 0 C108.46 -0.42, 115.48 3.68, 115.86 16.88 M98.99 0 C112.19 -1.1, 115.75 5.98, 115.86 16.88 M115.86 16.88 C116.3 27.54, 116.53 37.82, 115.86 50.63 M115.86 16.88 C115.63 24.91, 116.8 31.07, 115.86 50.63 M115.86 50.63 C117.26 63.18, 111.18 66.46, 98.99 67.5 M115.86 50.63 C114.38 62.06, 108.59 67.64, 98.99 67.5 M98.99 67.5 C70.31 66.14, 42.38 69.13, 16.88 67.5 M98.99 67.5 C75.91 66.8, 51.71 67.58, 16.88 67.5 M16.88 67.5 C7.62 66.3, -0.55 61.11, 0 50.63 M16.88 67.5 C6.92 67.97, 0.1 59.81, 0 50.63 M0 50.63 C-1.18 41.74, 0.49 30.98, 0 16.88 M0 50.63 C0.81 41.59, -0.08 32.44, 0 16.88 M0 16.88 C-0.76 5.76, 6.46 -0.66, 16.88 0 M0 16.88 C1.62 6.04, 5.53 -1.1, 16.88 0" stroke="#1e1e1e" stroke-width="1" fill="none"></path></g><g transform="translate(607.1411641428879 62.405301340181154) rotate(0 42.500335693359375 20.150093581452865)"><text x="42.500335693359375" y="0" font-family="Virgil, Segoe UI Emoji" font-size="16.120074865162287px" fill="#ffffff" text-anchor="middle" style="white-space: pre;" direction="ltr" dominant-baseline="text-before-edge">Worker +</text><text x="42.500335693359375" y="20.150093581452857" font-family="Virgil, Segoe UI Emoji" font-size="16.120074865162287px" fill="#ffffff" text-anchor="middle" style="white-space: pre;" direction="ltr" dominant-baseline="text-before-edge">Connectors</text></g><g stroke-linecap="round" transform="translate(718.4803151302189 48.31079229865202) rotate(0 57.931519046676954 33.75140674893353)"><path d="M15.69 -0.68 L100.88 1.63 L110.13 0.52 L114.57 6.92 L116.54 13.15 L114.5 50.36 L112.39 60.73 L108.99 66.93 L98.16 68.06 L14.97 69.34 L5.46 64.59 L2.53 61.48 L-0.06 53.48 L1.19 12.96 L4.16 2.86 L9.54 0.76 L15.49 -0.18" stroke="none" stroke-width="0" fill="#1e1e1e"></path><path d="M16.88 0 M16.88 0 C49.84 -0.64, 81.21 -1.54, 98.99 0 M16.88 0 C49.39 0.39, 81.26 1.13, 98.99 0 M98.99 0 C108.75 1.73, 114.24 7.56, 115.86 16.88 M98.99 0 C109.68 -0.87, 114.96 5.84, 115.86 16.88 M115.86 16.88 C117.44 30.78, 116.56 44.9, 115.86 50.63 M115.86 16.88 C116.51 25.89, 116.36 35.31, 115.86 50.63 M115.86 50.63 C117.81 62.69, 110.2 66.93, 98.99 67.5 M115.86 50.63 C114.02 61.22, 109.35 68.14, 98.99 67.5 M98.99 67.5 C67.29 67.65, 36.03 68.84, 16.88 67.5 M98.99 67.5 C70.34 66.61, 44.52 66.09, 16.88 67.5 M16.88 67.5 C6.59 68.59, 0.43 61.67, 0 50.63 M16.88 67.5 C4.11 69.33, -1 60.3, 0 50.63 M0 50.63 C-1.36 40.6, 1.57 28.58, 0 16.88 M0 50.63 C-0.3 36.65, -0.81 23.8, 0 16.88 M0 16.88 C0.97 3.94, 7.53 0.94, 16.88 0 M0 16.88 C-0.59 7.34, 4.81 -0.2, 16.88 0" stroke="#1e1e1e" stroke-width="1" fill="none"></path></g><g transform="translate(732.3962168062903 61.91210546613269) rotate(0 44.015617370605526 20.150093581452865)"><text x="44.01561737060547" y="0" font-family="Virgil, Segoe UI Emoji" font-size="16.120074865162287px" fill="#ffffff" text-anchor="middle" style="white-space: pre;" direction="ltr" dominant-baseline="text-before-edge">Worker +</text><text x="44.01561737060547" y="20.150093581452857" font-family="Virgil, Segoe UI Emoji" font-size="16.120074865162287px" fill="#ffffff" text-anchor="middle" style="white-space: pre;" direction="ltr" dominant-baseline="text-before-edge">Replicators</text></g><g transform="translate(645.4514984860763 20.014511018075098) rotate(0 72.19773518538312 12.59380848840803)"><text x="0" y="0" font-family="Virgil, Segoe UI Emoji" font-size="20.15009358145286px" fill="#1e1e1e" text-anchor="start" style="white-space: pre;" direction="ltr" dominant-baseline="text-before-edge">Kafka Connect</text></g><g stroke-linecap="round"><g transform="translate(899.0969214748546 75.12478760887603) rotate(0 -20.84497635077264 0.01917550644910193)"><path d="M0.08 0.64 C-6.94 0.34, -34.81 -0.13, -41.77 -0.6" stroke="#1e1e1e" stroke-width="1.5" fill="none" stroke-dasharray="1.5 7"></path></g><g transform="translate(899.0969214748546 75.12478760887603) rotate(0 -20.84497635077264 0.01917550644910193)"><path d="M-40.97 0.78 L-26.33 -6.53 L-29.29 6.07 L-39.91 -1.56" stroke="none" stroke-width="0" fill="#1e1e1e" fill-rule="evenodd"></path><path d="M-40.97 -0.38 C-35.98 -2.2, -33.38 -3.33, -27.68 -5.91 M-28.1 -5.53 C-28.01 -2.64, -27.4 -1.23, -29.05 6.86 M-27.61 4.77 C-32.93 4.46, -37.5 0.3, -42.91 0.86 M-41.77 -0.6 C-41.77 -0.6, -41.77 -0.6, -41.77 -0.6" stroke="#1e1e1e" stroke-width="1.5" fill="none"></path></g></g><mask></mask><g stroke-linecap="round"><g transform="translate(897.3673956357637 380.0559806448073) rotate(0 1.6237267775450164 -152.90618105809975)"><path d="M-0.9 -0.58 C1.66 -39.21, 2.99 -73.52, 0.71 -153.76 M3.95 -155.81 C4.81 -209.26, 2.64 -266.84, 1.74 -305.23" stroke="#1e1e1e" stroke-width="1.5" fill="none" stroke-dasharray="8 9"></path></g></g><mask></mask><g transform="translate(187.73978211964294 341.01334068565313) rotate(0 83.75377665095695 12.593808488408058)"><text x="0" y="0" font-family="Virgil, Segoe UI Emoji" font-size="20.15009358145286px" fill="#1e1e1e" text-anchor="start" style="white-space: pre;" direction="ltr" dominant-baseline="text-before-edge">Zookeeper Nodes</text></g><g transform="translate(70.79168903448567 135.3804425965509) rotate(0 55.503382960615426 12.59380848840803)"><text x="0" y="0" font-family="Virgil, Segoe UI Emoji" font-size="20.15009358145286px" fill="#f08c00" text-anchor="start" style="white-space: pre;" direction="ltr" dominant-baseline="text-before-edge">Rest Proxy</text></g><g transform="translate(377.4248182986422 118.36423885687145) rotate(0 34.98054062731421 12.59380848840803)"><text x="0" y="0" font-family="Virgil, Segoe UI Emoji" font-size="20.15009358145286px" fill="#f08c00" text-anchor="start" style="white-space: pre;" direction="ltr" dominant-baseline="text-before-edge">KsqlDB</text></g><g stroke-linecap="round"><g transform="translate(469.4789914626216 203.9646751379089) rotate(0 -1.1562889361288171 8.861085191853448)"><path d="M0.39 0.29 C1.03 2.52, -2.09 5.94, -3.07 16.2 M0.76 -0.05 C0.21 4.38, -1.1 7.68, -1.18 17.77" stroke="#1e1e1e" stroke-width="1" fill="none"></path></g><g transform="translate(469.4789914626216 203.9646751379089) rotate(0 -1.1562889361288171 8.861085191853448)"><path d="M-0.13 16.17 L-2.75 11 L1.4 10.75 L0.24 16.01" stroke="none" stroke-width="0" fill="#1e1e1e" fill-rule="evenodd"></path><path d="M-0.98 17.91 C-1.14 15.45, -3.21 13.56, -5.14 8.81 M-0.8 17.75 C-1.72 15.91, -2.94 13.54, -4.19 9.6 M-4.3 9.3 C-2.43 9.93, -1.56 8.97, 3.19 9.43 M-4.81 9.21 C-2.28 9.29, 0.77 9.78, 3.1 9.95 M3.58 9.88 C1.85 12.61, 0.53 15.92, -1.09 17.91 M2.98 10.12 C1.48 12.83, 0.46 14.63, -1.56 18.06 M-1.18 17.77 C-1.18 17.77, -1.18 17.77, -1.18 17.77 M-1.18 17.77 C-1.18 17.77, -1.18 17.77, -1.18 17.77" stroke="#1e1e1e" stroke-width="1" fill="none"></path></g></g><mask></mask><g stroke-linecap="round" transform="translate(410.0966660423218 139.77315296444857) rotate(0 48.36022459548684 25.187616976816088)"><path d="M11.59 -1.89 L85.75 0.5 L90.61 0.55 L96.76 4.18 L97.99 7.94 L95.6 37.41 L95.15 44.99 L91.16 48.78 L84.96 49.13 L10.98 51.22 L6.74 50.19 L1.5 44.43 L-1.55 39.79 L0 10.88 L3.6 4.44 L4.53 1.5 L13.5 0.77" stroke="none" stroke-width="0" fill="#ffd8a8"></path><path d="M12.59 0 M12.59 0 C38.83 1.5, 61.77 1.81, 84.13 0 M12.59 0 C32.07 -0.99, 51.08 0.06, 84.13 0 M84.13 0 C93.11 0.77, 94.97 2.44, 96.72 12.59 M84.13 0 C92.48 0.45, 97.81 4.85, 96.72 12.59 M96.72 12.59 C94.86 21.9, 96.38 34.19, 96.72 37.78 M96.72 12.59 C96.93 22.89, 97.8 33.46, 96.72 37.78 M96.72 37.78 C95.72 45.88, 92.16 52.25, 84.13 50.38 M96.72 37.78 C94.56 44.59, 94.64 51.52, 84.13 50.38 M84.13 50.38 C56.81 50.23, 26.42 49.91, 12.59 50.38 M84.13 50.38 C69.01 50.4, 53.87 49.87, 12.59 50.38 M12.59 50.38 C4.99 50.44, 1.24 48.01, 0 37.78 M12.59 50.38 C3.11 49.19, -1.67 45.58, 0 37.78 M0 37.78 C1.9 34.14, -1.39 28.52, 0 12.59 M0 37.78 C0.15 30.83, -0.73 26.03, 0 12.59 M0 12.59 C1.88 5.56, 3.42 0.25, 12.59 0 M0 12.59 C-0.67 6.44, 4.74 -1.53, 12.59 0" stroke="#1e1e1e" stroke-width="1" fill="none"></path></g><g transform="translate(429.1830030035313 144.8106763598118) rotate(0 29.273887634277344 20.150093581452865)"><text x="29.273887634277344" y="0" font-family="Virgil, Segoe UI Emoji" font-size="16.120074865162287px" fill="#ffffff" text-anchor="middle" style="white-space: pre;" direction="ltr" dominant-baseline="text-before-edge">KsqlDB</text><text x="29.273887634277344" y="20.150093581452857" font-family="Virgil, Segoe UI Emoji" font-size="16.120074865162287px" fill="#ffffff" text-anchor="middle" style="white-space: pre;" direction="ltr" dominant-baseline="text-before-edge">Serveer</text></g><g stroke-linecap="round" transform="translate(609.0145152858215 197.76124015551335) rotate(0 48.3090622485027 17.40306910491887)"><path d="M9.78 -1.05 L91.69 2.23 L95.2 4.73 L97.69 30.96 L91.1 34.79 L86.31 34.55 L4.92 35.5 L-1.26 29.21 L0.66 7.5 L0.45 4.04 L6.92 -1.32" stroke="none" stroke-width="0" fill="#0c8599"></path><path d="M8.7 0 M8.7 0 C36.41 -0.43, 65.94 -0.85, 87.92 0 M8.7 0 C25.09 0.7, 42.3 0.11, 87.92 0 M87.92 0 C94.47 0.35, 95.8 1.51, 96.62 8.7 M87.92 0 C95.17 -0.52, 97.06 2.06, 96.62 8.7 M96.62 8.7 C96.06 14.42, 96.82 22.94, 96.62 26.1 M96.62 8.7 C96.56 12.31, 96.01 16.1, 96.62 26.1 M96.62 26.1 C95.26 31.71, 93.85 35.24, 87.92 34.81 M96.62 26.1 C94.53 31.71, 93.29 35.7, 87.92 34.81 M87.92 34.81 C64.39 34.61, 36.16 34.33, 8.7 34.81 M87.92 34.81 C61.13 34.38, 34.84 34.72, 8.7 34.81 M8.7 34.81 C3 33.63, -1.12 33.33, 0 26.1 M8.7 34.81 C2.07 34.93, 0.93 33.16, 0 26.1 M0 26.1 C1.1 20.6, -0.35 10.97, 0 8.7 M0 26.1 C-0.99 20.84, 0.68 15.17, 0 8.7 M0 8.7 C-1.94 3.16, 3.64 -0.82, 8.7 0 M0 8.7 C2.29 4.02, 4.38 0.04, 8.7 0" stroke="#1e1e1e" stroke-width="1" fill="none"></path></g><g transform="translate(626.7876124798031 206.9086158816624) rotate(0 32.7237169251523 12.59380848840803)"><text x="0" y="0" font-family="Virgil, Segoe UI Emoji" font-size="20.15009358145286px" fill="#ffffff" text-anchor="start" style="white-space: pre;" direction="ltr" dominant-baseline="text-before-edge">Clients</text></g></svg>