<svg xmlns="http://www.w3.org/2000/svg" version="1.1" xmlns:xlink="http://www.w3.org/1999/xlink" xmlns:svgjs="http://svgjs.com/svgjs" width="1800" height="1000" preserveAspectRatio="none" viewBox="0 0 1800 1000"><g mask="url(&quot;#SvgjsMask1008&quot;)" fill="none"><rect width="1800" height="1000" x="0" y="0" fill="rgba(0, 0, 0, 1)"></rect><g mask="url(&quot;#SvgjsMask1009&quot;)"><path d="M1362.5 562.5L1337.5 537.5L1312.5 537.5L1287.5 537.5L1262.5 562.5L1237.5 562.5L1212.5 562.5L1187.5 562.5M1337.5 587.5L1312.5 562.5L1287.5 562.5M1687.5 512.5L1662.5 537.5L1637.5 537.5L1612.5 537.5L1587.5 537.5L1562.5 537.5L1537.5 537.5L1512.5 537.5L1487.5 537.5L1462.5 537.5L1437.5 562.5L1412.5 587.5M1387.5 562.5L1362.5 587.5M1462.5 512.5L1437.5 512.5M1837.5 512.5L1812.5 512.5L1787.5 512.5L1762.5 512.5L1737.5 512.5L1712.5 512.5L1687.5 512.5L1662.5 512.5L1637.5 512.5L1612.5 512.5L1587.5 512.5L1562.5 512.5L1537.5 512.5L1512.5 512.5L1487.5 512.5L1462.5 512.5L1437.5 537.5L1412.5 562.5L1387.5 562.5L1362.5 562.5L1337.5 587.5L1312.5 587.5L1287.5 587.5L1262.5 587.5L1237.5 587.5L1212.5 587.5L1187.5 587.5" stroke="rgba(24, 65, 109, 1)" stroke-width="4.17"></path><path d="M1181.25 587.5 a6.25 6.25 0 1 0 12.5 0 a6.25 6.25 0 1 0 -12.5 0zM1181.25 562.5 a6.25 6.25 0 1 0 12.5 0 a6.25 6.25 0 1 0 -12.5 0zM1281.25 562.5 a6.25 6.25 0 1 0 12.5 0 a6.25 6.25 0 1 0 -12.5 0zM1406.25 587.5 a6.25 6.25 0 1 0 12.5 0 a6.25 6.25 0 1 0 -12.5 0zM1356.25 587.5 a6.25 6.25 0 1 0 12.5 0 a6.25 6.25 0 1 0 -12.5 0zM1431.25 512.5 a6.25 6.25 0 1 0 12.5 0 a6.25 6.25 0 1 0 -12.5 0z" fill="rgba(24, 65, 109, 1)"></path><path d="M1487.5 487.5L1462.5 462.5L1437.5 462.5L1412.5 462.5L1387.5 437.5L1362.5 437.5L1337.5 437.5M1287.5 462.5L1262.5 437.5L1237.5 437.5L1212.5 437.5M1412.5 487.5L1387.5 487.5L1362.5 487.5L1337.5 512.5L1312.5 512.5L1287.5 512.5L1262.5 512.5M1587.5 487.5L1562.5 462.5L1537.5 462.5L1512.5 462.5M1262.5 462.5L1237.5 487.5L1212.5 487.5L1187.5 487.5L1162.5 487.5M1662.5 487.5L1637.5 462.5L1612.5 462.5M1837.5 487.5L1812.5 487.5L1787.5 487.5L1762.5 487.5L1737.5 487.5L1712.5 487.5L1687.5 487.5L1662.5 487.5L1637.5 487.5L1612.5 487.5L1587.5 487.5L1562.5 487.5L1537.5 487.5L1512.5 487.5L1487.5 487.5L1462.5 487.5L1437.5 487.5L1412.5 487.5L1387.5 462.5L1362.5 462.5L1337.5 462.5L1312.5 462.5L1287.5 462.5L1262.5 462.5L1237.5 462.5L1212.5 462.5L1187.5 462.5" stroke="rgba(7, 16, 181, 1)" stroke-width="4.17"></path><path d="M1181.25 462.5 a6.25 6.25 0 1 0 12.5 0 a6.25 6.25 0 1 0 -12.5 0zM1331.25 437.5 a6.25 6.25 0 1 0 12.5 0 a6.25 6.25 0 1 0 -12.5 0zM1206.25 437.5 a6.25 6.25 0 1 0 12.5 0 a6.25 6.25 0 1 0 -12.5 0zM1256.25 512.5 a6.25 6.25 0 1 0 12.5 0 a6.25 6.25 0 1 0 -12.5 0zM1506.25 462.5 a6.25 6.25 0 1 0 12.5 0 a6.25 6.25 0 1 0 -12.5 0zM1156.25 487.5 a6.25 6.25 0 1 0 12.5 0 a6.25 6.25 0 1 0 -12.5 0zM1606.25 462.5 a6.25 6.25 0 1 0 12.5 0 a6.25 6.25 0 1 0 -12.5 0z" fill="rgba(7, 16, 181, 1)"></path><path d="M1837.5 537.5L1812.5 537.5L1787.5 537.5L1762.5 537.5L1737.5 537.5L1712.5 537.5" stroke="rgba(24, 65, 109, 1)" stroke-width="4.17"></path><path d="M1706.25 537.5 a6.25 6.25 0 1 0 12.5 0 a6.25 6.25 0 1 0 -12.5 0z" fill="rgba(24, 65, 109, 1)"></path><path d="M1562.5 437.5L1537.5 437.5L1512.5 437.5L1487.5 437.5L1462.5 437.5M1712.5 462.5L1687.5 437.5M1737.5 462.5L1712.5 437.5M1837.5 462.5L1812.5 462.5L1787.5 462.5L1762.5 462.5L1737.5 462.5L1712.5 462.5L1687.5 462.5L1662.5 437.5L1637.5 437.5L1612.5 437.5L1587.5 437.5L1562.5 437.5L1537.5 412.5" stroke="rgba(24, 65, 109, 1)" stroke-width="4.17"></path><path d="M1531.25 412.5 a6.25 6.25 0 1 0 12.5 0 a6.25 6.25 0 1 0 -12.5 0zM1456.25 437.5 a6.25 6.25 0 1 0 12.5 0 a6.25 6.25 0 1 0 -12.5 0zM1681.25 437.5 a6.25 6.25 0 1 0 12.5 0 a6.25 6.25 0 1 0 -12.5 0zM1706.25 437.5 a6.25 6.25 0 1 0 12.5 0 a6.25 6.25 0 1 0 -12.5 0z" fill="rgba(24, 65, 109, 1)"></path><path d="M1762.5 562.5L1737.5 587.5L1712.5 587.5L1687.5 587.5M1612.5 562.5L1587.5 587.5M1562.5 562.5L1537.5 587.5L1512.5 612.5L1487.5 612.5M1837.5 562.5L1812.5 562.5L1787.5 562.5L1762.5 562.5L1737.5 562.5L1712.5 562.5L1687.5 562.5L1662.5 562.5L1637.5 562.5L1612.5 562.5L1587.5 562.5L1562.5 562.5L1537.5 562.5" stroke="rgba(24, 65, 109, 1)" stroke-width="4.17"></path><path d="M1531.25 562.5 a6.25 6.25 0 1 0 12.5 0 a6.25 6.25 0 1 0 -12.5 0zM1681.25 587.5 a6.25 6.25 0 1 0 12.5 0 a6.25 6.25 0 1 0 -12.5 0zM1581.25 587.5 a6.25 6.25 0 1 0 12.5 0 a6.25 6.25 0 1 0 -12.5 0zM1481.25 612.5 a6.25 6.25 0 1 0 12.5 0 a6.25 6.25 0 1 0 -12.5 0z" fill="rgba(24, 65, 109, 1)"></path><path d="M1837.5 437.5L1812.5 437.5L1787.5 437.5L1762.5 437.5L1737.5 412.5L1712.5 412.5L1687.5 412.5L1662.5 412.5L1637.5 412.5L1612.5 412.5L1587.5 412.5L1562.5 387.5L1537.5 387.5L1512.5 387.5" stroke="rgba(7, 16, 181, 1)" stroke-width="4.17"></path><path d="M1506.25 387.5 a6.25 6.25 0 1 0 12.5 0 a6.25 6.25 0 1 0 -12.5 0z" fill="rgba(7, 16, 181, 1)"></path><path d="M1162.5 612.5L1137.5 612.5L1112.5 612.5L1087.5 612.5L1062.5 612.5L1037.5 612.5L1012.5 612.5L987.5 612.5L962.5 612.5M1412.5 637.5L1387.5 637.5L1362.5 637.5L1337.5 637.5M1037.5 637.5L1012.5 662.5L987.5 662.5L962.5 662.5M1787.5 612.5L1762.5 637.5L1737.5 637.5M1112.5 637.5L1087.5 662.5L1062.5 662.5L1037.5 662.5L1012.5 687.5L987.5 687.5L962.5 687.5M1212.5 612.5L1187.5 637.5L1162.5 637.5L1137.5 662.5L1112.5 662.5M1662.5 612.5L1637.5 637.5M1262.5 612.5L1237.5 637.5L1212.5 662.5M1837.5 587.5L1812.5 612.5L1787.5 612.5L1762.5 612.5L1737.5 612.5L1712.5 612.5L1687.5 612.5L1662.5 612.5L1637.5 612.5L1612.5 612.5L1587.5 612.5L1562.5 612.5L1537.5 637.5L1512.5 637.5L1487.5 637.5L1462.5 637.5L1437.5 637.5L1412.5 637.5L1387.5 612.5L1362.5 612.5L1337.5 612.5L1312.5 612.5L1287.5 612.5L1262.5 612.5L1237.5 612.5L1212.5 612.5L1187.5 612.5L1162.5 612.5L1137.5 637.5L1112.5 637.5L1087.5 637.5L1062.5 637.5L1037.5 637.5L1012.5 637.5" stroke="rgba(24, 65, 109, 1)" stroke-width="4.17"></path><path d="M1006.25 637.5 a6.25 6.25 0 1 0 12.5 0 a6.25 6.25 0 1 0 -12.5 0zM956.25 612.5 a6.25 6.25 0 1 0 12.5 0 a6.25 6.25 0 1 0 -12.5 0zM1331.25 637.5 a6.25 6.25 0 1 0 12.5 0 a6.25 6.25 0 1 0 -12.5 0zM956.25 662.5 a6.25 6.25 0 1 0 12.5 0 a6.25 6.25 0 1 0 -12.5 0zM1731.25 637.5 a6.25 6.25 0 1 0 12.5 0 a6.25 6.25 0 1 0 -12.5 0zM956.25 687.5 a6.25 6.25 0 1 0 12.5 0 a6.25 6.25 0 1 0 -12.5 0zM1106.25 662.5 a6.25 6.25 0 1 0 12.5 0 a6.25 6.25 0 1 0 -12.5 0zM1631.25 637.5 a6.25 6.25 0 1 0 12.5 0 a6.25 6.25 0 1 0 -12.5 0zM1206.25 662.5 a6.25 6.25 0 1 0 12.5 0 a6.25 6.25 0 1 0 -12.5 0z" fill="rgba(24, 65, 109, 1)"></path><path d="M1437.5 362.5L1412.5 387.5L1387.5 387.5L1362.5 387.5L1337.5 362.5M1487.5 362.5L1462.5 387.5M1837.5 412.5L1812.5 412.5L1787.5 412.5L1762.5 412.5L1737.5 387.5L1712.5 387.5L1687.5 387.5L1662.5 387.5L1637.5 387.5L1612.5 387.5L1587.5 387.5L1562.5 362.5L1537.5 362.5L1512.5 362.5L1487.5 362.5L1462.5 362.5L1437.5 362.5L1412.5 362.5" stroke="rgba(7, 16, 181, 1)" stroke-width="4.17"></path><path d="M1406.25 362.5 a6.25 6.25 0 1 0 12.5 0 a6.25 6.25 0 1 0 -12.5 0zM1331.25 362.5 a6.25 6.25 0 1 0 12.5 0 a6.25 6.25 0 1 0 -12.5 0zM1456.25 387.5 a6.25 6.25 0 1 0 12.5 0 a6.25 6.25 0 1 0 -12.5 0z" fill="rgba(7, 16, 181, 1)"></path><path d="M1087.5 362.5L1062.5 387.5L1037.5 387.5L1012.5 387.5L987.5 387.5L962.5 387.5M1312.5 362.5L1287.5 337.5M1187.5 362.5L1162.5 387.5L1137.5 387.5L1112.5 387.5L1087.5 387.5M1337.5 337.5L1312.5 337.5L1287.5 312.5L1262.5 312.5L1237.5 312.5L1212.5 312.5L1187.5 312.5L1162.5 312.5L1137.5 312.5M1437.5 337.5L1412.5 312.5L1387.5 312.5L1362.5 312.5L1337.5 312.5L1312.5 312.5M1137.5 362.5L1112.5 337.5M1062.5 362.5L1037.5 337.5L1012.5 337.5L987.5 337.5L962.5 337.5M1387.5 337.5L1362.5 362.5M1837.5 387.5L1812.5 387.5L1787.5 387.5L1762.5 387.5L1737.5 362.5L1712.5 362.5L1687.5 362.5L1662.5 362.5L1637.5 362.5L1612.5 362.5L1587.5 362.5L1562.5 337.5L1537.5 337.5L1512.5 337.5L1487.5 337.5L1462.5 337.5L1437.5 337.5L1412.5 337.5L1387.5 337.5L1362.5 337.5L1337.5 337.5L1312.5 362.5L1287.5 362.5L1262.5 362.5L1237.5 362.5L1212.5 362.5L1187.5 362.5L1162.5 362.5L1137.5 362.5L1112.5 362.5L1087.5 362.5L1062.5 362.5L1037.5 362.5L1012.5 362.5L987.5 362.5" stroke="rgba(7, 16, 181, 1)" stroke-width="4.17"></path><path d="M981.25 362.5 a6.25 6.25 0 1 0 12.5 0 a6.25 6.25 0 1 0 -12.5 0zM956.25 387.5 a6.25 6.25 0 1 0 12.5 0 a6.25 6.25 0 1 0 -12.5 0zM1281.25 337.5 a6.25 6.25 0 1 0 12.5 0 a6.25 6.25 0 1 0 -12.5 0zM1081.25 387.5 a6.25 6.25 0 1 0 12.5 0 a6.25 6.25 0 1 0 -12.5 0zM1131.25 312.5 a6.25 6.25 0 1 0 12.5 0 a6.25 6.25 0 1 0 -12.5 0zM1306.25 312.5 a6.25 6.25 0 1 0 12.5 0 a6.25 6.25 0 1 0 -12.5 0zM1106.25 337.5 a6.25 6.25 0 1 0 12.5 0 a6.25 6.25 0 1 0 -12.5 0zM956.25 337.5 a6.25 6.25 0 1 0 12.5 0 a6.25 6.25 0 1 0 -12.5 0zM1356.25 362.5 a6.25 6.25 0 1 0 12.5 0 a6.25 6.25 0 1 0 -12.5 0z" fill="rgba(7, 16, 181, 1)"></path><path d="M1612.5 637.5L1587.5 662.5L1562.5 662.5L1537.5 687.5L1512.5 712.5M1637.5 662.5L1612.5 662.5L1587.5 687.5L1562.5 687.5M1662.5 662.5L1637.5 687.5L1612.5 687.5L1587.5 712.5M1512.5 687.5L1487.5 662.5L1462.5 662.5L1437.5 662.5L1412.5 662.5M1812.5 637.5L1787.5 637.5M1837.5 637.5L1812.5 637.5L1787.5 662.5L1762.5 662.5L1737.5 662.5L1712.5 662.5L1687.5 662.5L1662.5 662.5L1637.5 662.5L1612.5 637.5L1587.5 637.5L1562.5 637.5L1537.5 662.5L1512.5 687.5L1487.5 687.5L1462.5 687.5L1437.5 687.5L1412.5 687.5L1387.5 687.5L1362.5 687.5" stroke="rgba(7, 16, 181, 1)" stroke-width="4.17"></path><path d="M1356.25 687.5 a6.25 6.25 0 1 0 12.5 0 a6.25 6.25 0 1 0 -12.5 0zM1506.25 712.5 a6.25 6.25 0 1 0 12.5 0 a6.25 6.25 0 1 0 -12.5 0zM1556.25 687.5 a6.25 6.25 0 1 0 12.5 0 a6.25 6.25 0 1 0 -12.5 0zM1581.25 712.5 a6.25 6.25 0 1 0 12.5 0 a6.25 6.25 0 1 0 -12.5 0zM1406.25 662.5 a6.25 6.25 0 1 0 12.5 0 a6.25 6.25 0 1 0 -12.5 0zM1781.25 637.5 a6.25 6.25 0 1 0 12.5 0 a6.25 6.25 0 1 0 -12.5 0z" fill="rgba(7, 16, 181, 1)"></path><path d="M1462.5 287.5L1437.5 312.5M1662.5 312.5L1637.5 337.5L1612.5 337.5M1487.5 312.5L1462.5 312.5M1837.5 362.5L1812.5 362.5L1787.5 362.5L1762.5 362.5L1737.5 337.5L1712.5 337.5L1687.5 337.5L1662.5 312.5L1637.5 312.5L1612.5 312.5L1587.5 312.5L1562.5 312.5L1537.5 312.5L1512.5 312.5L1487.5 312.5L1462.5 287.5L1437.5 287.5L1412.5 287.5L1387.5 287.5" stroke="rgba(24, 65, 109, 1)" stroke-width="4.17"></path><path d="M1381.25 287.5 a6.25 6.25 0 1 0 12.5 0 a6.25 6.25 0 1 0 -12.5 0zM1431.25 312.5 a6.25 6.25 0 1 0 12.5 0 a6.25 6.25 0 1 0 -12.5 0zM1606.25 337.5 a6.25 6.25 0 1 0 12.5 0 a6.25 6.25 0 1 0 -12.5 0zM1456.25 312.5 a6.25 6.25 0 1 0 12.5 0 a6.25 6.25 0 1 0 -12.5 0z" fill="rgba(24, 65, 109, 1)"></path><path d="M1437.5 737.5L1412.5 762.5L1387.5 762.5L1362.5 762.5M1262.5 762.5L1237.5 737.5M1637.5 712.5L1612.5 712.5M1712.5 687.5L1687.5 687.5L1662.5 687.5M1412.5 737.5L1387.5 712.5M1537.5 737.5L1512.5 762.5M1837.5 662.5L1812.5 662.5L1787.5 687.5L1762.5 687.5L1737.5 687.5L1712.5 687.5L1687.5 712.5L1662.5 712.5L1637.5 712.5L1612.5 737.5L1587.5 737.5L1562.5 737.5L1537.5 737.5L1512.5 737.5L1487.5 737.5L1462.5 737.5L1437.5 737.5L1412.5 737.5L1387.5 737.5L1362.5 737.5L1337.5 737.5L1312.5 762.5L1287.5 762.5L1262.5 762.5L1237.5 762.5L1212.5 762.5L1187.5 762.5" stroke="rgba(24, 65, 109, 1)" stroke-width="4.17"></path><path d="M1181.25 762.5 a6.25 6.25 0 1 0 12.5 0 a6.25 6.25 0 1 0 -12.5 0zM1356.25 762.5 a6.25 6.25 0 1 0 12.5 0 a6.25 6.25 0 1 0 -12.5 0zM1231.25 737.5 a6.25 6.25 0 1 0 12.5 0 a6.25 6.25 0 1 0 -12.5 0zM1606.25 712.5 a6.25 6.25 0 1 0 12.5 0 a6.25 6.25 0 1 0 -12.5 0zM1656.25 687.5 a6.25 6.25 0 1 0 12.5 0 a6.25 6.25 0 1 0 -12.5 0zM1381.25 712.5 a6.25 6.25 0 1 0 12.5 0 a6.25 6.25 0 1 0 -12.5 0zM1506.25 762.5 a6.25 6.25 0 1 0 12.5 0 a6.25 6.25 0 1 0 -12.5 0z" fill="rgba(24, 65, 109, 1)"></path><path d="M1437.5 262.5L1412.5 237.5L1387.5 212.5L1362.5 212.5M1337.5 262.5L1312.5 287.5L1287.5 287.5L1262.5 287.5L1237.5 287.5L1212.5 287.5L1187.5 287.5L1162.5 287.5L1137.5 287.5L1112.5 287.5L1087.5 287.5M1362.5 262.5L1337.5 237.5L1312.5 237.5L1287.5 237.5L1262.5 237.5L1237.5 237.5L1212.5 212.5L1187.5 212.5L1162.5 212.5L1137.5 212.5L1112.5 212.5M1462.5 262.5L1437.5 237.5L1412.5 212.5L1387.5 187.5M1212.5 262.5L1187.5 262.5L1162.5 262.5L1137.5 262.5L1112.5 262.5L1087.5 262.5L1062.5 262.5L1037.5 262.5L1012.5 262.5L987.5 262.5M1387.5 262.5L1362.5 237.5M1512.5 262.5L1487.5 237.5L1462.5 237.5L1437.5 212.5L1412.5 187.5M1837.5 337.5L1812.5 337.5L1787.5 337.5L1762.5 337.5L1737.5 312.5L1712.5 312.5L1687.5 312.5L1662.5 287.5L1637.5 287.5L1612.5 287.5L1587.5 287.5L1562.5 287.5L1537.5 287.5L1512.5 262.5L1487.5 262.5L1462.5 262.5L1437.5 262.5L1412.5 262.5L1387.5 262.5L1362.5 262.5L1337.5 262.5L1312.5 262.5L1287.5 262.5L1262.5 262.5L1237.5 262.5L1212.5 262.5L1187.5 237.5L1162.5 237.5L1137.5 237.5L1112.5 237.5L1087.5 237.5" stroke="rgba(24, 65, 109, 1)" stroke-width="4.17"></path><path d="M1081.25 237.5 a6.25 6.25 0 1 0 12.5 0 a6.25 6.25 0 1 0 -12.5 0zM1356.25 212.5 a6.25 6.25 0 1 0 12.5 0 a6.25 6.25 0 1 0 -12.5 0zM1081.25 287.5 a6.25 6.25 0 1 0 12.5 0 a6.25 6.25 0 1 0 -12.5 0zM1106.25 212.5 a6.25 6.25 0 1 0 12.5 0 a6.25 6.25 0 1 0 -12.5 0zM1381.25 187.5 a6.25 6.25 0 1 0 12.5 0 a6.25 6.25 0 1 0 -12.5 0zM981.25 262.5 a6.25 6.25 0 1 0 12.5 0 a6.25 6.25 0 1 0 -12.5 0zM1356.25 237.5 a6.25 6.25 0 1 0 12.5 0 a6.25 6.25 0 1 0 -12.5 0zM1406.25 187.5 a6.25 6.25 0 1 0 12.5 0 a6.25 6.25 0 1 0 -12.5 0z" fill="rgba(24, 65, 109, 1)"></path><path d="M1387.5 787.5L1362.5 812.5M1437.5 787.5L1412.5 812.5L1387.5 812.5M1562.5 787.5L1537.5 762.5M1162.5 812.5L1137.5 812.5L1112.5 812.5L1087.5 812.5L1062.5 812.5L1037.5 787.5L1012.5 762.5L987.5 762.5L962.5 762.5M1062.5 837.5L1037.5 862.5L1012.5 862.5L987.5 862.5L962.5 862.5M1612.5 762.5L1587.5 762.5L1562.5 762.5M1462.5 787.5L1437.5 812.5M1112.5 862.5L1087.5 837.5M1837.5 687.5L1812.5 687.5L1787.5 712.5L1762.5 712.5L1737.5 712.5L1712.5 712.5L1687.5 737.5L1662.5 737.5L1637.5 737.5L1612.5 762.5L1587.5 787.5L1562.5 787.5L1537.5 787.5L1512.5 787.5L1487.5 787.5L1462.5 787.5L1437.5 787.5L1412.5 787.5L1387.5 787.5L1362.5 787.5L1337.5 787.5L1312.5 787.5L1287.5 787.5L1262.5 787.5L1237.5 787.5L1212.5 787.5L1187.5 787.5L1162.5 812.5L1137.5 837.5L1112.5 862.5L1087.5 862.5L1062.5 837.5L1037.5 837.5" stroke="rgba(7, 16, 181, 1)" stroke-width="4.17"></path><path d="M1031.25 837.5 a6.25 6.25 0 1 0 12.5 0 a6.25 6.25 0 1 0 -12.5 0zM1356.25 812.5 a6.25 6.25 0 1 0 12.5 0 a6.25 6.25 0 1 0 -12.5 0zM1381.25 812.5 a6.25 6.25 0 1 0 12.5 0 a6.25 6.25 0 1 0 -12.5 0zM1531.25 762.5 a6.25 6.25 0 1 0 12.5 0 a6.25 6.25 0 1 0 -12.5 0zM956.25 762.5 a6.25 6.25 0 1 0 12.5 0 a6.25 6.25 0 1 0 -12.5 0zM956.25 862.5 a6.25 6.25 0 1 0 12.5 0 a6.25 6.25 0 1 0 -12.5 0zM1556.25 762.5 a6.25 6.25 0 1 0 12.5 0 a6.25 6.25 0 1 0 -12.5 0zM1431.25 812.5 a6.25 6.25 0 1 0 12.5 0 a6.25 6.25 0 1 0 -12.5 0zM1081.25 837.5 a6.25 6.25 0 1 0 12.5 0 a6.25 6.25 0 1 0 -12.5 0z" fill="rgba(7, 16, 181, 1)"></path><path d="M1837.5 312.5L1812.5 312.5L1787.5 312.5L1762.5 312.5L1737.5 287.5L1712.5 287.5L1687.5 287.5" stroke="rgba(7, 16, 181, 1)" stroke-width="4.17"></path><path d="M1681.25 287.5 a6.25 6.25 0 1 0 12.5 0 a6.25 6.25 0 1 0 -12.5 0z" fill="rgba(7, 16, 181, 1)"></path><path d="M1837.5 712.5L1812.5 712.5L1787.5 737.5L1762.5 737.5L1737.5 737.5" stroke="rgba(24, 65, 109, 1)" stroke-width="4.17"></path><path d="M1731.25 737.5 a6.25 6.25 0 1 0 12.5 0 a6.25 6.25 0 1 0 -12.5 0z" fill="rgba(24, 65, 109, 1)"></path><path d="M1662.5 262.5L1637.5 262.5M1637.5 237.5L1612.5 237.5L1587.5 237.5M1837.5 287.5L1812.5 287.5L1787.5 287.5L1762.5 287.5L1737.5 262.5L1712.5 262.5L1687.5 262.5L1662.5 262.5L1637.5 237.5L1612.5 212.5L1587.5 212.5" stroke="rgba(7, 16, 181, 1)" stroke-width="4.17"></path><path d="M1581.25 212.5 a6.25 6.25 0 1 0 12.5 0 a6.25 6.25 0 1 0 -12.5 0zM1631.25 262.5 a6.25 6.25 0 1 0 12.5 0 a6.25 6.25 0 1 0 -12.5 0zM1581.25 237.5 a6.25 6.25 0 1 0 12.5 0 a6.25 6.25 0 1 0 -12.5 0z" fill="rgba(7, 16, 181, 1)"></path><path d="M1512.5 812.5L1487.5 837.5L1462.5 862.5L1437.5 862.5L1412.5 862.5M1712.5 762.5L1687.5 787.5M1087.5 887.5L1062.5 912.5L1037.5 912.5L1012.5 912.5L987.5 912.5M1262.5 812.5L1237.5 837.5L1212.5 837.5L1187.5 837.5L1162.5 862.5L1137.5 887.5L1112.5 912.5M1312.5 812.5L1287.5 837.5L1262.5 837.5L1237.5 862.5M1587.5 812.5L1562.5 837.5M1387.5 837.5L1362.5 862.5L1337.5 862.5L1312.5 862.5M1662.5 762.5L1637.5 787.5L1612.5 812.5L1587.5 837.5L1562.5 862.5L1537.5 862.5L1512.5 862.5L1487.5 862.5L1462.5 887.5L1437.5 887.5L1412.5 887.5L1387.5 887.5L1362.5 887.5M1837.5 737.5L1812.5 737.5L1787.5 762.5L1762.5 762.5L1737.5 762.5L1712.5 762.5L1687.5 762.5L1662.5 762.5L1637.5 762.5L1612.5 787.5L1587.5 812.5L1562.5 812.5L1537.5 812.5L1512.5 812.5L1487.5 812.5L1462.5 837.5L1437.5 837.5L1412.5 837.5L1387.5 837.5L1362.5 837.5L1337.5 812.5L1312.5 812.5L1287.5 812.5L1262.5 812.5L1237.5 812.5L1212.5 812.5L1187.5 812.5L1162.5 837.5L1137.5 862.5L1112.5 887.5L1087.5 887.5L1062.5 887.5" stroke="rgba(24, 65, 109, 1)" stroke-width="4.17"></path><path d="M1056.25 887.5 a6.25 6.25 0 1 0 12.5 0 a6.25 6.25 0 1 0 -12.5 0zM1406.25 862.5 a6.25 6.25 0 1 0 12.5 0 a6.25 6.25 0 1 0 -12.5 0zM1681.25 787.5 a6.25 6.25 0 1 0 12.5 0 a6.25 6.25 0 1 0 -12.5 0zM981.25 912.5 a6.25 6.25 0 1 0 12.5 0 a6.25 6.25 0 1 0 -12.5 0zM1106.25 912.5 a6.25 6.25 0 1 0 12.5 0 a6.25 6.25 0 1 0 -12.5 0zM1231.25 862.5 a6.25 6.25 0 1 0 12.5 0 a6.25 6.25 0 1 0 -12.5 0zM1556.25 837.5 a6.25 6.25 0 1 0 12.5 0 a6.25 6.25 0 1 0 -12.5 0zM1306.25 862.5 a6.25 6.25 0 1 0 12.5 0 a6.25 6.25 0 1 0 -12.5 0zM1356.25 887.5 a6.25 6.25 0 1 0 12.5 0 a6.25 6.25 0 1 0 -12.5 0z" fill="rgba(24, 65, 109, 1)"></path><path d="M1512.5 162.5L1487.5 137.5M1612.5 187.5L1587.5 162.5L1562.5 162.5L1537.5 162.5M1687.5 237.5L1662.5 212.5L1637.5 187.5M1837.5 262.5L1812.5 262.5L1787.5 262.5L1762.5 262.5L1737.5 237.5L1712.5 237.5L1687.5 237.5L1662.5 237.5L1637.5 212.5L1612.5 187.5L1587.5 187.5L1562.5 187.5L1537.5 187.5L1512.5 162.5L1487.5 162.5" stroke="rgba(24, 65, 109, 1)" stroke-width="4.17"></path><path d="M1481.25 162.5 a6.25 6.25 0 1 0 12.5 0 a6.25 6.25 0 1 0 -12.5 0zM1481.25 137.5 a6.25 6.25 0 1 0 12.5 0 a6.25 6.25 0 1 0 -12.5 0zM1531.25 162.5 a6.25 6.25 0 1 0 12.5 0 a6.25 6.25 0 1 0 -12.5 0zM1631.25 187.5 a6.25 6.25 0 1 0 12.5 0 a6.25 6.25 0 1 0 -12.5 0z" fill="rgba(24, 65, 109, 1)"></path></g></g><defs><mask id="SvgjsMask1008"><rect width="1800" height="1000" fill="#ffffff"></rect></mask><mask id="SvgjsMask1009"><rect width="1800" height="1000" fill="white"></rect><path d="M1184.37 587.5 a3.13 3.13 0 1 0 6.26 0 a3.13 3.13 0 1 0 -6.26 0zM1184.37 562.5 a3.13 3.13 0 1 0 6.26 0 a3.13 3.13 0 1 0 -6.26 0zM1284.37 562.5 a3.13 3.13 0 1 0 6.26 0 a3.13 3.13 0 1 0 -6.26 0zM1409.37 587.5 a3.13 3.13 0 1 0 6.26 0 a3.13 3.13 0 1 0 -6.26 0zM1359.37 587.5 a3.13 3.13 0 1 0 6.26 0 a3.13 3.13 0 1 0 -6.26 0zM1434.37 512.5 a3.13 3.13 0 1 0 6.26 0 a3.13 3.13 0 1 0 -6.26 0z" fill="black"></path><path d="M1184.37 462.5 a3.13 3.13 0 1 0 6.26 0 a3.13 3.13 0 1 0 -6.26 0zM1334.37 437.5 a3.13 3.13 0 1 0 6.26 0 a3.13 3.13 0 1 0 -6.26 0zM1209.37 437.5 a3.13 3.13 0 1 0 6.26 0 a3.13 3.13 0 1 0 -6.26 0zM1259.37 512.5 a3.13 3.13 0 1 0 6.26 0 a3.13 3.13 0 1 0 -6.26 0zM1509.37 462.5 a3.13 3.13 0 1 0 6.26 0 a3.13 3.13 0 1 0 -6.26 0zM1159.37 487.5 a3.13 3.13 0 1 0 6.26 0 a3.13 3.13 0 1 0 -6.26 0zM1609.37 462.5 a3.13 3.13 0 1 0 6.26 0 a3.13 3.13 0 1 0 -6.26 0z" fill="black"></path><path d="M1709.37 537.5 a3.13 3.13 0 1 0 6.26 0 a3.13 3.13 0 1 0 -6.26 0z" fill="black"></path><path d="M1534.37 412.5 a3.13 3.13 0 1 0 6.26 0 a3.13 3.13 0 1 0 -6.26 0zM1459.37 437.5 a3.13 3.13 0 1 0 6.26 0 a3.13 3.13 0 1 0 -6.26 0zM1684.37 437.5 a3.13 3.13 0 1 0 6.26 0 a3.13 3.13 0 1 0 -6.26 0zM1709.37 437.5 a3.13 3.13 0 1 0 6.26 0 a3.13 3.13 0 1 0 -6.26 0z" fill="black"></path><path d="M1534.37 562.5 a3.13 3.13 0 1 0 6.26 0 a3.13 3.13 0 1 0 -6.26 0zM1684.37 587.5 a3.13 3.13 0 1 0 6.26 0 a3.13 3.13 0 1 0 -6.26 0zM1584.37 587.5 a3.13 3.13 0 1 0 6.26 0 a3.13 3.13 0 1 0 -6.26 0zM1484.37 612.5 a3.13 3.13 0 1 0 6.26 0 a3.13 3.13 0 1 0 -6.26 0z" fill="black"></path><path d="M1509.37 387.5 a3.13 3.13 0 1 0 6.26 0 a3.13 3.13 0 1 0 -6.26 0z" fill="black"></path><path d="M1009.37 637.5 a3.13 3.13 0 1 0 6.26 0 a3.13 3.13 0 1 0 -6.26 0zM959.37 612.5 a3.13 3.13 0 1 0 6.26 0 a3.13 3.13 0 1 0 -6.26 0zM1334.37 637.5 a3.13 3.13 0 1 0 6.26 0 a3.13 3.13 0 1 0 -6.26 0zM959.37 662.5 a3.13 3.13 0 1 0 6.26 0 a3.13 3.13 0 1 0 -6.26 0zM1734.37 637.5 a3.13 3.13 0 1 0 6.26 0 a3.13 3.13 0 1 0 -6.26 0zM959.37 687.5 a3.13 3.13 0 1 0 6.26 0 a3.13 3.13 0 1 0 -6.26 0zM1109.37 662.5 a3.13 3.13 0 1 0 6.26 0 a3.13 3.13 0 1 0 -6.26 0zM1634.37 637.5 a3.13 3.13 0 1 0 6.26 0 a3.13 3.13 0 1 0 -6.26 0zM1209.37 662.5 a3.13 3.13 0 1 0 6.26 0 a3.13 3.13 0 1 0 -6.26 0z" fill="black"></path><path d="M1409.37 362.5 a3.13 3.13 0 1 0 6.26 0 a3.13 3.13 0 1 0 -6.26 0zM1334.37 362.5 a3.13 3.13 0 1 0 6.26 0 a3.13 3.13 0 1 0 -6.26 0zM1459.37 387.5 a3.13 3.13 0 1 0 6.26 0 a3.13 3.13 0 1 0 -6.26 0z" fill="black"></path><path d="M984.37 362.5 a3.13 3.13 0 1 0 6.26 0 a3.13 3.13 0 1 0 -6.26 0zM959.37 387.5 a3.13 3.13 0 1 0 6.26 0 a3.13 3.13 0 1 0 -6.26 0zM1284.37 337.5 a3.13 3.13 0 1 0 6.26 0 a3.13 3.13 0 1 0 -6.26 0zM1084.37 387.5 a3.13 3.13 0 1 0 6.26 0 a3.13 3.13 0 1 0 -6.26 0zM1134.37 312.5 a3.13 3.13 0 1 0 6.26 0 a3.13 3.13 0 1 0 -6.26 0zM1309.37 312.5 a3.13 3.13 0 1 0 6.26 0 a3.13 3.13 0 1 0 -6.26 0zM1109.37 337.5 a3.13 3.13 0 1 0 6.26 0 a3.13 3.13 0 1 0 -6.26 0zM959.37 337.5 a3.13 3.13 0 1 0 6.26 0 a3.13 3.13 0 1 0 -6.26 0zM1359.37 362.5 a3.13 3.13 0 1 0 6.26 0 a3.13 3.13 0 1 0 -6.26 0z" fill="black"></path><path d="M1359.37 687.5 a3.13 3.13 0 1 0 6.26 0 a3.13 3.13 0 1 0 -6.26 0zM1509.37 712.5 a3.13 3.13 0 1 0 6.26 0 a3.13 3.13 0 1 0 -6.26 0zM1559.37 687.5 a3.13 3.13 0 1 0 6.26 0 a3.13 3.13 0 1 0 -6.26 0zM1584.37 712.5 a3.13 3.13 0 1 0 6.26 0 a3.13 3.13 0 1 0 -6.26 0zM1409.37 662.5 a3.13 3.13 0 1 0 6.26 0 a3.13 3.13 0 1 0 -6.26 0zM1784.37 637.5 a3.13 3.13 0 1 0 6.26 0 a3.13 3.13 0 1 0 -6.26 0z" fill="black"></path><path d="M1384.37 287.5 a3.13 3.13 0 1 0 6.26 0 a3.13 3.13 0 1 0 -6.26 0zM1434.37 312.5 a3.13 3.13 0 1 0 6.26 0 a3.13 3.13 0 1 0 -6.26 0zM1609.37 337.5 a3.13 3.13 0 1 0 6.26 0 a3.13 3.13 0 1 0 -6.26 0zM1459.37 312.5 a3.13 3.13 0 1 0 6.26 0 a3.13 3.13 0 1 0 -6.26 0z" fill="black"></path><path d="M1184.37 762.5 a3.13 3.13 0 1 0 6.26 0 a3.13 3.13 0 1 0 -6.26 0zM1359.37 762.5 a3.13 3.13 0 1 0 6.26 0 a3.13 3.13 0 1 0 -6.26 0zM1234.37 737.5 a3.13 3.13 0 1 0 6.26 0 a3.13 3.13 0 1 0 -6.26 0zM1609.37 712.5 a3.13 3.13 0 1 0 6.26 0 a3.13 3.13 0 1 0 -6.26 0zM1659.37 687.5 a3.13 3.13 0 1 0 6.26 0 a3.13 3.13 0 1 0 -6.26 0zM1384.37 712.5 a3.13 3.13 0 1 0 6.26 0 a3.13 3.13 0 1 0 -6.26 0zM1509.37 762.5 a3.13 3.13 0 1 0 6.26 0 a3.13 3.13 0 1 0 -6.26 0z" fill="black"></path><path d="M1084.37 237.5 a3.13 3.13 0 1 0 6.26 0 a3.13 3.13 0 1 0 -6.26 0zM1359.37 212.5 a3.13 3.13 0 1 0 6.26 0 a3.13 3.13 0 1 0 -6.26 0zM1084.37 287.5 a3.13 3.13 0 1 0 6.26 0 a3.13 3.13 0 1 0 -6.26 0zM1109.37 212.5 a3.13 3.13 0 1 0 6.26 0 a3.13 3.13 0 1 0 -6.26 0zM1384.37 187.5 a3.13 3.13 0 1 0 6.26 0 a3.13 3.13 0 1 0 -6.26 0zM984.37 262.5 a3.13 3.13 0 1 0 6.26 0 a3.13 3.13 0 1 0 -6.26 0zM1359.37 237.5 a3.13 3.13 0 1 0 6.26 0 a3.13 3.13 0 1 0 -6.26 0zM1409.37 187.5 a3.13 3.13 0 1 0 6.26 0 a3.13 3.13 0 1 0 -6.26 0z" fill="black"></path><path d="M1034.37 837.5 a3.13 3.13 0 1 0 6.26 0 a3.13 3.13 0 1 0 -6.26 0zM1359.37 812.5 a3.13 3.13 0 1 0 6.26 0 a3.13 3.13 0 1 0 -6.26 0zM1384.37 812.5 a3.13 3.13 0 1 0 6.26 0 a3.13 3.13 0 1 0 -6.26 0zM1534.37 762.5 a3.13 3.13 0 1 0 6.26 0 a3.13 3.13 0 1 0 -6.26 0zM959.37 762.5 a3.13 3.13 0 1 0 6.26 0 a3.13 3.13 0 1 0 -6.26 0zM959.37 862.5 a3.13 3.13 0 1 0 6.26 0 a3.13 3.13 0 1 0 -6.26 0zM1559.37 762.5 a3.13 3.13 0 1 0 6.26 0 a3.13 3.13 0 1 0 -6.26 0zM1434.37 812.5 a3.13 3.13 0 1 0 6.26 0 a3.13 3.13 0 1 0 -6.26 0zM1084.37 837.5 a3.13 3.13 0 1 0 6.26 0 a3.13 3.13 0 1 0 -6.26 0z" fill="black"></path><path d="M1684.37 287.5 a3.13 3.13 0 1 0 6.26 0 a3.13 3.13 0 1 0 -6.26 0z" fill="black"></path><path d="M1734.37 737.5 a3.13 3.13 0 1 0 6.26 0 a3.13 3.13 0 1 0 -6.26 0z" fill="black"></path><path d="M1584.37 212.5 a3.13 3.13 0 1 0 6.26 0 a3.13 3.13 0 1 0 -6.26 0zM1634.37 262.5 a3.13 3.13 0 1 0 6.26 0 a3.13 3.13 0 1 0 -6.26 0zM1584.37 237.5 a3.13 3.13 0 1 0 6.26 0 a3.13 3.13 0 1 0 -6.26 0z" fill="black"></path><path d="M1059.37 887.5 a3.13 3.13 0 1 0 6.26 0 a3.13 3.13 0 1 0 -6.26 0zM1409.37 862.5 a3.13 3.13 0 1 0 6.26 0 a3.13 3.13 0 1 0 -6.26 0zM1684.37 787.5 a3.13 3.13 0 1 0 6.26 0 a3.13 3.13 0 1 0 -6.26 0zM984.37 912.5 a3.13 3.13 0 1 0 6.26 0 a3.13 3.13 0 1 0 -6.26 0zM1109.37 912.5 a3.13 3.13 0 1 0 6.26 0 a3.13 3.13 0 1 0 -6.26 0zM1234.37 862.5 a3.13 3.13 0 1 0 6.26 0 a3.13 3.13 0 1 0 -6.26 0zM1559.37 837.5 a3.13 3.13 0 1 0 6.26 0 a3.13 3.13 0 1 0 -6.26 0zM1309.37 862.5 a3.13 3.13 0 1 0 6.26 0 a3.13 3.13 0 1 0 -6.26 0zM1359.37 887.5 a3.13 3.13 0 1 0 6.26 0 a3.13 3.13 0 1 0 -6.26 0z" fill="black"></path><path d="M1484.37 162.5 a3.13 3.13 0 1 0 6.26 0 a3.13 3.13 0 1 0 -6.26 0zM1484.37 137.5 a3.13 3.13 0 1 0 6.26 0 a3.13 3.13 0 1 0 -6.26 0zM1534.37 162.5 a3.13 3.13 0 1 0 6.26 0 a3.13 3.13 0 1 0 -6.26 0zM1634.37 187.5 a3.13 3.13 0 1 0 6.26 0 a3.13 3.13 0 1 0 -6.26 0z" fill="black"></path></mask></defs></svg>