<svg xmlns="http://www.w3.org/2000/svg" version="1.1" xmlns:xlink="http://www.w3.org/1999/xlink" xmlns:svgjs="http://svgjs.com/svgjs" width="1800" height="1000" preserveAspectRatio="none" viewBox="0 0 1800 1000"><g mask="url(&quot;#SvgjsMask4608&quot;)" fill="none"><rect width="1800" height="1000" x="0" y="0" fill="url(#SvgjsRadialGradient4609)"></rect><g mask="url(&quot;#SvgjsMask4610&quot;)"><path d="M1662.5 487.5L1637.5 512.5L1612.5 512.5M1537.5 462.5L1512.5 462.5L1487.5 437.5L1462.5 437.5M1762.5 512.5L1737.5 512.5M1487.5 487.5L1462.5 512.5L1437.5 512.5L1412.5 512.5L1387.5 512.5M1837.5 512.5L1812.5 512.5L1787.5 512.5L1762.5 512.5L1737.5 487.5L1712.5 487.5L1687.5 487.5L1662.5 487.5L1637.5 487.5L1612.5 462.5L1587.5 462.5L1562.5 462.5L1537.5 462.5L1512.5 487.5L1487.5 487.5L1462.5 487.5L1437.5 487.5L1412.5 487.5" stroke="rgba(9, 26, 228, 1)" stroke-width="4.17"></path><path d="M1406.25 487.5 a6.25 6.25 0 1 0 12.5 0 a6.25 6.25 0 1 0 -12.5 0zM1606.25 512.5 a6.25 6.25 0 1 0 12.5 0 a6.25 6.25 0 1 0 -12.5 0zM1456.25 437.5 a6.25 6.25 0 1 0 12.5 0 a6.25 6.25 0 1 0 -12.5 0zM1731.25 512.5 a6.25 6.25 0 1 0 12.5 0 a6.25 6.25 0 1 0 -12.5 0zM1381.25 512.5 a6.25 6.25 0 1 0 12.5 0 a6.25 6.25 0 1 0 -12.5 0z" fill="rgba(9, 26, 228, 1)"></path><path d="M1712.5 462.5L1687.5 437.5L1662.5 412.5M1562.5 437.5L1537.5 437.5M1437.5 412.5L1412.5 437.5L1387.5 437.5L1362.5 437.5M1662.5 437.5L1637.5 462.5M1737.5 462.5L1712.5 437.5M1837.5 487.5L1812.5 487.5L1787.5 487.5L1762.5 487.5L1737.5 462.5L1712.5 462.5L1687.5 462.5L1662.5 437.5L1637.5 437.5L1612.5 437.5L1587.5 437.5L1562.5 437.5L1537.5 412.5L1512.5 412.5L1487.5 412.5L1462.5 412.5L1437.5 412.5L1412.5 412.5L1387.5 412.5L1362.5 387.5" stroke="rgba(9, 26, 228, 1)" stroke-width="4.17"></path><path d="M1356.25 387.5 a6.25 6.25 0 1 0 12.5 0 a6.25 6.25 0 1 0 -12.5 0zM1656.25 412.5 a6.25 6.25 0 1 0 12.5 0 a6.25 6.25 0 1 0 -12.5 0zM1531.25 437.5 a6.25 6.25 0 1 0 12.5 0 a6.25 6.25 0 1 0 -12.5 0zM1356.25 437.5 a6.25 6.25 0 1 0 12.5 0 a6.25 6.25 0 1 0 -12.5 0zM1631.25 462.5 a6.25 6.25 0 1 0 12.5 0 a6.25 6.25 0 1 0 -12.5 0zM1706.25 437.5 a6.25 6.25 0 1 0 12.5 0 a6.25 6.25 0 1 0 -12.5 0z" fill="rgba(9, 26, 228, 1)"></path><path d="M1437.5 562.5L1412.5 537.5L1387.5 537.5L1362.5 537.5L1337.5 537.5M1712.5 537.5L1687.5 512.5L1662.5 512.5M1337.5 562.5L1312.5 562.5L1287.5 562.5L1262.5 562.5L1237.5 562.5L1212.5 562.5L1187.5 562.5L1162.5 562.5L1137.5 587.5M1187.5 612.5L1162.5 587.5M1637.5 537.5L1612.5 562.5L1587.5 562.5M1562.5 562.5L1537.5 537.5L1512.5 537.5M1487.5 562.5L1462.5 537.5M1312.5 587.5L1287.5 587.5L1262.5 587.5M1837.5 537.5L1812.5 537.5L1787.5 537.5L1762.5 537.5L1737.5 537.5L1712.5 537.5L1687.5 537.5L1662.5 537.5L1637.5 537.5L1612.5 537.5L1587.5 537.5L1562.5 562.5L1537.5 562.5L1512.5 562.5L1487.5 562.5L1462.5 562.5L1437.5 562.5L1412.5 562.5L1387.5 562.5L1362.5 562.5L1337.5 562.5L1312.5 587.5L1287.5 612.5L1262.5 612.5L1237.5 612.5L1212.5 612.5L1187.5 612.5L1162.5 612.5L1137.5 612.5L1112.5 612.5L1087.5 612.5L1062.5 612.5" stroke="rgba(9, 26, 228, 1)" stroke-width="4.17"></path><path d="M1056.25 612.5 a6.25 6.25 0 1 0 12.5 0 a6.25 6.25 0 1 0 -12.5 0zM1331.25 537.5 a6.25 6.25 0 1 0 12.5 0 a6.25 6.25 0 1 0 -12.5 0zM1656.25 512.5 a6.25 6.25 0 1 0 12.5 0 a6.25 6.25 0 1 0 -12.5 0zM1131.25 587.5 a6.25 6.25 0 1 0 12.5 0 a6.25 6.25 0 1 0 -12.5 0zM1156.25 587.5 a6.25 6.25 0 1 0 12.5 0 a6.25 6.25 0 1 0 -12.5 0zM1581.25 562.5 a6.25 6.25 0 1 0 12.5 0 a6.25 6.25 0 1 0 -12.5 0zM1506.25 537.5 a6.25 6.25 0 1 0 12.5 0 a6.25 6.25 0 1 0 -12.5 0zM1456.25 537.5 a6.25 6.25 0 1 0 12.5 0 a6.25 6.25 0 1 0 -12.5 0zM1256.25 587.5 a6.25 6.25 0 1 0 12.5 0 a6.25 6.25 0 1 0 -12.5 0z" fill="rgba(9, 26, 228, 1)"></path><path d="M1812.5 462.5L1787.5 437.5L1762.5 437.5M1837.5 462.5L1812.5 462.5L1787.5 462.5" stroke="rgba(24, 65, 109, 1)" stroke-width="4.17"></path><path d="M1781.25 462.5 a6.25 6.25 0 1 0 12.5 0 a6.25 6.25 0 1 0 -12.5 0zM1756.25 437.5 a6.25 6.25 0 1 0 12.5 0 a6.25 6.25 0 1 0 -12.5 0z" fill="rgba(24, 65, 109, 1)"></path><path d="M1837.5 562.5L1812.5 562.5L1787.5 562.5L1762.5 562.5L1737.5 562.5L1712.5 562.5L1687.5 562.5" stroke="rgba(24, 65, 109, 1)" stroke-width="4.17"></path><path d="M1681.25 562.5 a6.25 6.25 0 1 0 12.5 0 a6.25 6.25 0 1 0 -12.5 0z" fill="rgba(24, 65, 109, 1)"></path><path d="M1712.5 387.5L1687.5 412.5M1187.5 362.5L1162.5 337.5M1737.5 387.5L1712.5 412.5M987.5 337.5L962.5 362.5M1087.5 362.5L1062.5 387.5L1037.5 387.5L1012.5 387.5M1812.5 412.5L1787.5 412.5M1037.5 362.5L1012.5 337.5L987.5 312.5L962.5 312.5M1587.5 412.5L1562.5 387.5L1537.5 362.5M1212.5 362.5L1187.5 387.5L1162.5 387.5L1137.5 387.5L1112.5 387.5L1087.5 412.5L1062.5 412.5L1037.5 412.5L1012.5 412.5L987.5 412.5M1837.5 437.5L1812.5 412.5L1787.5 387.5L1762.5 387.5L1737.5 387.5L1712.5 387.5L1687.5 387.5L1662.5 387.5L1637.5 387.5L1612.5 387.5L1587.5 412.5L1562.5 412.5L1537.5 387.5L1512.5 387.5L1487.5 387.5L1462.5 387.5L1437.5 387.5L1412.5 387.5L1387.5 387.5L1362.5 362.5L1337.5 362.5L1312.5 362.5L1287.5 362.5L1262.5 362.5L1237.5 362.5L1212.5 362.5L1187.5 362.5L1162.5 362.5L1137.5 362.5L1112.5 362.5L1087.5 362.5L1062.5 362.5L1037.5 362.5L1012.5 362.5L987.5 337.5L962.5 337.5" stroke="rgba(24, 65, 109, 1)" stroke-width="4.17"></path><path d="M956.25 337.5 a6.25 6.25 0 1 0 12.5 0 a6.25 6.25 0 1 0 -12.5 0zM1681.25 412.5 a6.25 6.25 0 1 0 12.5 0 a6.25 6.25 0 1 0 -12.5 0zM1156.25 337.5 a6.25 6.25 0 1 0 12.5 0 a6.25 6.25 0 1 0 -12.5 0zM1706.25 412.5 a6.25 6.25 0 1 0 12.5 0 a6.25 6.25 0 1 0 -12.5 0zM956.25 362.5 a6.25 6.25 0 1 0 12.5 0 a6.25 6.25 0 1 0 -12.5 0zM1006.25 387.5 a6.25 6.25 0 1 0 12.5 0 a6.25 6.25 0 1 0 -12.5 0zM1781.25 412.5 a6.25 6.25 0 1 0 12.5 0 a6.25 6.25 0 1 0 -12.5 0zM956.25 312.5 a6.25 6.25 0 1 0 12.5 0 a6.25 6.25 0 1 0 -12.5 0zM1531.25 362.5 a6.25 6.25 0 1 0 12.5 0 a6.25 6.25 0 1 0 -12.5 0zM981.25 412.5 a6.25 6.25 0 1 0 12.5 0 a6.25 6.25 0 1 0 -12.5 0z" fill="rgba(24, 65, 109, 1)"></path><path d="M1162.5 637.5L1137.5 662.5M1237.5 637.5L1212.5 662.5L1187.5 662.5L1162.5 662.5L1137.5 687.5M1687.5 587.5L1662.5 612.5L1637.5 612.5L1612.5 612.5M1262.5 637.5L1237.5 662.5L1212.5 687.5M1487.5 587.5L1462.5 612.5L1437.5 612.5L1412.5 637.5M1512.5 587.5L1487.5 612.5L1462.5 637.5L1437.5 637.5L1412.5 662.5L1387.5 662.5L1362.5 662.5M1662.5 587.5L1637.5 562.5M1837.5 587.5L1812.5 587.5L1787.5 587.5L1762.5 587.5L1737.5 587.5L1712.5 587.5L1687.5 587.5L1662.5 587.5L1637.5 587.5L1612.5 587.5L1587.5 587.5L1562.5 587.5L1537.5 587.5L1512.5 587.5L1487.5 587.5L1462.5 587.5L1437.5 587.5L1412.5 612.5L1387.5 612.5L1362.5 612.5L1337.5 612.5L1312.5 612.5L1287.5 637.5L1262.5 637.5L1237.5 637.5L1212.5 637.5L1187.5 637.5L1162.5 637.5L1137.5 637.5" stroke="rgba(24, 65, 109, 1)" stroke-width="4.17"></path><path d="M1131.25 637.5 a6.25 6.25 0 1 0 12.5 0 a6.25 6.25 0 1 0 -12.5 0zM1131.25 662.5 a6.25 6.25 0 1 0 12.5 0 a6.25 6.25 0 1 0 -12.5 0zM1131.25 687.5 a6.25 6.25 0 1 0 12.5 0 a6.25 6.25 0 1 0 -12.5 0zM1606.25 612.5 a6.25 6.25 0 1 0 12.5 0 a6.25 6.25 0 1 0 -12.5 0zM1206.25 687.5 a6.25 6.25 0 1 0 12.5 0 a6.25 6.25 0 1 0 -12.5 0zM1406.25 637.5 a6.25 6.25 0 1 0 12.5 0 a6.25 6.25 0 1 0 -12.5 0zM1356.25 662.5 a6.25 6.25 0 1 0 12.5 0 a6.25 6.25 0 1 0 -12.5 0zM1631.25 562.5 a6.25 6.25 0 1 0 12.5 0 a6.25 6.25 0 1 0 -12.5 0z" fill="rgba(24, 65, 109, 1)"></path><path d="M1737.5 612.5L1712.5 612.5L1687.5 612.5M1662.5 637.5L1637.5 662.5L1612.5 662.5M1837.5 612.5L1812.5 612.5L1787.5 612.5L1762.5 612.5L1737.5 612.5L1712.5 637.5L1687.5 637.5L1662.5 637.5L1637.5 637.5L1612.5 637.5L1587.5 637.5L1562.5 637.5" stroke="rgba(9, 26, 228, 1)" stroke-width="4.17"></path><path d="M1556.25 637.5 a6.25 6.25 0 1 0 12.5 0 a6.25 6.25 0 1 0 -12.5 0zM1681.25 612.5 a6.25 6.25 0 1 0 12.5 0 a6.25 6.25 0 1 0 -12.5 0zM1606.25 662.5 a6.25 6.25 0 1 0 12.5 0 a6.25 6.25 0 1 0 -12.5 0z" fill="rgba(9, 26, 228, 1)"></path><path d="M1837.5 387.5L1812.5 387.5L1787.5 362.5L1762.5 362.5L1737.5 362.5L1712.5 362.5L1687.5 362.5L1662.5 362.5L1637.5 362.5" stroke="rgba(9, 26, 228, 1)" stroke-width="4.17"></path><path d="M1631.25 362.5 a6.25 6.25 0 1 0 12.5 0 a6.25 6.25 0 1 0 -12.5 0z" fill="rgba(9, 26, 228, 1)"></path><path d="M1687.5 662.5L1662.5 662.5M1637.5 687.5L1612.5 712.5L1587.5 712.5M1837.5 637.5L1812.5 637.5L1787.5 637.5L1762.5 637.5L1737.5 637.5L1712.5 662.5L1687.5 662.5L1662.5 687.5L1637.5 687.5L1612.5 687.5" stroke="rgba(9, 26, 228, 1)" stroke-width="4.17"></path><path d="M1606.25 687.5 a6.25 6.25 0 1 0 12.5 0 a6.25 6.25 0 1 0 -12.5 0zM1656.25 662.5 a6.25 6.25 0 1 0 12.5 0 a6.25 6.25 0 1 0 -12.5 0zM1581.25 712.5 a6.25 6.25 0 1 0 12.5 0 a6.25 6.25 0 1 0 -12.5 0z" fill="rgba(9, 26, 228, 1)"></path><path d="M1487.5 362.5L1462.5 337.5L1437.5 337.5L1412.5 337.5L1387.5 337.5M1587.5 337.5L1562.5 312.5M1612.5 337.5L1587.5 312.5M1512.5 362.5L1487.5 337.5L1462.5 312.5L1437.5 312.5L1412.5 312.5M1637.5 337.5L1612.5 312.5M1837.5 362.5L1812.5 362.5L1787.5 337.5L1762.5 337.5L1737.5 337.5L1712.5 337.5L1687.5 337.5L1662.5 337.5L1637.5 337.5L1612.5 337.5L1587.5 337.5L1562.5 337.5L1537.5 337.5L1512.5 362.5L1487.5 362.5L1462.5 362.5L1437.5 362.5L1412.5 362.5L1387.5 362.5L1362.5 337.5L1337.5 337.5L1312.5 337.5" stroke="rgba(9, 26, 228, 1)" stroke-width="4.17"></path><path d="M1306.25 337.5 a6.25 6.25 0 1 0 12.5 0 a6.25 6.25 0 1 0 -12.5 0zM1381.25 337.5 a6.25 6.25 0 1 0 12.5 0 a6.25 6.25 0 1 0 -12.5 0zM1556.25 312.5 a6.25 6.25 0 1 0 12.5 0 a6.25 6.25 0 1 0 -12.5 0zM1581.25 312.5 a6.25 6.25 0 1 0 12.5 0 a6.25 6.25 0 1 0 -12.5 0zM1406.25 312.5 a6.25 6.25 0 1 0 12.5 0 a6.25 6.25 0 1 0 -12.5 0zM1606.25 312.5 a6.25 6.25 0 1 0 12.5 0 a6.25 6.25 0 1 0 -12.5 0z" fill="rgba(9, 26, 228, 1)"></path><path d="M1712.5 687.5L1687.5 712.5M1762.5 662.5L1737.5 687.5M1787.5 662.5L1762.5 687.5M1837.5 662.5L1812.5 662.5L1787.5 662.5L1762.5 662.5L1737.5 662.5L1712.5 687.5L1687.5 687.5L1662.5 712.5" stroke="rgba(24, 65, 109, 1)" stroke-width="4.17"></path><path d="M1656.25 712.5 a6.25 6.25 0 1 0 12.5 0 a6.25 6.25 0 1 0 -12.5 0zM1681.25 712.5 a6.25 6.25 0 1 0 12.5 0 a6.25 6.25 0 1 0 -12.5 0zM1731.25 687.5 a6.25 6.25 0 1 0 12.5 0 a6.25 6.25 0 1 0 -12.5 0zM1756.25 687.5 a6.25 6.25 0 1 0 12.5 0 a6.25 6.25 0 1 0 -12.5 0z" fill="rgba(24, 65, 109, 1)"></path><path d="M1687.5 312.5L1662.5 312.5L1637.5 312.5M1587.5 287.5L1562.5 287.5L1537.5 287.5L1512.5 287.5L1487.5 287.5M1412.5 262.5L1387.5 262.5M1387.5 287.5L1362.5 312.5L1337.5 312.5L1312.5 312.5M1437.5 262.5L1412.5 287.5M1837.5 337.5L1812.5 337.5L1787.5 312.5L1762.5 312.5L1737.5 312.5L1712.5 312.5L1687.5 312.5L1662.5 287.5L1637.5 287.5L1612.5 287.5L1587.5 287.5L1562.5 262.5L1537.5 262.5L1512.5 262.5L1487.5 262.5L1462.5 262.5L1437.5 262.5L1412.5 262.5L1387.5 287.5L1362.5 287.5" stroke="rgba(9, 26, 228, 1)" stroke-width="4.17"></path><path d="M1356.25 287.5 a6.25 6.25 0 1 0 12.5 0 a6.25 6.25 0 1 0 -12.5 0zM1631.25 312.5 a6.25 6.25 0 1 0 12.5 0 a6.25 6.25 0 1 0 -12.5 0zM1481.25 287.5 a6.25 6.25 0 1 0 12.5 0 a6.25 6.25 0 1 0 -12.5 0zM1381.25 262.5 a6.25 6.25 0 1 0 12.5 0 a6.25 6.25 0 1 0 -12.5 0zM1306.25 312.5 a6.25 6.25 0 1 0 12.5 0 a6.25 6.25 0 1 0 -12.5 0zM1406.25 287.5 a6.25 6.25 0 1 0 12.5 0 a6.25 6.25 0 1 0 -12.5 0z" fill="rgba(9, 26, 228, 1)"></path><path d="M1537.5 787.5L1512.5 762.5L1487.5 737.5L1462.5 737.5L1437.5 737.5L1412.5 737.5M1637.5 762.5L1612.5 737.5L1587.5 737.5M1812.5 687.5L1787.5 687.5M1687.5 737.5L1662.5 737.5L1637.5 737.5M1837.5 687.5L1812.5 687.5L1787.5 712.5L1762.5 712.5L1737.5 712.5L1712.5 737.5L1687.5 737.5L1662.5 762.5L1637.5 762.5L1612.5 762.5L1587.5 762.5L1562.5 762.5L1537.5 787.5L1512.5 787.5L1487.5 787.5L1462.5 787.5L1437.5 787.5" stroke="rgba(9, 26, 228, 1)" stroke-width="4.17"></path><path d="M1431.25 787.5 a6.25 6.25 0 1 0 12.5 0 a6.25 6.25 0 1 0 -12.5 0zM1406.25 737.5 a6.25 6.25 0 1 0 12.5 0 a6.25 6.25 0 1 0 -12.5 0zM1581.25 737.5 a6.25 6.25 0 1 0 12.5 0 a6.25 6.25 0 1 0 -12.5 0zM1781.25 687.5 a6.25 6.25 0 1 0 12.5 0 a6.25 6.25 0 1 0 -12.5 0zM1631.25 737.5 a6.25 6.25 0 1 0 12.5 0 a6.25 6.25 0 1 0 -12.5 0z" fill="rgba(9, 26, 228, 1)"></path><path d="M1837.5 312.5L1812.5 312.5L1787.5 287.5L1762.5 287.5L1737.5 287.5L1712.5 287.5" stroke="rgba(24, 65, 109, 1)" stroke-width="4.17"></path><path d="M1706.25 287.5 a6.25 6.25 0 1 0 12.5 0 a6.25 6.25 0 1 0 -12.5 0z" fill="rgba(24, 65, 109, 1)"></path><path d="M1837.5 712.5L1812.5 712.5L1787.5 737.5L1762.5 737.5L1737.5 737.5L1712.5 762.5L1687.5 762.5L1662.5 787.5L1637.5 787.5L1612.5 787.5" stroke="rgba(9, 26, 228, 1)" stroke-width="4.17"></path><path d="M1606.25 787.5 a6.25 6.25 0 1 0 12.5 0 a6.25 6.25 0 1 0 -12.5 0z" fill="rgba(9, 26, 228, 1)"></path><path d="M1462.5 237.5L1437.5 212.5L1412.5 187.5M1587.5 237.5L1562.5 212.5L1537.5 212.5L1512.5 212.5L1487.5 212.5M1687.5 262.5L1662.5 237.5L1637.5 237.5L1612.5 212.5L1587.5 212.5M1762.5 262.5L1737.5 237.5L1712.5 237.5L1687.5 237.5M1637.5 262.5L1612.5 262.5L1587.5 262.5M1837.5 287.5L1812.5 287.5L1787.5 262.5L1762.5 262.5L1737.5 262.5L1712.5 262.5L1687.5 262.5L1662.5 262.5L1637.5 262.5L1612.5 237.5L1587.5 237.5L1562.5 237.5L1537.5 237.5L1512.5 237.5L1487.5 237.5L1462.5 237.5L1437.5 237.5L1412.5 212.5L1387.5 187.5L1362.5 187.5L1337.5 187.5" stroke="rgba(9, 26, 228, 1)" stroke-width="4.17"></path><path d="M1331.25 187.5 a6.25 6.25 0 1 0 12.5 0 a6.25 6.25 0 1 0 -12.5 0zM1406.25 187.5 a6.25 6.25 0 1 0 12.5 0 a6.25 6.25 0 1 0 -12.5 0zM1481.25 212.5 a6.25 6.25 0 1 0 12.5 0 a6.25 6.25 0 1 0 -12.5 0zM1581.25 212.5 a6.25 6.25 0 1 0 12.5 0 a6.25 6.25 0 1 0 -12.5 0zM1681.25 237.5 a6.25 6.25 0 1 0 12.5 0 a6.25 6.25 0 1 0 -12.5 0zM1581.25 262.5 a6.25 6.25 0 1 0 12.5 0 a6.25 6.25 0 1 0 -12.5 0z" fill="rgba(9, 26, 228, 1)"></path><path d="M1562.5 812.5L1537.5 837.5L1512.5 862.5M1512.5 812.5L1487.5 837.5L1462.5 837.5L1437.5 837.5M1612.5 812.5L1587.5 837.5L1562.5 837.5M1587.5 812.5L1562.5 787.5M1837.5 737.5L1812.5 737.5L1787.5 762.5L1762.5 762.5L1737.5 762.5L1712.5 787.5L1687.5 787.5L1662.5 812.5L1637.5 812.5L1612.5 812.5L1587.5 812.5L1562.5 812.5L1537.5 812.5L1512.5 812.5L1487.5 812.5L1462.5 812.5L1437.5 812.5" stroke="rgba(24, 65, 109, 1)" stroke-width="4.17"></path><path d="M1431.25 812.5 a6.25 6.25 0 1 0 12.5 0 a6.25 6.25 0 1 0 -12.5 0zM1506.25 862.5 a6.25 6.25 0 1 0 12.5 0 a6.25 6.25 0 1 0 -12.5 0zM1431.25 837.5 a6.25 6.25 0 1 0 12.5 0 a6.25 6.25 0 1 0 -12.5 0zM1556.25 837.5 a6.25 6.25 0 1 0 12.5 0 a6.25 6.25 0 1 0 -12.5 0zM1556.25 787.5 a6.25 6.25 0 1 0 12.5 0 a6.25 6.25 0 1 0 -12.5 0z" fill="rgba(24, 65, 109, 1)"></path><path d="M1837.5 262.5L1812.5 262.5L1787.5 237.5" stroke="rgba(9, 26, 228, 1)" stroke-width="4.17"></path><path d="M1781.25 237.5 a6.25 6.25 0 1 0 12.5 0 a6.25 6.25 0 1 0 -12.5 0z" fill="rgba(9, 26, 228, 1)"></path></g></g><defs><mask id="SvgjsMask4608"><rect width="1800" height="1000" fill="#ffffff"></rect></mask><radialGradient cx="100%" cy="50%" r="1868.15" gradientUnits="userSpaceOnUse" id="SvgjsRadialGradient4609"><stop stop-color="rgba(0, 0, 0, 1)" offset="0"></stop><stop stop-color="rgba(3, 58, 119, 1)" offset="0.06"></stop><stop stop-color="rgba(10, 11, 13, 1)" offset="1"></stop></radialGradient><mask id="SvgjsMask4610"><rect width="1800" height="1000" fill="white"></rect><path d="M1409.37 487.5 a3.13 3.13 0 1 0 6.26 0 a3.13 3.13 0 1 0 -6.26 0zM1609.37 512.5 a3.13 3.13 0 1 0 6.26 0 a3.13 3.13 0 1 0 -6.26 0zM1459.37 437.5 a3.13 3.13 0 1 0 6.26 0 a3.13 3.13 0 1 0 -6.26 0zM1734.37 512.5 a3.13 3.13 0 1 0 6.26 0 a3.13 3.13 0 1 0 -6.26 0zM1384.37 512.5 a3.13 3.13 0 1 0 6.26 0 a3.13 3.13 0 1 0 -6.26 0z" fill="black"></path><path d="M1359.37 387.5 a3.13 3.13 0 1 0 6.26 0 a3.13 3.13 0 1 0 -6.26 0zM1659.37 412.5 a3.13 3.13 0 1 0 6.26 0 a3.13 3.13 0 1 0 -6.26 0zM1534.37 437.5 a3.13 3.13 0 1 0 6.26 0 a3.13 3.13 0 1 0 -6.26 0zM1359.37 437.5 a3.13 3.13 0 1 0 6.26 0 a3.13 3.13 0 1 0 -6.26 0zM1634.37 462.5 a3.13 3.13 0 1 0 6.26 0 a3.13 3.13 0 1 0 -6.26 0zM1709.37 437.5 a3.13 3.13 0 1 0 6.26 0 a3.13 3.13 0 1 0 -6.26 0z" fill="black"></path><path d="M1059.37 612.5 a3.13 3.13 0 1 0 6.26 0 a3.13 3.13 0 1 0 -6.26 0zM1334.37 537.5 a3.13 3.13 0 1 0 6.26 0 a3.13 3.13 0 1 0 -6.26 0zM1659.37 512.5 a3.13 3.13 0 1 0 6.26 0 a3.13 3.13 0 1 0 -6.26 0zM1134.37 587.5 a3.13 3.13 0 1 0 6.26 0 a3.13 3.13 0 1 0 -6.26 0zM1159.37 587.5 a3.13 3.13 0 1 0 6.26 0 a3.13 3.13 0 1 0 -6.26 0zM1584.37 562.5 a3.13 3.13 0 1 0 6.26 0 a3.13 3.13 0 1 0 -6.26 0zM1509.37 537.5 a3.13 3.13 0 1 0 6.26 0 a3.13 3.13 0 1 0 -6.26 0zM1459.37 537.5 a3.13 3.13 0 1 0 6.26 0 a3.13 3.13 0 1 0 -6.26 0zM1259.37 587.5 a3.13 3.13 0 1 0 6.26 0 a3.13 3.13 0 1 0 -6.26 0z" fill="black"></path><path d="M1784.37 462.5 a3.13 3.13 0 1 0 6.26 0 a3.13 3.13 0 1 0 -6.26 0zM1759.37 437.5 a3.13 3.13 0 1 0 6.26 0 a3.13 3.13 0 1 0 -6.26 0z" fill="black"></path><path d="M1684.37 562.5 a3.13 3.13 0 1 0 6.26 0 a3.13 3.13 0 1 0 -6.26 0z" fill="black"></path><path d="M959.37 337.5 a3.13 3.13 0 1 0 6.26 0 a3.13 3.13 0 1 0 -6.26 0zM1684.37 412.5 a3.13 3.13 0 1 0 6.26 0 a3.13 3.13 0 1 0 -6.26 0zM1159.37 337.5 a3.13 3.13 0 1 0 6.26 0 a3.13 3.13 0 1 0 -6.26 0zM1709.37 412.5 a3.13 3.13 0 1 0 6.26 0 a3.13 3.13 0 1 0 -6.26 0zM959.37 362.5 a3.13 3.13 0 1 0 6.26 0 a3.13 3.13 0 1 0 -6.26 0zM1009.37 387.5 a3.13 3.13 0 1 0 6.26 0 a3.13 3.13 0 1 0 -6.26 0zM1784.37 412.5 a3.13 3.13 0 1 0 6.26 0 a3.13 3.13 0 1 0 -6.26 0zM959.37 312.5 a3.13 3.13 0 1 0 6.26 0 a3.13 3.13 0 1 0 -6.26 0zM1534.37 362.5 a3.13 3.13 0 1 0 6.26 0 a3.13 3.13 0 1 0 -6.26 0zM984.37 412.5 a3.13 3.13 0 1 0 6.26 0 a3.13 3.13 0 1 0 -6.26 0z" fill="black"></path><path d="M1134.37 637.5 a3.13 3.13 0 1 0 6.26 0 a3.13 3.13 0 1 0 -6.26 0zM1134.37 662.5 a3.13 3.13 0 1 0 6.26 0 a3.13 3.13 0 1 0 -6.26 0zM1134.37 687.5 a3.13 3.13 0 1 0 6.26 0 a3.13 3.13 0 1 0 -6.26 0zM1609.37 612.5 a3.13 3.13 0 1 0 6.26 0 a3.13 3.13 0 1 0 -6.26 0zM1209.37 687.5 a3.13 3.13 0 1 0 6.26 0 a3.13 3.13 0 1 0 -6.26 0zM1409.37 637.5 a3.13 3.13 0 1 0 6.26 0 a3.13 3.13 0 1 0 -6.26 0zM1359.37 662.5 a3.13 3.13 0 1 0 6.26 0 a3.13 3.13 0 1 0 -6.26 0zM1634.37 562.5 a3.13 3.13 0 1 0 6.26 0 a3.13 3.13 0 1 0 -6.26 0z" fill="black"></path><path d="M1559.37 637.5 a3.13 3.13 0 1 0 6.26 0 a3.13 3.13 0 1 0 -6.26 0zM1684.37 612.5 a3.13 3.13 0 1 0 6.26 0 a3.13 3.13 0 1 0 -6.26 0zM1609.37 662.5 a3.13 3.13 0 1 0 6.26 0 a3.13 3.13 0 1 0 -6.26 0z" fill="black"></path><path d="M1634.37 362.5 a3.13 3.13 0 1 0 6.26 0 a3.13 3.13 0 1 0 -6.26 0z" fill="black"></path><path d="M1609.37 687.5 a3.13 3.13 0 1 0 6.26 0 a3.13 3.13 0 1 0 -6.26 0zM1659.37 662.5 a3.13 3.13 0 1 0 6.26 0 a3.13 3.13 0 1 0 -6.26 0zM1584.37 712.5 a3.13 3.13 0 1 0 6.26 0 a3.13 3.13 0 1 0 -6.26 0z" fill="black"></path><path d="M1309.37 337.5 a3.13 3.13 0 1 0 6.26 0 a3.13 3.13 0 1 0 -6.26 0zM1384.37 337.5 a3.13 3.13 0 1 0 6.26 0 a3.13 3.13 0 1 0 -6.26 0zM1559.37 312.5 a3.13 3.13 0 1 0 6.26 0 a3.13 3.13 0 1 0 -6.26 0zM1584.37 312.5 a3.13 3.13 0 1 0 6.26 0 a3.13 3.13 0 1 0 -6.26 0zM1409.37 312.5 a3.13 3.13 0 1 0 6.26 0 a3.13 3.13 0 1 0 -6.26 0zM1609.37 312.5 a3.13 3.13 0 1 0 6.26 0 a3.13 3.13 0 1 0 -6.26 0z" fill="black"></path><path d="M1659.37 712.5 a3.13 3.13 0 1 0 6.26 0 a3.13 3.13 0 1 0 -6.26 0zM1684.37 712.5 a3.13 3.13 0 1 0 6.26 0 a3.13 3.13 0 1 0 -6.26 0zM1734.37 687.5 a3.13 3.13 0 1 0 6.26 0 a3.13 3.13 0 1 0 -6.26 0zM1759.37 687.5 a3.13 3.13 0 1 0 6.26 0 a3.13 3.13 0 1 0 -6.26 0z" fill="black"></path><path d="M1359.37 287.5 a3.13 3.13 0 1 0 6.26 0 a3.13 3.13 0 1 0 -6.26 0zM1634.37 312.5 a3.13 3.13 0 1 0 6.26 0 a3.13 3.13 0 1 0 -6.26 0zM1484.37 287.5 a3.13 3.13 0 1 0 6.26 0 a3.13 3.13 0 1 0 -6.26 0zM1384.37 262.5 a3.13 3.13 0 1 0 6.26 0 a3.13 3.13 0 1 0 -6.26 0zM1309.37 312.5 a3.13 3.13 0 1 0 6.26 0 a3.13 3.13 0 1 0 -6.26 0zM1409.37 287.5 a3.13 3.13 0 1 0 6.26 0 a3.13 3.13 0 1 0 -6.26 0z" fill="black"></path><path d="M1434.37 787.5 a3.13 3.13 0 1 0 6.26 0 a3.13 3.13 0 1 0 -6.26 0zM1409.37 737.5 a3.13 3.13 0 1 0 6.26 0 a3.13 3.13 0 1 0 -6.26 0zM1584.37 737.5 a3.13 3.13 0 1 0 6.26 0 a3.13 3.13 0 1 0 -6.26 0zM1784.37 687.5 a3.13 3.13 0 1 0 6.26 0 a3.13 3.13 0 1 0 -6.26 0zM1634.37 737.5 a3.13 3.13 0 1 0 6.26 0 a3.13 3.13 0 1 0 -6.26 0z" fill="black"></path><path d="M1709.37 287.5 a3.13 3.13 0 1 0 6.26 0 a3.13 3.13 0 1 0 -6.26 0z" fill="black"></path><path d="M1609.37 787.5 a3.13 3.13 0 1 0 6.26 0 a3.13 3.13 0 1 0 -6.26 0z" fill="black"></path><path d="M1334.37 187.5 a3.13 3.13 0 1 0 6.26 0 a3.13 3.13 0 1 0 -6.26 0zM1409.37 187.5 a3.13 3.13 0 1 0 6.26 0 a3.13 3.13 0 1 0 -6.26 0zM1484.37 212.5 a3.13 3.13 0 1 0 6.26 0 a3.13 3.13 0 1 0 -6.26 0zM1584.37 212.5 a3.13 3.13 0 1 0 6.26 0 a3.13 3.13 0 1 0 -6.26 0zM1684.37 237.5 a3.13 3.13 0 1 0 6.26 0 a3.13 3.13 0 1 0 -6.26 0zM1584.37 262.5 a3.13 3.13 0 1 0 6.26 0 a3.13 3.13 0 1 0 -6.26 0z" fill="black"></path><path d="M1434.37 812.5 a3.13 3.13 0 1 0 6.26 0 a3.13 3.13 0 1 0 -6.26 0zM1509.37 862.5 a3.13 3.13 0 1 0 6.26 0 a3.13 3.13 0 1 0 -6.26 0zM1434.37 837.5 a3.13 3.13 0 1 0 6.26 0 a3.13 3.13 0 1 0 -6.26 0zM1559.37 837.5 a3.13 3.13 0 1 0 6.26 0 a3.13 3.13 0 1 0 -6.26 0zM1559.37 787.5 a3.13 3.13 0 1 0 6.26 0 a3.13 3.13 0 1 0 -6.26 0z" fill="black"></path><path d="M1784.37 237.5 a3.13 3.13 0 1 0 6.26 0 a3.13 3.13 0 1 0 -6.26 0z" fill="black"></path></mask></defs></svg>