<svg width="180" height="180" viewBox="0 0 180 180" fill="none" xmlns="http://www.w3.org/2000/svg">
<g clip-path="url(#clip0_562_90612)">
<rect width="180" height="180" rx="90" fill="#3D3D3D"/>
<g opacity="0.66">
<g opacity="0.71">
<g clip-path="url(#clip1_562_90612)">
<path d="M6.3867 80.0439C6.47261 82.6651 7.48195 84.7598 8.64162 84.7228C9.80129 84.6857 10.6724 82.5307 10.5865 79.9086C10.5006 77.2874 9.49129 75.1927 8.33162 75.2297C7.17196 75.2668 6.3008 77.4227 6.3867 80.0439Z" fill="#7B7D85"/>
<path d="M46.9435 80.0478C47.0293 77.4267 46.1583 75.2716 44.9981 75.2342C43.8379 75.1968 42.8279 77.2913 42.7422 79.9123C42.6564 82.5334 43.5274 84.6885 44.6876 84.7259C45.8478 84.7633 46.8578 82.6688 46.9435 80.0478Z" fill="#7B7D85"/>
<path d="M27.2932 37.3801V28.5813H25.9375V37.3708C26.3894 37.3745 26.8413 37.3782 27.2932 37.3801Z" fill="#5C5E63"/>
<path style="mix-blend-mode:multiply" d="M25.9375 30.9893C26.1439 31.0857 26.3726 31.1413 26.6154 31.1413C26.8581 31.1413 27.0869 31.0857 27.2932 30.9893V28.5813H25.9375V30.9893Z" fill="url(#paint0_linear_562_90612)"/>
<path d="M27.7419 29.6993C28.3639 29.0818 28.3639 28.0806 27.7419 27.4631C27.1198 26.8456 26.1112 26.8456 25.4892 27.4631C24.8671 28.0806 24.8671 29.0818 25.4892 29.6993C26.1112 30.3168 27.1198 30.3168 27.7419 29.6993Z" fill="url(#paint1_linear_562_90612)"/>
<path d="M24.169 35.8192H29.0607C30.0281 35.8192 30.8133 36.5987 30.8133 37.559V38.9715H22.4155V37.559C22.4155 36.5987 23.2008 35.8192 24.1681 35.8192H24.169Z" fill="#6A6B6C"/>
<path d="M44.4355 55.6971C45.5262 55.3028 45.6776 52.9856 44.7736 50.5214C43.8696 48.0573 42.2526 46.3793 41.1619 46.7736C40.0712 47.1679 39.9198 49.4851 40.8238 51.9493C41.7278 54.4134 43.3448 56.0914 44.4355 55.6971Z" fill="#7B7D85"/>
<path style="mix-blend-mode:multiply" d="M44.7734 50.5203C44.6473 50.1755 44.5054 49.8483 44.3541 49.5387C45.0628 51.8086 44.864 53.8468 43.8471 54.2138C42.9088 54.5531 41.5829 53.3565 40.6548 51.4481C40.7061 51.614 40.7622 51.7808 40.8238 51.9486C41.7276 54.4131 43.3448 56.0908 44.4354 55.6968C45.526 55.3029 45.6772 52.9857 44.7725 50.5212L44.7734 50.5203Z" fill="#C2C3C9"/>
<path d="M8.45105 50.5203C7.54721 52.9849 7.69847 55.3021 8.78812 55.696C9.87869 56.0899 11.4959 54.4123 12.3997 51.9477C13.3035 49.4832 13.1523 47.166 12.0626 46.7721C10.9721 46.3781 9.35488 48.0558 8.45105 50.5203Z" fill="#7B7D85"/>
<path d="M8.4508 50.5204C8.57685 50.1756 8.71878 49.8484 8.87004 49.5388C8.16135 51.8087 8.36023 53.8469 9.37611 54.214C10.3145 54.5532 11.6404 53.3566 12.5694 51.4482C12.518 51.6141 12.462 51.7809 12.4004 51.9487C11.4966 54.4132 9.87938 56.0909 8.7888 55.697C7.69823 55.303 7.54697 52.9859 8.45174 50.5213L8.4508 50.5204Z" fill="#5E6069"/>
<path d="M45.0126 74.4114H8.4298C7.16182 87.4478 13.2972 99.6019 16.4971 104.938C17.8472 107.189 20.4326 108.888 23.5765 109.503C24.5709 109.697 25.64 109.827 26.7212 109.827C26.8547 109.827 26.9882 109.825 27.1208 109.822C31.0517 109.707 34.5476 107.876 36.2721 105.178C39.6008 99.9736 46.3002 87.6471 45.0126 74.4114Z" fill="url(#paint2_linear_562_90612)"/>
<path d="M26.7172 79.7881C36.8192 79.7881 45.0086 77.3808 45.0086 74.4113C45.0086 71.4418 36.8192 69.0345 26.7172 69.0345C16.6151 69.0345 8.42578 71.4418 8.42578 74.4113C8.42578 77.3808 16.6151 79.7881 26.7172 79.7881Z" fill="url(#paint3_linear_562_90612)"/>
<path d="M43.2881 66.3689C45.7849 64.0943 46.515 60.4823 45.1527 57.4023C41.8577 49.9503 39.9211 36.6543 26.7175 36.6543C11.921 36.6543 11.5774 49.9503 8.28234 57.4023C6.92006 60.4823 7.65022 64.0943 10.147 66.3689C13.8594 69.751 19.8986 71.6965 26.7175 71.6965C33.5364 71.6965 39.5757 69.751 43.2881 66.3689Z" fill="url(#paint4_linear_562_90612)"/>
<path d="M45.1527 57.4023C43.9314 54.6393 42.8959 51.0746 41.4048 47.6804C42.586 50.689 43.4842 53.7393 44.5215 56.1687C45.8371 59.2487 45.1322 62.8607 42.7204 65.1352C39.135 68.5174 33.303 70.4629 26.7175 70.4629C20.1321 70.4629 14.3001 68.5174 10.7147 65.1352C8.30382 62.8607 7.59887 59.2487 8.91353 56.1687C10.1292 53.3213 10.9294 49.6203 12.2516 46.1334C10.5615 49.9605 9.69131 54.2157 8.28234 57.4014C6.92006 60.4814 7.65022 64.0934 10.147 66.368C13.8594 69.7501 19.8986 71.6956 26.7175 71.6956C33.5364 71.6956 39.5757 69.7501 43.2881 66.368C45.7849 64.0934 46.515 60.4814 45.1527 57.4014V57.4023Z" fill="url(#paint5_linear_562_90612)"/>
<path d="M36.8929 53.7374H16.5436C14.6024 53.7374 12.8667 54.8988 12.0964 56.6673C12.0889 56.6858 12.0805 56.7034 12.0721 56.722C11.0021 59.1513 11.5221 61.9949 13.4745 63.8042C16.4194 66.5329 21.2533 68.1039 26.7173 68.1039C32.1814 68.1039 36.9088 66.5672 39.8621 63.8941C41.8575 62.0885 42.4569 59.1967 41.3719 56.7423C41.3561 56.7071 41.3411 56.6719 41.3252 56.6367C40.5596 54.8803 38.8201 53.7384 36.8911 53.7384L36.8929 53.7374Z" fill="url(#paint6_linear_562_90612)"/>
<path style="mix-blend-mode:multiply" d="M36.8928 53.7375C38.8209 53.7375 40.5604 54.8794 41.327 56.6358C41.3419 56.6711 41.3578 56.7063 41.3737 56.7415C42.4587 59.1959 41.8592 62.0877 39.8639 63.8932C36.9105 66.5663 32.1234 68.1031 26.7191 68.1031C21.3148 68.1031 16.4212 66.532 13.4763 63.8033C11.5239 61.9941 11.0038 59.1504 12.0738 56.7211C12.0822 56.7026 12.0897 56.685 12.0981 56.6664C12.8694 54.8979 14.6051 53.7366 16.5454 53.7366H36.8947L36.8928 53.7375ZM36.8928 53.2722H16.5435C14.4305 53.2722 12.5164 54.5328 11.6658 56.4829L11.6425 56.5357C10.4809 59.1718 11.0888 62.2295 13.1551 64.1435C16.1896 66.9556 21.1336 68.5684 26.7182 68.5684C32.3027 68.5684 37.1374 66.9899 40.1785 64.2371C42.3233 62.2962 42.975 59.2088 41.8013 56.5543L41.7556 56.4514C40.9134 54.5198 39.0039 53.2722 36.8919 53.2722H36.8928Z" fill="url(#paint7_linear_562_90612)"/>
<path d="M18.7396 61.0978C19.2812 61.0978 19.8041 61.1896 20.2933 61.3573C20.734 61.5084 21.1981 61.1794 21.2028 60.7159C21.2028 60.6983 21.2028 60.6807 21.2028 60.6622C21.2028 58.6462 20.129 57.0112 18.805 57.0112C17.481 57.0112 16.4072 58.6453 16.4072 60.6622C16.4072 60.6659 16.4072 60.6687 16.4072 60.6724C16.4072 61.1312 16.8638 61.4556 17.3045 61.3175C17.7592 61.1747 18.241 61.0969 18.7387 61.0969L18.7396 61.0978Z" fill="#3D3E40"/>
<path d="M34.5614 61.0978C35.103 61.0978 35.6258 61.1896 36.1151 61.3573C36.5558 61.5084 37.0199 61.1794 37.0245 60.7159C37.0245 60.6983 37.0245 60.6807 37.0245 60.6622C37.0245 58.6462 35.9508 57.0112 34.6268 57.0112C33.3028 57.0112 32.229 58.6453 32.229 60.6622C32.229 60.6659 32.229 60.6687 32.229 60.6724C32.229 61.1312 32.6856 61.4556 33.1263 61.3175C33.581 61.1747 34.0628 61.0969 34.5605 61.0969L34.5614 61.0978Z" fill="#3D3E40"/>
<path d="M26.7051 65.9954C24.9563 65.9954 23.4567 65.1436 22.974 63.8747C22.8554 63.5623 23.0132 63.2129 23.3288 63.0952C23.6435 62.9775 23.9955 63.1341 24.114 63.4474C24.4091 64.2232 25.4987 64.7858 26.7051 64.7858C27.9115 64.7858 29.0412 64.2046 29.312 63.4048C29.4194 63.0878 29.7649 62.9172 30.0842 63.0238C30.4035 63.1304 30.5753 63.4733 30.468 63.7903C30.0282 65.0889 28.481 65.9963 26.706 65.9963L26.7051 65.9954Z" fill="#3F3F3F"/>
</g>
</g>
<g opacity="0.71">
<g clip-path="url(#clip2_562_90612)">
<path d="M92.2954 80.8621C92.3813 83.4833 93.3906 85.5781 94.5503 85.541C95.71 85.5039 96.5811 83.3489 96.4952 80.7268C96.4093 78.1056 95.4 76.0109 94.2403 76.048C93.0806 76.085 92.2095 78.2409 92.2954 80.8621Z" fill="#7B7D85"/>
<path d="M132.852 80.866C132.938 78.2449 132.067 76.0898 130.907 76.0524C129.747 76.015 128.737 78.1095 128.651 80.7306C128.565 83.3516 129.436 85.5068 130.596 85.5442C131.756 85.5816 132.766 83.4871 132.852 80.866Z" fill="#7B7D85"/>
<path d="M113.202 38.1983V29.3995H111.846V38.1891C112.298 38.1928 112.75 38.1965 113.202 38.1983Z" fill="#5C5E63"/>
<path style="mix-blend-mode:multiply" d="M111.846 31.8075C112.053 31.9039 112.281 31.9596 112.524 31.9596C112.767 31.9596 112.996 31.9039 113.202 31.8075V29.3995H111.846V31.8075Z" fill="url(#paint8_linear_562_90612)"/>
<path d="M113.651 30.5175C114.273 29.9 114.273 28.8988 113.651 28.2813C113.028 27.6638 112.02 27.6638 111.398 28.2813C110.776 28.8988 110.776 29.9 111.398 30.5175C112.02 31.135 113.028 31.135 113.651 30.5175Z" fill="url(#paint9_linear_562_90612)"/>
<path d="M110.078 36.6375H114.969C115.937 36.6375 116.722 37.417 116.722 38.3772V39.7897H108.324V38.3772C108.324 37.417 109.109 36.6375 110.077 36.6375H110.078Z" fill="#6A6B6C"/>
<path d="M130.344 56.5153C131.435 56.121 131.586 53.8038 130.682 51.3396C129.778 48.8755 128.161 47.1976 127.071 47.5919C125.98 47.9861 125.829 50.3034 126.733 52.7675C127.636 55.2316 129.254 56.9096 130.344 56.5153Z" fill="#7B7D85"/>
<path style="mix-blend-mode:multiply" d="M130.682 51.3385C130.556 50.9937 130.414 50.6665 130.263 50.3569C130.972 52.6268 130.773 54.665 129.756 55.0321C128.817 55.3713 127.492 54.1747 126.563 52.2663C126.615 52.4322 126.671 52.599 126.732 52.7668C127.636 55.2314 129.253 56.909 130.344 56.5151C131.435 56.1211 131.586 53.804 130.681 51.3394L130.682 51.3385Z" fill="#C2C3C9"/>
<path d="M94.3597 51.3386C93.4559 53.8031 93.6072 56.1203 94.6968 56.5142C95.7874 56.9081 97.4046 55.2305 98.3084 52.7659C99.2122 50.3014 99.061 47.9842 97.9713 47.5903C96.8808 47.1964 95.2636 48.874 94.3597 51.3386Z" fill="#7B7D85"/>
<path d="M94.3595 51.3386C94.4855 50.9938 94.6275 50.6666 94.7787 50.3571C94.07 52.627 94.2689 54.6652 95.2848 55.0322C96.2232 55.3714 97.549 54.1748 98.4781 52.2664C98.4267 52.4323 98.3707 52.5992 98.3091 52.7669C97.4053 55.2315 95.7881 56.9091 94.6975 56.5152C93.6069 56.1213 93.4557 53.8041 94.3604 51.3395L94.3595 51.3386Z" fill="#5E6069"/>
<path d="M130.921 75.2296H94.3385C93.0705 88.2661 99.2059 100.42 102.406 105.756C103.756 108.008 106.341 109.706 109.485 110.321C110.48 110.516 111.549 110.645 112.63 110.645C112.763 110.645 112.897 110.644 113.03 110.64C116.96 110.525 120.456 108.694 122.181 105.996C125.509 100.792 132.209 88.4653 130.921 75.2296Z" fill="url(#paint10_linear_562_90612)"/>
<path d="M112.626 80.6064C122.728 80.6064 130.917 78.1991 130.917 75.2296C130.917 72.26 122.728 69.8528 112.626 69.8528C102.524 69.8528 94.3345 72.26 94.3345 75.2296C94.3345 78.1991 102.524 80.6064 112.626 80.6064Z" fill="url(#paint11_linear_562_90612)"/>
<path d="M129.197 67.1871C131.694 64.9126 132.424 61.3006 131.061 58.2206C127.766 50.7685 125.83 37.4725 112.626 37.4725C97.8297 37.4725 97.4861 50.7685 94.191 58.2206C92.8288 61.3006 93.5589 64.9126 96.0557 67.1871C99.7681 70.5693 105.807 72.5148 112.626 72.5148C119.445 72.5148 125.484 70.5693 129.197 67.1871Z" fill="url(#paint12_linear_562_90612)"/>
<path d="M131.061 58.2206C129.84 55.4576 128.805 51.8928 127.313 48.4986C128.495 51.5072 129.393 54.5576 130.43 56.9869C131.746 60.0669 131.041 63.6789 128.629 65.9535C125.044 69.3356 119.212 71.2811 112.626 71.2811C106.041 71.2811 100.209 69.3356 96.6234 65.9535C94.2125 63.6789 93.5076 60.0669 94.8222 56.9869C96.0379 54.1396 96.8381 50.4386 98.1602 46.9517C96.4702 50.7787 95.6 55.034 94.191 58.2196C92.8288 61.2996 93.5589 64.9117 96.0557 67.1862C99.7681 70.5684 105.807 72.5139 112.626 72.5139C119.445 72.5139 125.484 70.5684 129.197 67.1862C131.694 64.9117 132.424 61.2996 131.061 58.2196V58.2206Z" fill="url(#paint13_linear_562_90612)"/>
<path d="M122.802 54.5557H102.452C100.511 54.5557 98.7754 55.717 98.0051 57.4855C97.9976 57.504 97.9892 57.5217 97.9808 57.5402C96.9107 59.9695 97.4308 62.8132 99.3832 64.6224C102.328 67.3511 107.162 68.9222 112.626 68.9222C118.09 68.9222 122.817 67.3854 125.771 64.7123C127.766 62.9068 128.366 60.0149 127.281 57.5606C127.265 57.5254 127.25 57.4901 127.234 57.4549C126.468 55.6985 124.729 54.5566 122.8 54.5566L122.802 54.5557Z" fill="url(#paint14_linear_562_90612)"/>
<path style="mix-blend-mode:multiply" d="M122.801 54.5557C124.73 54.5557 126.469 55.6976 127.236 57.4541C127.251 57.4893 127.267 57.5245 127.282 57.5597C128.367 60.0141 127.768 62.9059 125.773 64.7115C122.819 67.3846 118.032 68.9213 112.628 68.9213C107.223 68.9213 102.33 67.3503 99.385 64.6216C97.4326 62.8123 96.9125 59.9687 97.9825 57.5393C97.9909 57.5208 97.9984 57.5032 98.0068 57.4847C98.7781 55.7162 100.514 54.5548 102.454 54.5548H122.803L122.801 54.5557ZM122.801 54.0905H102.452C100.339 54.0905 98.4251 55.351 97.5745 57.3011L97.5512 57.354C96.3896 59.99 96.9975 63.0477 99.0638 64.9617C102.098 67.7739 107.042 69.3866 112.627 69.3866C118.211 69.3866 123.046 67.8082 126.087 65.0553C128.232 63.1145 128.884 60.0271 127.71 57.3725L127.664 57.2696C126.822 55.338 124.913 54.0905 122.801 54.0905H122.801Z" fill="url(#paint15_linear_562_90612)"/>
<path d="M104.648 61.916C105.19 61.916 105.713 62.0078 106.202 62.1756C106.643 62.3266 107.107 61.9976 107.111 61.5342C107.111 61.5166 107.111 61.499 107.111 61.4804C107.111 59.4645 106.038 57.8295 104.714 57.8295C103.39 57.8295 102.316 59.4635 102.316 61.4804C102.316 61.4841 102.316 61.4869 102.316 61.4906C102.316 61.9494 102.773 62.2738 103.213 62.1357C103.668 61.993 104.15 61.9151 104.647 61.9151L104.648 61.916Z" fill="#3D3E40"/>
<path d="M120.47 61.916C121.012 61.916 121.535 62.0078 122.024 62.1756C122.465 62.3266 122.929 61.9976 122.933 61.5342C122.933 61.5166 122.933 61.499 122.933 61.4804C122.933 59.4645 121.859 57.8295 120.535 57.8295C119.211 57.8295 118.138 59.4635 118.138 61.4804C118.138 61.4841 118.138 61.4869 118.138 61.4906C118.138 61.9494 118.594 62.2738 119.035 62.1357C119.49 61.993 119.972 61.9151 120.469 61.9151L120.47 61.916Z" fill="#3D3E40"/>
<path d="M112.614 66.8136C110.865 66.8136 109.365 65.9618 108.883 64.6929C108.764 64.3806 108.922 64.0311 109.237 63.9134C109.552 63.7957 109.904 63.9523 110.023 64.2656C110.318 65.0414 111.407 65.604 112.614 65.604C113.82 65.604 114.95 65.0229 115.221 64.223C115.328 63.906 115.674 63.7355 115.993 63.842C116.312 63.9486 116.484 64.2916 116.377 64.6086C115.937 65.9071 114.39 66.8145 112.615 66.8145L112.614 66.8136Z" fill="#3F3F3F"/>
</g>
</g>
<g opacity="0.71">
<g clip-path="url(#clip3_562_90612)">
<path d="M48.0405 81.6882C48.1264 84.3094 49.1358 86.4041 50.2954 86.367C51.4551 86.33 52.3262 84.175 52.2403 81.5529C52.1544 78.9317 51.1451 76.8369 49.9854 76.874C48.8258 76.9111 47.9546 79.067 48.0405 81.6882Z" fill="#7B7D85"/>
<path d="M88.5973 81.6921C88.6831 79.071 87.8121 76.9159 86.6519 76.8785C85.4917 76.8411 84.4817 78.9356 84.396 81.5566C84.3102 84.1777 85.1812 86.3328 86.3414 86.3702C87.5016 86.4076 88.5116 84.3131 88.5973 81.6921Z" fill="#7B7D85"/>
<path d="M68.9471 39.0244V30.2256H67.5913V39.0151C68.0432 39.0188 68.4951 39.0225 68.9471 39.0244Z" fill="#5C5E63"/>
<path style="mix-blend-mode:multiply" d="M67.5913 32.6336C67.7977 32.73 68.0264 32.7856 68.2692 32.7856C68.5119 32.7856 68.7407 32.73 68.9471 32.6336V30.2256H67.5913V32.6336Z" fill="url(#paint16_linear_562_90612)"/>
<path d="M69.3957 31.3436C70.0177 30.7261 70.0177 29.7249 69.3957 29.1074C68.7736 28.4898 67.765 28.4898 67.143 29.1074C66.5209 29.7249 66.5209 30.7261 67.143 31.3436C67.765 31.9611 68.7736 31.9611 69.3957 31.3436Z" fill="url(#paint17_linear_562_90612)"/>
<path d="M65.8228 37.4635H70.7146C71.6819 37.4635 72.4671 38.243 72.4671 39.2032V40.6158H64.0693V39.2032C64.0693 38.243 64.8546 37.4635 65.8219 37.4635H65.8228Z" fill="#6A6B6C"/>
<path d="M86.0893 57.3413C87.18 56.9471 87.3314 54.6298 86.4274 52.1657C85.5235 49.7016 83.9064 48.0236 82.8157 48.4179C81.725 48.8122 81.5736 51.1294 82.4776 53.5936C83.3816 56.0577 84.9986 57.7356 86.0893 57.3413Z" fill="#7B7D85"/>
<path style="mix-blend-mode:multiply" d="M86.4272 52.1645C86.3011 51.8197 86.1592 51.4926 86.008 51.183C86.7166 53.4529 86.5178 55.4911 85.501 55.8581C84.5626 56.1974 83.2367 55.0008 82.3086 53.0923C82.3599 53.2582 82.416 53.4251 82.4776 53.5929C83.3814 56.0574 84.9986 57.735 86.0892 57.3411C87.1798 56.9472 87.331 54.63 86.4263 52.1655L86.4272 52.1645Z" fill="#C2C3C9"/>
<path d="M50.1049 52.1646C49.201 54.6292 49.3523 56.9464 50.4419 57.3403C51.5325 57.7342 53.1497 56.0566 54.0535 53.592C54.9573 51.1274 54.8061 48.8103 53.7164 48.4163C52.6259 48.0224 51.0087 49.7001 50.1049 52.1646Z" fill="#7B7D85"/>
<path d="M50.1046 52.1647C50.2307 51.8199 50.3726 51.4927 50.5238 51.1831C49.8152 53.453 50.014 55.4912 51.0299 55.8582C51.9683 56.1975 53.2942 55.0009 54.2232 53.0925C54.1719 53.2584 54.1158 53.4252 54.0542 53.593C53.1504 56.0575 51.5332 57.7352 50.4426 57.3412C49.352 56.9473 49.2008 54.6301 50.1055 52.1656L50.1046 52.1647Z" fill="#5E6069"/>
<path d="M86.6664 76.0557H50.0836C48.8156 89.0921 54.951 101.246 58.1509 106.582C59.501 108.834 62.0865 110.533 65.2303 111.147C66.2247 111.342 67.2938 111.471 68.375 111.471C68.5085 111.471 68.642 111.47 68.7746 111.466C72.7056 111.351 76.2014 109.52 77.9259 106.822C81.2546 101.618 87.954 89.2914 86.6664 76.0557Z" fill="url(#paint18_linear_562_90612)"/>
<path d="M68.371 81.4324C78.473 81.4324 86.6624 79.0251 86.6624 76.0556C86.6624 73.0861 78.473 70.6788 68.371 70.6788C58.2689 70.6788 50.0796 73.0861 50.0796 76.0556C50.0796 79.0251 58.2689 81.4324 68.371 81.4324Z" fill="url(#paint19_linear_562_90612)"/>
<path d="M84.9419 68.0132C87.4387 65.7386 88.1688 62.1266 86.8065 59.0466C83.5115 51.5946 81.575 38.2986 68.3713 38.2986C53.5748 38.2986 53.2312 51.5946 49.9362 59.0466C48.5739 62.1266 49.304 65.7386 51.8008 68.0132C55.5132 71.3953 61.5525 73.3408 68.3713 73.3408C75.1902 73.3408 81.2295 71.3953 84.9419 68.0132Z" fill="url(#paint20_linear_562_90612)"/>
<path d="M86.8065 59.0466C85.5852 56.2836 84.5498 52.7189 83.0586 49.3247C84.2398 52.3333 85.138 55.3836 86.1753 57.813C87.4909 60.893 86.786 64.505 84.3742 66.7795C80.7888 70.1617 74.9568 72.1072 68.3713 72.1072C61.7859 72.1072 55.9539 70.1617 52.3685 66.7795C49.9576 64.505 49.2527 60.893 50.5673 57.813C51.783 54.9656 52.5832 51.2646 53.9054 47.7777C52.2153 51.6048 51.3451 55.86 49.9362 59.0457C48.5739 62.1257 49.304 65.7377 51.8008 68.0123C55.5132 71.3944 61.5525 73.3399 68.3713 73.3399C75.1902 73.3399 81.2295 71.3944 84.9419 68.0123C87.4387 65.7377 88.1688 62.1257 86.8065 59.0457V59.0466Z" fill="url(#paint21_linear_562_90612)"/>
<path d="M78.5467 55.3817H58.1974C56.2563 55.3817 54.5205 56.5431 53.7502 58.3116C53.7427 58.3301 53.7343 58.3477 53.7259 58.3662C52.6559 60.7956 53.1759 63.6392 55.1283 65.4485C58.0733 68.1772 62.9071 69.7482 68.3712 69.7482C73.8352 69.7482 78.5626 68.2115 81.5159 65.5384C83.5113 63.7328 84.1107 60.841 83.0257 58.3866C83.0099 58.3514 82.9949 58.3162 82.9791 58.281C82.2134 56.5245 80.4739 55.3826 78.5449 55.3826L78.5467 55.3817Z" fill="url(#paint22_linear_562_90612)"/>
<path style="mix-blend-mode:multiply" d="M78.5466 55.3818C80.4747 55.3818 82.2142 56.5237 82.9808 58.2801C82.9958 58.3153 83.0116 58.3506 83.0275 58.3858C84.1125 60.8401 83.513 63.732 81.5177 65.5375C78.5644 68.2106 73.7772 69.7474 68.3729 69.7474C62.9686 69.7474 58.075 68.1763 55.1301 65.4476C53.1777 63.6384 52.6576 60.7947 53.7276 58.3654C53.736 58.3469 53.7435 58.3292 53.7519 58.3107C54.5232 56.5422 56.2589 55.3809 58.1992 55.3809H78.5485L78.5466 55.3818ZM78.5466 54.9165H58.1973C56.0843 54.9165 54.1702 56.177 53.3196 58.1272L53.2963 58.18C52.1347 60.816 52.7426 63.8738 54.8089 65.7878C57.8434 68.5999 62.7874 70.2127 68.372 70.2127C73.9565 70.2127 78.7912 68.6342 81.8323 65.8814C83.9771 63.9405 84.6288 60.8531 83.4551 58.1986L83.4094 58.0957C82.5672 56.1641 80.6577 54.9165 78.5457 54.9165H78.5466Z" fill="url(#paint23_linear_562_90612)"/>
<path d="M60.3934 62.7421C60.935 62.7421 61.4579 62.8339 61.9471 63.0016C62.3879 63.1527 62.8519 62.8237 62.8566 62.3602C62.8566 62.3426 62.8566 62.325 62.8566 62.3065C62.8566 60.2905 61.7828 58.6555 60.4588 58.6555C59.1348 58.6555 58.061 60.2896 58.061 62.3065C58.061 62.3102 58.061 62.313 58.061 62.3167C58.061 62.7755 58.5176 63.0999 58.9583 62.9618C59.413 62.819 59.8948 62.7412 60.3925 62.7412L60.3934 62.7421Z" fill="#3D3E40"/>
<path d="M76.2152 62.7421C76.7568 62.7421 77.2797 62.8339 77.7689 63.0016C78.2096 63.1527 78.6737 62.8237 78.6784 62.3602C78.6784 62.3426 78.6784 62.325 78.6784 62.3065C78.6784 60.2905 77.6046 58.6555 76.2806 58.6555C74.9566 58.6555 73.8828 60.2896 73.8828 62.3065C73.8828 62.3102 73.8828 62.313 73.8828 62.3167C73.8828 62.7755 74.3394 63.0999 74.7801 62.9618C75.2348 62.819 75.7166 62.7412 76.2143 62.7412L76.2152 62.7421Z" fill="#3D3E40"/>
<path d="M68.3589 67.6397C66.6101 67.6397 65.1105 66.7879 64.6278 65.519C64.5092 65.2066 64.667 64.8572 64.9826 64.7395C65.2973 64.6218 65.6493 64.7784 65.7679 65.0917C66.0629 65.8675 67.1526 66.4301 68.3589 66.4301C69.5653 66.4301 70.6951 65.8489 70.9658 65.049C71.0732 64.7321 71.4187 64.5615 71.738 64.6681C72.0573 64.7747 72.2291 65.1176 72.1218 65.4346C71.682 66.7332 70.1348 67.6406 68.3598 67.6406L68.3589 67.6397Z" fill="#3F3F3F"/>
</g>
</g>
<g opacity="0.71">
<g clip-path="url(#clip4_562_90612)">
<path d="M133.949 82.5063C134.035 85.1275 135.044 87.2222 136.204 87.1852C137.364 87.1481 138.235 84.9931 138.149 82.371C138.063 79.7498 137.054 77.6551 135.894 77.6921C134.734 77.7292 133.863 79.8851 133.949 82.5063Z" fill="#7B7D85"/>
<path d="M174.506 82.5102C174.592 79.8891 173.721 77.734 172.561 77.6966C171.4 77.6592 170.39 79.7537 170.305 82.3747C170.219 84.9958 171.09 87.1509 172.25 87.1883C173.41 87.2257 174.42 85.1312 174.506 82.5102Z" fill="#7B7D85"/>
<path d="M154.856 39.8425V31.0437H153.5V39.8332C153.952 39.8369 154.404 39.8406 154.856 39.8425Z" fill="#5C5E63"/>
<path style="mix-blend-mode:multiply" d="M153.5 33.4517C153.706 33.5481 153.935 33.6037 154.178 33.6037C154.421 33.6037 154.649 33.5481 154.856 33.4517V31.0437H153.5V33.4517Z" fill="url(#paint24_linear_562_90612)"/>
<path d="M155.304 32.1617C155.926 31.5442 155.926 30.543 155.304 29.9255C154.682 29.308 153.674 29.308 153.052 29.9255C152.43 30.543 152.43 31.5442 153.052 32.1617C153.674 32.7792 154.682 32.7792 155.304 32.1617Z" fill="url(#paint25_linear_562_90612)"/>
<path d="M151.732 38.2816H156.623C157.591 38.2816 158.376 39.0611 158.376 40.0214V41.4339H149.978V40.0214C149.978 39.0611 150.763 38.2816 151.731 38.2816H151.732Z" fill="#6A6B6C"/>
<path d="M171.998 58.1595C173.089 57.7652 173.24 55.448 172.336 52.9838C171.432 50.5197 169.815 48.8417 168.724 49.236C167.634 49.6303 167.482 51.9475 168.386 54.4117C169.29 56.8758 170.907 58.5538 171.998 58.1595Z" fill="#7B7D85"/>
<path style="mix-blend-mode:multiply" d="M172.336 52.9827C172.21 52.6379 172.068 52.3107 171.917 52.0011C172.625 54.271 172.426 56.3092 171.41 56.6762C170.471 57.0155 169.145 55.8189 168.217 53.9105C168.269 54.0764 168.325 54.2432 168.386 54.411C169.29 56.8755 170.907 58.5532 171.998 58.1592C173.088 57.7653 173.24 55.4481 172.335 52.9836L172.336 52.9827Z" fill="#C2C3C9"/>
<path d="M136.014 52.9827C135.11 55.4473 135.261 57.7645 136.351 58.1584C137.441 58.5523 139.058 56.8747 139.962 54.4101C140.866 51.9456 140.715 49.6284 139.625 49.2345C138.535 48.8405 136.917 50.5182 136.014 52.9827Z" fill="#7B7D85"/>
<path d="M136.013 52.9828C136.139 52.638 136.281 52.3108 136.433 52.0012C135.724 54.2711 135.923 56.3093 136.939 56.6764C137.877 57.0156 139.203 55.819 140.132 53.9106C140.081 54.0765 140.025 54.2433 139.963 54.4111C139.059 56.8756 137.442 58.5533 136.351 58.1594C135.261 57.7654 135.109 55.4483 136.014 52.9837L136.013 52.9828Z" fill="#5E6069"/>
<path d="M172.575 76.8738H135.992C134.724 89.9102 140.86 102.064 144.06 107.4C145.41 109.652 147.995 111.351 151.139 111.965C152.133 112.16 153.202 112.29 154.284 112.29C154.417 112.29 154.551 112.288 154.683 112.284C158.614 112.169 162.11 110.339 163.835 107.64C167.163 102.436 173.863 90.1095 172.575 76.8738Z" fill="url(#paint26_linear_562_90612)"/>
<path d="M154.28 82.2505C164.382 82.2505 172.571 79.8432 172.571 76.8737C172.571 73.9042 164.382 71.4969 154.28 71.4969C144.178 71.4969 135.988 73.9042 135.988 76.8737C135.988 79.8432 144.178 82.2505 154.28 82.2505Z" fill="url(#paint27_linear_562_90612)"/>
<path d="M170.851 68.8313C173.347 66.5567 174.078 62.9447 172.715 59.8647C169.42 52.4127 167.484 39.1167 154.28 39.1167C139.484 39.1167 139.14 52.4127 135.845 59.8647C134.483 62.9447 135.213 66.5567 137.709 68.8313C141.422 72.2134 147.461 74.1589 154.28 74.1589C161.099 74.1589 167.138 72.2134 170.851 68.8313Z" fill="url(#paint28_linear_562_90612)"/>
<path d="M172.715 59.8647C171.494 57.1017 170.458 53.537 168.967 50.1428C170.148 53.1514 171.047 56.2017 172.084 58.6311C173.4 61.7111 172.695 65.3231 170.283 67.5976C166.697 70.9798 160.866 72.9253 154.28 72.9253C147.695 72.9253 141.863 70.9798 138.277 67.5976C135.866 65.3231 135.161 61.7111 136.476 58.6311C137.692 55.7837 138.492 52.0827 139.814 48.5958C138.124 52.4229 137.254 56.6782 135.845 59.8638C134.483 62.9438 135.213 66.5558 137.709 68.8304C141.422 72.2125 147.461 74.158 154.28 74.158C161.099 74.158 167.138 72.2125 170.851 68.8304C173.347 66.5558 174.078 62.9438 172.715 59.8638V59.8647Z" fill="url(#paint29_linear_562_90612)"/>
<path d="M164.455 56.1998H144.106C142.165 56.1998 140.429 57.3612 139.659 59.1297C139.651 59.1482 139.643 59.1658 139.635 59.1844C138.565 61.6137 139.085 64.4573 141.037 66.2666C143.982 68.9953 148.816 70.5663 154.28 70.5663C159.744 70.5663 164.471 69.0296 167.425 66.3565C169.42 64.5509 170.019 61.6591 168.934 59.2047C168.919 59.1695 168.904 59.1343 168.888 59.0991C168.122 57.3427 166.383 56.2008 164.454 56.2008L164.455 56.1998Z" fill="url(#paint30_linear_562_90612)"/>
<path style="mix-blend-mode:multiply" d="M164.455 56.1999C166.383 56.1999 168.123 57.3418 168.89 59.0982C168.904 59.1335 168.92 59.1687 168.936 59.2039C170.021 61.6583 169.422 64.5501 167.426 66.3556C164.473 69.0287 159.686 70.5655 154.282 70.5655C148.877 70.5655 143.984 68.9945 141.039 66.2657C139.086 64.4565 138.566 61.6128 139.636 59.1835C139.645 59.165 139.652 59.1474 139.661 59.1288C140.432 57.3604 142.168 56.199 144.108 56.199H164.457L164.455 56.1999ZM164.455 55.7346H144.106C141.993 55.7346 140.079 56.9952 139.228 58.9453L139.205 58.9981C138.043 61.6342 138.651 64.6919 140.718 66.6059C143.752 69.418 148.696 71.0308 154.281 71.0308C159.865 71.0308 164.7 69.4523 167.741 66.6995C169.886 64.7586 170.538 61.6712 169.364 59.0167L169.318 58.9138C168.476 56.9822 166.566 55.7346 164.454 55.7346H164.455Z" fill="url(#paint31_linear_562_90612)"/>
<path d="M146.302 63.5602C146.844 63.5602 147.367 63.652 147.856 63.8197C148.297 63.9708 148.761 63.6418 148.765 63.1783C148.765 63.1607 148.765 63.1431 148.765 63.1246C148.765 61.1086 147.691 59.4736 146.367 59.4736C145.043 59.4736 143.97 61.1077 143.97 63.1246C143.97 63.1283 143.97 63.1311 143.97 63.1348C143.97 63.5936 144.426 63.918 144.867 63.7799C145.322 63.6371 145.804 63.5593 146.301 63.5593L146.302 63.5602Z" fill="#3D3E40"/>
<path d="M162.124 63.5602C162.665 63.5602 163.188 63.652 163.678 63.8197C164.118 63.9708 164.582 63.6418 164.587 63.1783C164.587 63.1607 164.587 63.1431 164.587 63.1246C164.587 61.1086 163.513 59.4736 162.189 59.4736C160.865 59.4736 159.792 61.1077 159.792 63.1246C159.792 63.1283 159.792 63.1311 159.792 63.1348C159.792 63.5936 160.248 63.918 160.689 63.7799C161.144 63.6371 161.625 63.5593 162.123 63.5593L162.124 63.5602Z" fill="#3D3E40"/>
<path d="M154.268 68.4578C152.519 68.4578 151.019 67.606 150.536 66.3371C150.418 66.0247 150.576 65.6753 150.891 65.5576C151.206 65.4399 151.558 65.5965 151.677 65.9098C151.972 66.6856 153.061 67.2482 154.268 67.2482C155.474 67.2482 156.604 66.667 156.875 65.8672C156.982 65.5502 157.327 65.3796 157.647 65.4862C157.966 65.5928 158.138 65.9357 158.03 66.2527C157.591 67.5513 156.044 68.4587 154.269 68.4587L154.268 68.4578Z" fill="#3F3F3F"/>
</g>
</g>
</g>
<g opacity="0.86">
<g clip-path="url(#clip5_562_90612)">
<path d="M27.4625 126.964C27.5885 123.112 26.3084 119.945 24.6033 119.89C22.8982 119.835 21.4138 122.913 21.2878 126.765C21.1617 130.617 22.4418 133.785 24.1469 133.84C25.852 133.894 27.3364 130.816 27.4625 126.964Z" fill="#7B7D85"/>
<path d="M-0.758398 52.9671C0.155857 52.0596 0.155857 50.5881 -0.758398 49.6806C-1.67265 48.773 -3.15495 48.773 -4.06921 49.6806C-4.98346 50.5881 -4.98346 52.0596 -4.06921 52.9671C-3.15495 53.8747 -1.67265 53.8747 -0.758398 52.9671Z" fill="url(#paint32_linear_562_90612)"/>
<path d="M-6.00881 61.9615H1.18052C2.60219 61.9615 3.75627 63.1072 3.75627 64.5184V66.5945H-8.58594V64.5184C-8.58594 63.1072 -7.43186 61.9615 -6.01019 61.9615H-6.00881Z" fill="#6A6B6C"/>
<path d="M23.7762 91.1761C25.3792 90.5966 25.6017 87.191 24.2731 83.5695C22.9445 79.9479 20.568 77.4818 18.965 78.0613C17.362 78.6408 17.1395 82.0464 18.4681 85.668C19.7967 89.2895 22.1732 91.7556 23.7762 91.1761Z" fill="#7B7D85"/>
<path style="mix-blend-mode:multiply" d="M24.2733 83.5677C24.088 83.061 23.8795 82.5801 23.6572 82.1251C24.6987 85.4612 24.4064 88.4567 22.912 88.9962C21.5329 89.4947 19.5843 87.7361 18.2202 84.9313C18.2957 85.1751 18.378 85.4203 18.4686 85.6669C19.797 89.289 22.1737 91.7547 23.7765 91.1757C25.3794 90.5968 25.6017 87.1912 24.2719 83.5691L24.2733 83.5677Z" fill="#C2C3C9"/>
<path d="M24.6244 118.68H-29.1412C-31.0048 137.84 -21.9876 155.703 -17.2848 163.545C-15.3005 166.854 -11.5007 169.351 -6.88024 170.254C-5.41877 170.54 -3.84752 170.731 -2.25842 170.731C-2.06219 170.731 -1.86596 170.728 -1.67109 170.723C4.10617 170.554 9.24395 167.863 11.7785 163.898C16.6707 156.249 26.5167 138.133 24.6244 118.68Z" fill="url(#paint33_linear_562_90612)"/>
<path d="M-2.26369 126.583C12.5833 126.583 24.6191 123.045 24.6191 118.68C24.6191 114.316 12.5833 110.778 -2.26369 110.778C-17.1106 110.778 -29.1465 114.316 -29.1465 118.68C-29.1465 123.045 -17.1106 126.583 -2.26369 126.583Z" fill="url(#paint34_linear_562_90612)"/>
<path d="M22.0896 106.86C25.7591 103.518 26.8322 98.2089 24.83 93.6823C19.9873 82.73 17.1412 63.189 -2.2641 63.189C-24.0105 63.189 -24.5155 82.73 -29.3582 93.6823C-31.3604 98.2089 -30.2873 103.518 -26.6178 106.86C-21.1616 111.831 -12.2858 114.69 -2.2641 114.69C7.7576 114.69 16.6335 111.831 22.0896 106.86Z" fill="url(#paint35_linear_562_90612)"/>
<path d="M24.83 93.6822C23.0351 89.6215 21.5132 84.3824 19.3217 79.3939C21.0577 83.8157 22.3778 88.2987 23.9024 91.8691C25.8359 96.3958 24.7998 101.704 21.2553 105.047C15.9857 110.018 7.41454 112.877 -2.2641 112.877C-11.9427 112.877 -20.5139 110.018 -25.7835 105.047C-29.3267 101.704 -30.3627 96.3958 -28.4306 91.8691C-26.6439 87.6844 -25.4678 82.245 -23.5247 77.1204C-26.0085 82.745 -27.2875 88.9989 -29.3582 93.6809C-31.3604 98.2075 -30.2873 103.516 -26.6178 106.859C-21.1616 111.83 -12.2858 114.689 -2.2641 114.689C7.7576 114.689 16.6335 111.83 22.0896 106.859C25.7591 103.516 26.8322 98.2075 24.83 93.6809V93.6822Z" fill="url(#paint36_linear_562_90612)"/>
<path d="M12.691 88.296H-17.2163C-20.0692 88.296 -22.6203 90.0029 -23.7524 92.602C-23.7634 92.6292 -23.7757 92.6551 -23.7881 92.6824C-25.3607 96.2528 -24.5963 100.432 -21.7269 103.091C-17.3988 107.101 -10.2945 109.41 -2.26398 109.41C5.76655 109.41 12.7144 107.152 17.0549 103.223C19.9874 100.57 20.8684 96.3195 19.2738 92.7123C19.2505 92.6606 19.2285 92.6088 19.2052 92.557C18.0799 89.9756 15.5234 88.2974 12.6883 88.2974L12.691 88.296Z" fill="url(#paint37_linear_562_90612)"/>
<path style="mix-blend-mode:multiply" d="M12.6909 88.296C15.5246 88.296 18.0812 89.9743 19.2078 92.5557C19.2298 92.6074 19.2531 92.6592 19.2764 92.711C20.871 96.3181 19.99 100.568 17.0574 103.222C12.7169 107.151 5.68131 109.409 -2.2614 109.409C-10.2041 109.409 -17.3962 107.1 -21.7243 103.09C-24.5937 100.431 -25.3581 96.2514 -23.7855 92.681C-23.7731 92.6538 -23.7621 92.6279 -23.7498 92.6006C-22.6163 90.0015 -20.0652 88.2947 -17.2137 88.2947H12.6936L12.6909 88.296ZM12.6909 87.6122H-17.2164C-20.3219 87.6122 -23.135 89.4648 -24.3852 92.3309L-24.4195 92.4086C-26.1266 96.2827 -25.2332 100.777 -22.1964 103.59C-17.7365 107.723 -10.4703 110.093 -2.26277 110.093C5.94479 110.093 13.0504 107.773 17.5199 103.727C20.672 100.875 21.6299 96.3372 19.9049 92.4358L19.8377 92.2846C18.5999 89.4457 15.7936 87.6122 12.6895 87.6122H12.6909Z" fill="url(#paint38_linear_562_90612)"/>
<path d="M9.26436 99.1135C10.0603 99.1135 10.8287 99.2483 11.5478 99.4949C12.1955 99.7169 12.8775 99.2333 12.8844 98.5522C12.8844 98.5263 12.8844 98.5005 12.8844 98.4732C12.8844 95.5104 11.3063 93.1074 9.36042 93.1074C7.41454 93.1074 5.83643 95.509 5.83643 98.4732C5.83643 98.4787 5.83643 98.4827 5.83643 98.4882C5.83643 99.1625 6.50746 99.6393 7.15518 99.4363C7.82347 99.2265 8.53157 99.1121 9.26299 99.1121L9.26436 99.1135Z" fill="#8E8E8E"/>
<path d="M-2.28171 106.311C-4.85198 106.311 -7.05584 105.06 -7.76531 103.195C-7.93959 102.736 -7.70768 102.222 -7.24385 102.049C-6.78139 101.876 -6.26405 102.106 -6.08977 102.567C-5.65613 103.707 -4.05469 104.534 -2.28171 104.534C-0.508739 104.534 1.15171 103.68 1.54967 102.504C1.70748 102.038 2.21522 101.787 2.68454 101.944C3.15385 102.101 3.40635 102.605 3.24854 103.071C2.6022 104.979 0.328347 106.313 -2.28034 106.313L-2.28171 106.311Z" fill="#8E8E8E"/>
</g>
</g>
<g opacity="0.86">
<g clip-path="url(#clip6_562_90612)">
<path d="M94.115 128.161C94.2413 132.013 95.7247 135.092 97.4291 135.037C99.1334 134.983 100.414 131.816 100.288 127.962C100.161 124.11 98.6778 121.031 96.9735 121.086C95.2691 121.14 93.9888 124.309 94.115 128.161Z" fill="#7B7D85"/>
<path d="M153.721 128.166C153.847 124.314 152.567 121.147 150.862 121.092C149.157 121.037 147.673 124.115 147.547 127.967C147.421 131.82 148.701 134.987 150.406 135.042C152.111 135.097 153.595 132.019 153.721 128.166Z" fill="#7B7D85"/>
<path d="M124.842 65.4579V52.5264H122.849V65.4443C123.513 65.4498 124.177 65.4552 124.842 65.4579Z" fill="#5C5E63"/>
<path style="mix-blend-mode:multiply" d="M122.849 56.0654C123.152 56.2071 123.489 56.2888 123.845 56.2888C124.202 56.2888 124.538 56.2071 124.842 56.0654V52.5264H122.849V56.0654Z" fill="url(#paint39_linear_562_90612)"/>
<path d="M125.5 54.1695C126.415 53.262 126.415 51.7905 125.5 50.883C124.586 49.9754 123.104 49.9754 122.19 50.883C121.275 51.7905 121.275 53.262 122.19 54.1695C123.104 55.0771 124.586 55.0771 125.5 54.1695Z" fill="url(#paint40_linear_562_90612)"/>
<path d="M120.25 63.1639H127.439C128.861 63.1639 130.015 64.3096 130.015 65.7208V67.7969H117.673V65.7208C117.673 64.3096 118.827 63.1639 120.249 63.1639H120.25Z" fill="#6A6B6C"/>
<path d="M150.035 92.3785C151.638 91.799 151.86 88.3934 150.532 84.7718C149.203 81.1503 146.827 78.6842 145.224 79.2637C143.621 79.8432 143.398 83.2488 144.727 86.8704C146.055 90.4919 148.432 92.958 150.035 92.3785Z" fill="#7B7D85"/>
<path style="mix-blend-mode:multiply" d="M150.532 84.7701C150.347 84.2634 150.138 83.7825 149.916 83.3275C150.957 86.6636 150.665 89.6591 149.171 90.1986C147.792 90.6971 145.843 88.9385 144.479 86.1337C144.554 86.3775 144.637 86.6227 144.727 86.8693C146.056 90.4914 148.433 92.9571 150.035 92.3781C151.638 91.7992 151.86 88.3936 150.531 84.7715L150.532 84.7701Z" fill="#C2C3C9"/>
<path d="M97.1492 84.7702C95.8208 88.3924 96.0431 91.7979 97.6446 92.3769C99.2474 92.9558 101.624 90.4902 102.952 86.868C104.281 83.2459 104.059 79.8403 102.457 79.2614C100.854 78.6824 98.4775 81.1481 97.1492 84.7702Z" fill="#7B7D85"/>
<path d="M97.1493 84.7702C97.3345 84.2635 97.5431 83.7826 97.7654 83.3276C96.7239 86.6637 97.0162 89.6592 98.5092 90.1987C99.8883 90.6972 101.837 88.9386 103.202 86.1338C103.127 86.3776 103.045 86.6229 102.954 86.8694C101.626 90.4916 99.2489 92.9572 97.6461 92.3782C96.0432 91.7993 95.8209 88.3937 97.1507 84.7716L97.1493 84.7702Z" fill="#5E6069"/>
<path d="M150.883 119.883H97.1176C95.254 139.042 104.271 156.905 108.974 164.748C110.958 168.056 114.758 170.553 119.379 171.456C120.84 171.743 122.411 171.933 124 171.933C124.197 171.933 124.393 171.931 124.588 171.925C130.365 171.756 135.503 169.066 138.037 165.1C142.929 157.451 152.776 139.335 150.883 119.883Z" fill="url(#paint41_linear_562_90612)"/>
<path d="M123.995 127.785C138.842 127.785 150.878 124.247 150.878 119.883C150.878 115.518 138.842 111.98 123.995 111.98C109.148 111.98 97.1123 115.518 97.1123 119.883C97.1123 124.247 109.148 127.785 123.995 127.785Z" fill="url(#paint42_linear_562_90612)"/>
<path d="M148.348 108.063C152.018 104.72 153.091 99.4113 151.089 94.8847C146.246 83.9324 143.4 64.3914 123.995 64.3914C102.248 64.3914 101.743 83.9324 96.9006 94.8847C94.8984 99.4113 95.9715 104.72 99.641 108.063C105.097 113.034 113.973 115.893 123.995 115.893C134.016 115.893 142.892 113.034 148.348 108.063Z" fill="url(#paint43_linear_562_90612)"/>
<path d="M151.089 94.8846C149.294 90.8239 147.772 85.5848 145.581 80.5963C147.316 85.0181 148.637 89.5011 150.161 93.0715C152.095 97.5982 151.059 102.907 147.514 106.25C142.245 111.22 133.673 114.08 123.995 114.08C114.316 114.08 105.745 111.22 100.475 106.25C96.9321 102.907 95.8961 97.5982 97.8282 93.0715C99.6149 88.8868 100.791 83.4474 102.734 78.3228C100.25 83.9474 98.9713 90.2013 96.9006 94.8833C94.8984 99.4099 95.9715 104.719 99.641 108.061C105.097 113.032 113.973 115.891 123.995 115.891C134.016 115.891 142.892 113.032 148.348 108.061C152.018 104.719 153.091 99.4099 151.089 94.8833V94.8846Z" fill="url(#paint44_linear_562_90612)"/>
<path d="M138.95 89.4984H109.043C106.19 89.4984 103.639 91.2053 102.506 93.8044C102.495 93.8316 102.483 93.8575 102.471 93.8848C100.898 97.4551 101.662 101.634 104.532 104.293C108.86 108.304 115.964 110.613 123.995 110.613C132.025 110.613 138.973 108.354 143.314 104.426C146.246 101.772 147.127 97.5219 145.533 93.9147C145.509 93.863 145.487 93.8112 145.464 93.7594C144.339 91.178 141.782 89.4998 138.947 89.4998L138.95 89.4984Z" fill="url(#paint45_linear_562_90612)"/>
<path style="mix-blend-mode:multiply" d="M138.95 89.4984C141.783 89.4984 144.34 91.1767 145.467 93.7581C145.489 93.8098 145.512 93.8616 145.535 93.9134C147.13 97.5205 146.249 101.771 143.316 104.424C138.976 108.353 131.94 110.611 123.997 110.611C116.055 110.611 108.863 108.303 104.534 104.292C101.665 101.633 100.901 97.4538 102.473 93.8834C102.486 93.8562 102.497 93.8303 102.509 93.803C103.642 91.2039 106.194 89.497 109.045 89.497H138.952L138.95 89.4984ZM138.95 88.8146H109.042C105.937 88.8146 103.124 90.6672 101.874 93.5333L101.839 93.611C100.132 97.4851 101.026 101.979 104.062 104.792C108.522 108.925 115.788 111.295 123.996 111.295C132.204 111.295 139.309 108.975 143.779 104.93C146.931 102.077 147.889 97.5396 146.164 93.6382L146.096 93.487C144.859 90.6481 142.052 88.8146 138.948 88.8146H138.95Z" fill="url(#paint46_linear_562_90612)"/>
<path d="M112.27 100.316C113.066 100.316 113.835 100.451 114.554 100.697C115.201 100.919 115.883 100.436 115.89 99.7546C115.89 99.7287 115.89 99.7028 115.89 99.6756C115.89 96.7128 114.312 94.3098 112.366 94.3098C110.42 94.3098 108.842 96.7114 108.842 99.6756C108.842 99.681 108.842 99.6851 108.842 99.6906C108.842 100.365 109.513 100.842 110.161 100.639C110.829 100.429 111.537 100.314 112.269 100.314L112.27 100.316Z" fill="#8E8E8E"/>
<path d="M135.523 100.316C136.319 100.316 137.088 100.451 137.807 100.697C138.454 100.919 139.136 100.436 139.143 99.7546C139.143 99.7287 139.143 99.7028 139.143 99.6756C139.143 96.7128 137.565 94.3098 135.619 94.3098C133.673 94.3098 132.095 96.7114 132.095 99.6756C132.095 99.681 132.095 99.6851 132.095 99.6906C132.095 100.365 132.766 100.842 133.414 100.639C134.082 100.429 134.79 100.314 135.522 100.314L135.523 100.316Z" fill="#8E8E8E"/>
<path d="M123.977 107.514C121.407 107.514 119.203 106.262 118.493 104.397C118.319 103.938 118.551 103.424 119.015 103.251C119.477 103.078 119.995 103.309 120.169 103.769C120.603 104.909 122.204 105.736 123.977 105.736C125.75 105.736 127.41 104.882 127.808 103.706C127.966 103.241 128.474 102.99 128.943 103.147C129.413 103.303 129.665 103.807 129.507 104.273C128.861 106.182 126.587 107.515 123.978 107.515L123.977 107.514Z" fill="#8E8E8E"/>
</g>
</g>
<g opacity="0.86">
<g clip-path="url(#clip7_562_90612)">
<path d="M29.075 129.375C29.2012 133.228 30.6847 136.306 32.389 136.252C34.0934 136.197 35.3737 133.03 35.2475 129.176C35.1212 125.324 33.6378 122.245 31.9334 122.3C30.2291 122.354 28.9487 125.523 29.075 129.375Z" fill="#7B7D85"/>
<path d="M88.6812 129.381C88.8072 125.529 87.5271 122.361 85.822 122.306C84.1169 122.251 82.6325 125.329 82.5065 129.182C82.3805 133.034 83.6606 136.201 85.3657 136.256C87.0708 136.311 88.5552 133.233 88.6812 129.381Z" fill="#7B7D85"/>
<path d="M59.8016 66.6722V53.7406H57.8091V66.6585C58.4733 66.664 59.1374 66.6694 59.8016 66.6722Z" fill="#5C5E63"/>
<path style="mix-blend-mode:multiply" d="M57.8091 57.2796C58.1124 57.4213 58.4486 57.5031 58.8054 57.5031C59.1621 57.5031 59.4983 57.4213 59.8016 57.2796V53.7406H57.8091V57.2796Z" fill="url(#paint47_linear_562_90612)"/>
<path d="M60.4604 55.3838C61.3746 54.4762 61.3746 53.0048 60.4604 52.0972C59.5461 51.1896 58.0638 51.1896 57.1495 52.0972C56.2353 53.0048 56.2353 54.4762 57.1495 55.3838C58.0638 56.2913 59.5461 56.2913 60.4604 55.3838Z" fill="url(#paint48_linear_562_90612)"/>
<path d="M55.2099 64.3782H62.3993C63.8209 64.3782 64.975 65.5238 64.975 66.9351V69.0111H52.6328V66.9351C52.6328 65.5238 53.7869 64.3782 55.2086 64.3782H55.2099Z" fill="#6A6B6C"/>
<path d="M84.995 93.5927C86.598 93.0132 86.8205 89.6076 85.4919 85.9861C84.1633 82.3645 81.7868 79.8985 80.1838 80.478C78.5807 81.0575 78.3583 84.4631 79.6869 88.0846C81.0154 91.7061 83.392 94.1722 84.995 93.5927Z" fill="#7B7D85"/>
<path style="mix-blend-mode:multiply" d="M85.4921 85.9843C85.3068 85.4776 85.0982 84.9967 84.8759 84.5417C85.9175 87.8778 85.6252 90.8733 84.1308 91.4128C82.7516 91.9114 80.803 90.1527 79.439 87.3479C79.5144 87.5918 79.5968 87.837 79.6873 88.0835C81.0157 91.7057 83.3925 94.1713 84.9953 93.5923C86.5981 93.0134 86.8204 89.6078 85.4907 85.9857L85.4921 85.9843Z" fill="#C2C3C9"/>
<path d="M32.1091 85.9844C30.7808 89.6066 31.0031 93.0121 32.6045 93.5911C34.2073 94.17 36.5841 91.7044 37.9125 88.0823C39.2408 84.4601 39.0185 81.0546 37.4171 80.4756C35.8143 79.8967 33.4375 82.3623 32.1091 85.9844Z" fill="#7B7D85"/>
<path d="M32.1093 85.9845C32.2945 85.4777 32.5031 84.9969 32.7254 84.5419C31.6838 87.8779 31.9761 90.8735 33.4692 91.4129C34.8483 91.9115 36.7969 90.1529 38.1623 87.348C38.0869 87.5919 38.0045 87.8371 37.914 88.0836C36.5856 91.7058 34.2088 94.1714 32.606 93.5925C31.0032 93.0135 30.7809 89.608 32.1106 85.9858L32.1093 85.9845Z" fill="#5E6069"/>
<path d="M85.8431 121.097H32.0775C30.214 140.257 39.2312 158.119 43.934 165.962C45.9183 169.27 49.7181 171.767 54.3385 172.671C55.8 172.957 57.3712 173.147 58.9603 173.147C59.1566 173.147 59.3528 173.145 59.5477 173.139C65.3249 172.97 70.4627 170.28 72.9973 166.314C77.8894 158.666 87.7355 140.549 85.8431 121.097Z" fill="url(#paint49_linear_562_90612)"/>
<path d="M58.9551 128.999C73.802 128.999 85.8379 125.461 85.8379 121.097C85.8379 116.733 73.802 113.195 58.9551 113.195C44.1081 113.195 32.0723 116.733 32.0723 121.097C32.0723 125.461 44.1081 128.999 58.9551 128.999Z" fill="url(#paint50_linear_562_90612)"/>
<path d="M83.3084 109.277C86.9778 105.934 88.0509 100.626 86.0488 96.0989C81.206 85.1466 78.3599 65.6056 58.9547 65.6056C37.2083 65.6056 36.7033 85.1466 31.8605 96.0989C29.8584 100.626 30.9315 105.934 34.601 109.277C40.0571 114.248 48.933 117.107 58.9547 117.107C68.9764 117.107 77.8522 114.248 83.3084 109.277Z" fill="url(#paint51_linear_562_90612)"/>
<path d="M86.0488 96.0989C84.2538 92.0381 82.732 86.799 80.5405 81.8105C82.2764 86.2323 83.5965 90.7154 85.1211 94.2858C87.0547 98.8124 86.0186 104.121 82.474 107.464C77.2045 112.435 68.6333 115.294 58.9547 115.294C49.276 115.294 40.7048 112.435 35.4353 107.464C31.8921 104.121 30.856 98.8124 32.7882 94.2858C34.5749 90.101 35.7509 84.6617 37.694 79.537C35.2102 85.1616 33.9313 91.4156 31.8605 96.0975C29.8584 100.624 30.9315 105.933 34.601 109.276C40.0571 114.246 48.933 117.106 58.9547 117.106C68.9764 117.106 77.8522 114.246 83.3084 109.276C86.9778 105.933 88.0509 100.624 86.0488 96.0975V96.0989Z" fill="url(#paint52_linear_562_90612)"/>
<path d="M73.9098 90.7126H44.0025C41.1495 90.7126 38.5985 92.4195 37.4664 95.0186C37.4554 95.0459 37.443 95.0718 37.4307 95.099C35.8581 98.6694 36.6224 102.849 39.4918 105.508C43.82 109.518 50.9242 111.827 58.9548 111.827C66.9853 111.827 73.9331 109.568 78.2736 105.64C81.2062 102.986 82.0871 98.7361 80.4926 95.129C80.4692 95.0772 80.4473 95.0254 80.424 94.9737C79.2987 92.3923 76.7421 90.714 73.907 90.714L73.9098 90.7126Z" fill="url(#paint53_linear_562_90612)"/>
<path style="mix-blend-mode:multiply" d="M73.9096 90.7126C76.7434 90.7126 79.2999 92.3909 80.4265 94.9723C80.4485 95.0241 80.4718 95.0758 80.4952 95.1276C82.0897 98.7348 81.2087 102.985 78.2762 105.638C73.9357 109.567 66.9001 111.826 58.9574 111.826C51.0146 111.826 43.8226 109.517 39.4944 105.506C36.625 102.847 35.8607 98.668 37.4333 95.0976C37.4456 95.0704 37.4566 95.0445 37.469 95.0173C38.6025 92.4181 41.1535 90.7113 44.0051 90.7113H73.9124L73.9096 90.7126ZM73.9096 90.0288H44.0023C40.8969 90.0288 38.0837 91.8814 36.8336 94.7475L36.7993 94.8252C35.0922 98.6993 35.9855 103.193 39.0224 106.006C43.4823 110.139 50.7484 112.51 58.956 112.51C67.1635 112.51 74.2692 110.19 78.7386 106.144C81.8908 103.291 82.8486 98.7538 81.1237 94.8524L81.0564 94.7012C79.8186 91.8624 77.0123 90.0288 73.9083 90.0288H73.9096Z" fill="url(#paint54_linear_562_90612)"/>
<path d="M47.2302 101.53C48.0261 101.53 48.7946 101.665 49.5136 101.911C50.1614 102.134 50.8434 101.65 50.8502 100.969C50.8502 100.943 50.8502 100.917 50.8502 100.89C50.8502 97.927 49.2721 95.524 47.3262 95.524C45.3804 95.524 43.8022 97.9256 43.8022 100.89C43.8022 100.895 43.8022 100.899 43.8022 100.905C43.8022 101.579 44.4733 102.056 45.121 101.853C45.7893 101.643 46.4974 101.529 47.2288 101.529L47.2302 101.53Z" fill="#8E8E8E"/>
<path d="M70.4831 101.53C71.279 101.53 72.0475 101.665 72.7666 101.911C73.4143 102.134 74.0963 101.65 74.1032 100.969C74.1032 100.943 74.1032 100.917 74.1032 100.89C74.1032 97.927 72.525 95.524 70.5792 95.524C68.6333 95.524 67.0552 97.9256 67.0552 100.89C67.0552 100.895 67.0552 100.899 67.0552 100.905C67.0552 101.579 67.7262 102.056 68.3739 101.853C69.0422 101.643 69.7503 101.529 70.4817 101.529L70.4831 101.53Z" fill="#8E8E8E"/>
<path d="M58.937 108.728C56.3668 108.728 54.1629 107.476 53.4534 105.611C53.2792 105.152 53.5111 104.639 53.9749 104.466C54.4374 104.293 54.9547 104.523 55.129 104.983C55.5626 106.123 57.1641 106.95 58.937 106.95C60.71 106.95 62.3705 106.096 62.7684 104.921C62.9262 104.455 63.434 104.204 63.9033 104.361C64.3726 104.517 64.6251 105.021 64.4673 105.487C63.8209 107.396 61.5471 108.729 58.9384 108.729L58.937 108.728Z" fill="#8E8E8E"/>
</g>
</g>
<g opacity="0.86">
<g clip-path="url(#clip8_562_90612)">
<path d="M155.335 130.578C155.461 134.43 156.944 137.509 158.649 137.454C160.353 137.4 161.633 134.232 161.507 130.379C161.381 126.526 159.898 123.448 158.193 123.502C156.489 123.557 155.209 126.725 155.335 130.578Z" fill="#7B7D85"/>
<path d="M181.47 65.5806H188.659C190.081 65.5806 191.235 66.7262 191.235 68.1375V70.2135H178.893V68.1375C178.893 66.7262 180.047 65.5806 181.468 65.5806H181.47Z" fill="#6A6B6C"/>
<path d="M158.369 87.1868C157.041 90.809 157.263 94.2145 158.864 94.7935C160.467 95.3724 162.844 92.9068 164.172 89.2847C165.501 85.6625 165.278 82.257 163.677 81.678C162.074 81.0991 159.697 83.5647 158.369 87.1868Z" fill="#7B7D85"/>
<path d="M158.369 87.1869C158.554 86.6801 158.763 86.1992 158.985 85.7443C157.944 89.0803 158.236 92.0759 159.729 92.6153C161.108 93.1139 163.057 91.3552 164.422 88.5504C164.347 88.7943 164.264 89.0395 164.174 89.286C162.845 92.9082 160.469 95.3738 158.866 94.7949C157.263 94.2159 157.041 90.8104 158.37 87.1882L158.369 87.1869Z" fill="#5E6069"/>
<path d="M212.103 122.299H158.337C156.474 141.459 165.491 159.322 170.194 167.164C172.178 170.473 175.978 172.97 180.598 173.873C182.06 174.159 183.631 174.35 185.22 174.35C185.416 174.35 185.613 174.347 185.807 174.342C191.585 174.173 196.722 171.482 199.257 167.517C204.149 159.868 213.995 141.752 212.103 122.299Z" fill="url(#paint55_linear_562_90612)"/>
<path d="M185.215 130.202C200.062 130.202 212.098 126.664 212.098 122.299C212.098 117.935 200.062 114.397 185.215 114.397C170.368 114.397 158.332 117.935 158.332 122.299C158.332 126.664 170.368 130.202 185.215 130.202Z" fill="url(#paint56_linear_562_90612)"/>
<path d="M209.568 110.479C213.238 107.137 214.311 101.828 212.309 97.3013C207.466 86.349 204.62 66.808 185.214 66.808C163.468 66.808 162.963 86.349 158.12 97.3013C156.118 101.828 157.191 107.137 160.861 110.479C166.317 115.45 175.193 118.309 185.214 118.309C195.236 118.309 204.112 115.45 209.568 110.479Z" fill="url(#paint57_linear_562_90612)"/>
<path d="M212.309 97.3013C210.514 93.2405 208.992 88.0014 206.8 83.0129C208.536 87.4347 209.856 91.9178 211.381 95.4881C213.314 100.015 212.278 105.323 208.734 108.666C203.464 113.637 194.893 116.496 185.214 116.496C175.536 116.496 166.965 113.637 161.695 108.666C158.152 105.323 157.116 100.015 159.048 95.4881C160.835 91.3034 162.011 85.8641 163.954 80.7394C161.47 86.364 160.191 92.6179 158.12 97.2999C156.118 101.827 157.191 107.135 160.861 110.478C166.317 115.449 175.193 118.308 185.214 118.308C195.236 118.308 204.112 115.449 209.568 110.478C213.238 107.135 214.311 101.827 212.309 97.2999V97.3013Z" fill="url(#paint58_linear_562_90612)"/>
<path d="M200.17 91.915H170.262C167.409 91.915 164.858 93.6219 163.726 96.221C163.715 96.2483 163.703 96.2741 163.69 96.3014C162.118 99.8718 162.882 104.051 165.752 106.71C170.08 110.72 177.184 113.029 185.215 113.029C193.245 113.029 200.193 110.771 204.533 106.842C207.466 104.189 208.347 99.9385 206.752 96.3314C206.729 96.2796 206.707 96.2278 206.684 96.1761C205.558 93.5947 203.002 91.9164 200.167 91.9164L200.17 91.915Z" fill="url(#paint59_linear_562_90612)"/>
<path style="mix-blend-mode:multiply" d="M200.169 91.915C203.003 91.915 205.56 93.5933 206.686 96.1747C206.708 96.2265 206.732 96.2782 206.755 96.33C208.35 99.9372 207.469 104.187 204.536 106.841C200.195 110.77 193.16 113.028 185.217 113.028C177.274 113.028 170.082 110.719 165.754 106.709C162.885 104.05 162.12 99.8704 163.693 96.3C163.705 96.2728 163.716 96.2469 163.729 96.2197C164.862 93.6205 167.413 91.9137 170.265 91.9137H200.172L200.169 91.915ZM200.169 91.2312H170.262C167.157 91.2312 164.343 93.0838 163.093 95.9499L163.059 96.0276C161.352 99.9017 162.245 104.396 165.282 107.209C169.742 111.342 177.008 113.712 185.216 113.712C193.423 113.712 200.529 111.392 204.998 107.346C208.151 104.494 209.108 99.9562 207.383 96.0548L207.316 95.9036C206.078 93.0647 203.272 91.2312 200.168 91.2312H200.169Z" fill="url(#paint60_linear_562_90612)"/>
<path d="M173.49 102.732C174.286 102.732 175.054 102.867 175.773 103.114C176.421 103.336 177.103 102.852 177.11 102.171C177.11 102.145 177.11 102.119 177.11 102.092C177.11 99.1294 175.532 96.7264 173.586 96.7264C171.64 96.7264 170.062 99.128 170.062 102.092C170.062 102.098 170.062 102.102 170.062 102.107C170.062 102.782 170.733 103.258 171.381 103.055C172.049 102.846 172.757 102.731 173.489 102.731L173.49 102.732Z" fill="#8E8E8E"/>
<path d="M185.197 109.93C182.627 109.93 180.423 108.679 179.713 106.814C179.539 106.355 179.771 105.841 180.235 105.668C180.697 105.495 181.214 105.725 181.389 106.186C181.822 107.326 183.424 108.153 185.197 108.153C186.97 108.153 188.63 107.299 189.028 106.123C189.186 105.657 189.694 105.406 190.163 105.563C190.632 105.72 190.885 106.224 190.727 106.69C190.081 108.598 187.807 109.932 185.198 109.932L185.197 109.93Z" fill="#3F3F3F"/>
</g>
</g>
<rect x="-2" y="-1" width="189" height="67" fill="url(#paint61_linear_562_90612)"/>
</g>
<defs>
<linearGradient id="paint0_linear_562_90612" x1="26.6154" y1="41.931" x2="26.6154" y2="31.1895" gradientUnits="userSpaceOnUse">
<stop stop-color="#E4E5E9"/>
<stop offset="1" stop-color="#F0F1F5"/>
</linearGradient>
<linearGradient id="paint1_linear_562_90612" x1="26.6154" y1="31.2309" x2="26.6154" y2="40.2262" gradientUnits="userSpaceOnUse">
<stop stop-color="#E4E5E9"/>
<stop offset="1" stop-color="#F0F1F5"/>
</linearGradient>
<linearGradient id="paint2_linear_562_90612" x1="26.7175" y1="81.2508" x2="26.7175" y2="111.051" gradientUnits="userSpaceOnUse">
<stop stop-color="#525459"/>
<stop offset="0.575914" stop-color="#48494F"/>
<stop offset="1" stop-color="#414247"/>
</linearGradient>
<linearGradient id="paint3_linear_562_90612" x1="8.42578" y1="74.4113" x2="45.0076" y2="74.4113" gradientUnits="userSpaceOnUse">
<stop stop-color="#68696A"/>
<stop offset="1" stop-color="#575962"/>
</linearGradient>
<linearGradient id="paint4_linear_562_90612" x1="26.7175" y1="60.1153" x2="26.7175" y2="39.1745" gradientUnits="userSpaceOnUse">
<stop stop-color="#5B5B5E"/>
<stop offset="1" stop-color="#5C5C5E"/>
</linearGradient>
<linearGradient id="paint5_linear_562_90612" x1="26.7175" y1="44.4854" x2="26.7175" y2="65.5078" gradientUnits="userSpaceOnUse">
<stop stop-color="#27282E"/>
<stop offset="0.99" stop-color="#4B4B4B"/>
</linearGradient>
<linearGradient id="paint6_linear_562_90612" x1="4.48569" y1="33.4556" x2="40.8264" y2="76.3111" gradientUnits="userSpaceOnUse">
<stop/>
<stop offset="1" stop-color="#494949"/>
</linearGradient>
<linearGradient id="paint7_linear_562_90612" x1="26.72" y1="66.6525" x2="26.72" y2="54.0295" gradientUnits="userSpaceOnUse">
<stop stop-color="#E4E5E9"/>
<stop offset="1" stop-color="#CACBCF"/>
</linearGradient>
<linearGradient id="paint8_linear_562_90612" x1="112.524" y1="42.7493" x2="112.524" y2="32.0078" gradientUnits="userSpaceOnUse">
<stop stop-color="#E4E5E9"/>
<stop offset="1" stop-color="#F0F1F5"/>
</linearGradient>
<linearGradient id="paint9_linear_562_90612" x1="112.524" y1="32.0491" x2="112.524" y2="41.0444" gradientUnits="userSpaceOnUse">
<stop stop-color="#E4E5E9"/>
<stop offset="1" stop-color="#F0F1F5"/>
</linearGradient>
<linearGradient id="paint10_linear_562_90612" x1="112.626" y1="82.069" x2="112.626" y2="111.869" gradientUnits="userSpaceOnUse">
<stop stop-color="#525459"/>
<stop offset="0.575914" stop-color="#48494F"/>
<stop offset="1" stop-color="#414247"/>
</linearGradient>
<linearGradient id="paint11_linear_562_90612" x1="94.3345" y1="75.2296" x2="130.916" y2="75.2296" gradientUnits="userSpaceOnUse">
<stop stop-color="#68696A"/>
<stop offset="1" stop-color="#575962"/>
</linearGradient>
<linearGradient id="paint12_linear_562_90612" x1="112.626" y1="60.9335" x2="112.626" y2="39.9927" gradientUnits="userSpaceOnUse">
<stop stop-color="#5B5B5E"/>
<stop offset="1" stop-color="#5C5C5E"/>
</linearGradient>
<linearGradient id="paint13_linear_562_90612" x1="112.626" y1="45.3037" x2="112.626" y2="66.3261" gradientUnits="userSpaceOnUse">
<stop stop-color="#27282E"/>
<stop offset="0.99" stop-color="#4B4B4B"/>
</linearGradient>
<linearGradient id="paint14_linear_562_90612" x1="90.3944" y1="34.2739" x2="126.735" y2="77.1293" gradientUnits="userSpaceOnUse">
<stop/>
<stop offset="1" stop-color="#494949"/>
</linearGradient>
<linearGradient id="paint15_linear_562_90612" x1="112.629" y1="67.4708" x2="112.629" y2="54.8477" gradientUnits="userSpaceOnUse">
<stop stop-color="#E4E5E9"/>
<stop offset="1" stop-color="#CACBCF"/>
</linearGradient>
<linearGradient id="paint16_linear_562_90612" x1="68.2692" y1="43.5753" x2="68.2692" y2="32.8338" gradientUnits="userSpaceOnUse">
<stop stop-color="#E4E5E9"/>
<stop offset="1" stop-color="#F0F1F5"/>
</linearGradient>
<linearGradient id="paint17_linear_562_90612" x1="68.2692" y1="32.8752" x2="68.2692" y2="41.8705" gradientUnits="userSpaceOnUse">
<stop stop-color="#E4E5E9"/>
<stop offset="1" stop-color="#F0F1F5"/>
</linearGradient>
<linearGradient id="paint18_linear_562_90612" x1="68.3713" y1="82.8951" x2="68.3713" y2="112.695" gradientUnits="userSpaceOnUse">
<stop stop-color="#525459"/>
<stop offset="0.575914" stop-color="#48494F"/>
<stop offset="1" stop-color="#414247"/>
</linearGradient>
<linearGradient id="paint19_linear_562_90612" x1="50.0796" y1="76.0556" x2="86.6614" y2="76.0556" gradientUnits="userSpaceOnUse">
<stop stop-color="#68696A"/>
<stop offset="1" stop-color="#575962"/>
</linearGradient>
<linearGradient id="paint20_linear_562_90612" x1="68.3713" y1="61.7596" x2="68.3713" y2="40.8187" gradientUnits="userSpaceOnUse">
<stop stop-color="#5B5B5E"/>
<stop offset="1" stop-color="#5C5C5E"/>
</linearGradient>
<linearGradient id="paint21_linear_562_90612" x1="68.3713" y1="46.1297" x2="68.3713" y2="67.1521" gradientUnits="userSpaceOnUse">
<stop stop-color="#27282E"/>
<stop offset="0.99" stop-color="#4B4B4B"/>
</linearGradient>
<linearGradient id="paint22_linear_562_90612" x1="46.1395" y1="35.0999" x2="82.4802" y2="77.9554" gradientUnits="userSpaceOnUse">
<stop/>
<stop offset="1" stop-color="#494949"/>
</linearGradient>
<linearGradient id="paint23_linear_562_90612" x1="68.3738" y1="68.2968" x2="68.3738" y2="55.6738" gradientUnits="userSpaceOnUse">
<stop stop-color="#E4E5E9"/>
<stop offset="1" stop-color="#CACBCF"/>
</linearGradient>
<linearGradient id="paint24_linear_562_90612" x1="154.178" y1="44.3934" x2="154.178" y2="33.6519" gradientUnits="userSpaceOnUse">
<stop stop-color="#E4E5E9"/>
<stop offset="1" stop-color="#F0F1F5"/>
</linearGradient>
<linearGradient id="paint25_linear_562_90612" x1="154.178" y1="33.6933" x2="154.178" y2="42.6886" gradientUnits="userSpaceOnUse">
<stop stop-color="#E4E5E9"/>
<stop offset="1" stop-color="#F0F1F5"/>
</linearGradient>
<linearGradient id="paint26_linear_562_90612" x1="154.28" y1="83.7132" x2="154.28" y2="113.513" gradientUnits="userSpaceOnUse">
<stop stop-color="#525459"/>
<stop offset="0.575914" stop-color="#48494F"/>
<stop offset="1" stop-color="#414247"/>
</linearGradient>
<linearGradient id="paint27_linear_562_90612" x1="135.988" y1="76.8737" x2="172.57" y2="76.8737" gradientUnits="userSpaceOnUse">
<stop stop-color="#68696A"/>
<stop offset="1" stop-color="#575962"/>
</linearGradient>
<linearGradient id="paint28_linear_562_90612" x1="154.28" y1="62.5777" x2="154.28" y2="41.6369" gradientUnits="userSpaceOnUse">
<stop stop-color="#5B5B5E"/>
<stop offset="1" stop-color="#5C5C5E"/>
</linearGradient>
<linearGradient id="paint29_linear_562_90612" x1="154.28" y1="46.9478" x2="154.28" y2="67.9702" gradientUnits="userSpaceOnUse">
<stop stop-color="#27282E"/>
<stop offset="0.99" stop-color="#4B4B4B"/>
</linearGradient>
<linearGradient id="paint30_linear_562_90612" x1="132.048" y1="35.918" x2="168.389" y2="78.7735" gradientUnits="userSpaceOnUse">
<stop/>
<stop offset="1" stop-color="#494949"/>
</linearGradient>
<linearGradient id="paint31_linear_562_90612" x1="154.283" y1="69.1149" x2="154.283" y2="56.4919" gradientUnits="userSpaceOnUse">
<stop stop-color="#E4E5E9"/>
<stop offset="1" stop-color="#CACBCF"/>
</linearGradient>
<linearGradient id="paint32_linear_562_90612" x1="-2.41401" y1="55.2181" x2="-2.41401" y2="68.4384" gradientUnits="userSpaceOnUse">
<stop stop-color="#E4E5E9"/>
<stop offset="1" stop-color="#F0F1F5"/>
</linearGradient>
<linearGradient id="paint33_linear_562_90612" x1="-2.26392" y1="128.732" x2="-2.26392" y2="172.529" gradientUnits="userSpaceOnUse">
<stop stop-color="#525459"/>
<stop offset="0.575914" stop-color="#48494F"/>
<stop offset="1" stop-color="#414247"/>
</linearGradient>
<linearGradient id="paint34_linear_562_90612" x1="-29.1465" y1="118.68" x2="24.6177" y2="118.68" gradientUnits="userSpaceOnUse">
<stop stop-color="#68696A"/>
<stop offset="1" stop-color="#575962"/>
</linearGradient>
<linearGradient id="paint35_linear_562_90612" x1="-2.2641" y1="97.6695" x2="-2.2641" y2="66.8928" gradientUnits="userSpaceOnUse">
<stop stop-color="#5B5B5E"/>
<stop offset="1" stop-color="#5C5C5E"/>
</linearGradient>
<linearGradient id="paint36_linear_562_90612" x1="-2.2641" y1="74.6983" x2="-2.2641" y2="105.595" gradientUnits="userSpaceOnUse">
<stop stop-color="#27282E"/>
<stop offset="0.99" stop-color="#4B4B4B"/>
</linearGradient>
<linearGradient id="paint37_linear_562_90612" x1="-34.9378" y1="58.4879" x2="18.472" y2="121.472" gradientUnits="userSpaceOnUse">
<stop/>
<stop offset="1" stop-color="#494949"/>
</linearGradient>
<linearGradient id="paint38_linear_562_90612" x1="-2.26002" y1="107.277" x2="-2.26002" y2="88.7251" gradientUnits="userSpaceOnUse">
<stop stop-color="#E4E5E9"/>
<stop offset="1" stop-color="#CACBCF"/>
</linearGradient>
<linearGradient id="paint39_linear_562_90612" x1="123.845" y1="72.1464" x2="123.845" y2="56.3597" gradientUnits="userSpaceOnUse">
<stop stop-color="#E4E5E9"/>
<stop offset="1" stop-color="#F0F1F5"/>
</linearGradient>
<linearGradient id="paint40_linear_562_90612" x1="123.845" y1="56.4205" x2="123.845" y2="69.6408" gradientUnits="userSpaceOnUse">
<stop stop-color="#E4E5E9"/>
<stop offset="1" stop-color="#F0F1F5"/>
</linearGradient>
<linearGradient id="paint41_linear_562_90612" x1="123.995" y1="129.935" x2="123.995" y2="173.731" gradientUnits="userSpaceOnUse">
<stop stop-color="#525459"/>
<stop offset="0.575914" stop-color="#48494F"/>
<stop offset="1" stop-color="#414247"/>
</linearGradient>
<linearGradient id="paint42_linear_562_90612" x1="97.1123" y1="119.883" x2="150.877" y2="119.883" gradientUnits="userSpaceOnUse">
<stop stop-color="#68696A"/>
<stop offset="1" stop-color="#575962"/>
</linearGradient>
<linearGradient id="paint43_linear_562_90612" x1="123.995" y1="98.8719" x2="123.995" y2="68.0952" gradientUnits="userSpaceOnUse">
<stop stop-color="#5B5B5E"/>
<stop offset="1" stop-color="#5C5C5E"/>
</linearGradient>
<linearGradient id="paint44_linear_562_90612" x1="123.995" y1="75.9007" x2="123.995" y2="106.797" gradientUnits="userSpaceOnUse">
<stop stop-color="#27282E"/>
<stop offset="0.99" stop-color="#4B4B4B"/>
</linearGradient>
<linearGradient id="paint45_linear_562_90612" x1="91.321" y1="59.6903" x2="144.731" y2="122.675" gradientUnits="userSpaceOnUse">
<stop/>
<stop offset="1" stop-color="#494949"/>
</linearGradient>
<linearGradient id="paint46_linear_562_90612" x1="123.999" y1="108.48" x2="123.999" y2="89.9275" gradientUnits="userSpaceOnUse">
<stop stop-color="#E4E5E9"/>
<stop offset="1" stop-color="#CACBCF"/>
</linearGradient>
<linearGradient id="paint47_linear_562_90612" x1="58.8054" y1="73.3607" x2="58.8054" y2="57.5739" gradientUnits="userSpaceOnUse">
<stop stop-color="#E4E5E9"/>
<stop offset="1" stop-color="#F0F1F5"/>
</linearGradient>
<linearGradient id="paint48_linear_562_90612" x1="58.8047" y1="57.6347" x2="58.8047" y2="70.8551" gradientUnits="userSpaceOnUse">
<stop stop-color="#E4E5E9"/>
<stop offset="1" stop-color="#F0F1F5"/>
</linearGradient>
<linearGradient id="paint49_linear_562_90612" x1="58.9548" y1="131.149" x2="58.9548" y2="174.946" gradientUnits="userSpaceOnUse">
<stop stop-color="#525459"/>
<stop offset="0.575914" stop-color="#48494F"/>
<stop offset="1" stop-color="#414247"/>
</linearGradient>
<linearGradient id="paint50_linear_562_90612" x1="32.0723" y1="121.097" x2="85.8365" y2="121.097" gradientUnits="userSpaceOnUse">
<stop stop-color="#68696A"/>
<stop offset="1" stop-color="#575962"/>
</linearGradient>
<linearGradient id="paint51_linear_562_90612" x1="58.9547" y1="100.086" x2="58.9547" y2="69.3095" gradientUnits="userSpaceOnUse">
<stop stop-color="#5B5B5E"/>
<stop offset="1" stop-color="#5C5C5E"/>
</linearGradient>
<linearGradient id="paint52_linear_562_90612" x1="58.9547" y1="77.115" x2="58.9547" y2="108.011" gradientUnits="userSpaceOnUse">
<stop stop-color="#27282E"/>
<stop offset="0.99" stop-color="#4B4B4B"/>
</linearGradient>
<linearGradient id="paint53_linear_562_90612" x1="26.281" y1="60.9045" x2="79.6908" y2="123.889" gradientUnits="userSpaceOnUse">
<stop/>
<stop offset="1" stop-color="#494949"/>
</linearGradient>
<linearGradient id="paint54_linear_562_90612" x1="58.9587" y1="109.694" x2="58.9587" y2="91.1417" gradientUnits="userSpaceOnUse">
<stop stop-color="#E4E5E9"/>
<stop offset="1" stop-color="#CACBCF"/>
</linearGradient>
<linearGradient id="paint55_linear_562_90612" x1="185.215" y1="132.351" x2="185.215" y2="176.148" gradientUnits="userSpaceOnUse">
<stop stop-color="#525459"/>
<stop offset="0.575914" stop-color="#48494F"/>
<stop offset="1" stop-color="#414247"/>
</linearGradient>
<linearGradient id="paint56_linear_562_90612" x1="158.332" y1="122.299" x2="212.096" y2="122.299" gradientUnits="userSpaceOnUse">
<stop stop-color="#68696A"/>
<stop offset="1" stop-color="#575962"/>
</linearGradient>
<linearGradient id="paint57_linear_562_90612" x1="185.214" y1="101.289" x2="185.214" y2="70.5119" gradientUnits="userSpaceOnUse">
<stop stop-color="#5B5B5E"/>
<stop offset="1" stop-color="#5C5C5E"/>
</linearGradient>
<linearGradient id="paint58_linear_562_90612" x1="185.214" y1="78.3174" x2="185.214" y2="109.214" gradientUnits="userSpaceOnUse">
<stop stop-color="#27282E"/>
<stop offset="0.99" stop-color="#4B4B4B"/>
</linearGradient>
<linearGradient id="paint59_linear_562_90612" x1="152.541" y1="62.1069" x2="205.951" y2="125.091" gradientUnits="userSpaceOnUse">
<stop/>
<stop offset="1" stop-color="#494949"/>
</linearGradient>
<linearGradient id="paint60_linear_562_90612" x1="185.218" y1="110.896" x2="185.218" y2="92.3441" gradientUnits="userSpaceOnUse">
<stop stop-color="#E4E5E9"/>
<stop offset="1" stop-color="#CACBCF"/>
</linearGradient>
<linearGradient id="paint61_linear_562_90612" x1="92" y1="-13.7069" x2="91.496" y2="65.9968" gradientUnits="userSpaceOnUse">
<stop stop-color="#2E2D2D"/>
<stop offset="0.0001" stop-color="#3D3D3D"/>
<stop offset="0.911458" stop-opacity="0"/>
</linearGradient>
<clipPath id="clip0_562_90612">
<rect width="180" height="180" rx="90" fill="white"/>
</clipPath>
<clipPath id="clip1_562_90612">
<rect width="70.4373" height="87.1436" fill="white" transform="translate(-1 27)"/>
</clipPath>
<clipPath id="clip2_562_90612">
<rect width="70.4373" height="87.1436" fill="white" transform="translate(84.9087 27.8182)"/>
</clipPath>
<clipPath id="clip3_562_90612">
<rect width="70.4373" height="87.1436" fill="white" transform="translate(40.6538 28.6443)"/>
</clipPath>
<clipPath id="clip4_562_90612">
<rect width="70.4373" height="87.1436" fill="white" transform="translate(126.562 29.4624)"/>
</clipPath>
<clipPath id="clip5_562_90612">
<rect width="103.521" height="128.075" fill="white" transform="translate(-43 49)"/>
</clipPath>
<clipPath id="clip6_562_90612">
<rect width="103.521" height="128.075" fill="white" transform="translate(83.2588 50.2024)"/>
</clipPath>
<clipPath id="clip7_562_90612">
<rect width="103.521" height="128.075" fill="white" transform="translate(18.2188 51.4166)"/>
</clipPath>
<clipPath id="clip8_562_90612">
<rect width="103.521" height="128.075" fill="white" transform="translate(144.479 52.619)"/>
</clipPath>
</defs>
</svg>
