<svg xmlns:xlink="http://www.w3.org/1999/xlink" xmlns="http://www.w3.org/2000/svg" width="32" height="32" viewBox="0 0 32 32" fill="none">
<g clip-path="url(#clip0_1391_17467)">
<path d="M32 29.7143C32 30.9766 30.9767 32 29.7143 32L2.28571 32C1.02335 32 8.9464e-08 30.9766 1.99823e-07 29.7143L2.59771e-06 2.28571C2.70806e-06 1.02335 1.02335 -2.70806e-06 2.28572 -2.59771e-06L29.7143 -1.99824e-07C30.9767 -8.94641e-08 32 1.02335 32 2.28571L32 29.7143Z" fill="url(#paint0_linear_1391_17467)"/>
<path fill-rule="evenodd" clip-rule="evenodd" d="M18.3806 21.9402L25.5996 21.9402L29.7129 15.0266L25.5996 8.11295L17.3943 8.11295L8.58047 22.6172L11.1227 22.6172L18.5773 10.1049L24.3147 10.1049L27.1793 15.0266L24.3147 19.9483H19.5003L18.3806 21.9402ZM18.386 9.76646H24.5087L27.5702 15.0266L24.5087 20.2867H24.5092L27.5707 15.0265L24.5092 9.7664L18.3861 9.7664L18.386 9.76646ZM19.6981 20.2867H19.6977L18.9585 21.6018L25.4078 21.6018L25.4078 21.6017L18.959 21.6017L19.6981 20.2867ZM17.5845 8.45142H17.5841L9.18156 22.2787L10.931 22.2787L10.9311 22.2787L9.18203 22.2787L17.5845 8.45142Z" fill="url(#paint1_linear_1391_17467)"/>
<path fill-rule="evenodd" clip-rule="evenodd" d="M13.6182 10.744H6.39915L2.28589 17.6576L6.39915 24.5713H14.6072L23.1719 10.0865H20.635L13.4185 22.5793H7.68407L4.81952 17.6576L7.68407 12.736H12.4985L13.6182 10.744ZM20.8296 10.4252H22.5788L14.4145 24.2328H14.4147L22.5792 10.4249H20.8297L20.8296 10.4252ZM7.4901 22.9178H13.613L13.6129 22.918H7.48976L4.42821 17.6579L7.48976 12.3977H7.48997L4.42854 17.6576L7.4901 22.9178ZM12.3011 12.3975H12.3009L13.04 11.0827H6.59084L6.59097 11.0825H13.0403L12.3011 12.3975Z" fill="url(#paint2_linear_1391_17467)"/>
</g>
<defs>
<linearGradient id="paint0_linear_1391_17467" x1="16" y1="32" x2="16" y2="-1.39876e-06" gradientUnits="userSpaceOnUse">
<stop stop-color="#142B52"/>
<stop offset="1" stop-color="#006B95"/>
</linearGradient>
<linearGradient id="paint1_linear_1391_17467" x1="18.8957" y1="8.05547" x2="9.88155" y2="22.5224" gradientUnits="userSpaceOnUse">
<stop stop-color="#45C6E8"/>
<stop offset="1" stop-color="#007EAF"/>
</linearGradient>
<linearGradient id="paint2_linear_1391_17467" x1="13.6823" y1="24.5713" x2="21.8233" y2="10.1002" gradientUnits="userSpaceOnUse">
<stop stop-color="#E5F5FB"/>
<stop offset="1" stop-color="#007EAF"/>
</linearGradient>
<clipPath id="clip0_1391_17467">
<rect width="32" height="32" fill="white" transform="translate(32 32) rotate(-180)"/>
</clipPath>
</defs>
</svg>