<svg width="185" height="181" viewBox="0 0 185 181" fill="none" xmlns="http://www.w3.org/2000/svg">
<path d="M184.136 90.4915C184.136 40.9857 143.998 0.858032 94.4873 0.858032C44.9765 0.858032 4.83887 40.9906 4.83887 90.4915C4.83887 139.992 44.9765 180.125 94.4873 180.125C143.998 180.125 184.136 139.992 184.136 90.4915Z" fill="#3D3D3D"/>
<mask id="mask0_562_90559" style="mask-type:luminance" maskUnits="userSpaceOnUse" x="4" y="1" width="181" height="180">
<path d="M4.83887 90.6385C4.83887 140.144 44.9765 180.272 94.4873 180.272C143.998 180.272 184.136 140.139 184.136 90.6385C184.136 41.1376 143.998 1 94.4873 1C44.9765 1 4.83887 41.1326 4.83887 90.6385Z" fill="white"/>
</mask>
<g mask="url(#mask0_562_90559)">
<path d="M136.318 52.5653H-19.645V199.15H136.318V52.5653Z" fill="#171717"/>
<path d="M136.318 52.5653H76.5576V199.15H136.318V52.5653Z" fill="#282828"/>
<path d="M157.221 212H103.477C101.814 212 100.464 210.675 100.464 209.037V144.276H160.234V209.037C160.234 210.675 158.885 212 157.221 212Z" fill="#565656"/>
<path d="M100.464 156.219H92.4951C85.9209 156.219 80.542 161.523 80.542 168.127V176.096C80.542 187.327 89.477 196.018 100.459 196.018V188.094C93.7502 188.094 88.5107 182.959 88.5107 176.096V168.172V168.127C88.5356 165.946 90.3037 164.188 92.4901 164.188H100.459V156.219H100.464Z" fill="#565656"/>
<path d="M100.464 156.224H96.4795V164.193H100.464V156.224Z" fill="#393939"/>
<path d="M20.6816 36.573H136.368C145.168 36.573 152.305 43.71 152.305 52.5105V171.464" stroke="#9F9F9F" stroke-width="4" stroke-miterlimit="10"/>
</g>
<path d="M76.5625 20.755H0.859375V96.4581H76.5625V20.755Z" fill="white"/>
<path d="M92.4951 96.4531L64.6045 68.5625V96.4531H92.4951Z" fill="white"/>
<path fill-rule="evenodd" clip-rule="evenodd" d="M36.7139 56.6094V44.6562H40.6982V56.6094H52.6514V60.5938H40.6982V72.5469H36.7139V60.5938H24.7607V56.6094H36.7139Z" fill="#0062FF"/>
</svg>
