<svg xmlns="http://www.w3.org/2000/svg" version="1.1" xmlns:xlink="http://www.w3.org/1999/xlink" xmlns:svgjs="http://svgjs.com/svgjs" width="1440" height="560" preserveAspectRatio="none" viewBox="0 0 1440 560"><g mask="url(&quot;#SvgjsMask1000&quot;)" fill="none"><rect width="1440" height="560" x="0" y="0" fill="#0e2a47"></rect><path d="M-91.92 406.31L-91.92 406.31" stroke="#132e65" stroke-width="1.5"></path><path d="M-91.92 406.31L-63.75 503.03" stroke="#132e65" stroke-width="1.5"></path><path d="M-91.92 406.31L86.43 387.81" stroke="#132e65" stroke-width="1.5"></path><path d="M-91.92 406.31L56.34 543.75" stroke="#132e65" stroke-width="1.5"></path><path d="M-63.75 503.03L-63.75 503.03" stroke="#132e65" stroke-width="1.5"></path><path d="M-63.75 503.03L56.34 543.75" stroke="#132e65" stroke-width="1.5"></path><path d="M-63.75 503.03L86.43 387.81" stroke="#132e65" stroke-width="1.5"></path><path d="M86.43 387.81L86.43 387.81" stroke="#132e65" stroke-width="1.5"></path><path d="M86.43 387.81L188.07 387.8" stroke="#132e65" stroke-width="1.5"></path><path d="M86.43 387.81L56.34 543.75" stroke="#132e65" stroke-width="1.5"></path><path d="M56.34 543.75L56.34 543.75" stroke="#132e65" stroke-width="1.5"></path><path d="M56.34 543.75L77.67 702.98" stroke="#132e65" stroke-width="1.5"></path><path d="M56.34 543.75L188.07 387.8" stroke="#132e65" stroke-width="1.5"></path><path d="M56.34 543.75L209.44 705.87" stroke="#132e65" stroke-width="1.5"></path><path d="M77.67 702.98L77.67 702.98" stroke="#132e65" stroke-width="1.5"></path><path d="M77.67 702.98L209.44 705.87" stroke="#132e65" stroke-width="1.5"></path><path d="M77.67 702.98L-63.75 503.03" stroke="#132e65" stroke-width="1.5"></path><path d="M77.67 702.98L86.43 387.81" stroke="#132e65" stroke-width="1.5"></path><path d="M77.67 702.98L188.07 387.8" stroke="#132e65" stroke-width="1.5"></path><path d="M188.07 387.8L188.07 387.8" stroke="#132e65" stroke-width="1.5"></path><path d="M209.44 705.87L209.44 705.87" stroke="#132e65" stroke-width="1.5"></path><path d="M209.44 705.87L517.69 643.4" stroke="#132e65" stroke-width="1.5"></path><path d="M209.44 705.87L188.07 387.8" stroke="#132e65" stroke-width="1.5"></path><path d="M389.43 411L389.43 411" stroke="#132e65" stroke-width="1.5"></path><path d="M389.43 411L487.74 496.22" stroke="#132e65" stroke-width="1.5"></path><path d="M389.43 411L520.96 346.58" stroke="#132e65" stroke-width="1.5"></path><path d="M389.43 411L188.07 387.8" stroke="#132e65" stroke-width="1.5"></path><path d="M389.43 411L517.69 643.4" stroke="#132e65" stroke-width="1.5"></path><path d="M520.96 346.58L520.96 346.58" stroke="#132e65" stroke-width="1.5"></path><path d="M520.96 346.58L665.09 371.16" stroke="#132e65" stroke-width="1.5"></path><path d="M487.74 496.22L487.74 496.22" stroke="#132e65" stroke-width="1.5"></path><path d="M487.74 496.22L517.69 643.4" stroke="#132e65" stroke-width="1.5"></path><path d="M517.69 643.4L517.69 643.4" stroke="#132e65" stroke-width="1.5"></path><path d="M517.69 643.4L685.32 558.14" stroke="#132e65" stroke-width="1.5"></path><path d="M517.69 643.4L710.11 655.13" stroke="#132e65" stroke-width="1.5"></path><path d="M665.09 371.16L665.09 371.16" stroke="#132e65" stroke-width="1.5"></path><path d="M665.09 371.16L685.32 558.14" stroke="#132e65" stroke-width="1.5"></path><path d="M665.09 371.16L794.93 222.64" stroke="#132e65" stroke-width="1.5"></path><path d="M665.09 371.16L487.74 496.22" stroke="#132e65" stroke-width="1.5"></path><path d="M665.09 371.16L831.97 546.28" stroke="#132e65" stroke-width="1.5"></path><path d="M665.09 371.16L389.43 411" stroke="#132e65" stroke-width="1.5"></path><path d="M685.32 558.14L685.32 558.14" stroke="#132e65" stroke-width="1.5"></path><path d="M685.32 558.14L710.11 655.13" stroke="#132e65" stroke-width="1.5"></path><path d="M685.32 558.14L831.97 546.28" stroke="#132e65" stroke-width="1.5"></path><path d="M685.32 558.14L825.07 683.7" stroke="#132e65" stroke-width="1.5"></path><path d="M685.32 558.14L487.74 496.22" stroke="#132e65" stroke-width="1.5"></path><path d="M710.11 655.13L710.11 655.13" stroke="#132e65" stroke-width="1.5"></path><path d="M710.11 655.13L825.07 683.7" stroke="#132e65" stroke-width="1.5"></path><path d="M710.11 655.13L831.97 546.28" stroke="#132e65" stroke-width="1.5"></path><path d="M794.93 222.64L794.93 222.64" stroke="#132e65" stroke-width="1.5"></path><path d="M794.93 222.64L953.25 221" stroke="#132e65" stroke-width="1.5"></path><path d="M831.97 546.28L831.97 546.28" stroke="#132e65" stroke-width="1.5"></path><path d="M831.97 546.28L825.07 683.7" stroke="#132e65" stroke-width="1.5"></path><path d="M831.97 546.28L984.96 500.47" stroke="#132e65" stroke-width="1.5"></path><path d="M825.07 683.7L825.07 683.7" stroke="#132e65" stroke-width="1.5"></path><path d="M825.07 683.7L989.29 677.25" stroke="#132e65" stroke-width="1.5"></path><path d="M945.82 -105.06L945.82 -105.06" stroke="#132e65" stroke-width="1.5"></path><path d="M945.82 -105.06L1107.53 -87.6" stroke="#132e65" stroke-width="1.5"></path><path d="M945.82 -105.06L965.16 61.43" stroke="#132e65" stroke-width="1.5"></path><path d="M945.82 -105.06L1150.37 73.55" stroke="#132e65" stroke-width="1.5"></path><path d="M945.82 -105.06L953.25 221" stroke="#132e65" stroke-width="1.5"></path><path d="M945.82 -105.06L1243.93 38.13" stroke="#132e65" stroke-width="1.5"></path><path d="M965.16 61.43L965.16 61.43" stroke="#132e65" stroke-width="1.5"></path><path d="M965.16 61.43L953.25 221" stroke="#132e65" stroke-width="1.5"></path><path d="M953.25 221L953.25 221" stroke="#132e65" stroke-width="1.5"></path><path d="M953.25 221L949.15 375.89" stroke="#132e65" stroke-width="1.5"></path><path d="M953.25 221L1114.65 218.38" stroke="#132e65" stroke-width="1.5"></path><path d="M953.25 221L1123.84 357.73" stroke="#132e65" stroke-width="1.5"></path><path d="M953.25 221L1150.37 73.55" stroke="#132e65" stroke-width="1.5"></path><path d="M949.15 375.89L949.15 375.89" stroke="#132e65" stroke-width="1.5"></path><path d="M949.15 375.89L984.96 500.47" stroke="#132e65" stroke-width="1.5"></path><path d="M949.15 375.89L1123.84 357.73" stroke="#132e65" stroke-width="1.5"></path><path d="M949.15 375.89L831.97 546.28" stroke="#132e65" stroke-width="1.5"></path><path d="M984.96 500.47L984.96 500.47" stroke="#132e65" stroke-width="1.5"></path><path d="M989.29 677.25L989.29 677.25" stroke="#132e65" stroke-width="1.5"></path><path d="M989.29 677.25L1150.7 693.86" stroke="#132e65" stroke-width="1.5"></path><path d="M1107.53 -87.6L1107.53 -87.6" stroke="#132e65" stroke-width="1.5"></path><path d="M1107.53 -87.6L1150.37 73.55" stroke="#132e65" stroke-width="1.5"></path><path d="M1150.37 73.55L1150.37 73.55" stroke="#132e65" stroke-width="1.5"></path><path d="M1150.37 73.55L1243.93 38.13" stroke="#132e65" stroke-width="1.5"></path><path d="M1150.37 73.55L1114.65 218.38" stroke="#132e65" stroke-width="1.5"></path><path d="M1114.65 218.38L1114.65 218.38" stroke="#132e65" stroke-width="1.5"></path><path d="M1114.65 218.38L1249.57 246.14" stroke="#132e65" stroke-width="1.5"></path><path d="M1114.65 218.38L1123.84 357.73" stroke="#132e65" stroke-width="1.5"></path><path d="M1114.65 218.38L965.16 61.43" stroke="#132e65" stroke-width="1.5"></path><path d="M1114.65 218.38L1243.93 38.13" stroke="#132e65" stroke-width="1.5"></path><path d="M1123.84 357.73L1123.84 357.73" stroke="#132e65" stroke-width="1.5"></path><path d="M1123.84 357.73L1123.12 517.66" stroke="#132e65" stroke-width="1.5"></path><path d="M1123.84 357.73L1249.57 246.14" stroke="#132e65" stroke-width="1.5"></path><path d="M1123.84 357.73L1305.44 386.41" stroke="#132e65" stroke-width="1.5"></path><path d="M1123.84 357.73L984.96 500.47" stroke="#132e65" stroke-width="1.5"></path><path d="M1123.12 517.66L1123.12 517.66" stroke="#132e65" stroke-width="1.5"></path><path d="M1123.12 517.66L984.96 500.47" stroke="#132e65" stroke-width="1.5"></path><path d="M1123.12 517.66L1284.97 508.35" stroke="#132e65" stroke-width="1.5"></path><path d="M1123.12 517.66L1150.7 693.86" stroke="#132e65" stroke-width="1.5"></path><path d="M1123.12 517.66L989.29 677.25" stroke="#132e65" stroke-width="1.5"></path><path d="M1123.12 517.66L949.15 375.89" stroke="#132e65" stroke-width="1.5"></path><path d="M1150.7 693.86L1150.7 693.86" stroke="#132e65" stroke-width="1.5"></path><path d="M1150.7 693.86L1281.07 705.36" stroke="#132e65" stroke-width="1.5"></path><path d="M1303.9 -65.4L1303.9 -65.4" stroke="#132e65" stroke-width="1.5"></path><path d="M1303.9 -65.4L1397.03 -90.05" stroke="#132e65" stroke-width="1.5"></path><path d="M1303.9 -65.4L1243.93 38.13" stroke="#132e65" stroke-width="1.5"></path><path d="M1303.9 -65.4L1107.53 -87.6" stroke="#132e65" stroke-width="1.5"></path><path d="M1303.9 -65.4L1414.42 100.65" stroke="#132e65" stroke-width="1.5"></path><path d="M1303.9 -65.4L1150.37 73.55" stroke="#132e65" stroke-width="1.5"></path><path d="M1243.93 38.13L1243.93 38.13" stroke="#132e65" stroke-width="1.5"></path><path d="M1243.93 38.13L1414.42 100.65" stroke="#132e65" stroke-width="1.5"></path><path d="M1243.93 38.13L1107.53 -87.6" stroke="#132e65" stroke-width="1.5"></path><path d="M1243.93 38.13L1397.03 -90.05" stroke="#132e65" stroke-width="1.5"></path><path d="M1249.57 246.14L1249.57 246.14" stroke="#132e65" stroke-width="1.5"></path><path d="M1249.57 246.14L1305.44 386.41" stroke="#132e65" stroke-width="1.5"></path><path d="M1305.44 386.41L1305.44 386.41" stroke="#132e65" stroke-width="1.5"></path><path d="M1305.44 386.41L1284.97 508.35" stroke="#132e65" stroke-width="1.5"></path><path d="M1305.44 386.41L1450.42 398.56" stroke="#132e65" stroke-width="1.5"></path><path d="M1305.44 386.41L1404.99 526.4" stroke="#132e65" stroke-width="1.5"></path><path d="M1284.97 508.35L1284.97 508.35" stroke="#132e65" stroke-width="1.5"></path><path d="M1284.97 508.35L1404.99 526.4" stroke="#132e65" stroke-width="1.5"></path><path d="M1281.07 705.36L1281.07 705.36" stroke="#132e65" stroke-width="1.5"></path><path d="M1281.07 705.36L1424.15 648.81" stroke="#132e65" stroke-width="1.5"></path><path d="M1281.07 705.36L1284.97 508.35" stroke="#132e65" stroke-width="1.5"></path><path d="M1397.03 -90.05L1397.03 -90.05" stroke="#132e65" stroke-width="1.5"></path><path d="M1397.03 -90.05L1563.11 -100.22" stroke="#132e65" stroke-width="1.5"></path><path d="M1414.42 100.65L1414.42 100.65" stroke="#132e65" stroke-width="1.5"></path><path d="M1414.42 100.65L1454.63 196.43" stroke="#132e65" stroke-width="1.5"></path><path d="M1414.42 100.65L1598.89 110.46" stroke="#132e65" stroke-width="1.5"></path><path d="M1454.63 196.43L1454.63 196.43" stroke="#132e65" stroke-width="1.5"></path><path d="M1454.63 196.43L1547.86 261" stroke="#132e65" stroke-width="1.5"></path><path d="M1454.63 196.43L1598.89 110.46" stroke="#132e65" stroke-width="1.5"></path><path d="M1454.63 196.43L1450.42 398.56" stroke="#132e65" stroke-width="1.5"></path><path d="M1450.42 398.56L1450.42 398.56" stroke="#132e65" stroke-width="1.5"></path><path d="M1450.42 398.56L1568.71 398.35" stroke="#132e65" stroke-width="1.5"></path><path d="M1450.42 398.56L1404.99 526.4" stroke="#132e65" stroke-width="1.5"></path><path d="M1404.99 526.4L1404.99 526.4" stroke="#132e65" stroke-width="1.5"></path><path d="M1404.99 526.4L1424.15 648.81" stroke="#132e65" stroke-width="1.5"></path><path d="M1404.99 526.4L1553.09 505.11" stroke="#132e65" stroke-width="1.5"></path><path d="M1424.15 648.81L1424.15 648.81" stroke="#132e65" stroke-width="1.5"></path><path d="M1424.15 648.81L1567.1 650.11" stroke="#132e65" stroke-width="1.5"></path><path d="M1424.15 648.81L1553.09 505.11" stroke="#132e65" stroke-width="1.5"></path><path d="M1424.15 648.81L1284.97 508.35" stroke="#132e65" stroke-width="1.5"></path><path d="M1563.11 -100.22L1563.11 -100.22" stroke="#132e65" stroke-width="1.5"></path><path d="M1563.11 -100.22L1598.89 110.46" stroke="#132e65" stroke-width="1.5"></path><path d="M1563.11 -100.22L1414.42 100.65" stroke="#132e65" stroke-width="1.5"></path><path d="M1598.89 110.46L1598.89 110.46" stroke="#132e65" stroke-width="1.5"></path><path d="M1598.89 110.46L1547.86 261" stroke="#132e65" stroke-width="1.5"></path><path d="M1598.89 110.46L1397.03 -90.05" stroke="#132e65" stroke-width="1.5"></path><path d="M1598.89 110.46L1568.71 398.35" stroke="#132e65" stroke-width="1.5"></path><path d="M1547.86 261L1547.86 261" stroke="#132e65" stroke-width="1.5"></path><path d="M1547.86 261L1568.71 398.35" stroke="#132e65" stroke-width="1.5"></path><path d="M1568.71 398.35L1568.71 398.35" stroke="#132e65" stroke-width="1.5"></path><path d="M1568.71 398.35L1553.09 505.11" stroke="#132e65" stroke-width="1.5"></path><path d="M1553.09 505.11L1553.09 505.11" stroke="#132e65" stroke-width="1.5"></path><path d="M1553.09 505.11L1567.1 650.11" stroke="#132e65" stroke-width="1.5"></path><path d="M1567.1 650.11L1567.1 650.11" stroke="#132e65" stroke-width="1.5"></path><path d="M1567.1 650.11L1404.99 526.4" stroke="#132e65" stroke-width="1.5"></path><path d="M1567.1 650.11L1568.71 398.35" stroke="#132e65" stroke-width="1.5"></path><path d="M1567.1 650.11L1450.42 398.56" stroke="#132e65" stroke-width="1.5"></path><path d="M1567.1 650.11L1281.07 705.36" stroke="#132e65" stroke-width="1.5"></path><circle r="5" cx="-91.92" cy="406.31" fill="#132e65"></circle><circle r="5" cx="-63.75" cy="503.03" fill="#132e65"></circle><circle r="5" cx="86.43" cy="387.81" fill="#132e65"></circle><circle r="5" cx="56.34" cy="543.75" fill="#132e65"></circle><circle r="5" cx="77.67" cy="702.98" fill="#132e65"></circle><circle r="5" cx="188.07" cy="387.8" fill="#132e65"></circle><circle r="5" cx="209.44" cy="705.87" fill="#132e65"></circle><circle r="5" cx="389.43" cy="411" fill="#132e65"></circle><circle r="5" cx="520.96" cy="346.58" fill="#132e65"></circle><circle r="5" cx="487.74" cy="496.22" fill="#132e65"></circle><circle r="5" cx="517.69" cy="643.4" fill="#132e65"></circle><circle r="5" cx="665.09" cy="371.16" fill="#132e65"></circle><circle r="5" cx="685.32" cy="558.14" fill="#132e65"></circle><circle r="5" cx="710.11" cy="655.13" fill="#132e65"></circle><circle r="5" cx="794.93" cy="222.64" fill="#132e65"></circle><circle r="5" cx="831.97" cy="546.28" fill="#132e65"></circle><circle r="5" cx="825.07" cy="683.7" fill="#132e65"></circle><circle r="5" cx="945.82" cy="-105.06" fill="#132e65"></circle><circle r="5" cx="965.16" cy="61.43" fill="#132e65"></circle><circle r="5" cx="953.25" cy="221" fill="#132e65"></circle><circle r="5" cx="949.15" cy="375.89" fill="#132e65"></circle><circle r="5" cx="984.96" cy="500.47" fill="#132e65"></circle><circle r="5" cx="989.29" cy="677.25" fill="#132e65"></circle><circle r="5" cx="1107.53" cy="-87.6" fill="#132e65"></circle><circle r="5" cx="1150.37" cy="73.55" fill="#132e65"></circle><circle r="5" cx="1114.65" cy="218.38" fill="#132e65"></circle><circle r="5" cx="1123.84" cy="357.73" fill="#132e65"></circle><circle r="5" cx="1123.12" cy="517.66" fill="#132e65"></circle><circle r="5" cx="1150.7" cy="693.86" fill="#132e65"></circle><circle r="5" cx="1303.9" cy="-65.4" fill="#132e65"></circle><circle r="5" cx="1243.93" cy="38.13" fill="#132e65"></circle><circle r="5" cx="1249.57" cy="246.14" fill="#132e65"></circle><circle r="5" cx="1305.44" cy="386.41" fill="#132e65"></circle><circle r="5" cx="1284.97" cy="508.35" fill="#132e65"></circle><circle r="5" cx="1281.07" cy="705.36" fill="#132e65"></circle><circle r="5" cx="1397.03" cy="-90.05" fill="#132e65"></circle><circle r="5" cx="1414.42" cy="100.65" fill="#132e65"></circle><circle r="5" cx="1454.63" cy="196.43" fill="#132e65"></circle><circle r="5" cx="1450.42" cy="398.56" fill="#132e65"></circle><circle r="5" cx="1404.99" cy="526.4" fill="#132e65"></circle><circle r="5" cx="1424.15" cy="648.81" fill="#132e65"></circle><circle r="5" cx="1563.11" cy="-100.22" fill="#132e65"></circle><circle r="5" cx="1598.89" cy="110.46" fill="#132e65"></circle><circle r="5" cx="1547.86" cy="261" fill="#132e65"></circle><circle r="5" cx="1568.71" cy="398.35" fill="#132e65"></circle><circle r="5" cx="1553.09" cy="505.11" fill="#132e65"></circle><circle r="5" cx="1567.1" cy="650.11" fill="#132e65"></circle><path d="M-47.21 552.63L-47.21 552.63" stroke="hsl(228.5, 77.2%, 51.5%)" stroke-width="1.5"></path><path d="M-47.21 552.63L49.86 501.66" stroke="hsl(228.5, 77.2%, 51.5%)" stroke-width="1.5"></path><path d="M-47.21 552.63L-86.18 698.07" stroke="hsl(228.5, 77.2%, 51.5%)" stroke-width="1.5"></path><path d="M49.86 501.66L49.86 501.66" stroke="hsl(228.5, 77.2%, 51.5%)" stroke-width="1.5"></path><path d="M49.86 501.66L227.62 515.36" stroke="hsl(228.5, 77.2%, 51.5%)" stroke-width="1.5"></path><path d="M49.86 501.66L38.65 700.27" stroke="hsl(228.5, 77.2%, 51.5%)" stroke-width="1.5"></path><path d="M49.86 501.66L-86.18 698.07" stroke="hsl(228.5, 77.2%, 51.5%)" stroke-width="1.5"></path><path d="M204.99 684.91L204.99 684.91" stroke="hsl(228.5, 77.2%, 51.5%)" stroke-width="1.5"></path><path d="M204.99 684.91L38.65 700.27" stroke="hsl(228.5, 77.2%, 51.5%)" stroke-width="1.5"></path><path d="M204.99 684.91L372.54 696.21" stroke="hsl(228.5, 77.2%, 51.5%)" stroke-width="1.5"></path><path d="M204.99 684.91L227.62 515.36" stroke="hsl(228.5, 77.2%, 51.5%)" stroke-width="1.5"></path><path d="M401.55 534.31L401.55 534.31" stroke="hsl(228.5, 77.2%, 51.5%)" stroke-width="1.5"></path><path d="M401.55 534.31L503.58 501.92" stroke="hsl(228.5, 77.2%, 51.5%)" stroke-width="1.5"></path><path d="M401.55 534.31L372.54 696.21" stroke="hsl(228.5, 77.2%, 51.5%)" stroke-width="1.5"></path><path d="M401.55 534.31L487.6 677.41" stroke="hsl(228.5, 77.2%, 51.5%)" stroke-width="1.5"></path><path d="M503.58 501.92L503.58 501.92" stroke="hsl(228.5, 77.2%, 51.5%)" stroke-width="1.5"></path><path d="M503.58 501.92L647.27 515.16" stroke="hsl(228.5, 77.2%, 51.5%)" stroke-width="1.5"></path><path d="M503.58 501.92L487.6 677.41" stroke="hsl(228.5, 77.2%, 51.5%)" stroke-width="1.5"></path><path d="M503.58 501.92L687.33 382.88" stroke="hsl(228.5, 77.2%, 51.5%)" stroke-width="1.5"></path><path d="M503.58 501.92L372.54 696.21" stroke="hsl(228.5, 77.2%, 51.5%)" stroke-width="1.5"></path><path d="M487.6 677.41L487.6 677.41" stroke="hsl(228.5, 77.2%, 51.5%)" stroke-width="1.5"></path><path d="M487.6 677.41L372.54 696.21" stroke="hsl(228.5, 77.2%, 51.5%)" stroke-width="1.5"></path><path d="M707.39 691.86L707.39 691.86" stroke="hsl(228.5, 77.2%, 51.5%)" stroke-width="1.5"></path><path d="M707.39 691.86L790.6 668.79" stroke="hsl(228.5, 77.2%, 51.5%)" stroke-width="1.5"></path><path d="M707.39 691.86L647.27 515.16" stroke="hsl(228.5, 77.2%, 51.5%)" stroke-width="1.5"></path><path d="M790.6 668.79L790.6 668.79" stroke="hsl(228.5, 77.2%, 51.5%)" stroke-width="1.5"></path><path d="M790.6 668.79L794.58 507.9" stroke="hsl(228.5, 77.2%, 51.5%)" stroke-width="1.5"></path><path d="M790.6 668.79L986.69 664.14" stroke="hsl(228.5, 77.2%, 51.5%)" stroke-width="1.5"></path><path d="M790.6 668.79L647.27 515.16" stroke="hsl(228.5, 77.2%, 51.5%)" stroke-width="1.5"></path><path d="M790.6 668.79L948.12 522" stroke="hsl(228.5, 77.2%, 51.5%)" stroke-width="1.5"></path><path d="M1091.88 515.92L1091.88 515.92" stroke="hsl(228.5, 77.2%, 51.5%)" stroke-width="1.5"></path><path d="M1091.88 515.92L948.12 522" stroke="hsl(228.5, 77.2%, 51.5%)" stroke-width="1.5"></path><path d="M1091.88 515.92L1106.48 350.54" stroke="hsl(228.5, 77.2%, 51.5%)" stroke-width="1.5"></path><path d="M1265.17 -103.79L1265.17 -103.79" stroke="hsl(228.5, 77.2%, 51.5%)" stroke-width="1.5"></path><path d="M1265.17 -103.79L1404.4 -72.79" stroke="hsl(228.5, 77.2%, 51.5%)" stroke-width="1.5"></path><path d="M1265.17 -103.79L1241.65 67.39" stroke="hsl(228.5, 77.2%, 51.5%)" stroke-width="1.5"></path><path d="M1265.17 -103.79L1405.99 74.84" stroke="hsl(228.5, 77.2%, 51.5%)" stroke-width="1.5"></path><path d="M1265.17 -103.79L1121.41 110.69" stroke="hsl(228.5, 77.2%, 51.5%)" stroke-width="1.5"></path><path d="M1265.17 -103.79L1580.36 -112.18" stroke="hsl(228.5, 77.2%, 51.5%)" stroke-width="1.5"></path><path d="M1265.17 -103.79L1436.62 193.72" stroke="hsl(228.5, 77.2%, 51.5%)" stroke-width="1.5"></path><path d="M1241.65 67.39L1241.65 67.39" stroke="hsl(228.5, 77.2%, 51.5%)" stroke-width="1.5"></path><path d="M1241.65 67.39L1121.41 110.69" stroke="hsl(228.5, 77.2%, 51.5%)" stroke-width="1.5"></path><path d="M1241.65 67.39L1405.99 74.84" stroke="hsl(228.5, 77.2%, 51.5%)" stroke-width="1.5"></path><path d="M1241.65 67.39L1298.57 243.37" stroke="hsl(228.5, 77.2%, 51.5%)" stroke-width="1.5"></path><path d="M1241.65 67.39L1087.84 214.13" stroke="hsl(228.5, 77.2%, 51.5%)" stroke-width="1.5"></path><path d="M1453.07 363.04L1453.07 363.04" stroke="hsl(228.5, 77.2%, 51.5%)" stroke-width="1.5"></path><path d="M1453.07 363.04L1436.62 193.72" stroke="hsl(228.5, 77.2%, 51.5%)" stroke-width="1.5"></path><path d="M1453.07 363.04L1452.47 553.32" stroke="hsl(228.5, 77.2%, 51.5%)" stroke-width="1.5"></path><path d="M1453.07 363.04L1298.57 243.37" stroke="hsl(228.5, 77.2%, 51.5%)" stroke-width="1.5"></path><path d="M1453.07 363.04L1552.4 538.91" stroke="hsl(228.5, 77.2%, 51.5%)" stroke-width="1.5"></path><path d="M1580.36 -112.18L1580.36 -112.18" stroke="hsl(228.5, 77.2%, 51.5%)" stroke-width="1.5"></path><path d="M1580.36 -112.18L1595 42.78" stroke="hsl(228.5, 77.2%, 51.5%)" stroke-width="1.5"></path><path d="M1580.36 -112.18L1404.4 -72.79" stroke="hsl(228.5, 77.2%, 51.5%)" stroke-width="1.5"></path><path d="M1588.61 192.83L1588.61 192.83" stroke="hsl(228.5, 77.2%, 51.5%)" stroke-width="1.5"></path><path d="M1588.61 192.83L1595 42.78" stroke="hsl(228.5, 77.2%, 51.5%)" stroke-width="1.5"></path><path d="M1588.61 192.83L1436.62 193.72" stroke="hsl(228.5, 77.2%, 51.5%)" stroke-width="1.5"></path><path d="M1588.61 192.83L1405.99 74.84" stroke="hsl(228.5, 77.2%, 51.5%)" stroke-width="1.5"></path><path d="M1588.61 192.83L1453.07 363.04" stroke="hsl(228.5, 77.2%, 51.5%)" stroke-width="1.5"></path><path d="M1588.61 192.83L1298.57 243.37" stroke="hsl(228.5, 77.2%, 51.5%)" stroke-width="1.5"></path><path d="M1552.4 538.91L1552.4 538.91" stroke="hsl(228.5, 77.2%, 51.5%)" stroke-width="1.5"></path><path d="M1552.4 538.91L1452.47 553.32" stroke="hsl(228.5, 77.2%, 51.5%)" stroke-width="1.5"></path><path d="M1552.4 538.91L1584.42 641.4" stroke="hsl(228.5, 77.2%, 51.5%)" stroke-width="1.5"></path><path d="M1552.4 538.91L1432.51 657.88" stroke="hsl(228.5, 77.2%, 51.5%)" stroke-width="1.5"></path><path d="M-86.18 698.07L-86.18 698.07" stroke="hsl(228.5, 77.2%, 51.5%)" stroke-width="1.5"></path><path d="M-86.18 698.07L38.65 700.27" stroke="hsl(228.5, 77.2%, 51.5%)" stroke-width="1.5"></path><path d="M38.65 700.27L38.65 700.27" stroke="hsl(228.5, 77.2%, 51.5%)" stroke-width="1.5"></path><path d="M38.65 700.27L-47.21 552.63" stroke="hsl(228.5, 77.2%, 51.5%)" stroke-width="1.5"></path><path d="M38.65 700.27L227.62 515.36" stroke="hsl(228.5, 77.2%, 51.5%)" stroke-width="1.5"></path><path d="M227.62 515.36L227.62 515.36" stroke="hsl(228.5, 77.2%, 51.5%)" stroke-width="1.5"></path><path d="M227.62 515.36L401.55 534.31" stroke="hsl(228.5, 77.2%, 51.5%)" stroke-width="1.5"></path><path d="M227.62 515.36L372.54 696.21" stroke="hsl(228.5, 77.2%, 51.5%)" stroke-width="1.5"></path><path d="M372.54 696.21L372.54 696.21" stroke="hsl(228.5, 77.2%, 51.5%)" stroke-width="1.5"></path><path d="M687.33 382.88L687.33 382.88" stroke="hsl(228.5, 77.2%, 51.5%)" stroke-width="1.5"></path><path d="M687.33 382.88L806.75 387.25" stroke="hsl(228.5, 77.2%, 51.5%)" stroke-width="1.5"></path><path d="M687.33 382.88L647.27 515.16" stroke="hsl(228.5, 77.2%, 51.5%)" stroke-width="1.5"></path><path d="M687.33 382.88L794.58 507.9" stroke="hsl(228.5, 77.2%, 51.5%)" stroke-width="1.5"></path><path d="M647.27 515.16L647.27 515.16" stroke="hsl(228.5, 77.2%, 51.5%)" stroke-width="1.5"></path><path d="M647.27 515.16L794.58 507.9" stroke="hsl(228.5, 77.2%, 51.5%)" stroke-width="1.5"></path><path d="M647.27 515.16L806.75 387.25" stroke="hsl(228.5, 77.2%, 51.5%)" stroke-width="1.5"></path><path d="M806.75 387.25L806.75 387.25" stroke="hsl(228.5, 77.2%, 51.5%)" stroke-width="1.5"></path><path d="M806.75 387.25L794.58 507.9" stroke="hsl(228.5, 77.2%, 51.5%)" stroke-width="1.5"></path><path d="M806.75 387.25L948.12 522" stroke="hsl(228.5, 77.2%, 51.5%)" stroke-width="1.5"></path><path d="M806.75 387.25L1008.14 353.7" stroke="hsl(228.5, 77.2%, 51.5%)" stroke-width="1.5"></path><path d="M794.58 507.9L794.58 507.9" stroke="hsl(228.5, 77.2%, 51.5%)" stroke-width="1.5"></path><path d="M794.58 507.9L948.12 522" stroke="hsl(228.5, 77.2%, 51.5%)" stroke-width="1.5"></path><path d="M794.58 507.9L707.39 691.86" stroke="hsl(228.5, 77.2%, 51.5%)" stroke-width="1.5"></path><path d="M1008.14 353.7L1008.14 353.7" stroke="hsl(228.5, 77.2%, 51.5%)" stroke-width="1.5"></path><path d="M1008.14 353.7L1106.48 350.54" stroke="hsl(228.5, 77.2%, 51.5%)" stroke-width="1.5"></path><path d="M1008.14 353.7L1087.84 214.13" stroke="hsl(228.5, 77.2%, 51.5%)" stroke-width="1.5"></path><path d="M1008.14 353.7L948.12 522" stroke="hsl(228.5, 77.2%, 51.5%)" stroke-width="1.5"></path><path d="M1008.14 353.7L1091.88 515.92" stroke="hsl(228.5, 77.2%, 51.5%)" stroke-width="1.5"></path><path d="M948.12 522L948.12 522" stroke="hsl(228.5, 77.2%, 51.5%)" stroke-width="1.5"></path><path d="M948.12 522L986.69 664.14" stroke="hsl(228.5, 77.2%, 51.5%)" stroke-width="1.5"></path><path d="M986.69 664.14L986.69 664.14" stroke="hsl(228.5, 77.2%, 51.5%)" stroke-width="1.5"></path><path d="M986.69 664.14L1127.16 694.39" stroke="hsl(228.5, 77.2%, 51.5%)" stroke-width="1.5"></path><path d="M986.69 664.14L1091.88 515.92" stroke="hsl(228.5, 77.2%, 51.5%)" stroke-width="1.5"></path><path d="M986.69 664.14L794.58 507.9" stroke="hsl(228.5, 77.2%, 51.5%)" stroke-width="1.5"></path><path d="M1121.41 110.69L1121.41 110.69" stroke="hsl(228.5, 77.2%, 51.5%)" stroke-width="1.5"></path><path d="M1121.41 110.69L1087.84 214.13" stroke="hsl(228.5, 77.2%, 51.5%)" stroke-width="1.5"></path><path d="M1121.41 110.69L1298.57 243.37" stroke="hsl(228.5, 77.2%, 51.5%)" stroke-width="1.5"></path><path d="M1121.41 110.69L1106.48 350.54" stroke="hsl(228.5, 77.2%, 51.5%)" stroke-width="1.5"></path><path d="M1087.84 214.13L1087.84 214.13" stroke="hsl(228.5, 77.2%, 51.5%)" stroke-width="1.5"></path><path d="M1087.84 214.13L1106.48 350.54" stroke="hsl(228.5, 77.2%, 51.5%)" stroke-width="1.5"></path><path d="M1106.48 350.54L1106.48 350.54" stroke="hsl(228.5, 77.2%, 51.5%)" stroke-width="1.5"></path><path d="M1106.48 350.54L1298.57 243.37" stroke="hsl(228.5, 77.2%, 51.5%)" stroke-width="1.5"></path><path d="M1106.48 350.54L948.12 522" stroke="hsl(228.5, 77.2%, 51.5%)" stroke-width="1.5"></path><path d="M1127.16 694.39L1127.16 694.39" stroke="hsl(228.5, 77.2%, 51.5%)" stroke-width="1.5"></path><path d="M1127.16 694.39L1264.64 668.21" stroke="hsl(228.5, 77.2%, 51.5%)" stroke-width="1.5"></path><path d="M1127.16 694.39L1091.88 515.92" stroke="hsl(228.5, 77.2%, 51.5%)" stroke-width="1.5"></path><path d="M1127.16 694.39L1286.28 525.08" stroke="hsl(228.5, 77.2%, 51.5%)" stroke-width="1.5"></path><path d="M1298.57 243.37L1298.57 243.37" stroke="hsl(228.5, 77.2%, 51.5%)" stroke-width="1.5"></path><path d="M1298.57 243.37L1436.62 193.72" stroke="hsl(228.5, 77.2%, 51.5%)" stroke-width="1.5"></path><path d="M1298.57 243.37L1405.99 74.84" stroke="hsl(228.5, 77.2%, 51.5%)" stroke-width="1.5"></path><path d="M1298.57 243.37L1087.84 214.13" stroke="hsl(228.5, 77.2%, 51.5%)" stroke-width="1.5"></path><path d="M1286.28 525.08L1286.28 525.08" stroke="hsl(228.5, 77.2%, 51.5%)" stroke-width="1.5"></path><path d="M1286.28 525.08L1264.64 668.21" stroke="hsl(228.5, 77.2%, 51.5%)" stroke-width="1.5"></path><path d="M1286.28 525.08L1452.47 553.32" stroke="hsl(228.5, 77.2%, 51.5%)" stroke-width="1.5"></path><path d="M1286.28 525.08L1091.88 515.92" stroke="hsl(228.5, 77.2%, 51.5%)" stroke-width="1.5"></path><path d="M1286.28 525.08L1432.51 657.88" stroke="hsl(228.5, 77.2%, 51.5%)" stroke-width="1.5"></path><path d="M1286.28 525.08L1453.07 363.04" stroke="hsl(228.5, 77.2%, 51.5%)" stroke-width="1.5"></path><path d="M1264.64 668.21L1264.64 668.21" stroke="hsl(228.5, 77.2%, 51.5%)" stroke-width="1.5"></path><path d="M1264.64 668.21L1432.51 657.88" stroke="hsl(228.5, 77.2%, 51.5%)" stroke-width="1.5"></path><path d="M1264.64 668.21L1452.47 553.32" stroke="hsl(228.5, 77.2%, 51.5%)" stroke-width="1.5"></path><path d="M1264.64 668.21L1091.88 515.92" stroke="hsl(228.5, 77.2%, 51.5%)" stroke-width="1.5"></path><path d="M1404.4 -72.79L1404.4 -72.79" stroke="hsl(228.5, 77.2%, 51.5%)" stroke-width="1.5"></path><path d="M1404.4 -72.79L1405.99 74.84" stroke="hsl(228.5, 77.2%, 51.5%)" stroke-width="1.5"></path><path d="M1405.99 74.84L1405.99 74.84" stroke="hsl(228.5, 77.2%, 51.5%)" stroke-width="1.5"></path><path d="M1405.99 74.84L1436.62 193.72" stroke="hsl(228.5, 77.2%, 51.5%)" stroke-width="1.5"></path><path d="M1405.99 74.84L1595 42.78" stroke="hsl(228.5, 77.2%, 51.5%)" stroke-width="1.5"></path><path d="M1436.62 193.72L1436.62 193.72" stroke="hsl(228.5, 77.2%, 51.5%)" stroke-width="1.5"></path><path d="M1452.47 553.32L1452.47 553.32" stroke="hsl(228.5, 77.2%, 51.5%)" stroke-width="1.5"></path><path d="M1452.47 553.32L1432.51 657.88" stroke="hsl(228.5, 77.2%, 51.5%)" stroke-width="1.5"></path><path d="M1452.47 553.32L1584.42 641.4" stroke="hsl(228.5, 77.2%, 51.5%)" stroke-width="1.5"></path><path d="M1432.51 657.88L1432.51 657.88" stroke="hsl(228.5, 77.2%, 51.5%)" stroke-width="1.5"></path><path d="M1432.51 657.88L1584.42 641.4" stroke="hsl(228.5, 77.2%, 51.5%)" stroke-width="1.5"></path><path d="M1595 42.78L1595 42.78" stroke="hsl(228.5, 77.2%, 51.5%)" stroke-width="1.5"></path><path d="M1584.42 641.4L1584.42 641.4" stroke="hsl(228.5, 77.2%, 51.5%)" stroke-width="1.5"></path><path d="M1584.42 641.4L1453.07 363.04" stroke="hsl(228.5, 77.2%, 51.5%)" stroke-width="1.5"></path><circle r="25" cx="-47.21" cy="552.63" fill="url(#SvgjsRadialGradient1001)"></circle><circle r="25" cx="49.86" cy="501.66" fill="url(#SvgjsRadialGradient1001)"></circle><circle r="25" cx="204.99" cy="684.91" fill="url(#SvgjsRadialGradient1001)"></circle><circle r="25" cx="401.55" cy="534.31" fill="url(#SvgjsRadialGradient1001)"></circle><circle r="25" cx="503.58" cy="501.92" fill="url(#SvgjsRadialGradient1001)"></circle><circle r="25" cx="487.6" cy="677.41" fill="url(#SvgjsRadialGradient1001)"></circle><circle r="25" cx="707.39" cy="691.86" fill="url(#SvgjsRadialGradient1001)"></circle><circle r="25" cx="790.6" cy="668.79" fill="url(#SvgjsRadialGradient1001)"></circle><circle r="25" cx="1091.88" cy="515.92" fill="url(#SvgjsRadialGradient1001)"></circle><circle r="25" cx="1265.17" cy="-103.79" fill="url(#SvgjsRadialGradient1001)"></circle><circle r="25" cx="1241.65" cy="67.39" fill="url(#SvgjsRadialGradient1001)"></circle><circle r="25" cx="1453.07" cy="363.04" fill="url(#SvgjsRadialGradient1001)"></circle><circle r="25" cx="1580.36" cy="-112.18" fill="url(#SvgjsRadialGradient1001)"></circle><circle r="25" cx="1588.61" cy="192.83" fill="url(#SvgjsRadialGradient1001)"></circle><circle r="25" cx="1552.4" cy="538.91" fill="url(#SvgjsRadialGradient1001)"></circle><circle r="5" cx="-86.18" cy="698.07" fill="#8b9ad9"></circle><circle r="5" cx="38.65" cy="700.27" fill="#8b9ad9"></circle><circle r="5" cx="227.62" cy="515.36" fill="#8b9ad9"></circle><circle r="5" cx="372.54" cy="696.21" fill="#8b9ad9"></circle><circle r="5" cx="687.33" cy="382.88" fill="#8b9ad9"></circle><circle r="5" cx="647.27" cy="515.16" fill="#8b9ad9"></circle><circle r="5" cx="806.75" cy="387.25" fill="#8b9ad9"></circle><circle r="5" cx="794.58" cy="507.9" fill="#8b9ad9"></circle><circle r="5" cx="1008.14" cy="353.7" fill="#8b9ad9"></circle><circle r="5" cx="948.12" cy="522" fill="#8b9ad9"></circle><circle r="5" cx="986.69" cy="664.14" fill="#8b9ad9"></circle><circle r="5" cx="1121.41" cy="110.69" fill="#8b9ad9"></circle><circle r="5" cx="1087.84" cy="214.13" fill="#8b9ad9"></circle><circle r="5" cx="1106.48" cy="350.54" fill="#8b9ad9"></circle><circle r="5" cx="1127.16" cy="694.39" fill="#8b9ad9"></circle><circle r="5" cx="1298.57" cy="243.37" fill="#8b9ad9"></circle><circle r="5" cx="1286.28" cy="525.08" fill="#8b9ad9"></circle><circle r="5" cx="1264.64" cy="668.21" fill="#8b9ad9"></circle><circle r="5" cx="1404.4" cy="-72.79" fill="#8b9ad9"></circle><circle r="5" cx="1405.99" cy="74.84" fill="#8b9ad9"></circle><circle r="5" cx="1436.62" cy="193.72" fill="#8b9ad9"></circle><circle r="5" cx="1452.47" cy="553.32" fill="#8b9ad9"></circle><circle r="5" cx="1432.51" cy="657.88" fill="#8b9ad9"></circle><circle r="5" cx="1595" cy="42.78" fill="#8b9ad9"></circle><circle r="5" cx="1584.42" cy="641.4" fill="#8b9ad9"></circle></g><defs><mask id="SvgjsMask1000"><rect width="1440" height="560" fill="#ffffff"></rect></mask><radialGradient id="SvgjsRadialGradient1001"><stop stop-color="#ffffff" offset="0.1"></stop><stop stop-color="#1735b3" offset="0.2"></stop><stop stop-color="rgba(23, 53, 179, 0)" offset="1"></stop></radialGradient></defs></svg>