<svg width="16" height="16" viewBox="0 0 16 16" fill="none" xmlns="http://www.w3.org/2000/svg">
<rect width="16" height="16" fill="white" style="mix-blend-mode:multiply"/>
<path d="M12.4004 6.0681C12.3036 5.6215 12.1384 5.19254 11.9107 4.7964L15 1.7071L14.2936 1L1 14.2936L1.7071 15L4.2071 12.5H11.75C12.5553 12.5003 13.3319 12.2016 13.9294 11.6617C14.5269 11.1218 14.9025 10.3793 14.9836 9.57815C15.0646 8.77698 14.8451 7.97428 14.3679 7.32572C13.8906 6.67717 13.1894 6.22898 12.4004 6.0681ZM11.75 11.5H5.20705L11.1709 5.53615C11.3246 5.86343 11.4259 6.21282 11.4712 6.57155L11.5205 6.97755L11.9282 7.0095C12.5075 7.05532 13.0466 7.32362 13.4324 7.75816C13.8183 8.19271 14.0209 8.75975 13.9979 9.34042C13.9748 9.92109 13.7279 10.4703 13.3088 10.8729C12.8898 11.2755 12.3311 11.5002 11.75 11.5Z" fill="#FA4D56"/>
<path d="M2.1482 11.7243L2.86385 11.0088C2.50694 10.7311 2.24251 10.3518 2.10538 9.92082C1.96825 9.48988 1.96485 9.02751 2.09563 8.59459C2.22641 8.16168 2.48523 7.77852 2.83802 7.49558C3.19081 7.21263 3.62102 7.04317 4.072 7.0095L4.47975 6.97755L4.5293 6.57155C4.60021 5.98852 4.81697 5.43278 5.15955 4.95572C5.50212 4.47865 5.95945 4.09566 6.48925 3.84215C7.01904 3.58864 7.6042 3.47279 8.19063 3.50533C8.77705 3.53787 9.3458 3.71774 9.8443 4.0283L10.5659 3.3069C9.95698 2.88252 9.25246 2.61558 8.51524 2.52993C7.77802 2.44428 7.03106 2.5426 6.34111 2.81609C5.65116 3.08958 5.03971 3.52972 4.56138 4.0972C4.08306 4.66468 3.75276 5.34181 3.6 6.0681C3.00275 6.18916 2.45167 6.47598 2.00986 6.8957C1.56805 7.31542 1.25338 7.85108 1.10188 8.44135C0.950372 9.03161 0.968163 9.6526 1.15321 10.2332C1.33826 10.8138 1.68309 11.3306 2.1482 11.7243Z" fill="#FA4D56"/>
</svg>
