<svg width="16" height="16" viewBox="0 0 16 16"  xmlns="http://www.w3.org/2000/svg">
<rect width="16" height="16"  />
<path d="M5.80478 14.96C5.70245 14.9168 5.61742 14.8408 5.5631 14.7439C5.50878 14.647 5.48826 14.5348 5.50478 14.425L6.41478 8.5H3.99978C3.92321 8.50206 3.8472 8.48651 3.7776 8.45453C3.70801 8.42256 3.64668 8.37503 3.59837 8.3156C3.55005 8.25617 3.51603 8.18644 3.49894 8.11178C3.48185 8.03712 3.48213 7.95953 3.49978 7.885L4.99978 1.385C5.02617 1.27314 5.0903 1.17378 5.18137 1.10366C5.27243 1.03354 5.38488 0.996932 5.49978 1H10.4998C10.5745 0.999749 10.6483 1.01624 10.7158 1.04825C10.7833 1.08026 10.8427 1.12699 10.8898 1.185C10.9375 1.24367 10.9713 1.3124 10.9886 1.38601C11.0059 1.45963 11.0063 1.53621 10.9898 1.61L10.1248 5.5H12.4998C12.5935 5.49982 12.6854 5.52597 12.7649 5.57547C12.8445 5.62498 12.9085 5.69585 12.9498 5.78C12.9856 5.86077 12.9994 5.94959 12.9897 6.03742C12.9801 6.12525 12.9473 6.20895 12.8948 6.28L6.39478 14.78C6.35085 14.8451 6.29219 14.899 6.22356 14.9372C6.15494 14.9754 6.07827 14.9969 5.99978 15C5.93287 14.9988 5.86677 14.9852 5.80478 14.96ZM8.87478 6.5L9.87478 2H5.89978L4.62978 7.5H7.58478L6.78978 12.64L11.4998 6.5H8.87478Z" />
</svg>
