<svg width="16" height="16" viewBox="0 0 16 16" fill="none" xmlns="http://www.w3.org/2000/svg">
<rect width="16" height="16"  style="mix-blend-mode:multiply"/>
<path d="M8 8H2V9H8V8Z" fill="#57E5E5"/>
<path d="M6 5.5H1V6.5H6V5.5Z" fill="#57E5E5"/>
<path d="M14.9594 8.3032L13.4594 4.8032C13.421 4.71319 13.357 4.63646 13.2753 4.58256C13.1936 4.52865 13.0979 4.49994 13 4.5H11.5V3.5C11.5 3.36739 11.4473 3.24021 11.3536 3.14645C11.2598 3.05268 11.1326 3 11 3H3V4H10.5V10.2781C10.2722 10.4104 10.0728 10.5865 9.91339 10.7962C9.75395 11.0059 9.6376 11.2451 9.57105 11.5H6.42895C6.30725 11.0287 6.01784 10.6179 5.61495 10.3447C5.21206 10.0715 4.72336 9.9546 4.24045 10.0159C3.75754 10.0773 3.31358 10.3126 2.99179 10.6779C2.66999 11.0431 2.49246 11.5132 2.49246 12C2.49246 12.4868 2.66999 12.9569 2.99179 13.3221C3.31358 13.6874 3.75754 13.9227 4.24045 13.9841C4.72336 14.0454 5.21206 13.9285 5.61495 13.6553C6.01784 13.3821 6.30725 12.9713 6.42895 12.5H9.57105C9.68007 12.9289 9.92892 13.3092 10.2783 13.5808C10.6276 13.8525 11.0575 13.9999 11.5 13.9999C11.9425 13.9999 12.3724 13.8525 12.7217 13.5808C13.0711 13.3092 13.3199 12.9289 13.429 12.5H14.5C14.6326 12.5 14.7598 12.4473 14.8536 12.3536C14.9473 12.2598 15 12.1326 15 12V8.5C15 8.43233 14.9862 8.36537 14.9594 8.3032ZM4.5 13C4.30222 13 4.10888 12.9414 3.94443 12.8315C3.77998 12.7216 3.65181 12.5654 3.57612 12.3827C3.50043 12.2 3.48063 11.9989 3.51921 11.8049C3.5578 11.6109 3.65304 11.4327 3.79289 11.2929C3.93275 11.153 4.11093 11.0578 4.30491 11.0192C4.49889 10.9806 4.69996 11.0004 4.88268 11.0761C5.06541 11.1518 5.22159 11.28 5.33147 11.4444C5.44135 11.6089 5.5 11.8022 5.5 12C5.4997 12.2651 5.39424 12.5193 5.20677 12.7068C5.0193 12.8942 4.76512 12.9997 4.5 13ZM11.5 5.5H12.6704L13.742 8H11.5V5.5ZM11.5 13C11.3022 13 11.1089 12.9414 10.9444 12.8315C10.78 12.7216 10.6518 12.5654 10.5761 12.3827C10.5004 12.2 10.4806 11.9989 10.5192 11.8049C10.5578 11.6109 10.653 11.4327 10.7929 11.2929C10.9327 11.153 11.1109 11.0578 11.3049 11.0192C11.4989 10.9806 11.7 11.0004 11.8827 11.0761C12.0654 11.1518 12.2216 11.28 12.3315 11.4444C12.4414 11.6089 12.5 11.8022 12.5 12C12.4997 12.2651 12.3942 12.5193 12.2068 12.7068C12.0193 12.8942 11.7651 12.9997 11.5 13ZM14 11.5H13.429C13.3188 11.0717 13.0696 10.6921 12.7206 10.4207C12.3715 10.1492 11.9422 10.0013 11.5 10V9H14V11.5Z" fill="#57E5E5"/>
</svg>
