<svg width="20" height="20" viewBox="0 0 20 20" fill="none" xmlns="http://www.w3.org/2000/svg">
<rect width="20" height="20" fill="transparent" style="mix-blend-mode:multiply"/>
<path d="M10 5C9.38194 5 8.77775 5.18328 8.26385 5.52666C7.74994 5.87004 7.3494 6.3581 7.11288 6.92911C6.87636 7.50013 6.81447 8.12847 6.93505 8.73466C7.05563 9.34085 7.35326 9.89767 7.7903 10.3347C8.22733 10.7717 8.78416 11.0694 9.39035 11.19C9.99654 11.3105 10.6249 11.2486 11.1959 11.0121C11.7669 10.7756 12.255 10.3751 12.5983 9.86116C12.9417 9.34725 13.125 8.74307 13.125 8.125C13.125 7.2962 12.7958 6.50134 12.2097 5.91529C11.6237 5.32924 10.8288 5 10 5ZM10 10C9.62916 10 9.26665 9.89003 8.95831 9.68401C8.64997 9.47798 8.40964 9.18514 8.26773 8.84253C8.12581 8.49992 8.08868 8.12292 8.16103 7.75921C8.23338 7.39549 8.41195 7.0614 8.67418 6.79917C8.9364 6.53695 9.2705 6.35837 9.63421 6.28603C9.99792 6.21368 10.3749 6.25081 10.7175 6.39273C11.0601 6.53464 11.353 6.77496 11.559 7.08331C11.765 7.39165 11.875 7.75416 11.875 8.125C11.8744 8.62211 11.6767 9.09869 11.3252 9.4502C10.9737 9.80171 10.4971 9.99944 10 10Z" fill="#F4F4F4"/>
<path d="M10 1.25C8.26942 1.25 6.57769 1.76318 5.13876 2.72464C3.69983 3.6861 2.57832 5.05267 1.91606 6.65152C1.25379 8.25037 1.08051 10.0097 1.41813 11.707C1.75575 13.4044 2.58911 14.9635 3.81282 16.1872C5.03653 17.4109 6.59563 18.2442 8.29296 18.5819C9.9903 18.9195 11.7496 18.7462 13.3485 18.0839C14.9473 17.4217 16.3139 16.3002 17.2754 14.8612C18.2368 13.4223 18.75 11.7306 18.75 10C18.7474 7.68016 17.8247 5.45608 16.1843 3.8157C14.5439 2.17533 12.3198 1.25261 10 1.25ZM6.25 16.4853V15.625C6.25055 15.1279 6.44827 14.6513 6.79978 14.2998C7.15129 13.9483 7.62789 13.7505 8.125 13.75H11.875C12.3721 13.7505 12.8487 13.9483 13.2002 14.2998C13.5517 14.6513 13.7495 15.1279 13.75 15.625V16.4853C12.612 17.1498 11.3178 17.5 10 17.5C8.68218 17.5 7.38802 17.1498 6.25 16.4853ZM14.9953 15.5786C14.9829 14.7588 14.6488 13.9766 14.0652 13.4008C13.4815 12.8249 12.6949 12.5014 11.875 12.5H8.125C7.30507 12.5014 6.5185 12.8249 5.93483 13.4008C5.35116 13.9766 5.01712 14.7588 5.00469 15.5786C3.87129 14.5666 3.07202 13.2342 2.71271 11.7578C2.3534 10.2814 2.451 8.73071 2.99259 7.31104C3.53418 5.89136 4.4942 4.66967 5.74555 3.80773C6.99689 2.94579 8.48053 2.48427 10 2.48427C11.5195 2.48427 13.0031 2.94579 14.2545 3.80773C15.5058 4.66967 16.4658 5.89136 17.0074 7.31104C17.549 8.73071 17.6466 10.2814 17.2873 11.7578C16.928 13.2342 16.1287 14.5666 14.9953 15.5786Z" fill="#F4F4F4"/>
</svg>
