<svg width="32" height="46" viewBox="0 0 32 46" fill="none" xmlns="http://www.w3.org/2000/svg">
<path d="M21.7368 3H10.2633C5.31975 3 1.5594 7.43892 2.3721 12.3152L4.03875 22.3152C4.68166 26.1727 8.01919 29 11.9299 29H20.0701C23.9808 29 27.3184 26.1727 27.9613 22.3152L29.628 12.3152C30.4407 7.43895 26.6803 3 21.7368 3Z" fill="#161616" stroke="#842BDD" stroke-width="2"/>
<path d="M13.4307 23.9543C13.3087 23.9049 13.2073 23.818 13.1426 23.7073C13.0778 23.5966 13.0533 23.4684 13.073 23.3429L14.1579 16.5715H11.2788C11.1875 16.5739 11.0969 16.5561 11.0139 16.5196C10.931 16.483 10.8579 16.4287 10.8003 16.3608C10.7427 16.2929 10.7021 16.2132 10.6817 16.1278C10.6613 16.0425 10.6617 15.9539 10.6827 15.8687L12.471 8.4402C12.5025 8.31235 12.5789 8.19881 12.6875 8.11867C12.796 8.03853 12.9301 7.99669 13.0671 8.0002H19.028C19.117 7.99991 19.205 8.01875 19.2855 8.05534C19.3659 8.09193 19.4368 8.14533 19.4929 8.21163C19.5498 8.27868 19.5901 8.35722 19.6108 8.44135C19.6314 8.52548 19.6319 8.61301 19.6121 8.69734L18.5809 13.143H21.4123C21.5241 13.1428 21.6336 13.1727 21.7284 13.2292C21.8233 13.2858 21.8997 13.3668 21.9488 13.463C21.9915 13.5553 22.008 13.6568 21.9964 13.7572C21.9849 13.8576 21.9459 13.9532 21.8832 14.0344L14.1341 23.7486C14.0817 23.823 14.0118 23.8845 13.93 23.9282C13.8481 23.9719 13.7567 23.9965 13.6632 24C13.5834 23.9986 13.5046 23.9831 13.4307 23.9543ZM17.0907 14.2858L18.2829 9.14305H13.5439L12.0299 15.4287H15.5528L14.605 21.3029L20.2202 14.2858H17.0907Z" fill="#842BDD"/>
<path d="M16.5 36L13.4689 30.75L19.5311 30.75L16.5 36Z" fill="#842BDD"/>
</svg>
