<svg width="32" height="46" viewBox="0 0 32 46" fill="none" xmlns="http://www.w3.org/2000/svg">
<path d="M15.5 36L12.4689 30.75L18.5311 30.75L15.5 36Z" fill="#42BE65"/>
<path d="M21.7368 3H10.2632C5.31974 3 1.55939 7.43892 2.37209 12.3152L4.03874 22.3152C4.68166 26.1727 8.01918 29 11.9299 29H20.0701C23.9808 29 27.3183 26.1727 27.9613 22.3152L29.628 12.3152C30.4407 7.43895 26.6803 3 21.7368 3Z" fill="#161616" stroke="#42BE65" stroke-width="2"/>
<g clip-path="url(#clip0_1394_101054)">
<path d="M23.5142 12.0234H21.2525C20.9842 12.0234 20.7659 12.2315 20.7659 12.4887V16.3609C20.7659 16.6175 20.9835 16.8262 21.2525 16.8262C21.5215 16.8262 21.7391 16.6182 21.7391 16.3609V12.954H23.0276V22.0666L9.98907 21.9695L9.9724 20.0286C9.97385 17.2375 12.3486 14.9664 15.2673 14.9664C18.1859 14.9664 20.5622 17.2382 20.5622 20.03C20.5622 20.2865 20.7797 20.4953 21.0487 20.4953C21.3178 20.4953 21.5353 20.2872 21.5353 20.03C21.5353 18.4288 20.8834 16.9233 19.6993 15.7916C18.6355 14.7743 17.2563 14.1683 15.7734 14.0552L15.6335 13.6482L15.6291 13.6343C16.6987 13.5622 17.5442 12.7106 17.5442 11.6691C17.5442 11.5859 17.5384 11.5033 17.5282 11.4222C17.4195 12.1552 16.761 12.719 15.9649 12.719C15.0925 12.719 14.3855 12.0428 14.3855 11.2086C14.3855 10.4472 14.9751 9.81758 15.7415 9.71356C15.6567 9.70316 15.5711 9.6983 15.4834 9.6983C14.3449 9.6983 13.4226 10.5804 13.4226 11.6691C13.4226 12.574 14.0607 13.3361 14.9301 13.5677L14.9025 13.6482L14.7626 14.0552C13.279 14.1676 11.9005 14.7743 10.8367 15.7916C9.65189 16.924 9 18.4288 9 20.03C9 20.0314 9 20.0327 9 20.0334L9.0203 22.4335C9.02248 22.6873 9.23712 22.8925 9.50251 22.8946L23.5098 22.9993C23.5098 22.9993 23.512 22.9993 23.5134 22.9993C23.6418 22.9993 23.7651 22.9508 23.8557 22.8641C23.9478 22.7767 23.9993 22.6581 23.9993 22.534V12.4887C23.9993 12.2322 23.7817 12.0234 23.5127 12.0234H23.5142Z" fill="#42BE65"/>
<path d="M22.6252 10.4756C22.9268 10.3668 23.1414 10.0887 23.1414 9.76208C23.1414 9.72949 23.1393 9.69759 23.1349 9.66639C23.0929 9.95001 22.8383 10.1677 22.5302 10.1677C22.193 10.1677 21.9189 9.90632 21.9189 9.58317C21.9189 9.28846 22.1466 9.04506 22.4431 9.00484C22.4105 9.00068 22.3772 8.9986 22.3431 8.9986C21.9029 8.9986 21.5462 9.33977 21.5462 9.76069C21.5462 10.0935 21.7695 10.3772 22.0813 10.4805C21.449 10.6081 20.9748 11.1441 20.9748 11.7863H23.7658C23.7658 11.1323 23.2734 10.588 22.6237 10.4743L22.6252 10.4756Z" fill="#42BE65"/>
</g>
<defs>
<clipPath id="clip0_1394_101054">
<rect width="15" height="14" fill="white" transform="translate(9 9)"/>
</clipPath>
</defs>
</svg>
