<svg width="32" height="46" viewBox="0 0 32 46" fill="none" xmlns="http://www.w3.org/2000/svg">
<path d="M21.7368 3H10.2633C5.31975 3 1.5594 7.43892 2.3721 12.3152L4.03875 22.3152C4.68166 26.1727 8.01919 29 11.9299 29H20.0701C23.9808 29 27.3184 26.1727 27.9613 22.3152L29.628 12.3152C30.4407 7.43895 26.6803 3 21.7368 3Z" fill="#161616" stroke="#F1C21B" stroke-width="2"/>
<rect width="16" height="16" transform="translate(8 8)" fill="white" style="mix-blend-mode:multiply"/>
<path d="M19 15C18.2972 15.0002 17.607 15.187 17 15.5413V12.5C17 11.5717 16.6313 10.6815 15.9749 10.0251C15.3185 9.36875 14.4283 9 13.5 9C12.5717 9 11.6815 9.36875 11.0251 10.0251C10.3687 10.6815 10 11.5717 10 12.5V19.5C9.9999 20.2133 10.2178 20.9096 10.6244 21.4956C11.031 22.0816 11.607 22.5293 12.2753 22.7789C12.9435 23.0284 13.672 23.0678 14.3632 22.8917C15.0544 22.7157 15.6753 22.3327 16.1427 21.7939C16.6038 22.2654 17.1744 22.6156 17.8036 22.8132C18.4328 23.0108 19.1012 23.0497 19.7491 22.9264C20.3969 22.8031 21.0043 22.5215 21.5169 22.1066C22.0296 21.6917 22.4317 21.1565 22.6874 20.5485C22.943 19.9406 23.0444 19.2789 22.9823 18.6223C22.9203 17.9657 22.6968 17.3346 22.3317 16.7854C21.9667 16.2361 21.4715 15.7856 20.8902 15.4741C20.3089 15.1626 19.6595 14.9997 19 15V15ZM19 16C19.7083 16.0012 20.3934 16.2527 20.9342 16.7102C21.4749 17.1677 21.8365 17.8017 21.955 18.5H16.045C16.1635 17.8017 16.5251 17.1677 17.0658 16.7102C17.6066 16.2527 18.2917 16.0012 19 16ZM11 12.5C11 11.837 11.2634 11.2011 11.7322 10.7322C12.2011 10.2634 12.837 10 13.5 10C14.163 10 14.7989 10.2634 15.2678 10.7322C15.7366 11.2011 16 11.837 16 12.5V15.5H11V12.5ZM13.5 22C12.8372 21.9992 12.2018 21.7356 11.7331 21.2669C11.2644 20.7982 11.0008 20.1628 11 19.5V16.5H15.8825C15.3806 17.1219 15.0776 17.8805 15.013 18.6771C14.9484 19.4736 15.1252 20.2711 15.5204 20.9657C15.2894 21.2857 14.9859 21.5462 14.6347 21.726C14.2834 21.9058 13.8946 21.9997 13.5 22V22ZM19 22C18.2917 21.9988 17.6066 21.7473 17.0658 21.2898C16.5251 20.8323 16.1635 20.1983 16.045 19.5H21.955C21.8365 20.1983 21.4749 20.8323 20.9342 21.2898C20.3934 21.7473 19.7083 21.9988 19 22V22Z" fill="#F1C21B"/>
<path d="M16.5 36L13.4689 30.75L19.5311 30.75L16.5 36Z" fill="#F1C21B"/>
</svg>
