<svg width="32" height="46" viewBox="0 0 32 46" fill="none" xmlns="http://www.w3.org/2000/svg">
<path d="M21.7368 3H10.2632C5.31974 3 1.55939 7.43892 2.37209 12.3152L4.03874 22.3152C4.68166 26.1727 8.01918 29 11.9299 29H20.0701C23.9808 29 27.3183 26.1727 27.9613 22.3152L29.628 12.3152C30.4407 7.43895 26.6803 3 21.7368 3Z" fill="#161616" stroke="#198038" stroke-width="2"/>
<rect width="16" height="16" transform="translate(8 8)" fill="white" style="mix-blend-mode:multiply"/>
<path d="M23 13.3401L22 10.3401C21.9652 10.2366 21.8975 10.1473 21.8072 10.0859C21.7169 10.0245 21.609 9.99438 21.5 10.0001H10.5C10.391 9.99438 10.2831 10.0245 10.1928 10.0859C10.1025 10.1473 10.0348 10.2366 10 10.3401L9 13.3401C8.9928 13.3932 8.9928 13.447 9 13.5001V16.5001C9 16.6327 9.05268 16.7599 9.14645 16.8536C9.24022 16.9474 9.36739 17.0001 9.5 17.0001H10V22.0001H11V17.0001H14V22.0001H22V17.0001H22.5C22.6326 17.0001 22.7598 16.9474 22.8536 16.8536C22.9473 16.7599 23 16.6327 23 16.5001V13.5001C23.0072 13.447 23.0072 13.3932 23 13.3401V13.3401ZM21 21.0001H15V17.0001H21V21.0001ZM22 16.0001H20V14.0001H19V16.0001H16.5V14.0001H15.5V16.0001H13V14.0001H12V16.0001H10V13.5801L10.86 11.0001H21.14L22 13.5801V16.0001Z" fill="#198038"/>
<path d="M15.5 36L12.4689 30.75L18.5311 30.75L15.5 36Z" fill="#198038"/>
</svg>
